<svg width="24" height="25" viewBox="0 0 24 25" fill="none" xmlns="http://www.w3.org/2000/svg">
<path fill-rule="evenodd" clip-rule="evenodd" d="M5.45455 5.03627C5.23755 5.03627 5.02944 5.12247 4.876 5.27591C4.72256 5.42934 4.63636 5.63745 4.63636 5.85445V13.2181C4.63636 13.4351 4.72256 13.6432 4.876 13.7966C5.02944 13.9501 5.23755 14.0363 5.45455 14.0363H6.27273C6.7246 14.0363 7.09091 14.4026 7.09091 14.8544C7.09091 15.3063 6.7246 15.6726 6.27273 15.6726H5.45455C4.80356 15.6726 4.17924 15.414 3.71892 14.9537C3.2586 14.4934 3 13.8691 3 13.2181V5.85445C3 5.20346 3.2586 4.57914 3.71892 4.11882C4.17924 3.65851 4.80356 3.3999 5.45455 3.3999H12.8182C13.4692 3.3999 14.0935 3.65851 14.5538 4.11882C15.0141 4.57914 15.2727 5.20346 15.2727 5.85445V6.67263C15.2727 7.1245 14.9064 7.49081 14.4545 7.49081C14.0027 7.49081 13.6364 7.1245 13.6364 6.67263V5.85445C13.6364 5.63745 13.5502 5.42934 13.3967 5.27591C13.2433 5.12247 13.0352 5.03627 12.8182 5.03627H5.45455ZM11.1818 10.7635C10.7299 10.7635 10.3636 11.1299 10.3636 11.5817V18.9454C10.3636 19.3972 10.7299 19.7635 11.1818 19.7635H18.5455C18.9973 19.7635 19.3636 19.3972 19.3636 18.9454V11.5817C19.3636 11.1299 18.9973 10.7635 18.5455 10.7635H11.1818ZM8.72727 11.5817C8.72727 10.2261 9.82621 9.12717 11.1818 9.12717H18.5455C19.9011 9.12717 21 10.2261 21 11.5817V18.9454C21 20.301 19.9011 21.3999 18.5455 21.3999H11.1818C9.82621 21.3999 8.72727 20.301 8.72727 18.9454V11.5817Z" fill="#111111"/>
</svg>
