<svg width="380" height="220" viewBox="0 0 380 220" fill="none" xmlns="http://www.w3.org/2000/svg">
<g clip-path="url(#clip0_3_624)">
<path d="M333.507 219.404H46.493C34.2346 219.293 22.5159 214.346 13.8868 205.64C5.25774 196.934 0.416504 185.173 0.416504 172.917C0.416504 160.66 5.25774 148.899 13.8868 140.193C22.5159 131.487 34.2346 126.54 46.493 126.429H333.507C345.765 126.54 357.484 131.487 366.113 140.193C374.742 148.899 379.583 160.66 379.583 172.917C379.583 185.173 374.742 196.934 366.113 205.64C357.484 214.346 345.765 219.293 333.507 219.404ZM46.493 130.829C35.3293 130.829 24.6229 135.263 16.729 143.156C8.83511 151.048 4.40037 161.753 4.40037 172.915C4.40037 184.076 8.83511 194.781 16.729 202.674C24.6229 210.566 35.3293 215 46.493 215H333.507C344.671 215 355.377 210.566 363.271 202.674C371.165 194.781 375.6 184.076 375.6 172.915C375.6 161.753 371.165 151.048 363.271 143.156C355.377 135.263 344.671 130.829 333.507 130.829H46.493Z" fill="white"/>
<path d="M362.702 93.0213H258.997V85.3617H355.038V19.0815H362.702V93.0213Z" fill="#111111"/>
<path d="M373.848 33.0821L360.966 20.2022H356.775L343.896 33.0821L338.478 27.6641L353.602 12.5388H364.143L379.267 27.6641L373.848 33.0821Z" fill="#111111"/>
<path d="M232.203 76.4673V78.006C238.895 78.7659 241.144 81.1291 241.144 85.5174C241.144 90.62 237.306 93.3061 230.394 93.3061H212.511V62.9111H229.9C236.098 62.9111 239.499 65.7644 239.499 69.8222C239.499 73.5076 237.853 75.5896 232.203 76.4673ZM220.632 69.0661V74.6056H227.65C230.341 74.6056 231.215 73.4658 231.215 71.8624C231.215 70.2591 230.341 69.0661 227.65 69.0661H220.632ZM220.632 87.1625H228.528C231.819 87.1625 232.807 85.9581 232.807 83.9824C232.807 82.0068 231.819 80.6922 228.528 80.6922H220.632V87.1625ZM128.535 62.9225V104.275H136.762V62.9225H128.535ZM144.715 86.6686C139.726 86.6686 136.762 82.8312 136.762 78.1694C136.762 73.5076 139.726 69.6664 144.715 69.6664C149.762 69.6664 152.669 73.5076 152.669 78.1694C152.669 82.8312 149.762 86.6686 144.715 86.6686ZM148.553 93.8C154.424 93.8 160.896 87.6564 160.896 78.1694C160.896 68.6823 154.436 62.5387 148.553 62.5387C143.017 62.5387 139.779 65.7188 138.628 69.7234H135.721L135.994 87.1625H138.628C139.726 91.1101 142.96 93.8 148.553 93.8ZM55.0316 62.9225V104.275H63.2624V62.9225H55.0316ZM71.2158 86.6686C66.2226 86.6686 63.2624 82.8312 63.2624 78.1694C63.2624 73.5076 66.2226 69.6664 71.2158 69.6664C76.209 69.6664 79.1692 73.5076 79.1692 78.1694C79.1692 82.8312 76.2622 86.6686 71.2158 86.6686ZM75.0538 93.8C80.9248 93.8 87.3962 87.6564 87.3962 78.1694C87.3962 68.6823 80.9362 62.5387 75.0538 62.5387C69.5134 62.5387 66.2796 65.7188 65.1244 69.7234H62.2174L62.4948 87.1625H65.1244C66.2226 91.1101 69.4602 93.8 75.0538 93.8ZM107.418 86.6686C102.425 86.6686 99.4612 82.8312 99.4612 78.1694C99.4612 73.5076 102.425 69.6664 107.418 69.6664C112.412 69.6664 115.372 73.5076 115.372 78.1694C115.372 82.8312 112.48 86.6686 107.418 86.6686ZM107.418 93.8C117.124 93.8 123.599 87.6564 123.599 78.1694C123.599 68.6823 117.139 62.5387 107.418 62.5387C97.698 62.5387 91.2342 68.6823 91.2342 78.1694C91.2342 87.6564 97.7094 93.8 107.418 93.8ZM75.6124 42.8884H60.0894V12.4933H68.2062V31.1141L67.8794 40.1604H69.4678L70.0188 35.4986L76.2698 12.5199H91.7396V42.915H83.6228V24.3132L83.9496 15.2631H82.3612L81.8102 19.9249L75.6124 42.8884ZM265.476 36.2698C260.486 36.2698 257.522 32.4287 257.522 27.7668C257.522 23.105 260.486 19.2676 265.476 19.2676C270.465 19.2676 273.433 23.105 273.433 27.7668C273.433 32.4287 270.522 36.2698 265.476 36.2698ZM265.476 43.3975C275.185 43.3975 281.66 37.2539 281.66 27.7668C281.66 18.2798 275.2 12.1362 265.476 12.1362C255.751 12.1362 249.28 18.2798 249.28 27.7668C249.28 37.2539 255.77 43.4127 265.476 43.4127V43.3975ZM144.636 12.5199V53.8724H152.863V12.5199H144.636ZM160.82 36.2698C155.83 36.2698 152.866 32.4287 152.866 27.7668C152.866 23.105 155.83 19.2676 160.82 19.2676C165.866 19.2676 168.773 23.105 168.773 27.7668C168.773 32.4287 165.866 36.2698 160.82 36.2698ZM164.662 43.4127C170.529 43.4127 177 37.2691 177 27.782C177 18.295 170.54 12.1514 164.662 12.1514C159.121 12.1514 155.884 15.3353 154.732 19.336H151.825L152.099 36.7752H154.732C155.83 40.7113 159.064 43.4127 164.662 43.4127ZM197.022 36.2698C192.033 36.2698 189.069 32.4287 189.069 27.7668C189.069 23.105 192.033 19.2676 197.022 19.2676C202.012 19.2676 204.976 23.105 204.976 27.7668C204.976 32.4287 202.069 36.2698 197.022 36.2698ZM197.022 43.3975C206.731 43.3975 213.203 37.2539 213.203 27.7668C213.203 18.2798 206.743 12.1362 197.022 12.1362C187.302 12.1362 180.842 18.2798 180.842 27.7668C180.842 37.2539 187.313 43.4127 197.022 43.4127V43.3975ZM165.832 62.9225H174.063V71.095H180.903C188.746 71.095 193.025 75.4832 193.025 82.1739C193.025 88.8647 188.746 93.3061 180.903 93.3061H165.832V62.9225ZM174.063 78.006V86.1747H179.71C183.715 86.1747 184.813 84.6549 184.813 82.117C184.813 79.484 183.715 78.006 179.71 78.006H174.063ZM197.703 62.9225V93.3175H205.93V62.9225H197.703ZM48.45 93.3175H40.223V70.0653H27.2232V93.3175H19V62.9225H48.45V93.3175ZM302.119 42.9036H286.596V12.5085H294.713V31.1141L294.386 40.1604H295.974L296.522 35.4986L302.776 12.5199H318.246V42.915H310.126V24.3132L310.46 15.2631H308.864L308.317 19.9249L302.119 42.9036ZM306.067 0.399902H312.485C311.98 5.88621 308.427 9.28665 301.72 9.28665C295.013 9.28665 291.46 5.88621 290.97 0.399902H297.384C297.605 2.37558 298.866 4.02071 301.72 4.02071C304.76 4.02071 305.847 2.37938 306.067 0.399902ZM237.831 26.0685V27.5883C244.522 28.3481 246.772 30.7151 246.772 35.0996C246.772 40.2022 242.934 42.8884 236.022 42.8884H218.139V12.4933H235.528C241.726 12.4933 245.127 15.3467 245.127 19.4044C245.127 23.105 243.481 25.1757 237.831 26.0685ZM226.26 18.6635V24.203H233.278C235.969 24.203 236.846 23.0632 236.846 21.4599C236.846 19.8565 235.969 18.6635 233.278 18.6635H226.26ZM226.26 36.76H234.156C237.447 36.76 238.435 35.5556 238.435 33.5799C238.435 31.6042 237.447 30.2896 234.156 30.2896H226.26V36.76ZM122.098 42.9036V53.8724H114.034V42.9036H112.993C102.733 42.9036 96.9228 36.4864 96.9228 27.706C96.9228 19.0397 102.623 12.6795 112.662 12.5085H114.034V1.004H122.098V12.5199H123.47C133.399 12.6871 139.213 19.0473 139.213 27.7174C139.213 36.4902 133.513 42.915 123.139 42.915L122.098 42.9036ZM112.83 36.3762H114.034V19.0966H112.94C107.673 19.26 105.15 22.9872 105.15 27.706C105.15 32.5389 107.673 36.2129 112.83 36.3762ZM122.098 36.3762H123.139C128.459 36.2129 130.929 32.5388 130.929 27.7136C130.929 22.9948 128.463 19.2676 123.139 19.1042H122.098V36.3762ZM49.02 12.5199H40.7702V35.7759H28.5418V12.5199H20.311V42.915H46.588V51.361H54.4844V35.7835H49.02V12.5199Z" fill="#111111"/>
<path d="M68.0199 156.786C74.4799 156.786 79.9861 160.247 82.5663 166.406L75.2931 168.925C73.9441 165.817 71.2461 164.058 68.0199 164.058C63.5017 164.058 60.0399 167.694 60.0399 172.504C60.0399 177.371 63.4979 181.007 68.0199 181.007C71.2461 181.007 73.9441 179.191 75.2931 176.068L82.5663 178.587C79.9975 184.75 74.4799 188.222 68.0199 188.222C58.8087 188.222 51.8281 181.418 51.8281 172.504C51.8281 163.591 58.8201 156.786 68.0199 156.786Z" fill="#111111"/>
<path d="M117.773 175.32H94.4263C95.4827 178.899 98.5341 181.418 102.695 181.418C105.982 181.418 108.741 179.837 110.204 177.196L116.717 180.13C114.076 184.879 109.034 188.222 102.463 188.222C93.2521 188.222 86.2715 181.418 86.2715 172.504C86.2715 163.591 93.1343 156.786 102.171 156.786C112.317 156.786 119.415 165.232 117.773 175.32ZM94.5441 169.278H109.854C109.383 167.613 108.373 166.151 106.983 165.12C105.593 164.089 103.901 163.548 102.171 163.579C98.5911 163.591 95.6575 165.878 94.5441 169.278Z" fill="#111111"/>
<path d="M147.82 179.837C147.82 184.997 142.249 188.222 134.74 188.222C129.227 188.222 123.888 186.406 120.604 183.12L124.944 177.801C127.699 180.441 132.042 181.437 134.74 181.437C138.084 181.437 139.608 180.149 139.608 178.621C139.608 176.342 137.146 175.749 133.566 175.749H129.147V169.29H133.547C137.127 169.29 139.589 168.705 139.589 166.418C139.589 164.898 138.069 163.602 134.721 163.602C132.023 163.602 127.68 164.598 124.925 167.295L120.585 161.9C123.869 158.614 129.208 156.798 134.721 156.798C142.23 156.798 147.801 160.023 147.801 165.244C147.801 168.587 145.221 171.703 139.297 172.516C145.221 173.325 147.82 176.433 147.82 179.837Z" fill="#111111"/>
<path d="M168.739 156.786C177.95 156.786 184.931 163.591 184.931 172.504C184.931 181.418 177.95 188.222 168.739 188.222C159.528 188.222 152.551 181.418 152.551 172.504C152.551 163.591 159.532 156.786 168.739 156.786ZM168.739 181.007C173.318 181.007 176.719 177.371 176.719 172.504C176.719 167.694 173.318 164.058 168.739 164.058C164.225 164.058 160.759 167.694 160.759 172.504C160.763 177.371 164.225 181.007 168.739 181.007Z" fill="#111111"/>
<path d="M190.38 187.637V157.371H198.295V169.043H212.04V157.371H219.959V187.637H212.04V175.965H198.299V187.637H190.38Z" fill="#111111"/>
<path d="M231.089 156.843C232.479 156.86 233.806 157.424 234.783 158.413C235.759 159.401 236.307 160.735 236.307 162.124C236.307 163.516 235.754 164.85 234.77 165.834C233.785 166.818 232.451 167.371 231.059 167.371C229.667 167.371 228.332 166.818 227.348 165.834C226.364 164.85 225.811 163.516 225.811 162.124C225.808 161.43 225.943 160.742 226.207 160.101C226.471 159.459 226.859 158.875 227.35 158.384C227.841 157.894 228.424 157.505 229.066 157.24C229.707 156.975 230.395 156.841 231.089 156.843ZM231.089 177.664C232.479 177.681 233.806 178.245 234.783 179.233C235.759 180.222 236.307 181.555 236.307 182.945C236.307 184.336 235.754 185.671 234.77 186.655C233.785 187.639 232.451 188.192 231.059 188.192C229.667 188.192 228.332 187.639 227.348 186.655C226.364 185.671 225.811 184.336 225.811 182.945C225.808 182.251 225.943 181.563 226.207 180.921C226.471 180.279 226.859 179.696 227.35 179.205C227.841 178.714 228.424 178.325 229.066 178.061C229.707 177.796 230.395 177.661 231.089 177.664Z" fill="#111111"/>
<path d="M275.667 157.371H290.039V187.637H282.587V159.142L274.36 187.637H260.004V157.371H267.455V186.11L275.667 157.371Z" fill="#111111"/>
<path d="M312.322 157.371H326.697V187.637H319.246V159.142L311.034 187.637H296.662V157.371H304.11V186.11L312.322 157.371Z" fill="#111111"/>
</g>
<defs>
<clipPath id="clip0_3_624">
<rect width="380" height="219" fill="white" transform="translate(0 0.399902)"/>
</clipPath>
</defs>
</svg>
