<svg width="538" height="333" viewBox="0 0 538 333" fill="none" xmlns="http://www.w3.org/2000/svg">
<g clip-path="url(#clip0_3620_15875)">
<path d="M512.191 334C518.579 311.77 522 288.284 522 264C522 124.272 408.728 11 269 11C129.272 11 16 124.272 16 264C16 288.284 19.4214 311.77 25.8086 334" stroke="black" stroke-width="2"/>
<circle cx="400" cy="265" r="24.5" stroke="black" stroke-width="7"/>
<circle cx="389" cy="265" r="45.5" stroke="black" stroke-width="7"/>
<path d="M443 265C443 301.451 413.451 331 377 331C340.549 331 311 301.451 311 265C311 228.549 340.549 199 377 199C413.451 199 443 228.549 443 265Z" stroke="black" stroke-width="6"/>
<path d="M420.896 334C441.094 317.59 454 292.552 454 264.5C454 215.071 413.929 175 364.5 175C315.071 175 275 215.071 275 264.5C275 292.552 287.906 317.59 308.104 334" stroke="black" stroke-width="6"/>
<path d="M438.412 334C453.788 315.016 463 290.834 463 264.5C463 203.473 413.527 154 352.5 154C291.473 154 242 203.473 242 264.5C242 290.834 251.212 315.016 266.588 334" stroke="black" stroke-width="5"/>
<path d="M450.974 334C463.66 313.877 471 290.046 471 264.5C471 192.427 412.573 134 340.5 134C268.427 134 210 192.427 210 264.5C210 290.046 217.34 313.877 230.026 334" stroke="black" stroke-width="5"/>
<path d="M462.829 334C473.796 313.076 480 289.262 480 264C480 180.605 412.395 113 329 113C245.605 113 178 180.605 178 264C178 289.262 184.204 313.076 195.171 334" stroke="black" stroke-width="5"/>
<path d="M473.062 334C482.661 312.634 488 288.941 488 264C488 169.559 411.441 93 317 93C222.559 93 146 169.559 146 264C146 288.941 151.339 312.634 160.938 334" stroke="black" stroke-width="4"/>
<path d="M483.84 334C492.336 312.311 497 288.7 497 264C497 157.961 411.039 72 305 72C198.961 72 113 157.961 113 264C113 288.7 117.664 312.311 126.16 334" stroke="black" stroke-width="4"/>
<path d="M493.171 334C500.834 312.086 505 288.529 505 264C505 146.916 410.084 52 293 52C175.916 52 81 146.916 81 264C81 288.529 85.1659 312.086 92.8288 334" stroke="black" stroke-width="3"/>
<path d="M503.302 334C510.252 311.905 514 288.39 514 264C514 135.318 409.682 31 281 31C152.318 31 48 135.318 48 264C48 288.39 51.7475 311.905 58.6982 334" stroke="black" stroke-width="3"/>
</g>
<defs>
<clipPath id="clip0_3620_15875">
<rect width="538" height="333" fill="white"/>
</clipPath>
</defs>
</svg>
