<svg width="72" height="28" viewBox="0 0 72 28" fill="none" xmlns="http://www.w3.org/2000/svg">
<g clip-path="url(#clip0_3_535)">
<path d="M57.9629 0.883301H16.3191L14.5342 9.16329H56.2642L57.9629 0.883301Z" fill="#F3F3F3"/>
<path d="M18.0526 7.46148C17.9999 7.70235 17.8595 7.82146 17.6287 7.82023C17.3987 7.82023 17.3092 7.69868 17.3622 7.45909L18.3195 3.03878C18.3462 2.91374 18.3968 2.81762 18.4672 2.74941C18.5406 2.68233 18.6288 2.64771 18.7328 2.64771L20.3039 2.65489C21.0049 2.65694 21.4916 2.75419 21.7641 2.95314C22.0367 3.1497 22.1257 3.46572 22.0323 3.89836C21.9366 4.34261 21.7256 4.67847 21.4018 4.90692C21.0781 5.13739 20.657 5.24947 20.1352 5.24866L18.5321 5.24386L18.0526 7.46148ZM19.8833 4.59008C20.4368 4.59121 20.8028 4.54726 20.9802 4.46015C21.1576 4.3819 21.273 4.21153 21.3305 3.95165C21.3681 3.77206 21.362 3.64008 21.3095 3.5517C21.258 3.46208 21.1455 3.39989 20.9705 3.36516C20.798 3.33054 20.5266 3.31312 20.1606 3.31187L18.9515 3.30708L18.6754 4.58528L19.8833 4.59008Z" fill="#131718"/>
<path d="M18.0526 7.46148C17.9999 7.70235 17.8595 7.82146 17.6287 7.82023C17.3987 7.82023 17.3092 7.69868 17.3622 7.45909L18.3195 3.03878C18.3462 2.91374 18.3968 2.81762 18.4672 2.74941C18.5406 2.68233 18.6288 2.64771 18.7328 2.64771L20.3039 2.65489C21.0049 2.65694 21.4916 2.75419 21.7641 2.95314C22.0367 3.1497 22.1257 3.46572 22.0323 3.89836C21.9366 4.34261 21.7256 4.67847 21.4018 4.90692C21.0781 5.13739 20.657 5.24947 20.1352 5.24866L18.5321 5.24386L18.0526 7.46148ZM19.8833 4.59008C20.4368 4.59121 20.8028 4.54726 20.9802 4.46015C21.1576 4.3819 21.273 4.21153 21.3305 3.95165C21.3681 3.77206 21.362 3.64008 21.3095 3.5517C21.258 3.46208 21.1455 3.39989 20.9705 3.36516C20.798 3.33054 20.5266 3.31312 20.1606 3.31187L18.9515 3.30708L18.6754 4.58528L19.8833 4.59008Z" fill="#131718"/>
<path d="M17.6338 7.88112H17.6281C17.4981 7.88112 17.4026 7.84288 17.3454 7.77342C17.2843 7.69868 17.2697 7.58698 17.3006 7.4453L18.2586 3.02576C18.2885 2.88944 18.3453 2.78034 18.4258 2.7045C18.5104 2.6258 18.6092 2.58264 18.7327 2.58753L20.3035 2.59232C21.0246 2.59312 21.515 2.69606 21.7997 2.90231C22.0929 3.11379 22.1912 3.45361 22.0921 3.91085C21.9924 4.36763 21.7729 4.71952 21.4377 4.95775C21.1043 5.19257 20.6644 5.31522 20.1351 5.30965L18.5821 5.30475L18.1121 7.47273C18.0545 7.73911 17.8885 7.88032 17.6338 7.88112ZM18.7282 2.70927C18.6425 2.7103 18.5708 2.73809 18.5104 2.79458C18.4481 2.8538 18.4043 2.94023 18.3793 3.0524L17.422 7.47033C17.3982 7.57559 17.4046 7.65106 17.4403 7.69751C17.4747 7.73794 17.5374 7.75845 17.6286 7.75845C17.8295 7.76575 17.9455 7.66118 17.9909 7.44849L18.4833 5.18118L20.1351 5.18689C20.6424 5.18689 21.0542 5.07836 21.3667 4.85721C21.6754 4.63969 21.8795 4.3108 21.9717 3.88534C22.06 3.47342 21.98 3.18439 21.7277 3.00275C21.4671 2.81279 20.9873 2.71702 20.3035 2.71463L18.7327 2.70927H18.7282ZM19.969 4.65017H19.8828L18.5996 4.64526L18.902 3.24577L20.1602 3.25056C20.5299 3.25135 20.8064 3.27003 20.9837 3.30465C21.1757 3.34429 21.3004 3.41477 21.3619 3.51977C21.4227 3.62386 21.4316 3.76871 21.3894 3.96323C21.3288 4.24247 21.2 4.429 21.0052 4.51455C20.8291 4.60415 20.4898 4.64768 19.969 4.65017ZM18.7523 4.52422L19.8828 4.52752C20.4257 4.52878 20.7836 4.48834 20.9526 4.40521C21.1137 4.333 21.2166 4.18166 21.2688 3.93829C21.3049 3.77567 21.2992 3.65735 21.2558 3.58275C21.2141 3.50805 21.1137 3.456 20.9585 3.42491C20.7893 3.39143 20.5213 3.37412 20.1602 3.37412L19.0009 3.36968L18.7523 4.52422Z" fill="white"/>
<path d="M26.5412 5.94387C26.4569 6.3313 26.2978 6.66911 26.0618 6.95717C25.8269 7.24694 25.5317 7.46976 25.1762 7.62434C24.8227 7.78105 24.4311 7.85849 24.0039 7.85684C23.5756 7.85471 23.2201 7.77487 22.9321 7.61746C22.6471 7.46054 22.4474 7.23576 22.3385 6.94551C22.2287 6.65542 22.2158 6.31766 22.2981 5.92975L22.5984 4.5511C22.6822 4.16334 22.8415 3.82671 23.0776 3.53733C23.3119 3.24682 23.6084 3.0252 23.9627 2.86862C24.3162 2.71374 24.7081 2.63744 25.1354 2.63869C25.5618 2.63869 25.9197 2.71932 26.2063 2.8767C26.4919 3.03408 26.692 3.26003 26.7999 3.54906C26.9105 3.83923 26.9239 4.17872 26.8397 4.5649L26.5412 5.94387ZM24.9929 3.29681C24.5258 3.29567 24.1478 3.40295 23.8574 3.62297C23.5654 3.84083 23.3735 4.1589 23.2832 4.57605L22.9941 5.90914C22.905 6.3264 22.9568 6.64701 23.1532 6.86566C23.3493 7.08555 23.6817 7.19645 24.1465 7.19852C24.6109 7.20012 24.9899 7.09125 25.2828 6.87259C25.5737 6.6542 25.7654 6.33497 25.8561 5.9185L26.1439 4.58551C26.231 4.18429 26.1826 3.86383 25.9978 3.62775C25.799 3.40899 25.4633 3.29761 24.9929 3.29681Z" fill="#131718"/>
<path d="M26.5412 5.94387C26.4569 6.3313 26.2978 6.66911 26.0618 6.95717C25.8269 7.24694 25.5317 7.46976 25.1762 7.62434C24.8227 7.78105 24.4311 7.85849 24.0039 7.85684C23.5756 7.85471 23.2201 7.77487 22.9321 7.61746C22.6471 7.46054 22.4474 7.23576 22.3385 6.94551C22.2287 6.65542 22.2158 6.31766 22.2981 5.92975L22.5984 4.5511C22.6822 4.16334 22.8415 3.82671 23.0776 3.53733C23.3119 3.24682 23.6084 3.0252 23.9627 2.86862C24.3162 2.71374 24.7081 2.63744 25.1354 2.63869C25.5618 2.63869 25.9197 2.71932 26.2063 2.8767C26.4919 3.03408 26.692 3.26003 26.7999 3.54906C26.9105 3.83923 26.9239 4.17872 26.8397 4.5649L26.5412 5.94387ZM24.9929 3.29681C24.5258 3.29567 24.1478 3.40295 23.8574 3.62297C23.5654 3.84083 23.3735 4.1589 23.2832 4.57605L22.9941 5.90914C22.905 6.3264 22.9568 6.64701 23.1532 6.86566C23.3493 7.08555 23.6817 7.19645 24.1465 7.19852C24.6109 7.20012 24.9899 7.09125 25.2828 6.87259C25.5737 6.6542 25.7654 6.33497 25.8561 5.9185L26.1439 4.58551C26.231 4.18429 26.1826 3.86383 25.9978 3.62775C25.799 3.40899 25.4633 3.29761 24.9929 3.29681Z" fill="#131718"/>
<path d="M24.0336 7.91784H24.004C23.5678 7.91545 23.1971 7.83341 22.9031 7.67037C22.6046 7.50705 22.3958 7.27039 22.2815 6.96736C22.1674 6.66592 22.153 6.31314 22.2398 5.91692L22.5387 4.53746C22.6233 4.144 22.7888 3.79359 23.0298 3.49875C23.2691 3.20243 23.5753 2.97239 23.9373 2.81261C24.2984 2.65443 24.709 2.57323 25.1353 2.57574C25.5702 2.57813 25.9407 2.66126 26.2352 2.82195C26.5336 2.98606 26.7434 3.22304 26.8575 3.52733C26.9721 3.82718 26.9858 4.17999 26.9005 4.57709L26.6004 5.95599C26.5154 6.35032 26.351 6.69985 26.1101 6.99596C25.8691 7.29068 25.563 7.52266 25.2018 7.68219C24.848 7.83592 24.4559 7.91545 24.0336 7.91784ZM25.1054 2.69918C24.7005 2.70044 24.3231 2.77708 23.9871 2.92399C23.6436 3.07534 23.3542 3.2949 23.1247 3.57494C22.8974 3.85509 22.7399 4.18796 22.6584 4.56413L22.3592 5.94198C22.2791 6.31559 22.2908 6.64659 22.3958 6.92304C22.501 7.19992 22.6901 7.4133 22.9625 7.56389C23.2391 7.71559 23.5893 7.79394 24.004 7.79394C24.4223 7.79869 24.8074 7.72001 25.152 7.56868C25.4954 7.4181 25.7865 7.19992 26.0145 6.91931C26.2429 6.63849 26.4004 6.30547 26.4801 5.93013L26.7794 4.55123C26.8604 4.17794 26.849 3.8478 26.743 3.57061C26.6389 3.2949 26.4477 3.08012 26.1768 2.92957C25.8994 2.77788 25.5501 2.70044 25.1353 2.69918H25.1054ZM24.1713 7.25958H24.1466C23.6635 7.25878 23.3144 7.1393 23.1071 6.90562C22.8978 6.67082 22.8399 6.33056 22.9351 5.89551L23.2234 4.56287C23.3157 4.13273 23.5169 3.7994 23.8194 3.57141C24.1146 3.35059 24.5021 3.23591 24.9683 3.23466H24.993C25.4804 3.23591 25.8339 3.35378 26.0441 3.58781C26.2424 3.84006 26.2951 4.17874 26.2052 4.59875L25.9161 5.93013C25.8222 6.36241 25.6216 6.69543 25.3192 6.92171C25.024 7.14378 24.6373 7.25718 24.1713 7.25958ZM24.9691 3.35617C24.5291 3.35856 24.1684 3.4639 23.8931 3.67025C23.6157 3.87923 23.4311 4.18717 23.3436 4.5895L23.0549 5.92137C22.9695 6.31676 23.0172 6.62118 23.1994 6.82503C23.3825 7.02957 23.7024 7.13488 24.1466 7.1369C24.592 7.1393 24.9661 7.0332 25.2447 6.82333C25.5238 6.615 25.708 6.30547 25.7957 5.90473L26.0842 4.57254C26.1667 4.19035 26.1218 3.88492 25.9492 3.6665C25.7667 3.4639 25.4435 3.35856 24.993 3.35617H24.9691Z" fill="white"/>
<path d="M29.2795 7.80257C28.7414 7.80145 28.3319 7.75303 28.0477 7.65827C27.7642 7.56297 27.5769 7.40797 27.4861 7.19288C27.3967 6.97976 27.3921 6.68392 27.4732 6.30663L27.9283 4.20812C28.0092 3.83595 28.1368 3.54418 28.3121 3.33145C28.4871 3.11599 28.7295 2.96225 29.0369 2.86625C29.3463 2.77138 29.7443 2.72287 30.2319 2.72492L31.5397 2.7297C31.8621 2.73095 32.0852 2.80964 32.2067 2.96714C32.3285 3.12407 32.3548 3.36744 32.2832 3.69599C32.2204 3.98844 32.073 4.1342 31.8438 4.13295C31.7333 4.13295 31.6576 4.09697 31.6123 4.02443C31.5668 3.95017 31.5592 3.84733 31.5883 3.71762C31.6163 3.58689 31.6126 3.49897 31.5803 3.45376C31.5442 3.4098 31.464 3.38714 31.3385 3.38714L30.0886 3.38315C29.7107 3.38236 29.4305 3.40217 29.2451 3.44374C29.06 3.48519 28.9232 3.56388 28.832 3.68175C28.7401 3.79882 28.6685 3.97887 28.615 4.22543L28.1671 6.29422C28.1125 6.54516 28.1064 6.72749 28.1513 6.84335C28.1943 6.95915 28.3102 7.0367 28.4996 7.07953C28.6871 7.12177 28.9932 7.14398 29.4224 7.14398L30.5225 7.14878C30.6497 7.14878 30.7389 7.12667 30.7935 7.0831C30.8461 7.03862 30.8874 6.95121 30.9154 6.82034C30.9433 6.68962 30.9956 6.58788 31.0721 6.5148C31.1486 6.44214 31.2405 6.4063 31.3507 6.4063C31.5806 6.41194 31.6616 6.56125 31.5989 6.85395C31.5288 7.17679 31.3977 7.41846 31.2089 7.57507C31.0179 7.72954 30.761 7.80837 30.4388 7.80598L29.2795 7.80257Z" fill="#131718"/>
<path d="M29.2795 7.80257C28.7414 7.80145 28.3319 7.75303 28.0477 7.65827C27.7642 7.56297 27.5769 7.40797 27.4861 7.19288C27.3967 6.97976 27.3921 6.68392 27.4732 6.30663L27.9283 4.20812C28.0092 3.83595 28.1368 3.54418 28.3121 3.33145C28.4871 3.11599 28.7295 2.96225 29.0369 2.86625C29.3463 2.77138 29.7443 2.72287 30.2319 2.72492L31.5397 2.7297C31.8621 2.73095 32.0852 2.80964 32.2067 2.96714C32.3285 3.12407 32.3548 3.36744 32.2832 3.69599C32.2204 3.98844 32.073 4.1342 31.8438 4.13295C31.7333 4.13295 31.6576 4.09697 31.6123 4.02443C31.5668 3.95017 31.5592 3.84733 31.5883 3.71762C31.6163 3.58689 31.6126 3.49897 31.5803 3.45376C31.5442 3.4098 31.464 3.38714 31.3385 3.38714L30.0886 3.38315C29.7107 3.38236 29.4305 3.40217 29.2451 3.44374C29.06 3.48519 28.9232 3.56388 28.832 3.68175C28.7401 3.79882 28.6685 3.97887 28.615 4.22543L28.1671 6.29422C28.1125 6.54516 28.1064 6.72749 28.1513 6.84335C28.1943 6.95915 28.3102 7.0367 28.4996 7.07953C28.6871 7.12177 28.9932 7.14398 29.4224 7.14398L30.5225 7.14878C30.6497 7.14878 30.7389 7.12667 30.7935 7.0831C30.8461 7.03862 30.8874 6.95121 30.9154 6.82034C30.9433 6.68962 30.9956 6.58788 31.0721 6.5148C31.1486 6.44214 31.2405 6.4063 31.3507 6.4063C31.5806 6.41194 31.6616 6.56125 31.5989 6.85395C31.5288 7.17679 31.3977 7.41846 31.2089 7.57507C31.0179 7.72954 30.761 7.80837 30.4388 7.80598L29.2795 7.80257Z" fill="#131718"/>
<path d="M30.4543 7.86835H30.4386L29.278 7.86472C28.7379 7.86227 28.3175 7.8114 28.0271 7.71574C27.7288 7.61656 27.5268 7.44813 27.43 7.21738C27.3344 6.99132 27.3288 6.68147 27.4129 6.29401L27.8668 4.19417C27.9502 3.81597 28.0834 3.51178 28.2636 3.29062C28.4467 3.06946 28.7002 2.90638 29.0193 2.80708C29.3323 2.70994 29.7356 2.66029 30.2329 2.66268L31.5395 2.66792C31.8801 2.66792 32.1221 2.75743 32.2563 2.92973C32.3898 3.1001 32.4186 3.36362 32.3441 3.70789C32.2571 4.11183 32.0189 4.19541 31.8432 4.19541C31.7108 4.19541 31.6161 4.14656 31.5594 4.05534C31.5075 3.96856 31.4974 3.85035 31.5274 3.70345C31.5622 3.5489 31.5379 3.50245 31.5298 3.49208C31.5229 3.48149 31.4849 3.44926 31.3386 3.44801L30.0887 3.44436C29.7173 3.44197 29.4391 3.46327 29.2586 3.5037C29.0904 3.54037 28.9625 3.61348 28.8808 3.71882C28.795 3.82735 28.7265 4.0033 28.6759 4.23824L28.2272 6.30567C28.1766 6.54377 28.1697 6.71811 28.2082 6.82017C28.2438 6.91504 28.3471 6.9813 28.5123 7.02035C28.6957 7.06083 29.0022 7.08299 29.4222 7.08299L30.5239 7.08661C30.637 7.08858 30.7127 7.06924 30.7531 7.03574C30.7827 7.01113 30.824 6.95185 30.8544 6.80776C30.8864 6.66533 30.9451 6.55309 31.0293 6.4708C31.1159 6.38722 31.2221 6.3461 31.3461 6.34493H31.3509C31.4702 6.34812 31.5585 6.38403 31.6148 6.457C31.6857 6.54628 31.7004 6.68067 31.6593 6.8679C31.5857 7.20326 31.4481 7.45756 31.2484 7.62215C31.0508 7.78408 30.783 7.86627 30.4543 7.86835ZM30.1692 2.78624C29.7178 2.78977 29.3439 2.83453 29.0553 2.92415C28.76 3.01662 28.526 3.16718 28.3596 3.36977C28.1908 3.57396 28.0669 3.85958 27.9883 4.22081L27.5344 6.31909C27.4542 6.68258 27.4591 6.9683 27.5432 7.16965C27.6267 7.3662 27.8029 7.51072 28.0681 7.59866C28.3447 7.69193 28.752 7.73997 29.2796 7.74163L30.4386 7.74557C30.7476 7.73997 30.9913 7.67174 31.1695 7.5268C31.3485 7.38 31.472 7.14872 31.5395 6.83999C31.5703 6.6943 31.5641 6.59011 31.5172 6.53328C31.4836 6.49045 31.4298 6.46968 31.3493 6.46749H31.3461C31.2541 6.46749 31.1787 6.49866 31.1159 6.55991C31.0479 6.62372 31.0009 6.71609 30.9755 6.83317C30.9443 6.9789 30.8965 7.07569 30.8313 7.12901C30.7677 7.18345 30.6689 7.20886 30.53 7.20886H30.5239L29.4222 7.20646C28.993 7.20534 28.6771 7.18265 28.4856 7.1395C28.277 7.09226 28.1434 6.99877 28.0932 6.86539C28.0449 6.73542 28.0499 6.54628 28.1066 6.28106L28.5556 4.21239C28.6112 3.9549 28.686 3.76836 28.7844 3.64343C28.8832 3.51497 29.0338 3.42706 29.2314 3.38298C29.4197 3.34016 29.7097 3.32046 30.0899 3.32171L31.3386 3.32536C31.4852 3.32536 31.5801 3.35554 31.6283 3.41817C31.6756 3.47785 31.6813 3.57761 31.6476 3.7301C31.6238 3.84466 31.6294 3.93269 31.6654 3.99203C31.6969 4.04487 31.7558 4.07151 31.8435 4.07277H31.848C32.0444 4.07151 32.1668 3.94396 32.2238 3.68284C32.2906 3.37376 32.2684 3.14497 32.1582 3.00364C32.0484 2.86369 31.8395 2.79102 31.5395 2.78977L30.2308 2.78624H30.1692Z" fill="white"/>
<path d="M34.4662 7.81987C33.9285 7.81705 33.5191 7.77023 33.2345 7.67536C32.9514 7.57905 32.764 7.42437 32.6729 7.2097C32.5838 6.99621 32.578 6.70042 32.6598 6.32506L33.1158 4.22451C33.1956 3.8528 33.3228 3.56138 33.4989 3.34751C33.6738 3.13318 33.9163 2.97944 34.2245 2.88253C34.533 2.78618 34.931 2.74097 35.4185 2.74097L36.7255 2.74621C37.0493 2.74861 37.2712 2.8257 37.3946 2.98423C37.5159 3.14013 37.5416 3.38304 37.4695 3.71398C37.4076 4.00461 37.2606 4.15151 37.0307 4.15026C36.9192 4.15026 36.8436 4.11314 36.7993 4.04048C36.754 3.96611 36.7469 3.86522 36.7744 3.73369C36.8028 3.6042 36.7993 3.51492 36.7667 3.47107C36.7314 3.427 36.652 3.40445 36.5247 3.40445L35.2768 3.39955C34.8974 3.39955 34.6165 3.41937 34.4325 3.45934C34.2475 3.50125 34.1099 3.58074 34.0187 3.69906C33.9281 3.81488 33.8556 3.99652 33.8026 4.24182L33.3535 6.31014C33.2989 6.56113 33.2944 6.74474 33.3384 6.85985C33.381 6.97533 33.497 7.0539 33.6864 7.09662C33.8742 7.13865 34.1813 7.16049 34.6095 7.16134L35.7097 7.16496C35.8373 7.16496 35.9263 7.14307 35.9804 7.09923C36.0328 7.05518 36.0743 6.96761 36.1028 6.83764C36.1302 6.70692 36.1837 6.60518 36.2589 6.5313C36.3363 6.45945 36.4277 6.42232 36.5385 6.42232C36.7667 6.42914 36.85 6.57855 36.7863 6.87104C36.7171 7.19399 36.5859 7.43497 36.3953 7.59109C36.2062 7.74689 35.9484 7.82477 35.6253 7.82354L34.4662 7.81987Z" fill="#131718"/>
<path d="M34.4662 7.81987C33.9285 7.81705 33.5191 7.77023 33.2345 7.67536C32.9514 7.57905 32.764 7.42437 32.6729 7.2097C32.5838 6.99621 32.578 6.70042 32.6598 6.32506L33.1158 4.22451C33.1956 3.8528 33.3228 3.56138 33.4989 3.34751C33.6738 3.13318 33.9163 2.97944 34.2245 2.88253C34.533 2.78618 34.931 2.74097 35.4185 2.74097L36.7255 2.74621C37.0493 2.74861 37.2712 2.8257 37.3946 2.98423C37.5159 3.14013 37.5416 3.38304 37.4695 3.71398C37.4076 4.00461 37.2606 4.15151 37.0307 4.15026C36.9192 4.15026 36.8436 4.11314 36.7993 4.04048C36.754 3.96611 36.7469 3.86522 36.7744 3.73369C36.8028 3.6042 36.7993 3.51492 36.7667 3.47107C36.7314 3.427 36.652 3.40445 36.5247 3.40445L35.2768 3.39955C34.8974 3.39955 34.6165 3.41937 34.4325 3.45934C34.2475 3.50125 34.1099 3.58074 34.0187 3.69906C33.9281 3.81488 33.8556 3.99652 33.8026 4.24182L33.3535 6.31014C33.2989 6.56113 33.2944 6.74474 33.3384 6.85985C33.381 6.97533 33.497 7.0539 33.6864 7.09662C33.8742 7.13865 34.1813 7.16049 34.6095 7.16134L35.7097 7.16496C35.8373 7.16496 35.9263 7.14307 35.9804 7.09923C36.0328 7.05518 36.0743 6.96761 36.1028 6.83764C36.1302 6.70692 36.1837 6.60518 36.2589 6.5313C36.3363 6.45945 36.4277 6.42232 36.5385 6.42232C36.7667 6.42914 36.85 6.57855 36.7863 6.87104C36.7171 7.19399 36.5859 7.43497 36.3953 7.59109C36.2062 7.74689 35.9484 7.82477 35.6253 7.82354L34.4662 7.81987Z" fill="#131718"/>
<path d="M35.6406 7.88496C35.6357 7.88619 35.6301 7.88496 35.6248 7.88496L34.466 7.88118C33.9237 7.87878 33.5043 7.82962 33.2156 7.73358C32.9151 7.63269 32.7135 7.46517 32.6175 7.23511C32.5215 7.00921 32.5159 6.6984 32.5989 6.31174L33.0548 4.21077C33.1358 3.83097 33.2699 3.52952 33.4508 3.30836C33.6331 3.08641 33.8862 2.92459 34.2061 2.82448C34.5178 2.72768 34.9283 2.68042 35.4191 2.68042L36.7257 2.68498C37.0682 2.68612 37.309 2.77403 37.4426 2.94645C37.5766 3.1175 37.6058 3.38023 37.5305 3.72574C37.4441 4.12524 37.2144 4.21077 37.0348 4.21282H37.0312C36.8962 4.21157 36.8013 4.1643 36.7461 4.07194C36.6933 3.98517 36.6821 3.8673 36.7152 3.72164C36.7489 3.56505 36.725 3.51905 36.7165 3.50811C36.7092 3.49934 36.6722 3.46575 36.5249 3.46575L35.2767 3.46131C34.9037 3.46131 34.6243 3.48113 34.4462 3.5203C34.276 3.55697 34.1501 3.63122 34.0683 3.73531C33.9825 3.84509 33.9132 4.02104 33.8631 4.25597L33.4136 6.32431C33.3625 6.56151 33.3549 6.7351 33.3951 6.83801C33.4306 6.93325 33.5327 6.9992 33.6991 7.03664C33.8805 7.07776 34.1878 7.0996 34.6092 7.10088L35.712 7.10482C35.8453 7.10647 35.911 7.07611 35.9391 7.05236C35.9694 7.02903 36.0109 6.9683 36.0421 6.8239C36.072 6.68269 36.1318 6.5696 36.2155 6.48773C36.3027 6.40426 36.4148 6.36304 36.5376 6.36304C36.6564 6.36463 36.745 6.40299 36.8009 6.47362C36.872 6.56406 36.8857 6.6984 36.8463 6.88446C36.7732 7.2186 36.6353 7.47279 36.4349 7.63871C36.2377 7.80053 35.9694 7.88368 35.6406 7.88496ZM35.3615 2.80387C34.9061 2.80626 34.5307 2.85238 34.2429 2.94201C33.9456 3.03311 33.7132 3.18366 33.5463 3.38581C33.3783 3.59159 33.2528 3.87744 33.1748 4.23616L32.7203 6.33715C32.641 6.6992 32.6455 6.98572 32.73 7.18627C32.8144 7.38532 32.986 7.52611 33.2544 7.61698C33.5314 7.71014 33.9387 7.75659 34.4676 7.75899L35.6248 7.76341C35.929 7.75659 36.1782 7.68963 36.3561 7.54342C36.5347 7.39779 36.6599 7.16533 36.7257 6.85783C36.757 6.71209 36.7503 6.60881 36.7042 6.54989C36.6712 6.50835 36.617 6.48773 36.5362 6.48374C36.4427 6.48123 36.3664 6.51469 36.3003 6.57573C36.2334 6.64146 36.1888 6.73313 36.1617 6.85058C36.1308 6.99653 36.0844 7.09342 36.0186 7.14674C35.9549 7.20049 35.8583 7.22547 35.7205 7.2267H35.7099L34.6092 7.22291C34.1716 7.2218 33.8655 7.20049 33.6711 7.15612C33.4626 7.1101 33.3317 7.01715 33.2795 6.88244C33.2313 6.75492 33.2358 6.56401 33.2941 6.2989L33.7411 4.23013C33.7966 3.97549 33.8727 3.78496 33.9695 3.65992C34.0699 3.53191 34.2202 3.4448 34.4186 3.40118C34.6092 3.35677 34.8888 3.33866 35.2767 3.33866L36.5249 3.3431C36.6722 3.3431 36.7672 3.37294 36.8147 3.43466C36.8618 3.4957 36.8685 3.59535 36.8354 3.7467C36.8105 3.86252 36.8157 3.94929 36.8509 4.00863C36.8839 4.06261 36.9427 4.08926 37.0299 4.08926H37.0326C37.2302 4.08926 37.354 3.96171 37.4103 3.69944C37.4771 3.39162 37.4556 3.1626 37.3459 3.02149C37.2359 2.88142 37.0284 2.80877 36.7257 2.80751L35.4188 2.80387H35.3615Z" fill="white"/>
<path d="M37.7008 7.50873L38.6607 3.08155C38.7159 2.82566 38.859 2.69857 39.0889 2.69971C39.3193 2.69971 39.4047 2.8366 39.3459 3.10821L38.564 6.71293L42.2601 2.90481C42.3912 2.77521 42.5249 2.70996 42.656 2.70996C42.8751 2.71156 42.957 2.8399 42.9029 3.09614L41.9426 7.52365C41.8881 7.77347 41.7457 7.89976 41.5151 7.89774C41.284 7.89774 41.1951 7.77826 41.2471 7.54346L42.0379 3.89354L38.3818 7.66848C38.2968 7.75615 38.2268 7.81666 38.1716 7.84458C38.1153 7.8719 38.044 7.88692 37.9553 7.88692C37.7317 7.88612 37.6456 7.75983 37.7008 7.50873Z" fill="#131718"/>
<path d="M37.7008 7.50873L38.6607 3.08155C38.7159 2.82566 38.859 2.69857 39.0889 2.69971C39.3193 2.69971 39.4047 2.8366 39.3459 3.10821L38.564 6.71293L42.2601 2.90481C42.3912 2.77521 42.5249 2.70996 42.656 2.70996C42.8751 2.71156 42.957 2.8399 42.9029 3.09614L41.9426 7.52365C41.8881 7.77347 41.7457 7.89976 41.5151 7.89774C41.284 7.89774 41.1951 7.77826 41.2471 7.54346L42.0379 3.89354L38.3818 7.66848C38.2968 7.75615 38.2268 7.81666 38.1716 7.84458C38.1153 7.8719 38.044 7.88692 37.9553 7.88692C37.7317 7.88612 37.6456 7.75983 37.7008 7.50873Z" fill="#131718"/>
<path d="M41.5196 7.95912H41.514C41.3842 7.95912 41.2865 7.92317 41.2299 7.85126C41.1708 7.77738 41.1564 7.66967 41.1859 7.53208L41.9328 4.0908L38.4254 7.71053C38.3361 7.80406 38.2619 7.86665 38.1983 7.89808C38.1343 7.9311 38.0534 7.94778 37.9561 7.94778C37.8316 7.94778 37.7405 7.91315 37.6849 7.84204C37.6206 7.76576 37.608 7.64868 37.6399 7.49656L38.5998 3.06939C38.6765 2.7151 38.9033 2.63834 39.0823 2.63721H39.0885C39.212 2.63721 39.3027 2.67422 39.36 2.74494C39.4275 2.82967 39.4427 2.95107 39.4047 3.11984L38.6694 6.51502L42.2151 2.86315C42.3613 2.72114 42.5027 2.65042 42.6567 2.64882C42.7745 2.65042 42.8627 2.68527 42.9176 2.75212C42.9812 2.83206 42.9953 2.94868 42.9615 3.10811L42.0009 7.53651C41.9426 7.81221 41.7756 7.9579 41.5196 7.95912ZM42.1434 3.69494L41.3065 7.55637C41.2843 7.65838 41.2917 7.73151 41.3266 7.77498C41.36 7.81573 41.4229 7.83719 41.5147 7.83719H41.5196C41.7176 7.8364 41.8333 7.73151 41.881 7.51035L42.8396 3.08272C42.867 2.96246 42.861 2.87681 42.8216 2.82966C42.7907 2.79129 42.7344 2.77273 42.6556 2.77273H42.6529C42.5396 2.77273 42.4222 2.83206 42.3037 2.94868L38.4578 6.90935L39.2844 3.09399C39.3122 2.9661 39.3055 2.87442 39.2629 2.82158C39.2313 2.78081 39.1722 2.76111 39.0885 2.7602H39.0823C38.8843 2.76111 38.7689 2.86885 38.7204 3.09399L37.7605 7.52159C37.7356 7.63617 37.7426 7.7182 37.7795 7.76576C37.8126 7.80406 37.8709 7.82382 37.9564 7.825C38.0383 7.82382 38.0967 7.81461 38.1424 7.79037C38.192 7.76369 38.2577 7.7093 38.3368 7.62685L42.1434 3.69494Z" fill="white"/>
<path d="M46.4104 7.55256L46.8264 5.63318L45.6678 5.62838C45.415 5.62838 45.2199 5.66802 45.0785 5.74865C44.9368 5.82894 44.8176 5.96627 44.7209 6.15954L44.3591 6.88838C44.1988 7.19509 43.9928 7.44161 43.7413 7.62644C43.4899 7.81176 43.234 7.90295 42.9713 7.90295C42.6841 7.90172 42.5662 7.79237 42.6137 7.57238C42.6619 7.35686 42.8268 7.25166 43.1109 7.25326C43.2111 7.25326 43.3131 7.20804 43.4207 7.11636C43.5275 7.0248 43.6063 6.93281 43.6538 6.83794L44.0567 6.03916C44.185 5.79957 44.3524 5.5973 44.5578 5.43799C44.0553 5.20064 43.8679 4.78783 43.997 4.19644C44.095 3.73727 44.3447 3.38538 44.7431 3.14008C45.1404 2.89625 45.6608 2.77474 46.3021 2.77713L47.8147 2.78158C48.0334 2.78397 48.1143 2.91607 48.0567 3.18312L47.109 7.55517C47.0574 7.79556 46.9181 7.91547 46.6942 7.91472C46.4533 7.91344 46.3584 7.79317 46.4104 7.55256ZM47.3021 3.43902L46.1604 3.43537C45.71 3.43412 45.3689 3.49516 45.1362 3.62031C44.9038 3.74502 44.7578 3.94545 44.697 4.22275C44.5898 4.71917 44.9667 4.96823 45.8267 4.97142L46.9691 4.97506L47.3021 3.43902Z" fill="#131718"/>
<path d="M46.4104 7.55256L46.8264 5.63318L45.6678 5.62838C45.415 5.62838 45.2199 5.66802 45.0785 5.74865C44.9368 5.82894 44.8176 5.96627 44.7209 6.15954L44.3591 6.88838C44.1988 7.19509 43.9928 7.44161 43.7413 7.62644C43.4899 7.81176 43.234 7.90295 42.9713 7.90295C42.6841 7.90172 42.5662 7.79237 42.6137 7.57238C42.6619 7.35686 42.8268 7.25166 43.1109 7.25326C43.2111 7.25326 43.3131 7.20804 43.4207 7.11636C43.5275 7.0248 43.6063 6.93281 43.6538 6.83794L44.0567 6.03916C44.185 5.79957 44.3524 5.5973 44.5578 5.43799C44.0553 5.20064 43.8679 4.78783 43.997 4.19644C44.095 3.73727 44.3447 3.38538 44.7431 3.14008C45.1404 2.89625 45.6608 2.77474 46.3021 2.77713L47.8147 2.78158C48.0334 2.78397 48.1143 2.91607 48.0567 3.18312L47.109 7.55517C47.0574 7.79556 46.9181 7.91547 46.6942 7.91472C46.4533 7.91344 46.3584 7.79317 46.4104 7.55256ZM47.3021 3.43902L46.1604 3.43537C45.71 3.43412 45.3689 3.49516 45.1362 3.62031C44.9038 3.74502 44.7578 3.94545 44.697 4.22275C44.5898 4.71917 44.9667 4.96823 45.8267 4.97142L46.9691 4.97506L47.3021 3.43902Z" fill="#131718"/>
<path d="M46.7001 7.97589H46.6942C46.5556 7.97589 46.4551 7.93764 46.3957 7.86499C46.3355 7.78834 46.3208 7.68111 46.351 7.54006L46.7512 5.69464L45.6675 5.69019C45.4319 5.69464 45.2396 5.7273 45.1098 5.80191C44.979 5.87617 44.8679 6.00576 44.7772 6.18613L44.4151 6.91498C44.2502 7.23101 44.0363 7.4853 43.7793 7.67653C43.5164 7.86818 43.2445 7.96587 42.9699 7.96353C42.7899 7.96353 42.6686 7.9215 42.6004 7.83835C42.5452 7.76852 42.5294 7.67413 42.554 7.55993C42.5916 7.39081 42.7189 7.19628 43.1106 7.19058H43.1127C43.1967 7.19058 43.2857 7.14994 43.3806 7.06908C43.4819 6.98322 43.555 6.89644 43.5983 6.80967L44.0022 6.01179C44.1186 5.79315 44.2688 5.60581 44.4467 5.44923C43.9815 5.19376 43.8089 4.76924 43.9344 4.18399C44.0399 3.70944 44.2997 3.34183 44.7104 3.08832C45.1088 2.84542 45.6305 2.71912 46.2621 2.71582H46.3025L47.8158 2.72072C47.9319 2.72106 48.0191 2.755 48.0729 2.82321C48.1397 2.90543 48.1533 3.02694 48.1175 3.19572L47.1699 7.56877C47.1116 7.83356 46.9495 7.97477 46.7001 7.97589ZM46.4716 7.56638C46.4495 7.66811 46.4554 7.74237 46.492 7.78754C46.5272 7.83026 46.5943 7.85327 46.6942 7.85327C46.8893 7.85455 47.0025 7.75472 47.0486 7.54214L47.9965 3.16953C48.0233 3.04312 48.0173 2.95064 47.9776 2.89986C47.947 2.86273 47.8914 2.84382 47.8144 2.84382L46.3025 2.83859C45.6798 2.83403 45.1612 2.95555 44.7755 3.19207C44.3936 3.42735 44.152 3.76832 44.056 4.21029C43.9337 4.77355 44.107 5.15711 44.5842 5.381L44.6735 5.42417L44.5965 5.48645C44.3985 5.64134 44.2347 5.83836 44.112 6.06838L43.7086 6.86534C43.6566 6.9658 43.5751 7.06668 43.4608 7.16278C43.3427 7.26324 43.2287 7.31656 43.1106 7.31288C42.8602 7.31288 42.7143 7.40082 42.6746 7.58496C42.6573 7.66284 42.6647 7.72175 42.6967 7.75968C42.7389 7.81294 42.8339 7.84086 42.9717 7.84086C43.2157 7.83835 43.4653 7.75361 43.7055 7.57724C43.9471 7.39843 44.1496 7.15724 44.3039 6.8598L44.6675 6.13206C44.7674 5.92947 44.8974 5.78176 45.0472 5.69622C45.1935 5.61274 45.3971 5.56946 45.6509 5.56708H45.6675L46.9034 5.57185L46.4716 7.56638ZM47.0183 5.03638L45.8268 5.03196C45.2617 5.03081 44.9034 4.92491 44.7318 4.7123C44.6253 4.58201 44.5933 4.41289 44.6373 4.21029C44.7016 3.91636 44.8595 3.69896 45.1067 3.56606C45.3493 3.43658 45.6974 3.37167 46.1604 3.37406L47.3784 3.3785L47.0183 5.03638ZM46.1189 3.49636C45.7026 3.49876 45.3809 3.55809 45.1657 3.67391C44.9477 3.79167 44.8141 3.97546 44.7582 4.23568C44.7213 4.40356 44.7445 4.5335 44.8271 4.63643C44.9723 4.81683 45.3088 4.90885 45.8275 4.91044L46.9199 4.91373L47.2254 3.50001L46.1591 3.49636H46.1189Z" fill="white"/>
<path d="M51.4599 5.90285C51.4192 5.85323 51.4072 5.78749 51.4265 5.70265C51.4448 5.61476 51.4856 5.54653 51.5475 5.49894C51.6111 5.45405 51.685 5.42944 51.7725 5.42944L54.8217 5.44038C54.9155 5.44038 54.982 5.46431 55.0199 5.51033C55.0598 5.55827 55.0699 5.62601 55.0508 5.71565C55.031 5.80357 54.9916 5.87187 54.932 5.91788C54.8734 5.96551 54.7972 5.98839 54.7029 5.98839L51.6544 5.97837C51.5657 5.97837 51.5018 5.95377 51.4599 5.90285Z" fill="#131718"/>
<path d="M51.4599 5.90285C51.4192 5.85323 51.4072 5.78749 51.4265 5.70265C51.4448 5.61476 51.4856 5.54653 51.5475 5.49894C51.6111 5.45405 51.685 5.42944 51.7725 5.42944L54.8217 5.44038C54.9155 5.44038 54.982 5.46431 55.0199 5.51033C55.0598 5.55827 55.0699 5.62601 55.0508 5.71565C55.031 5.80357 54.9916 5.87187 54.932 5.91788C54.8734 5.96551 54.7972 5.98839 54.7029 5.98839L51.6544 5.97837C51.5657 5.97837 51.5018 5.95377 51.4599 5.90285Z" fill="#131718"/>
<path d="M54.7082 6.04965H54.7029L51.6529 6.04079C51.5474 6.03952 51.4655 6.00606 51.4131 5.94193C51.3593 5.87769 51.3424 5.79299 51.3642 5.69014C51.3871 5.58718 51.4363 5.50598 51.5109 5.45076C51.5843 5.39542 51.6719 5.36966 51.7728 5.3689L54.8212 5.37765C54.9335 5.37765 55.0166 5.41045 55.0678 5.47136C55.1195 5.53423 55.1344 5.62103 55.1109 5.72714C55.0891 5.8301 55.0406 5.91074 54.9708 5.96572C54.9011 6.02095 54.8137 6.04888 54.7082 6.04965ZM51.7683 5.49109C51.6958 5.49109 51.6364 5.50963 51.5843 5.54916C51.5348 5.58718 51.5021 5.64048 51.4852 5.71586C51.4711 5.77999 51.4789 5.82884 51.507 5.86371V5.86483C51.5369 5.89956 51.5843 5.91733 51.6543 5.91733L54.7029 5.92609C54.778 5.92609 54.8462 5.9072 54.8941 5.87086C54.9431 5.83123 54.9746 5.77806 54.9895 5.70177C55.0055 5.63354 54.9991 5.5815 54.974 5.54916C54.9474 5.51818 54.8952 5.50157 54.8212 5.50157L51.7721 5.49109H51.77H51.7683Z" fill="white"/>
<path d="M21.7912 10.0193L19.9873 18.3837H54.2327L56.0368 10.0193H21.7912Z" fill="#3C6B9A"/>
<path d="M24.7592 17.0102C24.2223 17.0102 23.8125 16.9606 23.5279 16.8663C23.2435 16.7705 23.0572 16.616 22.9665 16.4004C22.8767 16.1867 22.8719 15.8916 22.9532 15.5147L23.4079 13.4149C23.4885 13.0448 23.6165 12.753 23.7919 12.5379C23.966 12.324 24.2094 12.1703 24.5166 12.0743C24.826 11.9782 25.2232 11.9306 25.7124 11.9329L27.0191 11.9366C27.3421 11.939 27.5658 12.0161 27.6875 12.1747C27.8087 12.3321 27.8342 12.5739 27.7638 12.9036C27.7002 13.1962 27.5532 13.3423 27.3224 13.3423C27.2138 13.3423 27.1365 13.305 27.0925 13.2297C27.0487 13.1582 27.0405 13.0554 27.0677 12.9257C27.0964 12.795 27.0933 12.707 27.0588 12.6618C27.0239 12.6174 26.9459 12.596 26.8187 12.5948L25.569 12.5912C25.1916 12.5904 24.9101 12.611 24.7259 12.6514C24.5406 12.6932 24.4044 12.7716 24.3122 12.8887C24.2207 13.0065 24.1482 13.1877 24.0959 13.4335L23.6469 15.5022C23.5922 15.7533 23.5873 15.9355 23.6311 16.0501C23.6747 16.1672 23.7902 16.2448 23.9781 16.2876C24.1672 16.3298 24.4746 16.3509 24.9025 16.352L26.0031 16.3557C26.129 16.3564 26.2194 16.3347 26.2735 16.29C26.3258 16.2467 26.3663 16.1592 26.3951 16.0284C26.4238 15.8972 26.476 15.7967 26.5525 15.7228C26.6283 15.6498 26.7211 15.6143 26.8303 15.6143C27.0599 15.62 27.1425 15.7689 27.079 16.0615C27.0085 16.386 26.879 16.6261 26.6891 16.7826C26.4979 16.939 26.2425 17.0164 25.9185 17.0152L24.7592 17.0102Z" fill="white"/>
<path d="M25.9361 17.077H25.9175L24.759 17.0725C24.2181 17.0713 23.7969 17.0193 23.5089 16.9232C23.2089 16.8239 23.0068 16.656 22.9093 16.4248C22.815 16.1992 22.8089 15.8892 22.8932 15.5027L23.3475 13.4021C23.4309 13.0235 23.5636 12.7204 23.7434 12.4993C23.926 12.2773 24.1791 12.1151 24.4982 12.0158C24.8116 11.9177 25.2189 11.8705 25.7121 11.8713L27.0185 11.8758C27.3609 11.8758 27.6028 11.9648 27.7352 12.1373C27.8688 12.3088 27.8983 12.5703 27.8234 12.9169C27.7352 13.3165 27.5068 13.4021 27.3279 13.4028H27.3226C27.1913 13.4028 27.0954 13.3557 27.0395 13.262C26.9864 13.176 26.9748 13.0582 27.0071 12.9124C27.0402 12.7552 27.0181 12.7103 27.0095 12.6994C27.0031 12.6905 26.965 12.6567 26.8185 12.6567L25.5692 12.6522C25.1967 12.651 24.9181 12.6707 24.7384 12.7103C24.5698 12.7478 24.4411 12.8209 24.3606 12.9261C24.2746 13.036 24.2067 13.2096 24.1544 13.4456L23.707 15.5143C23.6555 15.7529 23.649 15.9251 23.6875 16.0288C23.7232 16.1229 23.8256 16.1887 23.9921 16.2278C24.1747 16.2682 24.4804 16.2896 24.9019 16.292L26.0033 16.2952C26.109 16.2952 26.1916 16.2782 26.233 16.2432C26.2621 16.2191 26.3033 16.1605 26.3346 16.0152C26.3661 15.873 26.4244 15.7593 26.509 15.6782C26.595 15.5962 26.7021 15.5535 26.8256 15.5527H26.8301C26.95 15.5556 27.0383 15.5925 27.0938 15.6649C27.1653 15.7541 27.1792 15.8892 27.1383 16.0745C27.0649 16.4122 26.9282 16.6649 26.7285 16.8287C26.5305 16.9907 26.2637 17.0737 25.9361 17.077ZM25.6518 11.9923C25.1999 11.996 24.8246 12.0424 24.535 12.1328C24.2395 12.2256 24.0059 12.3733 23.8394 12.5772C23.6701 12.7814 23.5465 13.0682 23.4669 13.4282L23.0133 15.5281C22.9356 15.8892 22.9392 16.1749 23.0239 16.3775C23.1049 16.5741 23.2822 16.7174 23.5478 16.8073C23.8247 16.8993 24.2322 16.9466 24.7597 16.9502L25.9183 16.9534C26.2292 16.9519 26.4718 16.8805 26.6488 16.7347C26.8269 16.5879 26.9512 16.3561 27.0185 16.0487C27.0501 15.9017 27.0428 15.7988 26.997 15.7399C26.9637 15.6979 26.9087 15.6774 26.8285 15.6749C26.7373 15.6762 26.6593 15.7053 26.5941 15.7661C26.5272 15.8311 26.4802 15.9227 26.4548 16.0418C26.4244 16.1863 26.3779 16.2836 26.3111 16.3369C26.2467 16.3913 26.1423 16.4175 26.0033 16.4175L24.9019 16.4127C24.4654 16.4127 24.1577 16.3901 23.9657 16.3461C23.7556 16.2984 23.6243 16.2062 23.5732 16.0709C23.5244 15.9457 23.5293 15.7541 23.5863 15.4889L24.0358 13.4201C24.0888 13.1671 24.1666 12.9746 24.2634 12.8512C24.3629 12.7228 24.5136 12.6348 24.7119 12.5909C24.8999 12.5489 25.1882 12.5283 25.5692 12.5291L26.8185 12.5331C26.9663 12.5339 27.0614 12.563 27.1071 12.6245C27.1541 12.6857 27.1598 12.7861 27.1282 12.9367C27.1027 13.0525 27.1087 13.1406 27.1445 13.1998C27.1772 13.2534 27.2363 13.2793 27.3226 13.2793H27.3266C27.5227 13.2793 27.6461 13.1517 27.7021 12.8915C27.7707 12.5817 27.7477 12.3535 27.6384 12.2127C27.5287 12.0715 27.3196 12 27.0185 11.9984L25.7113 11.9923H25.6518Z" fill="white"/>
<path d="M32.0822 11.9525C32.3514 11.9537 32.4612 12.0643 32.4142 12.2843C32.3664 12.503 32.2094 12.6132 31.9393 12.6119L30.7727 12.6083L29.8814 16.7219C29.8591 16.8264 29.8021 16.912 29.7138 16.9789C29.6256 17.0472 29.521 17.0811 29.4004 17.0811C29.2785 17.0811 29.1929 17.0471 29.1415 16.9874C29.0882 16.9233 29.0756 16.8344 29.1003 16.7191L29.9916 12.6051L28.8084 12.6015C28.6824 12.6015 28.5898 12.5704 28.5322 12.5098C28.4734 12.4485 28.4556 12.3698 28.4763 12.2717C28.4986 12.1713 28.5512 12.0925 28.6354 12.032C28.7197 11.9724 28.8254 11.942 28.9505 11.9437L32.0822 11.9525Z" fill="white"/>
<path d="M29.406 17.1406H29.3984C29.2607 17.1406 29.1566 17.1022 29.0935 17.0247C29.0282 16.9473 29.0099 16.8398 29.0388 16.7058L29.9146 12.6657L28.8075 12.6621C28.6639 12.6609 28.5572 12.6254 28.4881 12.5528C28.4147 12.4773 28.3893 12.3788 28.4156 12.2574C28.4412 12.1438 28.5021 12.0507 28.6002 11.9825C28.6942 11.915 28.8111 11.8791 28.9505 11.8804L32.0823 11.8921C32.2494 11.8929 32.362 11.9312 32.4279 12.012C32.483 12.083 32.4997 12.1786 32.4737 12.2965C32.4361 12.4679 32.3147 12.6705 31.9477 12.6729H31.9392L30.8225 12.6681L29.9402 16.7329C29.9146 16.8524 29.8512 16.9517 29.7511 17.0283C29.6522 17.1022 29.5376 17.1406 29.406 17.1406ZM28.9448 12.0039C28.8342 12.0039 28.7428 12.0293 28.6712 12.083C28.5982 12.1338 28.5553 12.1985 28.5367 12.2839C28.5201 12.3615 28.5318 12.4231 28.5763 12.4667C28.6217 12.5156 28.6998 12.5398 28.8075 12.5398L30.0677 12.543L29.1607 16.7308C29.1395 16.8286 29.1485 16.8988 29.1873 16.9465C29.2286 16.9948 29.2988 17.0178 29.4001 17.0191C29.5032 17.0215 29.5981 16.9904 29.6762 16.9311C29.7539 16.8722 29.8 16.7991 29.8198 16.7079L30.7229 12.5453L31.9392 12.5503C32.1802 12.5453 32.3113 12.4623 32.3531 12.2715C32.3704 12.1903 32.3636 12.1302 32.3328 12.0894C32.2923 12.0397 32.2074 12.0154 32.0823 12.0143L28.9505 12.0039H28.9456H28.9448Z" fill="white"/>
<path d="M32.9545 16.7312C32.9023 16.9718 32.7613 17.0925 32.5321 17.0901C32.3022 17.0901 32.2127 16.9698 32.2641 16.7288L33.223 12.3098C33.2489 12.1846 33.2986 12.0877 33.3715 12.0204C33.4435 11.9535 33.5323 11.9176 33.6372 11.9187L35.2061 11.9244C35.9075 11.9279 36.3956 12.0253 36.6678 12.2227C36.941 12.4207 37.0292 12.7356 36.9353 13.1694C36.8386 13.6133 36.6283 13.9499 36.3049 14.1782C35.9804 14.4059 35.5605 14.5201 35.0385 14.5182L33.4355 14.5136L32.9545 16.7312ZM34.7854 13.8598C35.34 13.8611 35.7057 13.8184 35.8854 13.7302C36.0601 13.6528 36.1762 13.4825 36.2325 13.2226C36.2704 13.0431 36.2648 12.9103 36.2131 12.8222C36.1614 12.7331 36.0482 12.6717 35.8745 12.6363C35.7015 12.6023 35.4297 12.5842 35.0632 12.583L33.8554 12.5793L33.5785 13.8562L34.7854 13.8598Z" fill="white"/>
<path d="M32.5375 17.1532H32.5315C32.4014 17.1512 32.3068 17.1153 32.2496 17.0443C32.1889 16.9708 32.1738 16.8594 32.2034 16.7162L33.1618 12.2966C33.1923 12.159 33.2477 12.0513 33.3283 11.9743C33.4134 11.8967 33.5231 11.8583 33.6365 11.8572L35.2063 11.8632C35.9282 11.8648 36.4183 11.9669 36.7038 12.1732C36.9956 12.3847 37.0937 12.7236 36.9953 13.1818C36.8961 13.6401 36.6753 13.9917 36.3402 14.2277C36.0069 14.4625 35.5621 14.5841 35.0382 14.5793L33.4858 14.5756L33.0149 16.7436C32.9578 17.0099 32.793 17.1512 32.5375 17.1532ZM33.632 11.9803C33.5441 11.9811 33.4733 12.0089 33.4138 12.0658C33.3506 12.1232 33.3065 12.2103 33.2822 12.3221L32.3249 16.7412C32.3022 16.8466 32.3084 16.9232 32.3444 16.9672C32.3771 17.0075 32.4399 17.0293 32.5323 17.0293H32.5375C32.7355 17.0281 32.8485 16.9288 32.895 16.7186L33.3854 14.4521L35.0382 14.4578C35.5396 14.4578 35.9566 14.348 36.2685 14.1281C36.5779 13.9097 36.7819 13.5819 36.875 13.1555C36.9643 12.7442 36.8842 12.4553 36.631 12.2725C36.3712 12.0836 35.8905 11.9879 35.2059 11.9856L33.6357 11.9803H33.6325H33.632ZM34.8695 13.9219H34.7852L33.5013 13.9174L33.8054 12.5166L35.063 12.5202C35.4324 12.521 35.7101 12.5408 35.886 12.5755C36.0769 12.6138 36.2042 12.6857 36.2643 12.7906C36.3269 12.8935 36.3336 13.0396 36.2935 13.2338C36.2319 13.5134 36.1029 13.6999 35.9088 13.7854C35.7334 13.8733 35.3902 13.9187 34.8695 13.9219ZM34.7852 13.7983C35.3293 13.8007 35.6884 13.7592 35.8571 13.6748C36.0167 13.6038 36.1208 13.4524 36.1729 13.2087C36.2073 13.0477 36.2024 12.9275 36.1588 12.852C36.1166 12.7794 36.0167 12.7261 35.8621 12.6957C35.6936 12.6624 35.4243 12.6449 35.063 12.6425L33.9042 12.6389L33.6556 13.7939L34.7852 13.7983Z" fill="white"/>
<path d="M40.3009 11.9803L41.2418 16.7117C41.247 16.763 41.2418 16.8295 41.2256 16.9058C41.2097 16.9813 41.1602 17.0459 41.0793 17.1036C40.9974 17.1604 40.9109 17.1883 40.8174 17.1883C40.6472 17.1866 40.5477 17.1036 40.5188 16.9361L40.2622 15.579L38.0428 15.572L37.1986 16.9244C37.0846 17.0908 36.9504 17.1766 36.7911 17.1755C36.6972 17.1755 36.6223 17.1456 36.5667 17.0886C36.5101 17.0309 36.4905 16.9653 36.5052 16.8921C36.5239 16.8147 36.5453 16.7484 36.5724 16.6969L39.5621 11.9778L40.3009 11.9803ZM39.7098 12.9653L38.464 14.9146L40.1254 14.9195L39.7098 12.9653Z" fill="white"/>
<path d="M40.823 17.2483H40.817C40.618 17.2483 40.4925 17.1442 40.458 16.9477L40.2105 15.6405L38.0769 15.6337L37.2514 16.9577C37.1251 17.1418 36.9721 17.2353 36.7949 17.2353H36.7911C36.6807 17.2353 36.5903 17.2011 36.5228 17.1317C36.4528 17.0586 36.4268 16.9714 36.4461 16.8795C36.4637 16.7948 36.4898 16.7233 36.5193 16.6676L39.5273 11.9163L40.3525 11.9176L40.362 11.9672L41.3023 16.699C41.3093 16.7637 41.3023 16.8343 41.2846 16.9199C41.266 17.0086 41.2087 17.0865 41.1148 17.1523C41.0248 17.2174 40.9267 17.2483 40.823 17.2483ZM38.0087 15.5106L40.3139 15.5178L40.579 16.9242C40.6036 17.0644 40.6771 17.1268 40.8181 17.1268H40.8216C40.9014 17.1257 40.9738 17.1026 41.0431 17.053C41.1113 17.0045 41.1514 16.9521 41.1655 16.8944C41.1799 16.8238 41.1851 16.7637 41.1816 16.7176L40.2513 12.0414L39.5962 12.039L36.6255 16.7289C36.6023 16.7718 36.5815 16.8309 36.5671 16.9045C36.5544 16.9577 36.5696 17.0021 36.611 17.0457C36.6557 17.0922 36.7137 17.1144 36.7911 17.1144H36.7939C36.9306 17.1127 37.0456 17.0389 37.148 16.8909L38.0087 15.5106ZM40.2021 14.981L38.3526 14.975L39.739 12.8058L40.2021 14.981ZM38.5762 14.8535L40.0491 14.8595L39.6806 13.125L38.5762 14.8535Z" fill="white"/>
<path d="M42.7408 16.7487C42.6859 16.9984 42.5439 17.1248 42.3136 17.1236C42.0829 17.1224 41.9947 16.9961 42.0499 16.7463L43.0101 12.3177C43.0643 12.0623 43.2021 11.936 43.4218 11.936C43.6627 11.936 43.7552 12.0644 43.7 12.3202L43.3347 14.0044L46.1947 14.0142L46.561 12.3307C46.6159 12.0737 46.7583 11.9466 46.9896 11.9466C47.2203 11.9486 47.3071 12.075 47.2512 12.3307L46.2921 16.7587C46.2379 17.0097 46.0951 17.1348 45.8634 17.1336C45.6349 17.1336 45.5473 17.0089 45.6011 16.7566L46.0533 14.6731L43.1919 14.6642L42.7408 16.7487Z" fill="white"/>
<path d="M45.8683 17.1965H45.863C45.7365 17.1953 45.6419 17.1581 45.5846 17.0875C45.522 17.01 45.5079 16.8947 45.5399 16.7453L45.9762 14.7331L43.2425 14.7255L42.8002 16.7605C42.7404 17.0366 42.5741 17.1828 42.3174 17.1839H42.3132C42.1845 17.1839 42.0902 17.1477 42.034 17.077C41.9718 16.9988 41.9556 16.8829 41.9897 16.7327L42.9489 12.3064C43.0252 11.9513 43.2436 11.875 43.4158 11.875H43.4193C43.5554 11.875 43.6539 11.9117 43.7123 11.986C43.7769 12.0643 43.7931 12.1813 43.7583 12.333L43.4106 13.9441L46.1447 13.9525L46.498 12.3165C46.5757 11.9629 46.8029 11.8875 46.9826 11.8866H46.9889C47.1141 11.8866 47.2083 11.9222 47.2656 11.9924C47.3286 12.0716 47.344 12.1909 47.3103 12.3448L46.3514 16.7719C46.2902 17.0484 46.1246 17.1941 45.8683 17.1965ZM43.1416 14.6015L46.1278 14.612L45.6601 16.7695C45.6362 16.8829 45.6419 16.9653 45.6805 17.01C45.7133 17.0532 45.7745 17.0726 45.8641 17.0738H45.8683C46.0673 17.0714 46.1823 16.9677 46.2305 16.7465L47.1889 12.3181C47.2143 12.2023 47.2083 12.1191 47.17 12.0692C47.1362 12.0295 47.0751 12.0089 46.9879 12.0082H46.9826C46.7843 12.0089 46.6689 12.1167 46.6194 12.3435L46.2449 14.0753L43.2576 14.066L43.6398 12.3064C43.6634 12.1934 43.6563 12.1106 43.6173 12.0622C43.5825 12.0199 43.5157 11.9978 43.4204 11.9978H43.4162C43.2281 11.9985 43.1176 12.1038 43.0677 12.3306L42.1093 16.7589C42.0853 16.8712 42.0913 16.9523 42.1307 16.9988C42.162 17.0392 42.2249 17.0613 42.3132 17.0613H42.3174C42.5164 17.0597 42.6317 16.9568 42.6799 16.7356L43.1416 14.6015Z" fill="white"/>
<path d="M50.8389 12.0136L51.7798 16.7464C51.7848 16.7972 51.7791 16.8635 51.7623 16.9417C51.7464 17.0149 51.6976 17.0793 51.6167 17.137C51.5366 17.194 51.4486 17.223 51.3562 17.223C51.1853 17.2214 51.0858 17.1382 51.0559 16.9708L50.7996 15.614L48.5806 15.6055L47.7356 16.9602C47.6231 17.1269 47.4864 17.21 47.3285 17.21C47.2342 17.21 47.16 17.1802 47.1038 17.1221C47.0479 17.0656 47.0282 16.9995 47.0437 16.9268C47.0605 16.8481 47.083 16.7831 47.1105 16.7303L50.0999 12.0112L50.8389 12.0136ZM50.2472 12.9999L49.0011 14.9497L50.6625 14.9529L50.2472 12.9999Z" fill="white"/>
<path d="M51.3582 17.2846H51.3561C51.155 17.2846 51.0302 17.1792 50.9954 16.9814L50.7486 15.6743L48.615 15.667L47.7876 16.9932C47.6614 17.1792 47.5085 17.272 47.3274 17.272C47.217 17.2709 47.128 17.2349 47.0602 17.1652C46.9906 17.0937 46.9635 17.0057 46.9825 16.9133C47.0011 16.8313 47.0254 16.7607 47.0559 16.7026L50.0668 11.9502L50.8896 11.9526L50.8994 12.0022L51.8392 16.7336C51.8473 16.7986 51.8399 16.8693 51.821 16.9548C51.8027 17.044 51.7461 17.1216 51.6522 17.1873C51.5622 17.251 51.4644 17.2846 51.3582 17.2846ZM48.5457 15.5459L50.8516 15.5529L51.1171 16.9592C51.1417 17.0993 51.2148 17.1618 51.3561 17.1618H51.3582C51.4384 17.1618 51.5112 17.1376 51.5808 17.0879C51.649 17.0404 51.6891 16.9874 51.7011 16.9293C51.7173 16.8563 51.7218 16.7974 51.7186 16.7526L50.7879 12.0765L50.1332 12.0728L47.1628 16.764C47.1407 16.8067 47.1185 16.8685 47.1041 16.9399C47.0921 16.9932 47.1055 17.0371 47.1477 17.0811C47.1927 17.1248 47.2514 17.1478 47.3281 17.1494H47.332C47.4687 17.1478 47.5837 17.0743 47.685 16.9258L48.5457 15.5459ZM50.7387 15.016L48.8913 15.01L50.2767 12.8408L50.7387 15.016ZM49.115 14.8885L50.5868 14.8934L50.2183 13.1604L49.115 14.8885Z" fill="white"/>
<path d="M1.89919 19.0615L0.112793 27.3411H69.416L71.2015 19.0598L1.89919 19.0615Z" fill="#CE4D5D"/>
<path d="M3.9279 21.0097C3.95544 20.8836 4.00448 20.786 4.07773 20.719C4.15026 20.652 4.23686 20.6173 4.34017 20.6184L5.88742 20.6246C6.37406 20.6246 6.7563 20.6705 7.02881 20.7609C7.30335 20.8499 7.48802 20.9898 7.58369 21.1807C7.67962 21.3728 7.69416 21.6246 7.62556 21.9387C7.54789 22.2982 7.38884 22.5783 7.14829 22.7748C7.52398 23.0109 7.64468 23.4446 7.50869 24.0694L7.47577 24.2196C7.39406 24.5961 7.26201 24.8907 7.0791 25.1038C6.89522 25.3189 6.6413 25.4715 6.31739 25.5639C5.99268 25.6571 5.56463 25.7032 5.03263 25.7019L3.24119 25.6959C3.1371 25.6959 3.0634 25.6612 3.02044 25.5918C2.97804 25.5239 2.96982 25.4275 2.99667 25.3027L3.9279 21.0097ZM4.13198 23.2527L3.74567 25.0389L5.17556 25.0421C5.59824 25.0445 5.91049 25.0247 6.11332 24.9835C6.31819 24.9428 6.46723 24.8666 6.56225 24.7543C6.65867 24.641 6.73239 24.463 6.78539 24.2163L6.8142 24.0924C6.8664 23.8459 6.87216 23.6666 6.83157 23.5562C6.78986 23.4423 6.68418 23.366 6.51905 23.3221C6.35302 23.2793 6.08371 23.2582 5.71122 23.2571L4.13198 23.2527ZM5.45895 22.5981C5.82574 22.5981 6.10555 22.5827 6.3012 22.546C6.49519 22.51 6.6388 22.4475 6.73239 22.3582C6.82518 22.2703 6.89155 22.1376 6.93006 21.9592C6.96798 21.7812 6.96037 21.6505 6.90492 21.5636C6.84984 21.4764 6.73239 21.4144 6.55464 21.3771C6.37566 21.3401 6.10267 21.3219 5.73513 21.3208L4.55191 21.3174L4.27459 22.5936L5.45895 22.5981Z" fill="white"/>
<path d="M5.11075 25.763H5.03339L3.24084 25.757C3.11481 25.757 3.0226 25.7122 2.96866 25.6255C2.91759 25.5444 2.90674 25.4313 2.93667 25.2898L3.86851 20.9956C3.89797 20.8596 3.95339 20.7503 4.03496 20.6757C4.11826 20.5965 4.21997 20.5574 4.33777 20.5574H4.34188L5.8874 20.5618C6.37979 20.563 6.77018 20.6102 7.04876 20.7007C7.33789 20.7962 7.53668 20.948 7.63906 21.1543C7.74112 21.357 7.75619 21.6248 7.68567 21.9513C7.61152 22.2924 7.46536 22.568 7.24782 22.7694C7.59336 23.0285 7.70223 23.4686 7.56859 24.0847L7.53668 24.2327C7.45407 24.6165 7.31557 24.9233 7.12616 25.1445C6.93451 25.3664 6.66935 25.527 6.33361 25.6231C6.02019 25.7134 5.60967 25.7594 5.11075 25.763ZM4.33903 20.6784C4.2507 20.6797 4.17894 20.708 4.11906 20.7639C4.05669 20.8234 4.01256 20.9089 3.98869 21.0214L3.05699 25.3156C3.03391 25.424 3.03871 25.5076 3.07287 25.5608C3.10395 25.6093 3.15903 25.6351 3.24084 25.6351L5.0342 25.6416C5.55821 25.6429 5.98216 25.5956 6.30005 25.5063C6.61139 25.4164 6.85716 25.2679 7.03252 25.0645C7.2083 24.86 7.33661 24.5717 7.41593 24.2073L7.44757 24.0576C7.57967 23.4539 7.47063 23.0526 7.11662 22.8271L7.04258 22.7831L7.10869 22.7285C7.33661 22.5414 7.49007 22.2705 7.56539 21.9247C7.62899 21.6272 7.61722 21.3863 7.52859 21.2088C7.44267 21.0347 7.26769 20.9032 7.00903 20.8184C6.74461 20.7322 6.36685 20.6869 5.8874 20.6845L4.34015 20.6784H4.33903ZM5.27677 25.1048H5.17519L3.66921 25.1L4.08264 23.1902L5.71087 23.1976C6.09274 23.1976 6.35987 23.2189 6.53437 23.2621C6.72117 23.3109 6.83969 23.4018 6.88832 23.5342C6.93451 23.6584 6.92971 23.8461 6.87304 24.1044L6.84667 24.2303C6.79111 24.485 6.71105 24.6734 6.60974 24.7925C6.50614 24.9165 6.34298 25.0003 6.12667 25.0423C5.93725 25.0826 5.65042 25.1024 5.27677 25.1048ZM3.82188 24.9777L5.176 24.9814C5.59102 24.9814 5.90354 24.964 6.10073 24.9224C6.29073 24.8854 6.43071 24.8155 6.51583 24.7139C6.60324 24.6101 6.67419 24.4386 6.72522 24.2049L6.75271 24.0798C6.80336 23.8461 6.81024 23.6774 6.77295 23.5765C6.73843 23.4845 6.6499 23.419 6.50364 23.3812C6.34298 23.3404 6.07607 23.3198 5.71087 23.3182L4.18179 23.313L3.82188 24.9777ZM5.55123 22.6595H5.45903L4.19962 22.6547L4.50253 21.2548L5.73639 21.2596C6.10568 21.2609 6.38453 21.2807 6.56692 21.3181C6.76405 21.3602 6.89152 21.43 6.95714 21.5304C7.02208 21.6321 7.03289 21.7765 6.98958 21.9719C6.94947 22.1604 6.87581 22.3069 6.77545 22.4037C6.67345 22.4981 6.51748 22.568 6.31134 22.6059C6.12907 22.6398 5.8809 22.6584 5.55123 22.6595ZM4.35148 22.5332L5.45935 22.5369C5.82215 22.5369 6.10073 22.5219 6.28998 22.4857C6.4721 22.4522 6.60644 22.3944 6.68991 22.3146C6.77295 22.2363 6.8333 22.1112 6.86942 21.9468C6.90494 21.7871 6.89855 21.6689 6.85397 21.5973C6.80656 21.5255 6.70211 21.4711 6.54055 21.4376C6.36813 21.4028 6.09711 21.3832 5.73474 21.3823L4.60218 21.38L4.35148 22.5332Z" fill="white"/>
<path d="M12.6832 23.8751C12.6007 24.2636 12.4399 24.599 12.2058 24.8896C11.9699 25.1797 11.6746 25.4018 11.3203 25.5571C10.9648 25.7132 10.5748 25.7907 10.1468 25.7891C9.71967 25.7859 9.36247 25.7076 9.07669 25.5487C8.78863 25.3929 8.59122 25.1668 8.48096 24.8766C8.37203 24.5878 8.35898 24.2487 8.44336 23.8613L8.7409 22.4823C8.82442 22.0969 8.98428 21.7579 9.22035 21.4685C9.45606 21.1791 9.75073 20.9564 10.1047 20.801C10.4594 20.646 10.851 20.5685 11.2779 20.5701C11.7054 20.5706 12.0622 20.651 12.35 20.8079C12.6351 20.9664 12.8351 21.1912 12.9437 21.4815C13.0538 21.7704 13.0675 22.1094 12.9826 22.4972L12.6832 23.8751ZM11.1348 21.228C10.6688 21.2259 10.291 21.3357 9.99857 21.5528C9.70758 21.7715 9.51753 22.0912 9.4258 22.5085L9.13689 23.8414C9.04756 24.2588 9.10056 24.5768 9.2961 24.7979C9.49206 25.0191 9.82365 25.1289 10.2902 25.1301C10.7555 25.1324 11.1332 25.024 11.4261 24.8048C11.7168 24.5865 11.9079 24.2673 11.9981 23.8495L12.2873 22.5178C12.3747 22.1155 12.3254 21.7961 12.1415 21.5613C11.9423 21.3402 11.6074 21.2292 11.1348 21.228Z" fill="white"/>
<path d="M10.1763 25.8504C10.1671 25.8504 10.1561 25.8496 10.1467 25.8496C9.70994 25.848 9.33979 25.7647 9.04624 25.603C8.74736 25.4383 8.53802 25.2015 8.42339 24.8988C8.31084 24.5977 8.29593 24.2445 8.38169 23.849L8.68051 22.4705C8.7668 22.0758 8.93246 21.7258 9.17296 21.4301C9.41223 21.1339 9.71798 20.9035 10.0804 20.7455C10.4412 20.5854 10.8445 20.5107 11.2778 20.5083C11.7143 20.5091 12.0836 20.5914 12.378 20.7545C12.6772 20.9187 12.8864 21.1557 13.0015 21.4591C13.1145 21.7598 13.1287 22.1113 13.0427 22.5096L12.7441 23.8874C12.6577 24.2829 12.4926 24.6324 12.2527 24.9274C12.011 25.2232 11.7065 25.4552 11.3446 25.6134C10.9922 25.7685 10.5983 25.848 10.1763 25.8504ZM11.2495 20.6317C10.8441 20.633 10.4667 20.7096 10.1297 20.8575C9.7852 21.0092 9.49602 21.2267 9.26724 21.5076C9.03846 21.7877 8.88218 22.1205 8.80127 22.4955L8.50239 23.8744C8.42185 24.2469 8.43346 24.5767 8.53925 24.8555C8.6437 25.13 8.83365 25.3459 9.10611 25.4965C9.38198 25.6482 9.7314 25.7245 10.1467 25.7265C10.5647 25.7277 10.9498 25.6514 11.2951 25.5013C11.6393 25.35 11.9288 25.1308 12.1564 24.8519C12.3844 24.571 12.5419 24.2382 12.6229 23.8615L12.9225 22.4837C13.0031 22.1089 12.9913 21.7794 12.8856 21.5035C12.7812 21.2267 12.5918 21.0112 12.3188 20.8623C12.0427 20.7104 11.6928 20.633 11.2778 20.6317H11.2495ZM10.3132 25.191H10.2885C9.80635 25.1898 9.45682 25.0707 9.24988 24.8383C9.04054 24.6045 8.98344 24.2631 9.07745 23.8269L9.3661 22.4955C9.45921 22.0642 9.66136 21.732 9.96301 21.504C10.2582 21.2824 10.6449 21.1685 11.1093 21.1674H11.1344C11.6227 21.1685 11.9767 21.2852 12.1872 21.5192C12.3844 21.7715 12.4391 22.1113 12.3479 22.5301L12.0581 23.8615C11.9653 24.2934 11.7653 24.6255 11.4628 24.8544C11.1676 25.0755 10.7809 25.1886 10.3132 25.191ZM11.1106 21.2899C10.672 21.2912 10.3104 21.3966 10.0362 21.6011C9.75846 21.8106 9.57304 22.1205 9.48723 22.5221L9.1989 23.8528C9.11223 24.2493 9.16124 24.5524 9.34256 24.7576C9.52516 24.9622 9.84507 25.0675 10.2893 25.0695C10.7395 25.065 11.1093 24.9657 11.3895 24.7559C11.6657 24.5472 11.8519 24.2382 11.9387 23.8366L12.2272 22.5035C12.3094 22.123 12.2642 21.8179 12.0921 21.5992C11.9087 21.3953 11.5856 21.2899 11.1344 21.2899H11.1106Z" fill="white"/>
<path d="M16.3489 22.7897C16.6562 22.7914 16.9133 22.7289 17.1215 22.6001C17.3312 22.4743 17.4579 22.305 17.5033 22.0968C17.5536 21.8657 17.4952 21.6794 17.3328 21.535C17.17 21.391 16.9372 21.3175 16.6351 21.3175L15.1321 21.3115C15.0002 21.3115 14.9077 21.3326 14.8583 21.3736C14.809 21.4156 14.7677 21.507 14.7372 21.648L14.7073 21.7894C14.6487 22.0569 14.5053 22.1885 14.2753 22.1861C14.0444 22.1861 13.9594 22.0529 14.0173 21.7873C14.1081 21.3688 14.2432 21.0754 14.4218 20.9055C14.6005 20.7364 14.8648 20.6533 15.2171 20.6541L16.8348 20.659C17.1647 20.6601 17.4422 20.7178 17.6697 20.8349C17.8957 20.9492 18.0585 21.1126 18.152 21.322C18.2467 21.5311 18.2638 21.7708 18.205 22.0424C18.1058 22.5028 17.8523 22.8661 17.4433 23.1312C17.7293 23.4298 17.8215 23.8149 17.7187 24.2846C17.6596 24.5611 17.5345 24.8097 17.3441 25.0321C17.1531 25.254 16.9161 25.4263 16.6351 25.5502C16.3532 25.6762 16.0528 25.7366 15.7359 25.7366L14.1165 25.7306C13.7654 25.7306 13.5374 25.6439 13.4318 25.4735C13.3262 25.3036 13.3179 25.0102 13.4091 24.5913C13.4666 24.325 13.61 24.1922 13.8408 24.1934C14.0704 24.1934 14.1573 24.3273 14.0991 24.5946L14.0675 24.7358C14.0388 24.8771 14.0392 24.9683 14.0704 25.0102C14.1024 25.0514 14.1839 25.0723 14.3158 25.0736L15.8204 25.0784C16.1157 25.0792 16.3813 24.9973 16.6146 24.834C16.847 24.6708 16.9894 24.4671 17.0416 24.2269C17.091 23.9976 17.038 23.8113 16.8833 23.6667C16.7287 23.522 16.5024 23.4496 16.2055 23.448L15.4997 23.4455C15.215 23.4447 15.0969 23.3362 15.1433 23.1151C15.1915 22.8951 15.3572 22.7865 15.6423 22.7873L16.3489 22.7897Z" fill="white"/>
<path d="M15.7551 25.7975H15.7352L14.1163 25.7914C13.7441 25.7906 13.4971 25.6958 13.3798 25.5061C13.2643 25.3209 13.2539 25.0179 13.349 24.5791C13.4288 24.2083 13.6657 24.1352 13.8411 24.1317C13.9657 24.1333 14.0563 24.1687 14.1136 24.2393C14.1798 24.3216 14.1949 24.4432 14.1605 24.6061L14.1297 24.7482C14.0913 24.9242 14.1147 24.9658 14.1196 24.9731C14.1257 24.9786 14.1576 25.011 14.3164 25.0122L15.821 25.0166H15.8332C16.1098 25.0146 16.3609 24.9367 16.5787 24.7828C16.8006 24.6271 16.9322 24.4407 16.9808 24.2147C17.0274 24.0061 16.9808 23.8414 16.8423 23.7094C16.6982 23.5775 16.4854 23.5093 16.2065 23.5093L15.4999 23.508C15.3193 23.506 15.1983 23.4645 15.1298 23.3797C15.0744 23.3115 15.059 23.2174 15.0837 23.1033C15.121 22.9309 15.246 22.7287 15.6336 22.7263H15.6428L16.3491 22.7287C16.6508 22.7287 16.8929 22.6683 17.0905 22.548C17.2856 22.4289 17.4011 22.2771 17.4427 22.083C17.4881 21.8748 17.4395 21.7105 17.2925 21.5811C17.1411 21.4478 16.9204 21.3797 16.6354 21.3789L15.1307 21.3736C14.9817 21.3712 14.9246 21.3993 14.8983 21.4212C14.8719 21.4429 14.8313 21.5035 14.7982 21.6605L14.7679 21.8005C14.688 22.1686 14.4596 22.2473 14.2815 22.2498H14.275C14.1512 22.2473 14.0588 22.211 14.0025 22.1421C13.9362 22.0583 13.9203 21.9394 13.9559 21.7739C14.0494 21.3461 14.1917 21.0382 14.3799 20.8602C14.5703 20.6818 14.8533 20.5987 15.2164 20.5918L16.8366 20.5975C17.174 20.5987 17.4626 20.6601 17.699 20.7788C17.9368 20.9006 18.1085 21.0741 18.2085 21.2965C18.3085 21.516 18.3267 21.7727 18.2657 22.0551C18.1684 22.5076 17.923 22.872 17.5363 23.1416C17.7986 23.4479 17.8801 23.8358 17.7805 24.297C17.7173 24.584 17.5869 24.8443 17.3901 25.0723C17.1945 25.2991 16.9496 25.4795 16.6592 25.6067C16.3782 25.7306 16.0741 25.7956 15.7551 25.7975ZM13.8366 24.2543C13.6378 24.2559 13.5207 24.3665 13.4692 24.605C13.3826 25.0041 13.3874 25.2862 13.4843 25.4424C13.5774 25.5917 13.79 25.6692 14.1163 25.6708L15.7369 25.6749C16.0507 25.6785 16.3394 25.616 16.6107 25.4957C16.8824 25.3742 17.1132 25.2055 17.2975 24.9928C17.4812 24.7801 17.6024 24.5368 17.6594 24.2716C17.7587 23.8184 17.6728 23.4597 17.3991 23.1728L17.3482 23.1195L17.4096 23.0791C17.8027 22.8244 18.0505 22.4717 18.1457 22.0298C18.2015 21.7727 18.1847 21.5427 18.0959 21.3473C18.0081 21.1516 17.8542 20.9966 17.6424 20.8889C17.4253 20.7772 17.1549 20.7214 16.8349 20.7189L15.2161 20.7145H15.2C14.8751 20.7164 14.6277 20.7959 14.4646 20.949C14.2946 21.1092 14.1645 21.3957 14.077 21.7997C14.0499 21.9244 14.0563 22.0125 14.0989 22.0657C14.1305 22.1053 14.1909 22.1246 14.275 22.1246C14.473 22.1326 14.5949 22.0157 14.6476 21.7762L14.6788 21.6344C14.7115 21.4794 14.7573 21.3789 14.8201 21.3263C14.8816 21.2754 14.9905 21.2545 15.1323 21.2496L16.6354 21.2545C16.9512 21.2558 17.1995 21.3345 17.3744 21.4894C17.5538 21.6491 17.6184 21.8571 17.5638 22.108C17.5145 22.3336 17.3776 22.5169 17.1557 22.6521C16.9374 22.7848 16.6646 22.8511 16.3491 22.8511L15.6428 22.8486C15.3837 22.8511 15.2452 22.9378 15.2032 23.1275C15.1885 23.2054 15.1933 23.2654 15.2262 23.3035C15.2683 23.3556 15.3622 23.3846 15.4999 23.3846L16.2073 23.3878C16.5167 23.3878 16.7593 23.4668 16.9257 23.6202C17.097 23.7812 17.156 23.9888 17.1014 24.2393C17.0468 24.4939 16.8946 24.7115 16.6492 24.8834C16.4106 25.0525 16.1353 25.1382 15.8332 25.1393H15.821L14.3164 25.1349C14.1609 25.1349 14.0674 25.1069 14.0224 25.0469C13.977 24.9868 13.973 24.8883 14.0091 24.7232L14.0386 24.5802C14.0666 24.4556 14.0597 24.3665 14.0176 24.3156C13.9851 24.2756 13.9252 24.2559 13.8406 24.2543H13.8369H13.8366Z" fill="white"/>
<path d="M21.4933 23.4572C21.4006 23.5303 21.3046 23.567 21.2058 23.567C21.1026 23.5649 21.0196 23.5291 20.9589 23.4553L20.0776 21.7518L19.2865 25.403C19.2294 25.6685 19.0844 25.8024 18.8548 25.8013C18.6253 25.8 18.5361 25.6749 18.5908 25.4238L19.5509 20.9975C19.6056 20.7411 19.7432 20.6125 19.9635 20.6145C20.0996 20.6145 20.2024 20.6831 20.272 20.8183L21.3528 22.8536L23.3232 20.8199C23.4552 20.6912 23.5844 20.6267 23.7114 20.6267C23.9359 20.6267 24.0201 20.7549 23.965 21.0108L23.0048 25.4388C22.9507 25.6886 22.8088 25.815 22.5781 25.8129C22.348 25.8129 22.2623 25.6785 22.3197 25.4125L23.1105 21.7616L21.4933 23.4572Z" fill="white"/>
<path d="M22.585 25.8741H22.5794C22.4543 25.8741 22.3624 25.8381 22.3056 25.7688C22.2398 25.6856 22.2238 25.5649 22.2596 25.3995L23.0049 21.9632L21.5323 23.5063C21.4295 23.587 21.3213 23.6274 21.2116 23.6274H21.2068C21.0844 23.6274 20.9839 23.5822 20.9124 23.4946L20.1029 21.9316L19.3473 25.416C19.2667 25.786 19.0391 25.8698 18.8546 25.864C18.7266 25.864 18.6351 25.8257 18.5768 25.7546C18.5144 25.6775 18.4982 25.5628 18.531 25.4103L19.491 20.9844C19.5676 20.6301 19.7867 20.5534 19.9576 20.5522H19.9636C20.1247 20.5534 20.2471 20.6337 20.328 20.7906L21.3675 22.7504L23.2792 20.779C23.423 20.6365 23.567 20.5655 23.7088 20.5642H23.7116C23.8343 20.5655 23.9246 20.6002 23.9805 20.6703C24.044 20.7481 24.0595 20.8669 24.0261 21.0231L23.0661 25.4508C23.0066 25.7272 22.8397 25.8729 22.585 25.8741ZM23.2175 21.5612L22.3814 25.4265C22.3534 25.5501 22.3601 25.6404 22.4012 25.6901C22.4348 25.7309 22.494 25.7514 22.5794 25.7523C22.7855 25.7546 22.8978 25.6493 22.9463 25.4253L23.9052 20.9977C23.9303 20.8799 23.9241 20.7963 23.8833 20.7471C23.8541 20.7076 23.7946 20.6865 23.7116 20.6865H23.7092C23.6011 20.6878 23.4857 20.7471 23.3677 20.865L21.3383 22.9567L20.2183 20.8476C20.1592 20.7306 20.0769 20.6753 19.9625 20.6753C19.7802 20.6729 19.6616 20.7806 19.6121 21.0095L18.6521 25.4358C18.6278 25.5488 18.6351 25.6299 18.6728 25.6788C18.7059 25.7192 18.7672 25.7401 18.8557 25.7401C19.0558 25.7401 19.1761 25.6299 19.2267 25.3895L20.0547 21.572L21.0139 23.4261C21.0557 23.4761 21.1218 23.504 21.2068 23.5063H21.21C21.2925 23.504 21.3732 23.4737 21.4534 23.4123L23.2175 21.5612Z" fill="white"/>
<path d="M28.6968 23.928C28.6127 24.3149 28.4523 24.6527 28.2175 24.9418C27.9822 25.231 27.687 25.4538 27.3326 25.6091C26.978 25.7654 26.5865 25.8415 26.16 25.8415C25.7312 25.8391 25.3753 25.7605 25.0881 25.6019C24.8007 25.4437 24.6035 25.219 24.4937 24.9299C24.3832 24.6398 24.3711 24.3007 24.4548 23.9134L24.7525 22.5351C24.8375 22.1489 24.9975 21.81 25.2332 21.5218C25.468 21.2317 25.7616 21.0096 26.1174 20.8531C26.4722 20.6982 26.8625 20.6206 27.2909 20.6223C27.7169 20.6231 28.0744 20.7042 28.3612 20.86C28.6467 21.019 28.8463 21.2417 28.9568 21.5332C29.0653 21.824 29.0787 22.1619 28.9945 22.5481L28.6968 23.928ZM27.1476 21.2801C26.6811 21.2793 26.3026 21.3862 26.0119 21.6066C25.7198 21.824 25.5292 22.1429 25.4388 22.5594L25.149 23.8936C25.0594 24.311 25.112 24.6305 25.3097 24.8501C25.5052 25.0713 25.8353 25.1809 26.3018 25.1818C26.7678 25.1842 27.1452 25.076 27.438 24.8572C27.7283 24.6375 27.9202 24.3206 28.0109 23.9017L28.2989 22.5703C28.3864 22.1676 28.3377 21.8495 28.1538 21.6134C27.9534 21.3926 27.6193 21.2809 27.1476 21.2801Z" fill="white"/>
<path d="M26.1859 25.9018H26.1587C25.7221 25.8994 25.3516 25.8186 25.0568 25.6572C24.7584 25.4909 24.5495 25.2552 24.4354 24.9513C24.3216 24.6526 24.3073 24.2971 24.3932 23.9017L24.6925 22.5226C24.7779 22.1278 24.9447 21.7788 25.1828 21.4827C25.4229 21.1876 25.7291 20.9563 26.0919 20.7981C26.4526 20.639 26.8556 20.5629 27.2904 20.5608C27.7262 20.5621 28.0958 20.6451 28.3903 20.807C28.6882 20.97 28.8972 21.2086 29.0122 21.5113C29.1268 21.8123 29.1405 22.1651 29.0547 22.5621L28.755 23.9412C28.6696 24.3355 28.5044 24.6846 28.2643 24.9799C28.0237 25.2758 27.7184 25.5074 27.3564 25.6659C27.003 25.8211 26.6085 25.8994 26.1859 25.9018ZM27.26 20.6831C26.8551 20.6844 26.4777 20.761 26.1413 20.91C25.7975 21.0617 25.5072 21.2804 25.2805 21.5613C25.0513 21.8401 24.8938 22.1735 24.8127 22.5481L24.5143 23.927C24.4328 24.3007 24.4459 24.6309 24.5503 24.9081C24.6544 25.1837 24.8451 25.3989 25.1159 25.549C25.3933 25.7008 25.7428 25.7779 26.1591 25.7803C26.5692 25.7746 26.9616 25.704 27.307 25.5539C27.6501 25.4021 27.9395 25.1837 28.1687 24.9024C28.3971 24.6224 28.5537 24.2902 28.6351 23.9157L28.934 22.5367C29.0146 22.1627 29.0025 21.8346 28.8972 21.5549C28.7927 21.2804 28.6031 21.0653 28.3295 20.9147C28.0545 20.7634 27.7043 20.6844 27.2896 20.6831H27.26ZM26.3251 25.2435H26.3008C25.8186 25.2427 25.4686 25.1244 25.2622 24.8908C25.0524 24.6558 24.9941 24.3157 25.0897 23.881L25.3776 22.5481C25.4707 22.1167 25.6714 21.7834 25.974 21.5564C26.2744 21.3313 26.6733 21.2211 27.1472 21.2199C27.6338 21.2199 27.9885 21.3393 28.1978 21.5717C28.3971 21.8248 28.4488 22.1651 28.359 22.5816L28.0695 23.9157C27.9772 24.3464 27.776 24.6792 27.4751 24.9056C27.1771 25.1276 26.7924 25.2411 26.3251 25.2435ZM27.1236 21.3417C26.6842 21.3438 26.3223 21.4491 26.0477 21.6553C25.7703 21.8632 25.5845 22.1735 25.4979 22.5739L25.2091 23.9065C25.1237 24.3007 25.1723 24.605 25.3537 24.8097C25.5368 25.0148 25.8559 25.1188 26.3011 25.122C26.7523 25.12 27.1208 25.0183 27.3993 24.8071C27.6788 24.5982 27.8626 24.2902 27.9492 23.8903L28.2392 22.5573C28.3197 22.1759 28.2757 21.8712 28.1039 21.6517C27.9205 21.4478 27.5977 21.3425 27.1472 21.3417H27.1236Z" fill="white"/>
<path d="M32.9285 23.7535L32.5531 25.4851C32.5299 25.5893 32.4774 25.676 32.3899 25.7447C32.3053 25.8112 32.2061 25.8451 32.0962 25.8451C31.9923 25.844 31.9166 25.8104 31.8688 25.7406C31.8201 25.6736 31.8068 25.5868 31.8286 25.4816L32.2044 23.7499H32.1485C31.906 23.7499 31.6881 23.8103 31.4921 23.9294C31.2967 24.0472 31.1346 24.2228 31.0095 24.4516C30.9298 24.5885 30.8167 24.7919 30.6706 25.0627C30.5301 25.3083 30.3551 25.4977 30.1482 25.6345C29.9396 25.7698 29.7137 25.8355 29.4663 25.8355C29.3351 25.8355 29.2375 25.8057 29.1736 25.7447C29.11 25.6853 29.0896 25.6055 29.1103 25.5062C29.1585 25.2861 29.3239 25.176 29.6097 25.1772C29.6356 25.176 29.67 25.1587 29.7077 25.1231C29.7456 25.0862 29.7835 25.0339 29.8182 24.9658C29.9532 24.732 30.054 24.5449 30.1219 24.4023C30.2313 24.1793 30.3976 23.9569 30.62 23.7369C30.8431 23.5185 31.084 23.3575 31.3422 23.2538C31.2468 23.1134 31.1415 22.887 31.0281 22.579C30.9026 22.2493 30.7929 21.9926 30.7013 21.8099C30.6131 21.6376 30.5089 21.5446 30.3904 21.533C30.2596 21.5273 30.1648 21.4958 30.1032 21.4385C30.0413 21.3817 30.0218 21.3005 30.0449 21.1952C30.092 20.9801 30.2454 20.874 30.5089 20.8748C30.7228 20.8764 30.9188 20.9445 31.0978 21.081C31.276 21.2186 31.4278 21.4175 31.5521 21.6774C31.638 21.8663 31.7307 22.0834 31.8307 22.3304C31.921 22.5709 32.0041 22.7546 32.0825 22.8809C32.1497 23.0221 32.2222 23.0923 32.2972 23.0923H32.3465L32.7414 21.2751C32.7685 21.1553 32.8204 21.0612 32.902 20.993C32.9827 20.9257 33.0779 20.89 33.1876 20.8908C33.4269 20.8921 33.52 21.0208 33.4649 21.2762L33.0703 23.0948H33.1204C33.1871 23.0948 33.2921 23.0254 33.4382 22.8844C33.5492 22.7743 33.7144 22.5915 33.9351 22.3373C34.1788 22.0459 34.3903 21.805 34.5676 21.6177C34.7454 21.4301 34.9394 21.2658 35.1514 21.1262C35.399 20.97 35.6261 20.8921 35.8361 20.8921C35.9665 20.8937 36.0639 20.9231 36.1272 20.9841C36.1923 21.0438 36.2133 21.1237 36.1923 21.2222C36.1701 21.3227 36.1174 21.4001 36.0333 21.4583C35.95 21.5148 35.8385 21.547 35.7017 21.5503C35.5727 21.5608 35.4264 21.6549 35.2612 21.8312C35.0878 22.0027 34.8684 22.2562 34.6048 22.5904C34.3651 22.882 34.1631 23.1065 33.9978 23.2626C34.1513 23.3358 34.2857 23.4362 34.3968 23.5609C34.5097 23.6884 34.5859 23.824 34.6259 23.9693C34.717 24.258 34.7644 24.5433 34.7689 24.8257C34.7656 24.9472 34.7748 25.0373 34.7992 25.1009C34.8246 25.162 34.8591 25.1934 34.9028 25.1934C35.0287 25.1958 35.126 25.2249 35.1905 25.2861C35.2583 25.3459 35.2805 25.4262 35.2591 25.5244C35.2112 25.7447 35.0393 25.8528 34.7441 25.8528C34.4975 25.852 34.3003 25.7834 34.1505 25.6467C34.0018 25.5105 33.916 25.3197 33.8922 25.0735C33.8805 24.9794 33.8723 24.9088 33.8723 24.8613C33.8415 24.6267 33.8084 24.4427 33.7742 24.3096C33.7403 24.1755 33.6772 24.0565 33.5848 23.9512C33.4488 23.8216 33.2492 23.7543 32.9867 23.7535H32.9285Z" fill="white"/>
<path d="M34.7535 25.9141H34.743C34.4822 25.9141 34.2688 25.8379 34.1085 25.6905C33.9497 25.5474 33.8554 25.3391 33.8307 25.0788C33.8169 24.9827 33.8116 24.9114 33.8108 24.8613C33.7797 24.6369 33.7476 24.4532 33.7153 24.3244C33.6833 24.201 33.6231 24.0888 33.5388 23.9924C33.418 23.8746 33.2314 23.8156 32.9848 23.8143H32.9783L32.6123 25.4977C32.5868 25.6157 32.5248 25.7152 32.428 25.791C32.3325 25.867 32.2215 25.9038 32.1009 25.9057H32.096C31.9713 25.9038 31.8779 25.8617 31.8166 25.7773C31.7583 25.6943 31.7429 25.5914 31.7691 25.4687L32.1279 23.8124C31.9073 23.8143 31.7049 23.8713 31.524 23.9811C31.338 24.0956 31.1813 24.2632 31.061 24.4819C30.9796 24.6243 30.8659 24.829 30.7249 25.0918C30.578 25.3476 30.3949 25.5474 30.1808 25.6853C29.9674 25.825 29.7297 25.8957 29.4758 25.8981H29.4656C29.3183 25.8957 29.2057 25.8592 29.1312 25.7886C29.0757 25.7362 29.0183 25.6423 29.0502 25.4921C29.0866 25.3217 29.2125 25.118 29.5981 25.1155H29.609C29.609 25.1155 29.6256 25.1151 29.6648 25.0788C29.6972 25.0477 29.7318 24.9988 29.7644 24.9363C29.9018 24.6969 29.9997 24.513 30.067 24.3745C30.1791 24.1461 30.3496 23.916 30.5759 23.6941C30.7845 23.4891 31.0116 23.333 31.251 23.2256C31.1638 23.08 31.072 22.8741 30.97 22.5984C30.846 22.2743 30.7367 22.0177 30.6452 21.8353C30.5683 21.6848 30.4799 21.6024 30.3844 21.5956C30.2427 21.5888 30.1331 21.5503 30.0613 21.4834C30.0075 21.4325 29.9499 21.3397 29.9847 21.1811C30.0191 21.0148 30.1403 20.8154 30.4991 20.8135H30.5079C30.735 20.8135 30.9464 20.8877 31.1343 21.033C31.3207 21.1746 31.4797 21.3825 31.6069 21.6512C31.6911 21.8393 31.7854 22.0605 31.8859 22.307C31.9758 22.5464 32.0588 22.7279 32.1337 22.8483C32.1908 22.9665 32.2478 23.0303 32.2973 23.0311L32.6811 21.261C32.7106 21.1287 32.7715 21.0216 32.8621 20.945C32.9536 20.8679 33.0593 20.8251 33.1868 20.8296C33.3205 20.8308 33.4202 20.8679 33.4789 20.9421C33.542 21.0216 33.5579 21.1374 33.5254 21.29L33.148 23.0279C33.186 23.0128 33.2602 22.9701 33.3938 22.8401C33.5036 22.7339 33.6687 22.5512 33.8871 22.2965C34.1308 22.0059 34.345 21.7647 34.5219 21.5758C34.7025 21.3857 34.9025 21.2169 35.1167 21.0737C35.3743 20.9115 35.6187 20.8296 35.836 20.8308C35.9819 20.8308 36.0955 20.8679 36.17 20.9385C36.2502 21.0148 36.2769 21.1152 36.2509 21.2356C36.2266 21.3502 36.1651 21.4417 36.0681 21.51C35.9738 21.5721 35.8518 21.6069 35.7024 21.6129C35.5937 21.6205 35.4601 21.7078 35.3075 21.8728C35.1333 22.0431 34.9144 22.2965 34.6515 22.6283C34.441 22.8865 34.2567 23.0937 34.1012 23.2478C34.2301 23.3192 34.3446 23.4107 34.443 23.5205C34.5608 23.6534 34.643 23.7996 34.6843 23.9544C34.7766 24.2446 34.8268 24.5397 34.8301 24.8241C34.8268 24.9388 34.8356 25.0234 34.8568 25.078C34.8665 25.1018 34.8826 25.1327 34.9025 25.1327C35.0443 25.1345 35.1548 25.1687 35.2326 25.2398C35.3149 25.3161 35.3448 25.4182 35.3188 25.5379C35.2815 25.708 35.1532 25.9117 34.7535 25.9141ZM32.8791 23.6917H32.9848C33.2642 23.6928 33.48 23.766 33.6271 23.9076C33.7291 24.0227 33.797 24.1509 33.8339 24.293C33.8683 24.4286 33.902 24.6159 33.9335 24.8543C33.9348 24.9052 33.9417 24.971 33.9531 25.0651C33.9761 25.2999 34.0535 25.4748 34.1923 25.6019C34.3295 25.7266 34.5139 25.7902 34.743 25.791C35.0074 25.7935 35.158 25.7003 35.1982 25.5118C35.2151 25.4339 35.1992 25.3763 35.1492 25.3302C35.0954 25.2801 35.0114 25.2559 34.9025 25.2559C34.8532 25.2559 34.7855 25.2328 34.7427 25.1227C34.7139 25.0521 34.7025 24.9528 34.7066 24.8233C34.7025 24.5526 34.6552 24.2713 34.5665 23.9884C34.5284 23.8503 34.4558 23.7203 34.3506 23.6026C34.2437 23.4839 34.1162 23.3874 33.9708 23.3176L33.8903 23.2789L33.955 23.2183C34.1174 23.0646 34.3199 22.8401 34.5547 22.5512C34.8203 22.2167 35.0435 21.96 35.2186 21.7885C35.3933 21.6004 35.5491 21.5006 35.6957 21.489C35.823 21.4858 35.9242 21.4568 35.9977 21.4071C36.0694 21.3595 36.112 21.2948 36.132 21.2101C36.1482 21.1303 36.1331 21.0737 36.0856 21.0278C36.0332 20.9789 35.9488 20.9546 35.8342 20.9546H35.8279C35.6349 20.9559 35.4172 21.0298 35.1841 21.1779C34.9783 21.3147 34.7855 21.476 34.6118 21.6601C34.4361 21.8466 34.2247 22.0876 33.9818 22.3765C33.7567 22.6367 33.5934 22.8172 33.4805 22.9286C33.3197 23.0832 33.2055 23.155 33.1217 23.1561H33.1197L32.9945 23.155L33.4044 21.2634C33.4291 21.15 33.4226 21.0676 33.382 21.0184C33.3473 20.9757 33.2809 20.9535 33.186 20.9535C33.0918 20.9523 33.0103 20.9797 32.9404 21.0402C32.8714 21.0979 32.8241 21.1803 32.8026 21.2877L32.3976 23.1526H32.2973C32.1948 23.1526 32.105 23.0727 32.0259 22.9064C31.9498 22.7825 31.8643 22.5984 31.7728 22.3511C31.6716 22.1076 31.5797 21.8894 31.4958 21.7029C31.3765 21.4531 31.2303 21.2602 31.0602 21.1295C30.8906 20.9995 30.7107 20.9373 30.5079 20.9373H30.4991C30.2703 20.9373 30.1443 21.0241 30.1051 21.2082C30.0868 21.2901 30.0997 21.3513 30.1443 21.393C30.1957 21.4406 30.277 21.4668 30.3925 21.4716C30.5367 21.4858 30.6573 21.5888 30.7561 21.782C30.8484 21.9669 30.959 22.2271 31.0849 22.5569C31.1964 22.8611 31.3003 23.0832 31.3918 23.2183L31.4364 23.2825L31.3647 23.3103C31.1157 23.4107 30.8789 23.5681 30.663 23.7809C30.446 23.9936 30.2824 24.2111 30.1783 24.4286C30.1095 24.5699 30.0095 24.755 29.873 24.9956C29.8338 25.0683 29.7924 25.1272 29.7486 25.1663C29.6948 25.2184 29.647 25.2375 29.5981 25.2398C29.351 25.2398 29.211 25.331 29.1709 25.5175C29.1538 25.5958 29.1667 25.6547 29.2162 25.7003C29.2671 25.7499 29.352 25.7738 29.4668 25.7738H29.4758C29.7042 25.7738 29.92 25.708 30.1139 25.5824C30.3115 25.4533 30.4815 25.2685 30.6168 25.0336C30.7585 24.7696 30.872 24.5638 30.9537 24.4218C31.084 24.1845 31.2542 24.0017 31.4595 23.8758C31.6647 23.751 31.8935 23.6893 32.1479 23.6893H32.282L31.8892 25.4953C31.8709 25.5824 31.8794 25.6515 31.9186 25.7055C31.9552 25.7564 32.0127 25.7822 32.0967 25.7822H32.1009C32.1953 25.7822 32.2769 25.7535 32.3519 25.6943C32.4268 25.637 32.4734 25.5634 32.4928 25.4707L32.8791 23.6917Z" fill="white"/>
<path d="M36.8796 25.4824C36.8258 25.7338 36.6842 25.8589 36.4545 25.8589C36.2228 25.8577 36.136 25.7303 36.1901 25.4816L37.1497 21.0541C37.2052 20.7978 37.3424 20.6702 37.5611 20.6702C37.803 20.6711 37.8961 20.8007 37.8403 21.0553L37.4742 22.741L40.3352 22.7514L40.7002 21.0649C40.7565 20.8091 40.8989 20.6815 41.1292 20.6828C41.3606 20.6828 41.4464 20.8127 41.3915 21.0674L40.432 25.4953C40.3771 25.7464 40.2347 25.8703 40.0048 25.8695C39.7752 25.8695 39.6869 25.7431 39.7407 25.4929L40.1939 23.4084L37.3321 23.3984L36.8796 25.4824Z" fill="white"/>
<path d="M40.0108 25.9309C40.0084 25.9309 40.0066 25.9309 40.0049 25.9321C39.8772 25.9309 39.7837 25.8951 39.726 25.8244C39.6638 25.747 39.648 25.6314 39.6814 25.4798L40.1177 23.4699L37.3819 23.4611L36.9409 25.4971C36.8804 25.772 36.7145 25.9183 36.4589 25.9209H36.455C36.327 25.9193 36.2321 25.8846 36.1758 25.8131C36.1121 25.7344 36.0978 25.6198 36.1305 25.4685L37.09 21.0409C37.1677 20.6833 37.3892 20.6059 37.5608 20.6103C37.6962 20.6103 37.795 20.6487 37.8541 20.7229C37.918 20.8012 37.9339 20.9181 37.9015 21.0699L37.5513 22.6789L40.2865 22.6896L40.6413 21.0534C40.7172 20.6983 40.9454 20.6232 41.124 20.6224H41.1279C41.2555 20.6224 41.348 20.659 41.4063 20.7282C41.47 20.8085 41.4851 20.9263 41.451 21.0812L40.4907 25.5084C40.4324 25.7852 40.2668 25.9309 40.0108 25.9309ZM37.2823 23.3372L40.2696 23.3477L39.802 25.5064C39.7774 25.6186 39.7837 25.6997 39.8217 25.7482C39.8551 25.7876 39.9155 25.8082 40.0049 25.8082H40.0104C40.2088 25.8082 40.3238 25.7033 40.3719 25.483L41.3314 21.0558C41.3564 20.9391 41.349 20.8548 41.31 20.8072C41.2787 20.7652 41.2172 20.7446 41.1293 20.7434C40.9253 20.7496 40.8115 20.85 40.7612 21.0793L40.3846 22.8118L37.3987 22.8016L37.7792 21.0433C37.8045 20.9295 37.7974 20.8475 37.7581 20.7988C37.7232 20.7552 37.6575 20.733 37.5608 20.7322H37.5576C37.3688 20.7342 37.2602 20.8407 37.2099 21.0674L36.2507 25.4952C36.2257 25.6069 36.232 25.6879 36.2704 25.7352C36.3034 25.776 36.3657 25.7979 36.455 25.7979H36.4589C36.6575 25.7966 36.7725 25.6925 36.8206 25.4706L37.2823 23.3372Z" fill="white"/>
<path d="M46.1214 23.9839C46.0384 24.3712 45.8788 24.709 45.6429 24.9984C45.408 25.2872 45.1123 25.5097 44.7585 25.6668C44.4031 25.8221 44.0121 25.8992 43.5849 25.8983C43.157 25.896 42.8008 25.816 42.515 25.6586C42.2266 25.5017 42.029 25.2756 41.9197 24.9855C41.8092 24.6966 41.7973 24.3587 41.8803 23.9696L42.1788 22.5919C42.2635 22.2056 42.4225 21.8667 42.6577 21.5784C42.8933 21.2892 43.1886 21.066 43.5431 20.911C43.8975 20.7548 44.2885 20.6762 44.7157 20.6785C45.1432 20.6793 45.5008 20.7609 45.7881 20.9178C46.0733 21.0753 46.2712 21.3 46.3813 21.5898C46.492 21.8807 46.5047 22.2186 46.4206 22.6055L46.1214 23.9839ZM44.5729 21.3368C44.107 21.3356 43.7291 21.4429 43.4383 21.6628C43.1464 21.8815 42.9559 22.2011 42.8648 22.6174L42.5754 23.949C42.4843 24.3676 42.5371 24.6856 42.7351 24.9067C42.9302 25.1267 43.2618 25.2377 43.728 25.2402C44.1935 25.2402 44.5718 25.1327 44.863 24.914C45.1548 24.6941 45.3461 24.3772 45.4361 23.9583L45.7248 22.6269C45.812 22.2254 45.7635 21.9049 45.5796 21.6714C45.3798 21.4489 45.0444 21.3392 44.5729 21.3368Z" fill="white"/>
<path d="M43.613 25.9583H43.5848C43.1489 25.9575 42.7775 25.8752 42.4832 25.7121C42.1851 25.5474 41.9755 25.3109 41.8616 25.0082C41.7484 24.7077 41.7343 24.3536 41.8194 23.9582L42.119 22.5792C42.203 22.1844 42.3686 21.8355 42.6102 21.5393C42.8517 21.2413 43.1563 21.0129 43.5177 20.8547C43.8774 20.6948 44.2814 20.6228 44.7163 20.6174C45.1506 20.6187 45.5219 20.7006 45.8162 20.8636C46.1154 21.0288 46.3246 21.2652 46.4389 21.5671C46.5517 21.869 46.5665 22.2217 46.4811 22.6176L46.1818 23.9965C46.0964 24.3904 45.9308 24.7412 45.6906 25.0374C45.4501 25.3312 45.1446 25.5632 44.7828 25.7226C44.4291 25.8776 44.0363 25.9559 43.613 25.9583ZM44.6878 20.7397C44.2807 20.7418 43.9037 20.8184 43.5676 20.9653C43.2241 21.1158 42.934 21.3359 42.7065 21.6167C42.4766 21.8967 42.3212 22.2301 42.2385 22.6046L41.9397 23.9837C41.8588 24.3574 41.8725 24.6871 41.9769 24.9636C42.0803 25.2404 42.2705 25.4539 42.5434 25.6056C42.8197 25.7569 43.1696 25.8356 43.5863 25.8368C43.998 25.8344 44.3879 25.7605 44.7332 25.61C45.0771 25.4586 45.3668 25.2404 45.5936 24.96C45.8232 24.679 45.98 24.346 46.0612 23.9719L46.3604 22.5917C46.441 22.2193 46.4287 21.8899 46.3239 21.6115C46.2205 21.337 46.0296 21.1214 45.7575 20.9713C45.4811 20.8184 45.1305 20.7418 44.7156 20.7397H44.6878ZM43.7504 25.3012H43.7276C43.2448 25.2989 42.8957 25.1799 42.6886 24.9475C42.4783 24.7124 42.4207 24.3735 42.5156 23.936L42.8029 22.6046C42.8971 22.1732 43.0982 21.8399 43.4003 21.6143C43.6963 21.3927 44.0813 21.2789 44.5472 21.2752H44.5729C45.0605 21.2764 45.4143 21.3955 45.6245 21.6283C45.8218 21.8814 45.8759 22.2204 45.7852 22.6394L45.4955 23.9719C45.4034 24.403 45.2026 24.7359 44.9002 24.9623C44.6035 25.1842 44.2167 25.2977 43.7504 25.3012ZM44.5479 21.3983C44.1098 21.4016 43.7487 21.5058 43.4744 21.7119C43.1963 21.9197 43.0114 22.2285 42.9242 22.63L42.6365 23.9619C42.55 24.3586 42.5986 24.6625 42.779 24.8663C42.9632 25.0713 43.2828 25.1765 43.7276 25.1773C44.1741 25.1754 44.5472 25.0745 44.8261 24.8654C45.1045 24.6568 45.2898 24.346 45.3756 23.9452L45.6643 22.6126C45.7472 22.2325 45.7022 21.9278 45.5296 21.7084C45.3468 21.5045 45.0233 21.3991 44.5729 21.3983H44.5479Z" fill="white"/>
<path d="M48.8606 25.8451C48.3233 25.8428 47.9136 25.7931 47.6299 25.6982C47.3454 25.6029 47.1577 25.4484 47.067 25.2341C46.977 25.0199 46.9731 24.7251 47.0547 24.3478L47.5089 22.2481C47.5898 21.8768 47.7175 21.5854 47.8922 21.3711C48.0673 21.1577 48.3099 21.0035 48.6186 20.9062C48.9273 20.8101 49.326 20.7638 49.8127 20.7665L51.1203 20.7698C51.4424 20.7723 51.6664 20.8497 51.7888 21.0071C51.9111 21.1641 51.9364 21.4074 51.865 21.7368C51.8014 22.0285 51.6544 22.1755 51.4255 22.1742C51.3151 22.1742 51.2367 22.1372 51.1935 22.0645C51.1491 21.9903 51.14 21.8881 51.1689 21.7579C51.1977 21.627 51.1949 21.5402 51.1601 21.4953C51.1267 21.4498 51.0454 21.428 50.9192 21.428L49.6703 21.4247C49.2909 21.4236 49.0103 21.443 48.8268 21.4845C48.6418 21.5253 48.5044 21.6052 48.4133 21.723C48.3219 21.8389 48.2491 22.0212 48.1963 22.2654L47.748 24.3353C47.6935 24.5852 47.6893 24.7692 47.7315 24.8833C47.7755 24.9993 47.8908 25.0783 48.0803 25.1195C48.2684 25.1623 48.5757 25.184 49.0029 25.1865L50.1038 25.189C50.2315 25.1901 50.3197 25.1668 50.3739 25.1243C50.4277 25.0791 50.4681 24.9927 50.4959 24.8612C50.5251 24.7308 50.5767 24.6303 50.653 24.5566C50.7294 24.4835 50.8218 24.4472 50.9315 24.4472C51.1608 24.4535 51.2437 24.6012 51.1798 24.895C51.1105 25.218 50.98 25.4597 50.7905 25.6159C50.6 25.7709 50.3437 25.8484 50.0205 25.8484L48.8606 25.8451Z" fill="white"/>
<path d="M50.0381 25.9084H50.0202L48.8602 25.9061C48.3198 25.9035 47.8982 25.8528 47.6099 25.7566C47.31 25.6565 47.1085 25.4882 47.0104 25.2583C46.9169 25.0326 46.9098 24.7227 46.9943 24.3353L47.4492 22.2355C47.5311 21.857 47.664 21.5526 47.8448 21.332C48.0279 21.1096 48.2815 20.9476 48.6004 20.8484C48.914 20.7501 49.3223 20.7004 49.8124 20.704L51.12 20.7096C51.4621 20.7096 51.7023 20.7976 51.8363 20.9698C51.9702 21.141 51.9997 21.4039 51.9245 21.7491C51.838 22.15 51.6074 22.2355 51.4284 22.2364H51.4241C51.2916 22.2355 51.196 22.1879 51.1397 22.0967C51.0863 22.0099 51.0757 21.892 51.1091 21.746C51.1439 21.5898 51.119 21.5426 51.1109 21.533C51.1035 21.5227 51.0673 21.4893 50.9189 21.4893L49.67 21.4844C49.2994 21.4844 49.0199 21.5035 48.8395 21.5438C48.6689 21.5818 48.5455 21.6535 48.4618 21.7589C48.3764 21.8674 48.3079 22.0423 48.2558 22.2795L47.8071 24.3466C47.7569 24.5851 47.7516 24.7584 47.7889 24.8612C47.8247 24.9552 47.9264 25.0222 48.0927 25.0606C48.2751 25.1009 48.5824 25.1231 49.0026 25.1243L50.1035 25.1271C50.2111 25.1266 50.2937 25.1093 50.3342 25.0762C50.364 25.0524 50.4052 24.9924 50.4365 24.8478C50.4671 24.7062 50.5251 24.5932 50.6099 24.5121C50.6978 24.4276 50.8117 24.3894 50.9316 24.3849C51.0507 24.3883 51.139 24.4265 51.1953 24.4971C51.2663 24.5875 51.2804 24.7216 51.2396 24.9079C51.1675 25.2434 51.0283 25.4975 50.8293 25.6622C50.632 25.8241 50.3651 25.9072 50.0381 25.9084ZM48.8602 25.7825L50.0202 25.7846C50.3247 25.7906 50.5719 25.713 50.7498 25.567C50.9291 25.4225 51.0529 25.1914 51.12 24.8825C51.1513 24.7357 51.1439 24.6328 51.0982 24.5721C51.0655 24.5307 51.01 24.5097 50.9302 24.5085H50.928C50.8366 24.5085 50.7603 24.5387 50.6956 24.6C50.6288 24.6638 50.5814 24.7562 50.5564 24.874C50.5251 25.0198 50.4784 25.1158 50.4126 25.1703C50.3475 25.226 50.2421 25.2466 50.1035 25.2514L49.0026 25.2478C48.5652 25.2454 48.2607 25.2235 48.0652 25.1796C47.8567 25.1307 47.7256 25.0395 47.6743 24.9055C47.6257 24.778 47.6314 24.5875 47.689 24.3212L48.1352 22.2525C48.1922 21.9958 48.2664 21.8099 48.3641 21.6847C48.4636 21.5564 48.6162 21.4671 48.8121 21.4247C49.0023 21.3816 49.2874 21.3598 49.67 21.3629L50.9203 21.3666C51.0676 21.3666 51.1619 21.3965 51.2093 21.4583C51.2558 21.5192 51.2621 21.6184 51.2287 21.7715C51.204 21.886 51.2093 21.9728 51.2459 22.0325C51.2779 22.0863 51.3366 22.1117 51.4252 22.1141H51.4277C51.6246 22.1117 51.7476 21.9858 51.8049 21.7242C51.8714 21.4139 51.85 21.1875 51.7403 21.045C51.6306 20.9038 51.4206 20.8323 51.12 20.8323L49.8124 20.8262C49.3296 20.8251 48.9386 20.8723 48.6373 20.9663C48.3413 21.0567 48.1071 21.2073 47.9401 21.4083C47.7709 21.6165 47.6472 21.9009 47.5695 22.261L47.1145 24.3608C47.0357 24.7227 47.0396 25.0096 47.1247 25.2106C47.2069 25.4068 47.3842 25.5509 47.6503 25.6412C47.9242 25.7325 48.3332 25.7801 48.8602 25.7825Z" fill="white"/>
<path d="M56.1836 20.7871C56.4521 20.7871 56.5629 20.8969 56.515 21.1181C56.4681 21.3357 56.3099 21.4454 56.0404 21.4446L54.8733 21.4409L53.9821 25.5545C53.9587 25.6587 53.9033 25.7455 53.8154 25.8129C53.7254 25.8811 53.6221 25.9146 53.5006 25.9146C53.3797 25.9122 53.2945 25.8819 53.2421 25.8186C53.1898 25.7564 53.1771 25.6669 53.2006 25.5525L54.0929 21.4398L52.9081 21.4342C52.7833 21.4342 52.6901 21.4039 52.6324 21.3437C52.5755 21.2832 52.5562 21.2037 52.5776 21.1044C52.6001 21.006 52.6521 20.9261 52.7362 20.8658C52.8195 20.8058 52.9257 20.776 53.0519 20.7771L56.1836 20.7871Z" fill="white"/>
<path d="M53.5045 25.9748H53.5013C53.3612 25.9748 53.2589 25.9353 53.1952 25.8577C53.1305 25.7803 53.1126 25.6738 53.1414 25.541L54.0164 21.4996L52.9087 21.4951C52.7652 21.4951 52.6593 21.4585 52.589 21.3853C52.5377 21.3346 52.486 21.2408 52.5173 21.0912C52.5437 20.9782 52.6045 20.8841 52.7008 20.816C52.7944 20.7478 52.9164 20.7178 53.0525 20.7146L56.1838 20.726C56.3521 20.726 56.4645 20.765 56.5295 20.8461C56.586 20.9156 56.6009 21.0112 56.5748 21.1296C56.5391 21.3006 56.4161 21.5045 56.0491 21.5057H56.0421L54.9225 21.502L54.0436 25.5684C54.0164 25.6862 53.9536 25.7859 53.8518 25.8614C53.7538 25.9361 53.6377 25.9748 53.5045 25.9748ZM53.0465 20.8377C52.9343 20.8377 52.8454 20.8635 52.7722 20.9156C52.7008 20.9665 52.6558 21.0335 52.6383 21.1182C52.621 21.1953 52.6344 21.2559 52.6759 21.2998C52.7227 21.3482 52.8014 21.3736 52.9087 21.3736L54.1698 21.3768L53.2617 25.5647C53.2406 25.6624 53.2501 25.7306 53.2904 25.7803C53.3303 25.8279 53.4012 25.8529 53.5013 25.8529H53.5035C53.6116 25.8521 53.7 25.8231 53.7772 25.7645C53.8561 25.7052 53.9024 25.6329 53.9227 25.5418L54.8239 21.3794L56.0421 21.3829C56.276 21.3818 56.4139 21.2962 56.4555 21.1045C56.4731 21.0229 56.4651 20.9629 56.4336 20.9232C56.3937 20.8724 56.3095 20.8486 56.1838 20.8486L53.0525 20.8377H53.0465Z" fill="white"/>
<path d="M57.5371 23.3475L57.1328 25.2124L60.2723 25.2229C60.4039 25.2229 60.4993 25.252 60.5589 25.3092C60.6164 25.3678 60.633 25.4541 60.609 25.5688C60.5882 25.6684 60.536 25.7447 60.4524 25.8C60.3687 25.8532 60.2612 25.881 60.1301 25.881L56.6284 25.8706C56.5251 25.8706 56.451 25.8347 56.4079 25.7665C56.3658 25.6995 56.3583 25.601 56.386 25.4771L57.315 21.1819C57.3422 21.0568 57.3928 20.96 57.4631 20.8925C57.5371 20.8256 57.6255 20.7908 57.7283 20.792L61.2306 20.8026C61.3638 20.8026 61.4575 20.8317 61.5161 20.8905C61.5758 20.9481 61.5923 21.035 61.5672 21.1496C61.5459 21.2493 61.4932 21.3251 61.4106 21.3798C61.327 21.4342 61.2199 21.462 61.0884 21.462L57.9478 21.4502L57.6799 22.6892L59.8089 22.6966C59.957 22.6966 60.0641 22.7252 60.1307 22.784C60.1983 22.8405 60.2191 22.9277 60.1935 23.0432C60.1493 23.2519 59.9724 23.3559 59.6662 23.3548L57.5371 23.3475Z" fill="white"/>
<path d="M60.1382 25.9419H60.1302L56.6285 25.9306C56.5023 25.9306 56.4112 25.8866 56.3563 25.7995C56.3036 25.7164 56.2935 25.6065 56.3249 25.462L57.2549 21.1689C57.2848 21.0325 57.3412 20.9247 57.4217 20.8471C57.5058 20.7697 57.6076 20.7302 57.7247 20.7302H57.729L61.2318 20.7407C61.3767 20.7415 61.4885 20.7767 61.5583 20.8459C61.6329 20.9191 61.6569 21.0253 61.6276 21.1629C61.6036 21.2762 61.5407 21.3678 61.4438 21.43C61.3516 21.4918 61.2286 21.5216 61.088 21.5227L57.9969 21.5124L57.7556 22.6274L59.8091 22.6345C59.9715 22.6358 60.0935 22.6694 60.1702 22.7363C60.257 22.8102 60.2842 22.9168 60.2549 23.0543C60.2022 23.2949 60.0008 23.4111 59.6663 23.4155L57.5873 23.4074L57.2097 25.1529L60.273 25.1609C60.4227 25.1609 60.5297 25.1958 60.6017 25.2664C60.6762 25.3395 60.6997 25.4447 60.6698 25.5807C60.6443 25.6958 60.5835 25.7857 60.4861 25.8503C60.395 25.9109 60.2783 25.9407 60.1382 25.9419ZM57.7258 20.8529C57.639 20.8529 57.5676 20.8808 57.5058 20.9376C57.4446 20.9965 57.3993 21.0821 57.3758 21.1951L56.4442 25.4899C56.4213 25.5981 56.4261 25.6808 56.4607 25.7336C56.4916 25.7833 56.5465 25.8067 56.6285 25.8067L60.1308 25.8193C60.2512 25.8205 60.3454 25.7955 60.4184 25.7479C60.4887 25.7026 60.5313 25.6377 60.5489 25.5556C60.5686 25.462 60.5569 25.3959 60.5154 25.3543C60.4685 25.3067 60.3881 25.2837 60.273 25.2837L57.0568 25.2737L57.4872 23.2859L59.6663 23.2928H59.677C59.947 23.2908 60.0956 23.2054 60.134 23.0289C60.1537 22.9377 60.1398 22.872 60.0914 22.8287C60.0349 22.7816 59.9396 22.7569 59.8091 22.7569L57.6028 22.7492L57.8989 21.3901L61.088 21.3988C61.2078 21.3964 61.3032 21.3763 61.3756 21.3283C61.4459 21.2823 61.4885 21.2197 61.5077 21.1362C61.5264 21.0425 61.5162 20.9756 61.4726 20.934C61.4262 20.8879 61.3442 20.8646 61.2307 20.8646L57.7285 20.8529H57.7258Z" fill="white"/>
<path d="M61.5971 25.5631L62.5565 21.1364C62.6119 20.8809 62.7546 20.7526 62.9847 20.7526C63.2143 20.755 63.3006 20.8906 63.242 21.1634L62.4606 24.7669L66.1557 20.96C66.2878 20.83 66.4209 20.7639 66.5525 20.765C66.772 20.7667 66.8535 20.8942 66.7965 21.1504L65.8382 25.5781C65.7839 25.8287 65.6417 25.953 65.411 25.953C65.1814 25.953 65.0919 25.8336 65.1425 25.5987L65.9335 21.9476L62.2773 25.723C62.1932 25.8114 62.1229 25.8719 62.0675 25.8994C62.0116 25.9272 61.9391 25.9413 61.8517 25.9413C61.6275 25.9413 61.5417 25.8138 61.5971 25.5631ZM64.2098 20.9459C63.8865 20.9459 63.6767 20.8659 63.5776 20.709C63.4801 20.5513 63.4732 20.2816 63.5563 19.9014L63.6282 19.5637L64.319 19.5661L64.2189 20.0286C64.1949 20.1429 64.1928 20.2158 64.2146 20.2438C64.2354 20.2729 64.3025 20.2876 64.4197 20.2889L65.2565 20.29C65.3652 20.29 65.4376 20.2784 65.4723 20.2481C65.5048 20.2195 65.5351 20.1477 65.5596 20.033L65.6598 19.5713L66.3506 19.5726L66.2776 19.9104C66.1935 20.2967 66.0688 20.5661 65.9048 20.7203C65.7391 20.8745 65.4952 20.9504 65.1708 20.9492L64.2098 20.9459Z" fill="white"/>
<path d="M65.4175 26.0144H65.4132C65.2806 26.0144 65.1841 25.9781 65.1272 25.9063C65.068 25.8337 65.0526 25.7252 65.0824 25.5858L65.8287 22.1454L62.3232 25.7654C62.2327 25.8599 62.1581 25.9217 62.0952 25.9539C62.0324 25.9849 61.9546 26.0028 61.8614 26.0028H61.8513C61.7288 26.0028 61.6371 25.9668 61.5812 25.8987C61.5189 25.82 61.5034 25.7033 61.5365 25.5503L62.4969 21.1243C62.573 20.7701 62.7999 20.6933 62.9789 20.6925H62.9848C63.1084 20.6925 63.2 20.7281 63.257 20.8003C63.3236 20.8835 63.3385 21.0061 63.3023 21.1752L62.5661 24.5705L66.1115 20.9181C66.2548 20.7769 66.4018 20.7055 66.5483 20.7042H66.5526C66.6713 20.7042 66.7587 20.739 66.8146 20.8072C66.8775 20.8859 66.8919 21.005 66.8578 21.1643L65.8979 25.5919C65.8388 25.8659 65.6721 26.0116 65.4175 26.0144ZM66.0391 21.7499L65.2028 25.6129C65.1804 25.7122 65.1884 25.7852 65.223 25.8304C65.2555 25.8708 65.3194 25.8914 65.4116 25.8914H65.4175C65.6135 25.8914 65.7291 25.7852 65.7781 25.564L66.7374 21.1381C66.7635 21.0174 66.7566 20.9319 66.7172 20.8843C66.6884 20.8451 66.6314 20.827 66.5526 20.827H66.5494C66.4364 20.8278 66.3177 20.8867 66.1999 21.0037L62.3552 24.9636L63.1824 21.1494C63.2096 21.0198 63.2026 20.9282 63.1606 20.877C63.1281 20.8358 63.0689 20.8153 62.9848 20.8153C62.7872 20.8184 62.6662 20.9217 62.6167 21.1494L61.6569 25.5782C61.6313 25.6911 61.6387 25.7744 61.6766 25.8212C61.7091 25.8599 61.7682 25.8789 61.8513 25.8789C61.9344 25.8777 61.993 25.8684 62.0393 25.8442C62.0723 25.8268 62.1347 25.7852 62.2332 25.6811L66.0391 21.7499ZM65.1916 21.011H65.1719L64.211 21.0061C63.8653 21.0061 63.6357 20.917 63.5276 20.7414C63.4184 20.5686 63.4093 20.2885 63.4967 19.8873L63.5798 19.502L64.3963 19.5043L64.2792 20.0412C64.2515 20.1732 64.2632 20.2067 64.2648 20.2086C64.2648 20.2086 64.2962 20.2261 64.4192 20.2261L65.2566 20.23H65.2646C65.3908 20.2284 65.4249 20.2078 65.4313 20.2035C65.4366 20.1962 65.4681 20.165 65.499 20.0202L65.6097 19.5092L66.4258 19.5129L66.3368 19.9217C66.2527 20.3188 66.1206 20.6034 65.9453 20.7652C65.7738 20.9263 65.5203 21.0098 65.1916 21.011ZM63.6794 19.6259L63.6176 19.914C63.5372 20.2785 63.5425 20.534 63.6304 20.6757C63.7151 20.814 63.9111 20.8835 64.211 20.8843L65.1719 20.8867C65.4734 20.8835 65.7099 20.8176 65.8628 20.6757C66.0172 20.5316 66.1371 20.2696 66.2164 19.8967L66.2745 19.6339L65.7099 19.6319L65.6193 20.0469C65.5922 20.1776 65.557 20.2571 65.5117 20.2947C65.467 20.3338 65.3839 20.3504 65.2566 20.3528L64.4192 20.3492C64.2749 20.3492 64.1982 20.3293 64.1641 20.2793C64.1305 20.2357 64.13 20.1558 64.1588 20.0158L64.244 19.6271L63.6794 19.6259Z" fill="white"/>
</g>
<defs>
<clipPath id="clip0_3_535">
<rect width="71.3769" height="26.6332" fill="white" transform="translate(0 0.883301)"/>
</clipPath>
</defs>
</svg>
