<svg width="131" height="29" viewBox="0 0 131 29" fill="none" xmlns="http://www.w3.org/2000/svg">
<mask id="mask0_3506_9054" style="mask-type:luminance" maskUnits="userSpaceOnUse" x="28" y="0" width="77" height="29">
<path d="M104.623 0.883301H28V28.2487H104.623V0.883301Z" fill="white"/>
</mask>
<g mask="url(#mask0_3506_9054)">
<path d="M33.3484 20.5445C33.3418 20.4956 33.3287 20.4476 33.3098 20.4021C33.1779 20.0859 32.7737 19.903 32.3482 19.9675C32.099 20.0056 31.8768 20.1198 31.7235 20.2895C31.5793 20.4485 31.5137 20.638 31.5383 20.8218V20.8234C31.5448 20.8723 31.5579 20.9194 31.5768 20.9641C31.7088 21.2812 32.1138 21.4633 32.5376 21.3987C33.0377 21.3226 33.4008 20.9393 33.3476 20.5436L33.3484 20.5445Z" fill="white"/>
<path d="M34.4631 21.2577C34.4566 21.2088 34.4434 21.1608 34.4246 21.1153C34.309 20.8388 33.9852 20.6642 33.6212 20.6675C33.5958 21.1211 33.2121 21.5259 32.6833 21.6475C32.6866 21.6575 32.6874 21.6674 32.6915 21.6773C32.8227 21.9935 33.2285 22.1765 33.6532 22.1119C34.1532 22.0358 34.5164 21.6534 34.4631 21.2577Z" fill="white"/>
<path d="M35.0348 20.1997C35.0282 20.1509 35.0151 20.1029 34.9962 20.0573C34.8651 19.7411 34.4593 19.5582 34.0346 19.6228C33.7854 19.6608 33.564 19.7751 33.4099 19.9448C33.3927 19.9646 33.3796 19.9853 33.364 20.006C33.4485 20.0896 33.5165 20.1865 33.5616 20.2957C33.5747 20.3272 33.5796 20.3619 33.5886 20.3951C34.0297 20.3826 34.4347 20.5821 34.6249 20.9107C34.9011 20.7468 35.0725 20.4778 35.0348 20.1997Z" fill="white"/>
<path d="M46.4734 10.0726C46.052 9.69924 45.4454 9.70752 45.097 9.81596C45.3249 9.53287 45.8561 9.3011 46.0127 9.27295C46.1316 9.31765 46.4734 9.67356 46.4734 10.0726Z" fill="white"/>
<path d="M47.8202 8.52672C47.5431 7.02849 44.0942 8.02096 42.3579 7.38525C42.3243 7.82231 42.8924 8.52175 43.4359 8.78084C42.5071 9.59452 41.6734 11.2335 41.5053 13.2366C41.3373 11.2335 40.5044 9.59452 39.5755 8.78084C40.119 8.52175 40.6872 7.82231 40.6536 7.38525C38.9172 8.02179 35.4684 7.02932 35.1905 8.52672C35.1323 8.84375 35.2831 9.32715 35.4463 9.46621C35.4758 9.36606 35.6282 9.03744 36.1087 8.96294C38.5377 8.59211 40.5667 12.3733 38.7352 13.9013C38.7074 13.9245 38.7229 13.9675 38.7606 13.9675H44.25C44.2877 13.9675 44.3033 13.9245 44.2754 13.9013C42.444 12.3724 44.4722 8.59211 46.902 8.96294C47.3833 9.03661 47.5349 9.36523 47.5644 9.46539C47.7276 9.32632 47.8784 8.84458 47.8202 8.52672Z" fill="white"/>
<path d="M48.4104 5.08802C48.367 4.94647 49.791 4.94316 49.791 5.84293C49.791 6.44636 48.9392 6.73193 48.9392 7.35854C48.9392 7.6499 49.2499 7.86429 49.345 7.86429C49.1253 6.8594 50.0328 7.38502 50.2779 7.57292C49.791 6.22121 50.887 6.22949 50.7796 5.6095C50.7042 5.17659 49.7516 5.30737 49.4065 5.08802C48.7949 4.69898 48.071 3.18585 47.5939 4.69898C48.4834 5.53252 47.9661 6.76007 46.8364 6.76007C46.8364 6.76007 46.8299 6.93969 46.8405 6.95459C48.1874 6.88837 48.6564 5.88845 48.4104 5.08802Z" fill="white"/>
<path d="M32.6989 7.57292C32.944 7.38502 33.8515 6.85857 33.6326 7.86429C33.7277 7.86429 34.0384 7.65073 34.0384 7.35854C34.0384 6.73276 33.1867 6.44636 33.1867 5.84293C33.1867 4.94234 34.6115 4.94647 34.5672 5.08802C34.3212 5.88845 34.791 6.88755 36.1371 6.95459C36.1469 6.94052 36.1404 6.76007 36.1404 6.76007C35.0115 6.76007 34.4942 5.53252 35.3829 4.69898C34.9058 3.18585 34.1819 4.69898 33.5703 5.08802C33.2252 5.30737 32.2726 5.17659 32.1972 5.6095C32.0898 6.22949 33.1858 6.22121 32.6989 7.57292Z" fill="white"/>
<path d="M36.5234 10.0726C36.9456 9.69924 37.5523 9.70752 37.8998 9.81596C37.6727 9.53287 37.1407 9.3011 36.985 9.27295C36.8661 9.31765 36.5234 9.67356 36.5234 10.0726Z" fill="white"/>
<path d="M42.1455 1.69201L41.4889 0.883301L40.8322 1.69201L41.4889 2.54294L42.1455 1.69201Z" fill="white"/>
<path d="M45.896 4.13696L45.4287 3.5625L44.9622 4.13696L45.4287 4.699L45.896 4.13696Z" fill="white"/>
<path d="M38.0162 4.13696L37.549 3.5625L37.0825 4.13696L37.549 4.699L38.0162 4.13696Z" fill="white"/>
<path d="M36.6784 6.95402H38.4205C39.8854 6.95402 40.5446 6.04598 40.7438 5.25879H42.2342C42.4334 6.04598 43.0917 6.95402 44.5575 6.95402H46.2995C46.2995 6.95402 46.6045 6.53684 46.6807 6.3299C46.9562 5.58576 46.6045 5.23893 46.0913 5.23893L45.4281 5.84567L44.7649 5.23893C44.2517 5.23893 43.9 5.58576 44.1754 6.3299C44.2107 6.42509 44.2943 6.56498 44.3738 6.68749C43.7557 6.6014 42.9662 6.17428 42.7933 5.25879C42.7933 5.25879 43.2499 4.52624 43.3647 4.2299C43.7762 3.16376 43.2507 2.72754 42.4809 2.72754L41.4873 3.90625L40.4937 2.72754C39.7248 2.72754 39.1985 3.16376 39.6108 4.2299C39.7248 4.52624 40.1822 5.25962 40.1822 5.25962C40.0084 6.17511 39.2198 6.60223 38.6016 6.68832C38.682 6.56581 38.7656 6.42592 38.8 6.33073C39.0747 5.58658 38.7238 5.23976 38.2106 5.23976L37.5474 5.8465L36.8842 5.23976C36.371 5.23976 36.0201 5.58658 36.2948 6.33073C36.371 6.53767 36.6768 6.95485 36.6768 6.95485L36.6784 6.95402Z" fill="white"/>
<path d="M54.6926 12.408C54.3565 12.5802 52.3833 13.5131 49.8558 13.1679C49.8821 13.0462 49.9042 12.9237 49.9222 12.8004C51.6045 12.5976 52.9719 12.3095 53.8433 11.8195C54.8369 11.2616 55.2706 9.92888 54.7697 8.93724C54.7566 8.9124 54.7204 8.90744 54.7024 8.92896C54.4277 9.24847 52.7005 11.1457 49.9788 11.7359C49.9722 11.5935 49.9591 11.452 49.9403 11.3104C51.2618 10.5539 52.553 9.68138 53.167 8.88343C54.0958 7.6774 54.0106 6.13944 53.1268 5.35557C53.1178 5.34729 53.1055 5.34398 53.0932 5.34563C53.0809 5.34729 53.0702 5.35391 53.0637 5.36467C52.7841 5.83069 50.1665 10.1027 47.2923 11.947C47.2571 11.9693 47.2218 11.9917 47.1866 12.0132C47.1046 12.0637 47.0956 12.1721 47.1653 12.2359C47.4965 12.5388 47.7022 12.961 47.7022 13.4295C47.7022 14.244 47.08 14.9211 46.2586 15.0684C45.8405 15.1504 45.2379 15.1264 44.6583 14.9335C44.6321 14.9252 44.6049 14.9426 44.6049 14.9691V17.5492C44.6049 17.5906 44.6673 17.6013 44.6821 17.5608C45.0338 16.6188 46.0879 16.4193 46.5487 16.4193C46.7143 17.4258 47.011 18.2594 47.3955 18.708C48.0218 19.4373 49.0459 19.4273 49.4894 18.9224C49.4968 18.9141 49.5 18.9025 49.4976 18.8918C49.4959 18.881 49.4886 18.8711 49.4787 18.8661C49.218 18.7146 47.726 17.79 47.4276 16.2744C47.5456 16.2331 47.6604 16.1867 47.7711 16.1321C48.2523 16.9366 48.9532 17.6535 49.5181 17.9275C50.4658 18.3869 51.3339 18.1634 51.7184 17.4912C51.7323 17.4672 51.7151 17.4383 51.6873 17.4358C51.1011 17.3886 49.3016 16.8679 48.5351 15.599C48.6229 15.5179 48.7089 15.4326 48.7885 15.3424C49.5902 15.9582 50.724 16.5037 51.5356 16.6146C52.4849 16.7454 53.5613 16.4392 53.5875 15.3242C53.5875 15.3018 53.5679 15.2836 53.5449 15.2853C53.2072 15.306 50.9723 15.4036 49.3794 14.4807C49.4344 14.3748 49.4861 14.2663 49.5345 14.1562C49.5345 14.1562 51.9414 14.7307 53.0809 14.5403C54.2139 14.3516 54.8779 13.4982 54.7492 12.4378C54.7459 12.4113 54.7148 12.3956 54.691 12.408H54.6926Z" fill="white"/>
<path d="M33.4425 14.1561C33.4901 14.2661 33.5425 14.3738 33.5975 14.4805C32.0054 15.4035 29.7707 15.3058 29.4321 15.2851C29.4083 15.2834 29.3886 15.3025 29.3886 15.3248C29.4149 16.4398 30.4904 16.7453 31.4406 16.6153C32.2522 16.5044 33.386 15.9589 34.1877 15.343C34.2681 15.4333 34.3533 15.5177 34.441 15.5996C33.6745 16.8686 31.8751 17.3892 31.2889 17.4364C31.2602 17.4389 31.2438 17.4687 31.2578 17.4919C31.6431 18.164 32.5104 18.3875 33.4589 17.9281C34.0229 17.6541 34.7239 16.9373 35.2051 16.1327C35.3158 16.1873 35.4305 16.2337 35.5478 16.2751C35.2494 17.7907 33.7573 18.7153 33.4966 18.8668C33.4868 18.8717 33.4802 18.8817 33.4786 18.8924C33.477 18.9032 33.4794 18.9148 33.4868 18.9231C33.9303 19.4272 34.9542 19.4371 35.5814 18.7087C35.9667 18.26 36.2618 17.4265 36.4282 16.4199C36.8898 16.4199 37.9432 16.6203 38.2949 17.5614C38.3104 17.6011 38.3727 17.5912 38.3727 17.549V14.9689C38.3727 14.9424 38.3457 14.925 38.3194 14.9333C37.7407 15.127 37.1373 15.1502 36.7201 15.0682C35.8978 14.9217 35.2756 14.2438 35.2756 13.4293C35.2756 12.9608 35.4822 12.5386 35.8126 12.2348C35.8831 12.1711 35.874 12.0627 35.7921 12.0122C35.756 11.9907 35.7207 11.9683 35.6847 11.946C32.8129 10.1034 30.197 5.83383 29.9149 5.36532C29.9018 5.3438 29.8707 5.33883 29.851 5.35622C28.9681 6.14092 28.8828 7.67805 29.8117 8.88325C30.4265 9.68038 31.7169 10.5529 33.0384 11.3103C33.0195 11.4518 33.0072 11.5933 32.9998 11.7357C30.2806 11.1455 28.5541 9.2516 28.277 8.92961C28.259 8.90809 28.2212 8.91223 28.209 8.93706C27.7089 9.9287 28.1425 11.2606 29.1353 11.8185C30.0068 12.3077 31.3742 12.5957 33.0564 12.7994C33.0744 12.9227 33.0966 13.0452 33.1228 13.1669C30.5978 13.5121 28.6262 12.5808 28.2868 12.407C28.2614 12.3938 28.2311 12.4103 28.2278 12.4368C28.0999 13.498 28.7631 14.3497 29.8961 14.5385C31.0356 14.7289 33.4425 14.1544 33.4425 14.1544V14.1561Z" fill="white"/>
<path d="M42.6302 17.631C42.9425 17.5143 43.4328 17.6087 43.4155 18.0639C43.4114 18.1674 43.5549 18.1674 43.5656 18.0614C43.659 17.3794 43.2024 17.1832 42.7253 17.2627C42.6663 17.0284 42.6171 16.8231 42.5621 16.6203C42.5179 16.4564 42.5015 16.1477 42.69 16.1477C42.7917 16.1477 42.7507 16.4349 42.7417 16.5582C42.7335 16.6667 42.772 16.7321 42.8589 16.7354C42.913 16.7379 42.9811 16.6675 43.022 16.6211C43.2959 16.3091 43.359 15.8257 43.0384 15.5931C42.7704 15.3977 42.0998 15.5434 41.9153 15.8215C41.8874 15.7164 41.7546 15.5434 41.6907 15.4681C41.6284 15.3944 41.6128 15.3439 41.6981 15.2794C41.7382 15.2479 41.8612 15.1254 41.8612 14.9988C41.8612 14.9234 41.8038 14.7852 41.621 14.7852C41.4767 14.7852 41.316 14.8862 41.316 15.1113C41.316 15.161 41.3283 15.2148 41.3603 15.2727C41.2693 15.2578 41.0209 15.2636 40.8939 15.2951L42.6531 20.1705C43.1565 19.9197 43.5262 19.5224 43.5262 19.0953C43.5262 18.7319 42.9958 18.8519 42.7384 19.1358C42.6556 18.6748 42.5818 18.2493 42.5015 17.8255C42.4793 17.7088 42.5384 17.6666 42.6318 17.631H42.6302Z" fill="white"/>
<path d="M40.3075 14.2606C40.2632 14.1464 40.1034 14.201 40.1427 14.3194L40.5124 15.3565C40.196 15.4327 39.6869 15.6653 39.6869 15.974C39.6869 16.3846 40.4067 16.6528 40.8231 16.6205C40.8026 16.714 40.8264 16.7976 40.8912 16.8738C40.7403 16.8738 40.4551 16.945 40.3616 17.0468C40.1411 16.839 39.7951 16.7637 39.6312 16.8904C39.4664 17.0178 39.4615 17.233 39.6336 17.4772C39.7533 17.6461 39.7984 17.8125 39.6639 18.0078C40.1657 18.0078 39.9812 17.3489 40.1771 17.3489C40.1517 17.4764 40.1673 17.6246 40.2247 17.7885C40.2624 17.8977 40.2624 17.9747 40.1976 18.0798C40.0361 18.3414 39.7836 18.9415 39.8181 19.4837C39.6533 19.4829 39.5697 19.4423 39.6279 19.2155C39.6492 19.1311 39.5975 19.0706 39.5295 19.1749C39.4541 19.29 39.4172 19.4853 39.4172 19.5698C39.4172 20.0532 39.9869 20.15 40.205 20.0482C40.8346 20.6632 42.0709 20.4993 42.4849 20.2932L40.3075 14.2606ZM40.0665 19.2883C40.0214 19.04 40.3641 18.5963 40.7985 18.1676C40.7059 18.4465 40.7633 18.9274 40.9453 19.093C40.6297 19.093 40.2542 19.1534 40.0665 19.2883Z" fill="white"/>
<path d="M32.399 23.1963C32.6031 23.2393 32.8196 23.2625 33.0434 23.2625C34.0591 23.2625 34.9215 22.7898 35.2093 22.1409C35.1412 21.8479 35.097 21.5466 35.0863 21.237C35.0863 21.2345 35.0855 21.2329 35.0847 21.2304C35.0863 21.1873 35.0691 21.0441 35.047 20.915C34.956 21.0152 34.8469 21.1045 34.7207 21.1733C34.724 21.189 34.7305 21.2031 34.733 21.2188C34.8068 21.7634 34.3403 22.2857 33.6935 22.3842C33.6238 22.395 33.5541 22.4 33.4861 22.4C33.018 22.4 32.5966 22.1599 32.44 21.7833C32.4269 21.7518 32.4211 21.7179 32.4121 21.6848C32.399 21.6848 32.3851 21.6881 32.372 21.6881C32.1818 21.6881 32.0014 21.6467 31.8416 21.5747C31.8981 21.9679 31.9891 22.3503 32.1391 22.7013C32.2129 22.8734 32.3006 23.0382 32.3998 23.1954L32.399 23.1963Z" fill="white"/>
<path d="M35.8815 23.6958C35.6717 24.2877 34.983 24.7372 34.1411 24.805C34.9691 25.2876 35.816 25.5293 36.2767 25.5053C36.2619 25.3629 36.4751 24.7496 36.6587 24.5658C36.3603 24.3158 36.1012 24.022 35.8815 23.6958Z" fill="white"/>
<path d="M50.4746 20.8996C50.2016 20.7556 49.8647 20.8623 49.7212 21.138C49.6515 21.2721 49.5056 21.335 49.3654 21.3093L49.6891 20.6836C49.8859 20.686 50.0778 20.5817 50.1746 20.3938C50.3123 20.1273 50.2106 19.7979 49.9466 19.658C49.6827 19.5189 49.3564 19.6216 49.2187 19.8881C49.1211 20.076 49.1457 20.2945 49.2597 20.4567L48.9358 21.0825C48.835 20.9807 48.8022 20.8243 48.8719 20.6902C49.0145 20.4145 48.9087 20.0743 48.6357 19.9295L46.8552 18.9892L46.8036 19.0893C46.6798 19.3302 46.7429 19.6257 46.9544 19.7929C46.8864 20.0156 46.9618 20.2573 47.1429 20.4013C47.0634 20.6604 47.1789 20.9402 47.4167 21.0668L47.7306 21.2323C47.7208 21.2348 47.7102 21.234 47.7012 21.2365C47.5635 21.277 47.4601 21.3598 47.3962 21.484C47.2601 21.7464 47.4617 22.0187 47.7593 22.3208C47.6716 22.3258 47.5888 22.3399 47.5093 22.3639L47.5078 22.3597C46.9806 22.4342 45.5427 22.1122 45.6821 21.8979C47.2577 19.6596 46.0526 18.327 44.604 18.4014V19.9046C44.604 20.3872 44.1868 20.7787 43.6728 20.7787H42.6726C41.9553 20.7787 41.4879 21.5072 41.4879 21.5072C41.4879 21.5072 41.0206 20.7787 40.3033 20.7787H39.3032C38.7892 20.7787 38.3727 20.3872 38.3727 19.9046V18.4014C36.9241 18.327 35.7174 19.6596 37.2939 21.8979C37.425 22.0982 36.1076 22.4127 35.3788 22.3722C34.9993 23.0459 34.0958 23.5219 33.0432 23.5219C32.8948 23.5219 32.7489 23.512 32.6079 23.4938C32.9252 23.906 33.3195 24.2569 33.7368 24.5467C33.7966 24.5508 33.8581 24.5533 33.9196 24.5533C34.8665 24.5533 35.6395 24.031 35.6854 23.377C35.6641 23.339 35.642 23.3009 35.6215 23.2612C36.2257 22.9003 37.2053 22.6519 38.0342 22.6519C38.1924 22.6519 38.2661 22.517 38.212 22.3846C37.8054 21.3962 38.6802 20.6802 39.5852 21.263C39.9804 21.5171 40.3813 22.0179 40.683 22.8531C39.1975 23.2165 37.3332 24.2164 36.9561 25.3082C36.811 25.7295 37.2906 26.3048 37.8734 26.4199C37.8841 26.4223 37.8947 26.4199 37.9037 26.4141C37.9128 26.4083 37.9186 26.3992 37.9211 26.3884C38.2252 24.7586 39.9615 23.5434 40.8649 23.3373C40.91 23.4598 40.8953 23.4201 40.9412 23.5426C39.9574 24.0128 39.0031 25.0036 38.7309 26.1815C38.6063 26.7212 39.2016 27.207 39.6935 27.3403C39.7181 27.3469 39.7426 27.3295 39.7435 27.3055C39.8369 25.8156 40.4886 24.5508 41.0723 23.9755C41.0887 24.0881 41.1002 24.2007 41.1084 24.3141C41.1084 24.3141 40.5108 25.9952 40.5108 27.2219C40.5108 27.7923 41.351 28.1912 41.4748 28.2467C41.6297 28.1912 42.4692 27.7923 42.4692 27.2219C42.4692 25.9952 41.8717 24.3141 41.8717 24.3141C41.8799 24.2007 41.8921 24.0873 41.9076 23.9755C42.4905 24.5508 43.1432 25.8156 43.2358 27.3055C43.2374 27.3295 43.2619 27.3478 43.2857 27.3411C43.7784 27.2079 44.3737 26.722 44.2491 26.1823C43.9761 25.0044 43.0227 24.0136 42.0389 23.5434C42.084 23.4209 42.0692 23.4606 42.1143 23.3381C43.0186 23.5443 44.7541 24.7594 45.0582 26.3892C45.0607 26.4 45.0663 26.4091 45.0753 26.4149C45.0843 26.4207 45.0951 26.4223 45.1058 26.4207C45.6878 26.3048 46.169 25.7303 46.0223 25.309C45.646 24.2172 43.781 23.2173 42.2955 22.8539C42.598 22.0187 42.9988 21.5179 43.3939 21.2638C44.299 20.6811 45.1738 21.3971 44.7672 22.3854C44.7131 22.5178 44.7869 22.6528 44.9451 22.6528C45.6042 22.6528 46.3617 22.8092 46.9487 23.0551C46.9388 23.3522 47.097 23.6684 47.3766 23.9085L47.3815 23.9167C47.1347 23.9664 46.9077 24.0616 46.7568 24.2718C46.565 24.5384 46.5388 24.939 46.6748 25.4911L46.3814 26.3122C46.3666 26.3619 46.3887 26.4157 46.4346 26.4405C46.4806 26.4646 46.537 26.453 46.569 26.4116L47.07 25.6989C47.5955 25.4961 47.907 25.2469 48.0144 24.9357C48.0988 24.6915 48.0472 24.4482 47.9463 24.2156C48.4382 24.3563 48.9268 24.2189 49.1195 23.8472C49.2547 23.5865 49.2104 23.2711 49.0382 22.9921C49.4481 23.065 49.7811 23.0749 49.9171 22.8142C49.9811 22.6908 49.9901 22.5584 49.945 22.4202C49.9417 22.4111 49.9352 22.402 49.9319 22.3929L50.2467 22.5592C50.4853 22.6842 50.7779 22.6205 50.9443 22.4069C51.1649 22.4756 51.4042 22.3995 51.5469 22.2165C51.8035 22.2968 52.0805 22.1801 52.2059 21.9401L52.2577 21.8399L50.4771 20.8996H50.4746ZM46.906 25.0334C46.8995 24.8397 46.9683 24.5822 47.0413 24.4804C47.0938 24.4076 47.1921 24.3538 47.2823 24.3165L46.906 25.0334ZM47.6807 24.8182C47.6397 24.9374 47.4635 25.1402 47.3012 25.2453L47.6873 24.5094C47.7078 24.6029 47.7102 24.7354 47.6807 24.8182ZM48.2849 22.3399C48.2685 22.3242 48.2521 22.3076 48.2357 22.2919C48.0644 22.1263 47.6619 21.7389 47.7094 21.6487C47.7283 21.6123 47.7553 21.5916 47.7996 21.5783C47.9906 21.5221 48.3398 21.652 48.58 21.7704L48.2849 22.3399ZM49.6032 22.6495C49.5564 22.7397 49.0113 22.6279 48.7793 22.5799C48.7579 22.5758 48.7358 22.5708 48.7145 22.5667L49.0088 21.998C49.2408 22.1296 49.5449 22.3448 49.6081 22.5352C49.6228 22.5799 49.6212 22.6139 49.6023 22.6503L49.6032 22.6495Z" fill="white"/>
<path d="M61.6484 12.4657L61.6451 10.773L60.8138 12.1835H60.663L59.8317 10.7829V12.4657H59.5161V10.1431H59.7858L60.7458 11.7754L61.6926 10.1431H61.9623L61.9656 12.4657H61.65H61.6484Z" fill="white"/>
<path d="M62.6281 10.707H62.9437V11.9876L64.0119 10.707H64.2981V12.466H63.9824V11.1855L62.9175 12.466H62.6281V10.707Z" fill="white"/>
<path d="M64.9086 10.707H65.2243V11.4537H66.217V10.707H66.5327V12.466H66.217V11.7293H65.2243V12.466H64.9086V10.707Z" fill="white"/>
<path d="M67.1469 10.707H67.4625V11.9876L68.5307 10.707H68.8169V12.466H68.5012V11.1855L67.4363 12.466H67.1469V10.707Z" fill="white"/>
<path d="M69.7119 12.37C69.5726 12.2922 69.4636 12.1854 69.3848 12.0497C69.3061 11.9139 69.2668 11.7592 69.2668 11.587C69.2668 11.4148 69.3061 11.26 69.3848 11.1243C69.4636 10.9885 69.5726 10.8817 69.7119 10.8056C69.8513 10.7294 70.0095 10.6914 70.1866 10.6914C70.344 10.6914 70.485 10.7236 70.6088 10.7874C70.7326 10.8519 70.8285 10.9447 70.8966 11.0663L70.6564 11.2219C70.6014 11.1383 70.5334 11.0746 70.4522 11.0324C70.3711 10.9902 70.2817 10.9695 70.1825 10.9695C70.0686 10.9695 69.9661 10.9951 69.8751 11.0456C69.7841 11.097 69.7128 11.169 69.6611 11.2633C69.6095 11.3577 69.5841 11.4653 69.5841 11.587C69.5841 11.7087 69.6095 11.8196 69.6611 11.9139C69.7128 12.0083 69.7841 12.0803 69.8751 12.1316C69.9661 12.183 70.0686 12.2078 70.1825 12.2078C70.2809 12.2078 70.3711 12.1871 70.4522 12.1449C70.5334 12.1027 70.6014 12.0398 70.6564 11.9553L70.8966 12.1076C70.8285 12.2293 70.7326 12.3229 70.6088 12.3882C70.485 12.4536 70.344 12.4859 70.1866 12.4859C70.0095 12.4859 69.8505 12.447 69.7119 12.37Z" fill="white"/>
<path d="M72.5798 10.986H71.942V12.466H71.6264V10.986H70.9886V10.707H72.579L72.5798 10.986Z" fill="white"/>
<path d="M74.3937 11.6929H72.9804C73 11.8477 73.0673 11.9727 73.1829 12.0663C73.2976 12.1606 73.4411 12.207 73.6116 12.207C73.8198 12.207 73.9871 12.1366 74.1141 11.9951L74.2879 12.2003C74.2092 12.2931 74.1109 12.3642 73.9936 12.4131C73.8764 12.4619 73.7452 12.4859 73.601 12.4859C73.4165 12.4859 73.2534 12.4478 73.1115 12.3717C72.9689 12.2955 72.859 12.1888 72.7812 12.0514C72.7033 11.9139 72.6647 11.7592 72.6647 11.587C72.6647 11.4148 72.7025 11.2625 72.7779 11.1259C72.8533 10.9885 72.9574 10.8817 73.0902 10.8056C73.223 10.7294 73.3722 10.6914 73.5386 10.6914C73.7051 10.6914 73.8534 10.7294 73.9838 10.8056C74.1141 10.8817 74.2158 10.9885 74.2896 11.1259C74.3625 11.2633 74.3994 11.4206 74.3994 11.5969C74.3994 11.6209 74.3978 11.6532 74.3937 11.6929ZM73.1599 11.0994C73.0582 11.1922 72.9984 11.3138 72.9812 11.4645H74.0986C74.0814 11.3163 74.0215 11.1955 73.9199 11.1011C73.8182 11.0067 73.6911 10.9596 73.5403 10.9596C73.3894 10.9596 73.2616 11.0059 73.1599 11.0994Z" fill="white"/>
<path d="M76.2671 10.8033C76.4007 10.8786 76.5057 10.9837 76.5811 11.1187C76.6565 11.2536 76.6942 11.41 76.6942 11.5863C76.6942 11.7627 76.6565 11.9199 76.5811 12.0557C76.5057 12.1914 76.4007 12.2974 76.2671 12.3727C76.1335 12.448 75.9826 12.4853 75.8138 12.4853C75.6891 12.4853 75.5744 12.4613 75.4703 12.4124C75.3661 12.3636 75.2776 12.2932 75.2055 12.1997V13.1086H74.8898V10.7065H75.1924V10.9854C75.2629 10.8877 75.3514 10.8149 75.4588 10.7644C75.5662 10.7147 75.6842 10.6899 75.8138 10.6899C75.9826 10.6899 76.1335 10.7279 76.2671 10.8033ZM76.0884 12.1294C76.1769 12.0772 76.2474 12.0044 76.2991 11.91C76.3507 11.8156 76.3761 11.708 76.3761 11.5863C76.3761 11.4647 76.3507 11.3571 76.2991 11.2627C76.2474 11.1683 76.1777 11.0963 76.0884 11.045C75.9999 10.9937 75.899 10.9688 75.7875 10.9688C75.676 10.9688 75.5785 10.9945 75.4899 11.0467C75.4014 11.0988 75.3309 11.1708 75.2792 11.2644C75.2276 11.3571 75.2022 11.4647 75.2022 11.5863C75.2022 11.708 75.2276 11.8156 75.2776 11.91C75.3276 12.0044 75.3981 12.0772 75.4883 12.1294C75.5777 12.1815 75.6777 12.2072 75.7875 12.2072C75.8974 12.2072 75.9999 12.1815 76.0884 12.1294Z" fill="white"/>
<path d="M77.4353 12.37C77.296 12.2922 77.1869 12.1854 77.1082 12.0497C77.0295 11.9139 76.9902 11.7592 76.9902 11.587C76.9902 11.4148 77.0295 11.26 77.1082 11.1243C77.1869 10.9885 77.296 10.8817 77.4353 10.8056C77.5747 10.7294 77.7329 10.6914 77.91 10.6914C78.0674 10.6914 78.2084 10.7236 78.3322 10.7874C78.456 10.8519 78.5519 10.9447 78.6199 11.0663L78.3797 11.2219C78.3248 11.1383 78.2568 11.0746 78.1756 11.0324C78.0944 10.9902 78.0051 10.9695 77.9059 10.9695C77.7919 10.9695 77.6895 10.9951 77.5985 11.0456C77.5075 11.097 77.4362 11.169 77.3845 11.2633C77.3329 11.3577 77.3074 11.4653 77.3074 11.587C77.3074 11.7087 77.3329 11.8196 77.3845 11.9139C77.4362 12.0083 77.5075 12.0803 77.5985 12.1316C77.6895 12.183 77.7919 12.2078 77.9059 12.2078C78.0043 12.2078 78.0944 12.1871 78.1756 12.1449C78.2568 12.1027 78.3248 12.0398 78.3797 11.9553L78.6199 12.1076C78.5519 12.2293 78.456 12.3229 78.3322 12.3882C78.2084 12.4536 78.0674 12.4859 77.91 12.4859C77.7329 12.4859 77.5739 12.447 77.4353 12.37Z" fill="white"/>
<path d="M80.3029 10.986H79.6651V12.466H79.3495V10.986H78.7117V10.707H80.3021L80.3029 10.986Z" fill="white"/>
<path d="M82.15 11.9818C82.15 12.1366 82.0926 12.2557 81.9779 12.3402C81.8631 12.4238 81.6918 12.466 81.4639 12.466H80.626V10.707H81.4343C81.6401 10.707 81.8016 10.7459 81.9172 10.8246C82.0336 10.9032 82.091 11.0141 82.091 11.1582C82.091 11.2509 82.0664 11.3312 82.0172 11.399C81.968 11.4669 81.8992 11.5182 81.8115 11.553C82.0369 11.6109 82.15 11.7542 82.15 11.9818ZM80.9343 11.4644H81.4073C81.5278 11.4644 81.6188 11.4421 81.6819 11.3982C81.7451 11.3543 81.7754 11.2898 81.7754 11.2053C81.7754 11.0373 81.6524 10.9529 81.4073 10.9529H80.9343V11.4644ZM81.736 12.1581C81.8016 12.1159 81.8344 12.0505 81.8344 11.9619C81.8344 11.8733 81.8041 11.8038 81.7442 11.7591C81.6836 11.7152 81.5893 11.6929 81.4598 11.6929H80.9343V12.2202H81.4401C81.5713 12.2202 81.6704 12.2004 81.736 12.1581Z" fill="white"/>
<path d="M82.9229 12.37C82.7852 12.2922 82.677 12.1854 82.5991 12.0497C82.5212 11.9139 82.4827 11.7592 82.4827 11.587C82.4827 11.4148 82.5212 11.26 82.5991 11.1243C82.677 10.9885 82.7852 10.8817 82.9229 10.8056C83.0607 10.7294 83.2164 10.6914 83.3894 10.6914C83.5624 10.6914 83.7173 10.7294 83.8542 10.8056C83.9911 10.8817 84.0985 10.9877 84.1764 11.1243C84.2543 11.26 84.2928 11.4148 84.2928 11.587C84.2928 11.7592 84.2543 11.9139 84.1764 12.0497C84.0985 12.1854 83.9911 12.2922 83.8542 12.37C83.7173 12.447 83.5624 12.4859 83.3894 12.4859C83.2164 12.4859 83.0607 12.447 82.9229 12.37ZM83.6903 12.1292C83.7788 12.077 83.8485 12.0042 83.8985 11.9098C83.9493 11.8154 83.9739 11.7078 83.9739 11.5862C83.9739 11.4645 83.9485 11.3569 83.8985 11.2625C83.8485 11.1681 83.7788 11.0961 83.6903 11.0448C83.6017 10.9935 83.5009 10.9687 83.3894 10.9687C83.2779 10.9687 83.1779 10.9943 83.0885 11.0448C83 11.0961 82.9295 11.1681 82.8779 11.2625C82.8262 11.3569 82.8008 11.4645 82.8008 11.5862C82.8008 11.7078 82.8262 11.8154 82.8779 11.9098C82.9295 12.0042 82.9992 12.077 83.0885 12.1292C83.1771 12.1813 83.2779 12.207 83.3894 12.207C83.5009 12.207 83.6017 12.1813 83.6903 12.1292Z" fill="white"/>
<path d="M60.4474 14.7852C60.5908 14.863 60.7031 14.9698 60.7843 15.1072C60.8655 15.2446 60.9056 15.3986 60.9056 15.5683C60.9056 15.738 60.8655 15.8961 60.7843 16.0326C60.7031 16.17 60.5908 16.2768 60.4474 16.3546C60.3039 16.4316 60.1432 16.4705 59.9661 16.4705C59.8128 16.4705 59.6743 16.4465 59.5505 16.3977C59.4267 16.3488 59.3218 16.2785 59.2365 16.1849L59.421 15.9987C59.5612 16.1386 59.7382 16.2081 59.953 16.2081C60.1235 16.2081 60.2695 16.1593 60.39 16.0608C60.5105 15.9623 60.5826 15.8331 60.6072 15.6742H59.7333V15.4383H60.6007C60.572 15.2852 60.499 15.1618 60.3801 15.0683C60.2621 14.9739 60.1194 14.9268 59.953 14.9268C59.7407 14.9268 59.5628 14.9979 59.421 15.1395L59.2365 14.9574C59.3218 14.8622 59.4275 14.7902 59.5521 14.7413C59.6768 14.6925 59.8153 14.6685 59.9661 14.6685C60.1432 14.6685 60.3039 14.7082 60.4474 14.7852Z" fill="white"/>
<path d="M62.0296 15.7047H61.6681V16.448H61.3525V14.689H61.6681V15.4323H62.0362L62.6019 14.689H62.9404L62.2797 15.535L62.9863 16.4471H62.615L62.0296 15.7047Z" fill="white"/>
<path d="M63.5391 16.352C63.4013 16.2742 63.2931 16.1674 63.2152 16.0317C63.1374 15.8959 63.0988 15.7411 63.0988 15.569C63.0988 15.3968 63.1374 15.242 63.2152 15.1063C63.2931 14.9705 63.4013 14.8637 63.5391 14.7876C63.6776 14.7114 63.8325 14.6733 64.0055 14.6733C64.1785 14.6733 64.3334 14.7114 64.4703 14.7876C64.6073 14.8637 64.7146 14.9697 64.7925 15.1063C64.8704 15.242 64.9089 15.3968 64.9089 15.569C64.9089 15.7411 64.8704 15.8959 64.7925 16.0317C64.7146 16.1674 64.6073 16.2742 64.4703 16.352C64.3334 16.429 64.1785 16.4679 64.0055 16.4679C63.8325 16.4679 63.6768 16.429 63.5391 16.352ZM64.3064 16.1111C64.3949 16.059 64.4646 15.9861 64.5154 15.8918C64.5663 15.7974 64.5909 15.6898 64.5909 15.5681C64.5909 15.4465 64.5654 15.3388 64.5154 15.2445C64.4646 15.1501 64.3957 15.0781 64.3064 15.0268C64.2178 14.9755 64.117 14.9506 64.0055 14.9506C63.894 14.9506 63.7932 14.9763 63.7047 15.0268C63.6161 15.0781 63.5456 15.1501 63.494 15.2445C63.4423 15.3388 63.4169 15.4465 63.4169 15.5681C63.4169 15.6898 63.4423 15.7974 63.494 15.8918C63.5456 15.9861 63.6153 16.059 63.7047 16.1111C63.7932 16.1633 63.8932 16.1889 64.0055 16.1889C64.1178 16.1889 64.2178 16.1633 64.3064 16.1111Z" fill="white"/>
<path d="M65.3662 14.689H65.6818V15.4356H66.6746V14.689H66.9902V16.448H66.6746V15.7113H65.6818V16.448H65.3662V14.689Z" fill="white"/>
<path d="M67.8831 16.352C67.7453 16.2742 67.6371 16.1674 67.5592 16.0317C67.4814 15.8959 67.4428 15.7411 67.4428 15.569C67.4428 15.3968 67.4814 15.242 67.5592 15.1063C67.6371 14.9705 67.7453 14.8637 67.8831 14.7876C68.0208 14.7114 68.1765 14.6733 68.3495 14.6733C68.5225 14.6733 68.6774 14.7114 68.8143 14.7876C68.9512 14.8637 69.0586 14.9697 69.1365 15.1063C69.2144 15.242 69.2529 15.3968 69.2529 15.569C69.2529 15.7411 69.2144 15.8959 69.1365 16.0317C69.0586 16.1674 68.9512 16.2742 68.8143 16.352C68.6774 16.429 68.5225 16.4679 68.3495 16.4679C68.1765 16.4679 68.0208 16.429 67.8831 16.352ZM68.6504 16.1111C68.7389 16.059 68.8086 15.9861 68.8586 15.8918C68.9094 15.7974 68.934 15.6898 68.934 15.5681C68.934 15.4465 68.9086 15.3388 68.8586 15.2445C68.8086 15.1501 68.7389 15.0781 68.6504 15.0268C68.5618 14.9755 68.461 14.9506 68.3495 14.9506C68.238 14.9506 68.138 14.9763 68.0487 15.0268C67.9601 15.0781 67.8896 15.1501 67.838 15.2445C67.7863 15.3388 67.7609 15.4465 67.7609 15.5681C67.7609 15.6898 67.7863 15.7974 67.838 15.8918C67.8896 15.9861 67.9593 16.059 68.0487 16.1111C68.1372 16.1633 68.238 16.1889 68.3495 16.1889C68.461 16.1889 68.5618 16.1633 68.6504 16.1111Z" fill="white"/>
<path d="M71.7187 14.689V16.448H71.4326V15.1633L70.7817 16.2485H70.6432L69.9988 15.16V16.448H69.7094V14.689H70.0349L70.7186 15.8768L71.422 14.689H71.7187Z" fill="white"/>
<path d="M72.3337 14.689H72.6493V15.9695L73.7175 14.689H74.0036V16.448H73.688V15.1674L72.6231 16.448H72.3337V14.689Z" fill="white"/>
<path d="M76.0048 14.689V16.448H75.6892V15.7378C75.5006 15.8263 75.3129 15.8702 75.1268 15.8702C74.9095 15.8702 74.7423 15.8197 74.6234 15.7179C74.5054 15.6161 74.4463 15.4638 74.4463 15.2602V14.689H74.762V15.2403C74.762 15.362 74.7997 15.4538 74.8751 15.5159C74.9505 15.578 75.0563 15.6086 75.1924 15.6086C75.3457 15.6086 75.5113 15.5697 75.6883 15.4928V14.6898H76.004L76.0048 14.689Z" fill="white"/>
<path d="M78.1831 15.6749H76.7698C76.7895 15.8297 76.8567 15.9547 76.9723 16.0482C77.087 16.1426 77.2305 16.1889 77.401 16.1889C77.6092 16.1889 77.7765 16.1186 77.9036 15.977L78.0773 16.1823C77.9986 16.275 77.9003 16.3462 77.783 16.3951C77.6658 16.4439 77.5346 16.4679 77.3904 16.4679C77.2059 16.4679 77.0428 16.4298 76.9009 16.3537C76.7583 16.2775 76.6484 16.1707 76.5706 16.0333C76.4927 15.8959 76.4542 15.7411 76.4542 15.569C76.4542 15.3968 76.4919 15.2445 76.5673 15.1079C76.6427 14.9705 76.7468 14.8637 76.8796 14.7876C77.0124 14.7114 77.1616 14.6733 77.3281 14.6733C77.4945 14.6733 77.6429 14.7114 77.7732 14.7876C77.9036 14.8637 78.0052 14.9705 78.079 15.1079C78.152 15.2453 78.1888 15.4026 78.1888 15.5789C78.1888 15.6029 78.1872 15.6352 78.1831 15.6749ZM76.9493 15.0814C76.8477 15.1741 76.7878 15.2958 76.7706 15.4465H77.888C77.8708 15.2983 77.8109 15.1774 77.7093 15.0831C77.6076 14.9887 77.4805 14.9415 77.3297 14.9415C77.1789 14.9415 77.051 14.9879 76.9493 15.0814Z" fill="white"/>
<path d="M78.9635 16.352C78.8241 16.2742 78.7151 16.1674 78.6364 16.0317C78.5577 15.8959 78.5184 15.7411 78.5184 15.569C78.5184 15.3968 78.5577 15.242 78.6364 15.1063C78.7151 14.9705 78.8241 14.8637 78.9635 14.7876C79.1029 14.7114 79.2611 14.6733 79.4382 14.6733C79.5956 14.6733 79.7366 14.7056 79.8604 14.7694C79.9842 14.8339 80.0801 14.9266 80.1481 15.0483L79.9079 15.2039C79.853 15.1203 79.785 15.0566 79.7038 15.0144C79.6226 14.9722 79.5333 14.9515 79.4341 14.9515C79.3201 14.9515 79.2177 14.9771 79.1267 15.0276C79.0357 15.0789 78.9643 15.1509 78.9127 15.2453C78.861 15.3397 78.8356 15.4473 78.8356 15.569C78.8356 15.6906 78.861 15.8016 78.9127 15.8959C78.9643 15.9903 79.0357 16.0623 79.1267 16.1136C79.2177 16.1649 79.3201 16.1898 79.4341 16.1898C79.5325 16.1898 79.6226 16.1691 79.7038 16.1269C79.785 16.0847 79.853 16.0217 79.9079 15.9373L80.1481 16.0896C80.0801 16.2113 79.9842 16.3048 79.8604 16.3702C79.7366 16.4356 79.5956 16.4679 79.4382 16.4679C79.2611 16.4679 79.1021 16.429 78.9635 16.352Z" fill="white"/>
<path d="M81.2333 15.7047H80.8717V16.448H80.5562V14.689H80.8717V15.4323H81.2398L81.8055 14.689H82.1441L81.4833 15.535L82.1901 16.4471H81.8186L81.2341 15.7038L81.2333 15.7047Z" fill="white"/>
<path d="M82.7418 16.352C82.6041 16.2742 82.4959 16.1674 82.418 16.0317C82.3401 15.8959 82.3016 15.7411 82.3016 15.569C82.3016 15.3968 82.3401 15.242 82.418 15.1063C82.4959 14.9705 82.6041 14.8637 82.7418 14.7876C82.8803 14.7114 83.0353 14.6733 83.2083 14.6733C83.3812 14.6733 83.5362 14.7114 83.6731 14.7876C83.81 14.8637 83.9174 14.9697 83.9953 15.1063C84.0731 15.242 84.1117 15.3968 84.1117 15.569C84.1117 15.7411 84.0731 15.8959 83.9953 16.0317C83.9174 16.1674 83.81 16.2742 83.6731 16.352C83.5362 16.429 83.3812 16.4679 83.2083 16.4679C83.0353 16.4679 82.8795 16.429 82.7418 16.352ZM83.5091 16.1111C83.5977 16.059 83.6673 15.9861 83.7182 15.8918C83.769 15.7974 83.7936 15.6898 83.7936 15.5681C83.7936 15.4465 83.7682 15.3388 83.7182 15.2445C83.6673 15.1501 83.5985 15.0781 83.5091 15.0268C83.4206 14.9755 83.3198 14.9506 83.2083 14.9506C83.0968 14.9506 82.9959 14.9763 82.9074 15.0268C82.8189 15.0781 82.7484 15.1501 82.6967 15.2445C82.6451 15.3388 82.6196 15.4465 82.6196 15.5681C82.6196 15.6898 82.6451 15.7974 82.6967 15.8918C82.7484 15.9861 82.818 16.059 82.9074 16.1111C82.9959 16.1633 83.0959 16.1889 83.2083 16.1889C83.3206 16.1889 83.4206 16.1633 83.5091 16.1111Z" fill="white"/>
<path d="M85.8506 14.968H84.884V16.448H84.5684V14.689H85.8506V14.968Z" fill="white"/>
<path d="M86.3767 16.352C86.239 16.2742 86.1308 16.1674 86.0529 16.0317C85.975 15.8959 85.9365 15.7411 85.9365 15.569C85.9365 15.3968 85.975 15.242 86.0529 15.1063C86.1308 14.9705 86.239 14.8637 86.3767 14.7876C86.5144 14.7114 86.6702 14.6733 86.8432 14.6733C87.0162 14.6733 87.1711 14.7114 87.308 14.7876C87.4449 14.8637 87.5523 14.9697 87.6302 15.1063C87.7081 15.242 87.7466 15.3968 87.7466 15.569C87.7466 15.7411 87.7081 15.8959 87.6302 16.0317C87.5523 16.1674 87.4449 16.2742 87.308 16.352C87.1711 16.429 87.0162 16.4679 86.8432 16.4679C86.6702 16.4679 86.5144 16.429 86.3767 16.352ZM87.144 16.1111C87.2326 16.059 87.3023 15.9861 87.3523 15.8918C87.4031 15.7974 87.4277 15.6898 87.4277 15.5681C87.4277 15.4465 87.4023 15.3388 87.3523 15.2445C87.3023 15.1501 87.2326 15.0781 87.144 15.0268C87.0555 14.9755 86.9547 14.9506 86.8432 14.9506C86.7317 14.9506 86.6317 14.9763 86.5423 15.0268C86.4538 15.0781 86.3833 15.1501 86.3316 15.2445C86.28 15.3388 86.2546 15.4465 86.2546 15.5681C86.2546 15.6898 86.28 15.7974 86.3316 15.8918C86.3833 15.9861 86.4529 16.059 86.5423 16.1111C86.6308 16.1633 86.7317 16.1889 86.8432 16.1889C86.9547 16.1889 87.0555 16.1633 87.144 16.1111Z" fill="white"/>
<path d="M90.4651 14.7853C90.5987 14.8606 90.7037 14.9657 90.7791 15.1006C90.8545 15.2356 90.8922 15.392 90.8922 15.5683C90.8922 15.7446 90.8545 15.9019 90.7791 16.0377C90.7037 16.1734 90.5987 16.2794 90.4651 16.3547C90.3315 16.43 90.1806 16.4673 90.0118 16.4673C89.8871 16.4673 89.7724 16.4433 89.6683 16.3944C89.5641 16.3456 89.4756 16.2752 89.4035 16.1817V17.0906H89.0878V14.6884H89.3903V14.9674C89.4609 14.8697 89.5494 14.7969 89.6568 14.7464C89.7642 14.6967 89.8822 14.6719 90.0118 14.6719C90.1806 14.6719 90.3315 14.71 90.4651 14.7853ZM90.2864 16.1113C90.3749 16.0592 90.4454 15.9863 90.4971 15.892C90.5487 15.7976 90.5741 15.69 90.5741 15.5683C90.5741 15.4466 90.5487 15.339 90.4971 15.2447C90.4454 15.1503 90.3757 15.0783 90.2864 15.027C90.1979 14.9757 90.097 14.9508 89.9855 14.9508C89.874 14.9508 89.7765 14.9765 89.6879 15.0286C89.5994 15.0808 89.5289 15.1528 89.4772 15.2463C89.4256 15.339 89.4002 15.4466 89.4002 15.5683C89.4002 15.69 89.4256 15.7976 89.4756 15.892C89.5256 15.9863 89.5961 16.0592 89.6863 16.1113C89.7757 16.1635 89.8757 16.1891 89.9855 16.1891C90.0954 16.1891 90.1979 16.1635 90.2864 16.1113Z" fill="white"/>
<path d="M92.5081 14.8521C92.636 14.9713 92.7007 15.1493 92.7007 15.386V16.448H92.4015V16.2154C92.349 16.2974 92.2736 16.3595 92.1761 16.4033C92.0785 16.4464 91.9629 16.4679 91.8293 16.4679C91.6342 16.4679 91.4784 16.4199 91.3612 16.3255C91.244 16.2303 91.1857 16.1053 91.1857 15.9506C91.1857 15.7958 91.2415 15.6716 91.353 15.5772C91.4645 15.4829 91.6424 15.4365 91.885 15.4365H92.3851V15.3736C92.3851 15.2362 92.3458 15.1311 92.2671 15.0582C92.1884 14.9854 92.0719 14.949 91.9186 14.949C91.8153 14.949 91.7145 14.9664 91.6161 15.0003C91.5178 15.0342 91.4341 15.0806 91.3661 15.1377L91.2349 14.8985C91.3243 14.8256 91.4325 14.7694 91.5571 14.7313C91.6817 14.6924 91.8145 14.6733 91.9547 14.6733C92.1957 14.6733 92.3794 14.7329 92.5081 14.8521ZM92.1941 16.1418C92.2818 16.0871 92.3449 16.011 92.3851 15.9108V15.665H91.899C91.6317 15.665 91.4981 15.756 91.4981 15.9373C91.4981 16.0259 91.5317 16.0954 91.5997 16.1467C91.6678 16.1981 91.7621 16.2229 91.8826 16.2229C92.0031 16.2229 92.1064 16.1956 92.1941 16.1418Z" fill="white"/>
<path d="M94.4518 15.6818C94.5157 15.7505 94.5469 15.8358 94.5469 15.9376C94.5469 16.0394 94.5116 16.1338 94.4419 16.2149C94.3714 16.296 94.2747 16.3589 94.1509 16.4044C94.0271 16.45 93.8886 16.4723 93.7353 16.4723C93.6058 16.4723 93.4795 16.4549 93.3557 16.421C93.2319 16.3871 93.1221 16.3374 93.0253 16.2737L93.1204 16.0311C93.2032 16.0841 93.2992 16.1255 93.4066 16.1553C93.5139 16.1851 93.6222 16.2 93.732 16.2C93.8812 16.2 94.0001 16.1743 94.0886 16.1222C94.1772 16.07 94.2214 15.9997 94.2214 15.9111C94.2214 15.8292 94.1854 15.7662 94.1149 15.7215C94.0435 15.6777 93.9435 15.6553 93.814 15.6553H93.4951V15.4269H93.791C93.9091 15.4269 94.0025 15.4062 94.0706 15.364C94.1386 15.3217 94.1722 15.2646 94.1722 15.1918C94.1722 15.1123 94.1321 15.0502 94.0525 15.0055C93.973 14.9617 93.8648 14.9393 93.7287 14.9393C93.5558 14.9393 93.3729 14.9848 93.1795 15.0751L93.0942 14.8292C93.3065 14.7208 93.5287 14.667 93.7615 14.667C93.9017 14.667 94.028 14.6869 94.1394 14.7266C94.2509 14.7663 94.3387 14.8226 94.4026 14.8955C94.4657 14.9683 94.4977 15.0511 94.4977 15.1446C94.4977 15.2307 94.469 15.3085 94.4124 15.3772C94.3559 15.4459 94.2788 15.4981 94.1821 15.5328C94.2985 15.5634 94.3878 15.6139 94.4518 15.6818Z" fill="white"/>
<path d="M96.5521 15.9637C96.5521 16.1185 96.4947 16.2377 96.38 16.3222C96.2652 16.4058 96.093 16.448 95.866 16.448H95.0281V14.689H95.8364C96.0422 14.689 96.2037 14.7279 96.3193 14.8066C96.4357 14.8852 96.4931 14.9961 96.4931 15.1401C96.4931 15.2328 96.4685 15.3131 96.4193 15.381C96.3701 15.4489 96.3013 15.5002 96.2136 15.535C96.439 15.5929 96.5521 15.7361 96.5521 15.9637ZM95.3364 15.4464H95.8094C95.9299 15.4464 96.0217 15.4241 96.084 15.3802C96.1463 15.3363 96.1775 15.2717 96.1775 15.1873C96.1775 15.0193 96.0545 14.9349 95.8094 14.9349H95.3364V15.4464ZM96.1381 16.1401C96.2037 16.0978 96.2365 16.0324 96.2365 15.9439C96.2365 15.8553 96.2062 15.7858 96.1463 15.7411C96.0865 15.6964 95.9914 15.6749 95.8619 15.6749H95.3364V16.2021H95.8422C95.9734 16.2021 96.0725 16.1823 96.1381 16.1401Z" fill="white"/>
<path d="M97.0447 14.689H97.3604V15.9695L98.4285 14.689H98.7147V16.448H98.399V15.1674L97.3341 16.448H97.0447V14.689Z" fill="white"/>
<path d="M100.624 14.968H99.9864V16.448H99.6708V14.968H99.033V14.689H100.623L100.624 14.968Z" fill="white"/>
<path d="M100.945 14.689H101.261V15.9695L102.329 14.689H102.615V16.448H102.3V15.1674L101.235 16.448H100.945V14.689Z" fill="white"/>
<path d="M104.623 14.689V16.448H104.34V15.8901H103.798L103.417 16.448H103.078L103.502 15.847C103.371 15.8073 103.27 15.7411 103.2 15.6492C103.129 15.5573 103.095 15.4431 103.095 15.3057C103.095 15.1045 103.163 14.9514 103.299 14.8463C103.435 14.7412 103.622 14.689 103.86 14.689H104.623ZM103.527 15.5764C103.601 15.6326 103.71 15.6608 103.857 15.6608H104.34V14.9671H103.87C103.568 14.9671 103.417 15.083 103.417 15.3156C103.417 15.4332 103.454 15.5201 103.527 15.5764Z" fill="white"/>
<path d="M61.1165 18.3231C61.287 18.4672 61.3731 18.665 61.3731 18.9166C61.3731 19.1683 61.2878 19.3669 61.1165 19.5109C60.946 19.655 60.7115 19.727 60.4131 19.727H59.8442V20.4306H59.5154V18.1079H60.4123C60.7099 18.1079 60.9443 18.1799 61.1157 18.324L61.1165 18.3231ZM60.8796 19.304C60.9894 19.2146 61.0434 19.0855 61.0434 18.9174C61.0434 18.7494 60.9886 18.6203 60.8796 18.5309C60.7697 18.4415 60.6115 18.3968 60.4033 18.3968H59.8442V19.4389H60.4033C60.6115 19.4389 60.7705 19.3934 60.8796 19.304Z" fill="white"/>
<path d="M62.0501 20.3335C61.9124 20.2557 61.8042 20.1489 61.7263 20.0132C61.6484 19.8774 61.6099 19.7226 61.6099 19.5505C61.6099 19.3783 61.6484 19.2235 61.7263 19.0877C61.8042 18.952 61.9124 18.8452 62.0501 18.7691C62.1879 18.6929 62.3436 18.6548 62.5166 18.6548C62.6896 18.6548 62.8445 18.6929 62.9814 18.7691C63.1183 18.8452 63.2257 18.9512 63.3036 19.0877C63.3815 19.2235 63.42 19.3783 63.42 19.5505C63.42 19.7226 63.3815 19.8774 63.3036 20.0132C63.2257 20.1489 63.1183 20.2557 62.9814 20.3335C62.8445 20.4105 62.6896 20.4494 62.5166 20.4494C62.3436 20.4494 62.1879 20.4105 62.0501 20.3335ZM62.8175 20.0926C62.906 20.0405 62.9757 19.9676 63.0257 19.8733C63.0765 19.7789 63.1011 19.6713 63.1011 19.5496C63.1011 19.4279 63.0757 19.3203 63.0257 19.226C62.9757 19.1316 62.906 19.0596 62.8175 19.0083C62.7289 18.957 62.6281 18.9321 62.5166 18.9321C62.4051 18.9321 62.3051 18.9578 62.2157 19.0083C62.1272 19.0596 62.0567 19.1316 62.0051 19.226C61.9534 19.3203 61.928 19.4279 61.928 19.5496C61.928 19.6713 61.9534 19.7789 62.0051 19.8733C62.0567 19.9676 62.1264 20.0405 62.2157 20.0926C62.3043 20.1448 62.4051 20.1704 62.5166 20.1704C62.6281 20.1704 62.7289 20.1448 62.8175 20.0926Z" fill="white"/>
<path d="M64.1612 20.3335C64.0218 20.2557 63.9128 20.1489 63.8341 20.0132C63.7554 19.8774 63.716 19.7226 63.716 19.5505C63.716 19.3783 63.7554 19.2235 63.8341 19.0877C63.9128 18.952 64.0218 18.8452 64.1612 18.7691C64.3005 18.6929 64.4588 18.6548 64.6358 18.6548C64.7932 18.6548 64.9342 18.6871 65.058 18.7508C65.1818 18.8154 65.2777 18.9081 65.3458 19.0298L65.1056 19.1854C65.0506 19.1018 64.9826 19.0381 64.9014 18.9959C64.8203 18.9536 64.7309 18.933 64.6317 18.933C64.5178 18.933 64.4153 18.9586 64.3243 19.0091C64.2333 19.0604 64.162 19.1324 64.1103 19.2268C64.0587 19.3212 64.0333 19.4288 64.0333 19.5505C64.0333 19.6721 64.0587 19.7831 64.1103 19.8774C64.162 19.9718 64.2333 20.0438 64.3243 20.0951C64.4153 20.1464 64.5178 20.1713 64.6317 20.1713C64.7301 20.1713 64.8203 20.1506 64.9014 20.1084C64.9826 20.0661 65.0506 20.0032 65.1056 19.9188L65.3458 20.0711C65.2777 20.1928 65.1818 20.2863 65.058 20.3517C64.9342 20.4171 64.7932 20.4494 64.6358 20.4494C64.4588 20.4494 64.2997 20.4105 64.1612 20.3335Z" fill="white"/>
<path d="M66.0115 20.3335C65.8721 20.2557 65.7631 20.1489 65.6844 20.0132C65.6057 19.8774 65.5664 19.7226 65.5664 19.5505C65.5664 19.3783 65.6057 19.2235 65.6844 19.0877C65.7631 18.952 65.8721 18.8452 66.0115 18.7691C66.1509 18.6929 66.3091 18.6548 66.4862 18.6548C66.6436 18.6548 66.7846 18.6871 66.9084 18.7508C67.0322 18.8154 67.1281 18.9081 67.1961 19.0298L66.9559 19.1854C66.901 19.1018 66.8329 19.0381 66.7518 18.9959C66.6706 18.9536 66.5813 18.933 66.4821 18.933C66.3681 18.933 66.2656 18.9586 66.1746 19.0091C66.0837 19.0604 66.0123 19.1324 65.9607 19.2268C65.909 19.3212 65.8836 19.4288 65.8836 19.5505C65.8836 19.6721 65.909 19.7831 65.9607 19.8774C66.0123 19.9718 66.0837 20.0438 66.1746 20.0951C66.2656 20.1464 66.3681 20.1713 66.4821 20.1713C66.5804 20.1713 66.6706 20.1506 66.7518 20.1084C66.8329 20.0661 66.901 20.0032 66.9559 19.9188L67.1961 20.0711C67.1281 20.1928 67.0322 20.2863 66.9084 20.3517C66.7846 20.4171 66.6436 20.4494 66.4862 20.4494C66.3091 20.4494 66.1501 20.4105 66.0115 20.3335Z" fill="white"/>
<path d="M67.6044 18.6714H67.9201V19.952L68.9883 18.6714H69.2744V20.4304H68.9587V19.1499L67.8938 20.4304H67.6044V18.6714Z" fill="white"/>
<path d="M69.885 18.6714H70.2006V19.952L71.2688 18.6714H71.5549V20.4304H71.2393V19.1499L70.1744 20.4304H69.885V18.6714ZM70.3219 18.3246C70.2317 18.246 70.1858 18.1326 70.1842 17.9844H70.3982C70.4006 18.0664 70.4285 18.1318 70.4818 18.1814C70.5359 18.2311 70.6072 18.2559 70.6974 18.2559C70.7876 18.2559 70.8597 18.2311 70.9146 18.1814C70.9696 18.1318 70.9974 18.0655 70.9999 17.9844H71.2204C71.218 18.1326 71.1712 18.246 71.0794 18.3246C70.9876 18.4033 70.8613 18.4422 70.7015 18.4422C70.5416 18.4422 70.4129 18.4033 70.3236 18.3246H70.3219Z" fill="white"/>
<path d="M72.4503 20.3335C72.311 20.2557 72.2019 20.1489 72.1232 20.0132C72.0445 19.8774 72.0052 19.7226 72.0052 19.5505C72.0052 19.3783 72.0445 19.2235 72.1232 19.0877C72.2019 18.952 72.311 18.8452 72.4503 18.7691C72.5897 18.6929 72.7479 18.6548 72.925 18.6548C73.0824 18.6548 73.2234 18.6871 73.3472 18.7508C73.471 18.8154 73.5669 18.9081 73.6349 19.0298L73.3947 19.1854C73.3398 19.1018 73.2718 19.0381 73.1906 18.9959C73.1094 18.9536 73.0201 18.933 72.9209 18.933C72.8069 18.933 72.7045 18.9586 72.6135 19.0091C72.5225 19.0604 72.4511 19.1324 72.3995 19.2268C72.3479 19.3212 72.3224 19.4288 72.3224 19.5505C72.3224 19.6721 72.3479 19.7831 72.3995 19.8774C72.4511 19.9718 72.5225 20.0438 72.6135 20.0951C72.7045 20.1464 72.8069 20.1713 72.9209 20.1713C73.0193 20.1713 73.1094 20.1506 73.1906 20.1084C73.2718 20.0661 73.3398 20.0032 73.3947 19.9188L73.6349 20.0711C73.5669 20.1928 73.471 20.2863 73.3472 20.3517C73.2234 20.4171 73.0824 20.4494 72.925 20.4494C72.7479 20.4494 72.5889 20.4105 72.4503 20.3335Z" fill="white"/>
<path d="M74.7193 19.6871H74.3578V20.4304H74.0422V18.6714H74.3578V19.4148H74.7259L75.2916 18.6714H75.6301L74.9694 19.5174L75.676 20.4296H75.3047L74.7202 19.6863L74.7193 19.6871Z" fill="white"/>
<path d="M76.2279 20.3335C76.0902 20.2557 75.9819 20.1489 75.9041 20.0132C75.8262 19.8774 75.7877 19.7226 75.7877 19.5505C75.7877 19.3783 75.8262 19.2235 75.9041 19.0877C75.9819 18.952 76.0902 18.8452 76.2279 18.7691C76.3664 18.6929 76.5214 18.6548 76.6943 18.6548C76.8673 18.6548 77.0223 18.6929 77.1592 18.7691C77.2961 18.8452 77.4035 18.9512 77.4814 19.0877C77.5592 19.2235 77.5978 19.3783 77.5978 19.5505C77.5978 19.7226 77.5592 19.8774 77.4814 20.0132C77.4035 20.1489 77.2961 20.2557 77.1592 20.3335C77.0223 20.4105 76.8673 20.4494 76.6943 20.4494C76.5214 20.4494 76.3656 20.4105 76.2279 20.3335ZM76.9952 20.0926C77.0838 20.0405 77.1534 19.9676 77.2043 19.8733C77.2551 19.7789 77.2797 19.6713 77.2797 19.5496C77.2797 19.4279 77.2543 19.3203 77.2043 19.226C77.1534 19.1316 77.0846 19.0596 76.9952 19.0083C76.9067 18.957 76.8058 18.9321 76.6943 18.9321C76.5829 18.9321 76.482 18.9578 76.3935 19.0083C76.3049 19.0596 76.2344 19.1316 76.1828 19.226C76.1311 19.3203 76.1057 19.4279 76.1057 19.5496C76.1057 19.6713 76.1311 19.7789 76.1828 19.8733C76.2344 19.9676 76.3041 20.0405 76.3935 20.0926C76.482 20.1448 76.582 20.1704 76.6943 20.1704C76.8067 20.1704 76.9067 20.1448 76.9952 20.0926Z" fill="white"/>
<path d="M78.0552 18.6714H78.3708V19.952L79.439 18.6714H79.7252V20.4304H79.4095V19.1499L78.3446 20.4304H78.0552V18.6714ZM78.4922 18.3246C78.402 18.246 78.3561 18.1326 78.3536 17.9844H78.5676C78.5701 18.0664 78.5979 18.1318 78.6512 18.1814C78.7045 18.2311 78.7766 18.2559 78.866 18.2559C78.9554 18.2559 79.0283 18.2311 79.0833 18.1814C79.1382 18.1318 79.1669 18.0655 79.1685 17.9844H79.389C79.3866 18.1326 79.3398 18.246 79.2472 18.3246C79.1554 18.4033 79.0291 18.4422 78.8693 18.4422C78.7094 18.4422 78.5823 18.4033 78.4922 18.3246Z" fill="white"/>
<path d="M83.4912 19.9884C83.2788 20.1631 82.9788 20.2574 82.591 20.2707V20.5165H82.2853V20.2707C81.8975 20.2549 81.5966 20.1598 81.3835 19.9851C81.1695 19.8104 81.0629 19.5704 81.0629 19.265C81.0629 18.9595 81.1695 18.7162 81.3835 18.5415C81.5974 18.3668 81.8975 18.2717 82.2853 18.2559V18.02H82.591V18.2559C82.9763 18.2717 83.2764 18.3668 83.4895 18.5432C83.7035 18.7195 83.8101 18.9595 83.8101 19.265C83.8101 19.5704 83.7035 19.8138 83.4912 19.9884ZM81.6163 19.7947C81.7729 19.9222 81.9959 19.9942 82.2853 20.0116V18.5183C81.9918 18.5357 81.768 18.6077 81.613 18.7335C81.4589 18.8594 81.381 19.0365 81.381 19.2641C81.381 19.4918 81.4597 19.6672 81.6163 19.7947ZM83.2633 19.7947C83.4174 19.6672 83.4953 19.4901 83.4953 19.2616C83.4953 19.0332 83.4166 18.8627 83.26 18.736C83.1034 18.6085 82.8804 18.5365 82.591 18.5192V20.0124C82.8845 19.995 83.1083 19.9214 83.2633 19.7947Z" fill="white"/>
<path d="M85.8311 19.6564H84.4177C84.4374 19.8112 84.5046 19.9362 84.6202 20.0297C84.735 20.1241 84.8784 20.1704 85.049 20.1704C85.2572 20.1704 85.4243 20.1001 85.5514 19.9585L85.7253 20.1638C85.6466 20.2565 85.5482 20.3277 85.431 20.3765C85.3138 20.4254 85.1825 20.4494 85.0382 20.4494C84.8538 20.4494 84.6907 20.4113 84.5489 20.3352C84.4062 20.259 84.2964 20.1522 84.2185 20.0148C84.1406 19.8774 84.1021 19.7226 84.1021 19.5505C84.1021 19.3783 84.1397 19.226 84.2151 19.0894C84.2906 18.952 84.3947 18.8452 84.5275 18.7691C84.6603 18.6929 84.8096 18.6548 84.976 18.6548C85.1424 18.6548 85.2908 18.6929 85.4212 18.7691C85.5515 18.8452 85.6532 18.952 85.7269 19.0894C85.8007 19.2268 85.8368 19.3841 85.8368 19.5604C85.8368 19.5844 85.8352 19.6167 85.8311 19.6564ZM84.5973 19.0629C84.4956 19.1556 84.4357 19.2773 84.4184 19.4279H85.5359C85.5187 19.2798 85.4589 19.1589 85.3572 19.0646C85.2556 18.9702 85.1285 18.923 84.9776 18.923C84.8268 18.923 84.6989 18.9694 84.5973 19.0629Z" fill="white"/>
<path d="M88.0697 20.1514V20.8385H87.7738V20.4304H86.3178V20.8385H86.0186V20.1514H86.1104C86.2219 20.1448 86.299 20.0654 86.3408 19.9122C86.3826 19.7591 86.4113 19.5439 86.426 19.2649L86.4523 18.6714H87.8033V20.1514H88.0697ZM86.6613 19.8377C86.6343 19.9826 86.5843 20.0869 86.5121 20.1514H87.4885V18.9504H86.7327L86.7163 19.2889C86.7072 19.5099 86.6883 19.6929 86.6613 19.8377Z" fill="white"/>
<path d="M90.048 19.6564H88.6347C88.6543 19.8112 88.7216 19.9362 88.8372 20.0297C88.9519 20.1241 89.0954 20.1704 89.2659 20.1704C89.4741 20.1704 89.6414 20.1001 89.7684 19.9585L89.9422 20.1638C89.8635 20.2565 89.7652 20.3277 89.6479 20.3765C89.5307 20.4254 89.3995 20.4494 89.2553 20.4494C89.0708 20.4494 88.9077 20.4113 88.7658 20.3352C88.6232 20.259 88.5133 20.1522 88.4355 20.0148C88.3576 19.8774 88.319 19.7226 88.319 19.5505C88.319 19.3783 88.3568 19.226 88.4322 19.0894C88.5076 18.952 88.6117 18.8452 88.7445 18.7691C88.8773 18.6929 89.0265 18.6548 89.1929 18.6548C89.3594 18.6548 89.5077 18.6929 89.6381 18.7691C89.7684 18.8452 89.8701 18.952 89.9439 19.0894C90.0177 19.2268 90.0537 19.3841 90.0537 19.5604C90.0537 19.5844 90.0521 19.6167 90.048 19.6564ZM88.8142 19.0629C88.7125 19.1556 88.6527 19.2773 88.6355 19.4279H89.7529C89.7357 19.2798 89.6758 19.1589 89.5742 19.0646C89.4725 18.9702 89.3454 18.923 89.1946 18.923C89.0437 18.923 88.9159 18.9694 88.8142 19.0629Z" fill="white"/>
<path d="M91.921 18.7677C92.0546 18.843 92.1596 18.9481 92.235 19.0831C92.3104 19.218 92.3481 19.3744 92.3481 19.5507C92.3481 19.7271 92.3104 19.8843 92.235 20.0201C92.1596 20.1558 92.0546 20.2618 91.921 20.3371C91.7874 20.4124 91.6365 20.4497 91.4677 20.4497C91.3431 20.4497 91.2283 20.4257 91.1242 20.3768C91.0201 20.328 90.9315 20.2576 90.8594 20.1641V21.073H90.5438V18.6709H90.8463V18.9498C90.9168 18.8521 91.0053 18.7793 91.1127 18.7288C91.2201 18.6791 91.3381 18.6543 91.4677 18.6543C91.6365 18.6543 91.7874 18.6923 91.921 18.7677ZM91.7423 20.0938C91.8308 20.0416 91.9013 19.9688 91.953 19.8744C92.0046 19.78 92.03 19.6724 92.03 19.5507C92.03 19.4291 92.0046 19.3215 91.953 19.2271C91.9013 19.1327 91.8317 19.0607 91.7423 19.0094C91.6538 18.9581 91.5529 18.9332 91.4414 18.9332C91.3299 18.9332 91.2324 18.9589 91.1438 19.0111C91.0553 19.0632 90.9848 19.1352 90.9332 19.2288C90.8815 19.3215 90.8561 19.4291 90.8561 19.5507C90.8561 19.6724 90.8815 19.78 90.9315 19.8744C90.9815 19.9688 91.052 20.0416 91.1422 20.0938C91.2316 20.1459 91.3316 20.1716 91.4414 20.1716C91.5513 20.1716 91.6538 20.1459 91.7423 20.0938Z" fill="white"/>
<path d="M93.964 18.8336C94.0919 18.9528 94.1566 19.1308 94.1566 19.3675V20.4295H93.8574V20.1969C93.8049 20.2789 93.7295 20.341 93.632 20.3848C93.5344 20.4279 93.4188 20.4494 93.2852 20.4494C93.0901 20.4494 92.9343 20.4014 92.8171 20.307C92.6999 20.2118 92.6417 20.0868 92.6417 19.932C92.6417 19.7773 92.6974 19.6531 92.8089 19.5587C92.9204 19.4644 93.0983 19.418 93.3409 19.418H93.841V19.3551C93.841 19.2177 93.8017 19.1126 93.723 19.0397C93.6443 18.9669 93.5279 18.9305 93.3746 18.9305C93.2713 18.9305 93.1704 18.9479 93.072 18.9818C92.9737 19.0157 92.8901 19.0621 92.822 19.1192L92.6908 18.88C92.7802 18.8071 92.8884 18.7508 93.013 18.7128C93.1376 18.6739 93.2704 18.6548 93.4106 18.6548C93.6516 18.6548 93.8353 18.7144 93.964 18.8336ZM93.65 20.1233C93.7377 20.0686 93.8008 19.9925 93.841 19.8923V19.6465H93.3549C93.0876 19.6465 92.954 19.7375 92.954 19.9188C92.954 20.0074 92.9876 20.0769 93.0557 20.1282C93.1237 20.1795 93.218 20.2044 93.3385 20.2044C93.459 20.2044 93.5623 20.1771 93.65 20.1233Z" fill="white"/>
<path d="M96.585 20.1514V20.8517H96.2858V20.4304H94.7249V18.6714H95.0405V20.1514H95.994V18.6714H96.3096V20.1514H96.585Z" fill="white"/>
<path d="M96.9921 18.6714H97.3078V19.952L98.376 18.6714H98.6621V20.4304H98.3464V19.1499L97.2815 20.4304H96.9921V18.6714Z" fill="white"/>
<path d="M99.2729 18.6714H99.5885V19.952L100.657 18.6714H100.943V20.4304H100.627V19.1499L99.5623 20.4304H99.2729V18.6714Z" fill="white"/>
</g>
</svg>
