<svg width="158" height="92" viewBox="0 0 158 92" fill="none" xmlns="http://www.w3.org/2000/svg">
<g clip-path="url(#clip0_30_738)">
<path d="M138.669 91.8158H19.3312C14.2343 91.7695 9.3618 89.7047 5.77391 86.0707C2.18603 82.4366 0.173096 77.5274 0.173096 72.4112C0.173096 67.2949 2.18603 62.3857 5.77391 58.7517C9.3618 55.1176 14.2343 53.0528 19.3312 53.0066H138.669C143.766 53.0528 148.638 55.1176 152.226 58.7517C155.814 62.3857 157.827 67.2949 157.827 72.4112C157.827 77.5274 155.814 82.4366 152.226 86.0707C148.638 89.7047 143.766 91.7695 138.669 91.8158ZM19.3312 54.8431C14.6895 54.8431 10.2379 56.6939 6.95566 59.9884C3.67346 63.2829 1.82954 67.7513 1.82954 72.4104C1.82954 77.0695 3.67346 81.5378 6.95566 84.8323C10.2379 88.1268 14.6895 89.9777 19.3312 89.9777H138.669C143.31 89.9777 147.762 88.1268 151.044 84.8323C154.326 81.5378 156.17 77.0695 156.17 72.4104C156.17 67.7513 154.326 63.2829 151.044 59.9884C147.762 56.6939 143.31 54.8431 138.669 54.8431H19.3312Z" fill="#03FE33"/>
<path d="M150.808 39.0617H107.688V35.8645H147.621V8.198H150.808V39.0617Z" fill="white"/>
<path d="M155.442 14.0419L150.086 8.66561H148.343L142.988 14.0419L140.735 11.7804L147.024 5.4668H151.407L157.695 11.7804L155.442 14.0419Z" fill="white"/>
<path d="M96.5474 32.1517V32.794C99.3298 33.1112 100.265 34.0976 100.265 35.9294C100.265 38.0593 98.6693 39.1805 95.7953 39.1805H88.3598V26.4931H95.5899C98.1669 26.4931 99.581 27.6842 99.581 29.3779C99.581 30.9163 98.8968 31.7854 96.5474 32.1517ZM91.7363 29.0623V31.3746H94.6545C95.7732 31.3746 96.1366 30.8988 96.1366 30.2296C96.1366 29.5603 95.7732 29.0623 94.6545 29.0623H91.7363ZM91.7363 36.6161H95.0195C96.3878 36.6161 96.7986 36.1133 96.7986 35.2887C96.7986 34.464 96.3878 33.9152 95.0195 33.9152H91.7363V36.6161ZM53.4434 26.4979V43.7591H56.8641V26.4979H53.4434ZM60.171 36.4099C58.0965 36.4099 56.8641 34.8081 56.8641 32.8622C56.8641 30.9163 58.0965 29.3129 60.171 29.3129C62.2693 29.3129 63.478 30.9163 63.478 32.8622C63.478 34.8081 62.2693 36.4099 60.171 36.4099ZM61.7668 39.3867C64.2079 39.3867 66.8987 36.8222 66.8987 32.8622C66.8987 28.9021 64.2127 26.3377 61.7668 26.3377C59.4648 26.3377 58.1186 27.6651 57.6399 29.3367H56.4312L56.5449 36.6161H57.6399C58.0965 38.2639 59.4411 39.3867 61.7668 39.3867ZM22.8815 26.4979V43.7591H26.3037V26.4979H22.8815ZM29.6107 36.4099C27.5346 36.4099 26.3037 34.8081 26.3037 32.8622C26.3037 30.9163 27.5346 29.3129 29.6107 29.3129C31.6868 29.3129 32.9176 30.9163 32.9176 32.8622C32.9176 34.8081 31.7089 36.4099 29.6107 36.4099ZM31.2065 39.3867C33.6476 39.3867 36.3383 36.8222 36.3383 32.8622C36.3383 28.9021 33.6523 26.3377 31.2065 26.3377C28.9028 26.3377 27.5583 27.6651 27.0779 29.3367H25.8692L25.9846 36.6161H27.0779C27.5346 38.2639 28.8807 39.3867 31.2065 39.3867ZM44.6633 36.4099C42.5872 36.4099 41.3548 34.8081 41.3548 32.8622C41.3548 30.9163 42.5872 29.3129 44.6633 29.3129C46.7395 29.3129 47.9703 30.9163 47.9703 32.8622C47.9703 34.8081 46.7679 36.4099 44.6633 36.4099ZM44.6633 39.3867C48.6987 39.3867 51.391 36.8222 51.391 32.8622C51.391 28.9021 48.705 26.3377 44.6633 26.3377C40.6217 26.3377 37.9341 28.9021 37.9341 32.8622C37.9341 36.8222 40.6264 39.3867 44.6633 39.3867ZM31.4387 18.1353H24.9844V5.4479H28.3593V13.2205L28.2234 16.9966H28.8839L29.113 15.0507L31.7121 5.459H38.1443V18.1464H34.7694V10.3817L34.9053 6.60404H34.2448L34.0157 8.54997L31.4387 18.1353ZM110.382 15.3726C108.307 15.3726 107.075 13.7692 107.075 11.8233C107.075 9.87739 108.307 8.2756 110.382 8.2756C112.456 8.2756 113.69 9.87739 113.69 11.8233C113.69 13.7692 112.48 15.3726 110.382 15.3726ZM110.382 18.3478C114.419 18.3478 117.111 15.7834 117.111 11.8233C117.111 7.86326 114.425 5.29882 110.382 5.29882C106.339 5.29882 103.648 7.86326 103.648 11.8233C103.648 15.7834 106.347 18.3542 110.382 18.3542V18.3478ZM60.1379 5.459V22.7202H63.5586V5.459H60.1379ZM66.8671 15.3726C64.7925 15.3726 63.5601 13.7692 63.5601 11.8233C63.5601 9.87739 64.7925 8.2756 66.8671 8.2756C68.9653 8.2756 70.174 9.87739 70.174 11.8233C70.174 13.7692 68.9653 15.3726 66.8671 15.3726ZM68.4645 18.3542C70.904 18.3542 73.5947 15.7897 73.5947 11.8297C73.5947 7.86961 70.9087 5.30517 68.4645 5.30517C66.1608 5.30517 64.8147 6.63417 64.3359 8.30415H63.1272L63.241 15.5835H64.3359C64.7925 17.2266 66.1371 18.3542 68.4645 18.3542ZM81.9197 15.3726C79.8452 15.3726 78.6128 13.7692 78.6128 11.8233C78.6128 9.87739 79.8452 8.2756 81.9197 8.2756C83.9943 8.2756 85.2267 9.87739 85.2267 11.8233C85.2267 13.7692 84.018 15.3726 81.9197 15.3726ZM81.9197 18.3478C85.9566 18.3478 88.6474 15.7834 88.6474 11.8233C88.6474 7.86326 85.9614 5.29882 81.9197 5.29882C77.8781 5.29882 75.1921 7.86326 75.1921 11.8233C75.1921 15.7834 77.8828 18.3542 81.9197 18.3542V18.3478ZM68.9511 26.4979H72.3734V29.9092H75.2174C78.4785 29.9092 80.2576 31.7409 80.2576 34.5338C80.2576 37.3266 78.4785 39.1805 75.2174 39.1805H68.9511V26.4979ZM72.3734 32.794V36.2037H74.7213C76.3866 36.2037 76.8432 35.5694 76.8432 34.51C76.8432 33.4109 76.3866 32.794 74.7213 32.794H72.3734ZM82.2026 26.4979V39.1853H85.6233V26.4979H82.2026ZM20.1449 39.1853H16.7242V29.4794H11.319V39.1853H7.8999V26.4979H20.1449V39.1853ZM125.618 18.1416H119.163V5.45424H122.538V13.2205L122.402 16.9966H123.063L123.29 15.0507L125.891 5.459H132.323V18.1464H128.947V10.3817L129.086 6.60404H128.422L128.195 8.54997L125.618 18.1416ZM127.259 0.399902H129.928C129.718 2.68998 128.241 4.10938 125.452 4.10938C122.663 4.10938 121.186 2.68998 120.982 0.399902H123.649C123.741 1.22458 124.265 1.91129 125.452 1.91129C126.716 1.91129 127.168 1.22617 127.259 0.399902ZM98.8874 11.1144V11.7488C101.67 12.066 102.605 13.054 102.605 14.8842C102.605 17.014 101.009 18.1353 98.1353 18.1353H90.6998V5.4479H97.9299C100.507 5.4479 101.921 6.63893 101.921 8.3327C101.921 9.87739 101.237 10.7417 98.8874 11.1144ZM94.0763 8.02344V10.3357H96.9945C98.1132 10.3357 98.4781 9.85994 98.4781 9.19068C98.4781 8.52142 98.1132 8.02344 96.9945 8.02344H94.0763ZM94.0763 15.5772H97.3595C98.7278 15.5772 99.1386 15.0745 99.1386 14.2498C99.1386 13.4251 98.7278 12.8764 97.3595 12.8764H94.0763V15.5772ZM50.7669 18.1416V22.7202H47.4141V18.1416H46.9812C42.7152 18.1416 40.2994 15.463 40.2994 11.7979C40.2994 8.18045 42.6694 5.52561 46.8437 5.45424H47.4141V0.652064H50.7669V5.459H51.3373C55.4658 5.52878 57.8832 8.18362 57.8832 11.8027C57.8832 15.4646 55.5132 18.1464 51.1998 18.1464L50.7669 18.1416ZM46.9133 15.417H47.4141V8.20424H46.9591C44.7692 8.27243 43.7201 9.82823 43.7201 11.7979C43.7201 13.8152 44.7692 15.3488 46.9133 15.417ZM50.7669 15.417H51.1998C53.4118 15.3488 54.4388 13.8152 54.4388 11.8011C54.4388 9.8314 53.4134 8.2756 51.1998 8.20741H50.7669V15.417ZM20.3819 5.459H16.9517V15.1664H11.8673V5.459H8.445V18.1464H19.3707V21.6719H22.6539V15.1696H20.3819V5.459Z" fill="white"/>
<path d="M28.2819 65.678C30.9679 65.678 33.2574 67.1228 34.3302 69.6935L31.3061 70.745C30.7452 69.4477 29.6234 68.7134 28.2819 68.7134C26.4033 68.7134 24.9639 70.2312 24.9639 72.2389C24.9639 74.2705 26.4017 75.7882 28.2819 75.7882C29.6234 75.7882 30.7452 75.0302 31.3061 73.7265L34.3302 74.778C33.2621 77.3504 30.9679 78.7999 28.2819 78.7999C24.452 78.7999 21.5496 75.9595 21.5496 72.2389C21.5496 68.5184 24.4568 65.678 28.2819 65.678Z" fill="white"/>
<path d="M48.9688 73.4141H39.2613C39.7005 74.9081 40.9693 75.9595 42.6994 75.9595C44.0661 75.9595 45.2132 75.2998 45.8215 74.1976L48.5296 75.4219C47.4315 77.4043 45.3348 78.7999 42.603 78.7999C38.7731 78.7999 35.8706 75.9595 35.8706 72.2389C35.8706 68.5184 38.7241 65.678 42.4813 65.678C46.6999 65.678 49.6514 69.2035 48.9688 73.4141ZM39.3103 70.8925H45.6761C45.4801 70.1975 45.0603 69.5872 44.4824 69.1568C43.9045 68.7265 43.2008 68.5003 42.4813 68.5136C40.993 68.5184 39.7732 69.4731 39.3103 70.8925Z" fill="white"/>
<path d="M61.462 75.2999C61.462 77.4536 59.1458 78.8 56.0237 78.8C53.7311 78.8 51.5112 78.042 50.1461 76.6701L51.9504 74.4499C53.0959 75.5521 54.9019 75.9676 56.0237 75.9676C57.4141 75.9676 58.0477 75.43 58.0477 74.7924C58.0477 73.8409 57.0238 73.5935 55.5355 73.5935H53.6979V70.8974H55.5276C57.0159 70.8974 58.0398 70.6532 58.0398 69.6984C58.0398 69.0641 57.4078 68.5233 56.0158 68.5233C54.894 68.5233 53.088 68.9388 51.9425 70.0648L50.1382 67.8128C51.5033 66.4409 53.7232 65.6829 56.0158 65.6829C59.1379 65.6829 61.4541 67.0293 61.4541 69.2084C61.4541 70.604 60.3813 71.9044 57.9181 72.2438C60.3813 72.5816 61.462 73.8789 61.462 75.2999Z" fill="white"/>
<path d="M70.16 65.678C73.9899 65.678 76.8924 68.5184 76.8924 72.2389C76.8924 75.9595 73.9899 78.7999 70.16 78.7999C66.3301 78.7999 63.4292 75.9595 63.4292 72.2389C63.4292 68.5184 66.3317 65.678 70.16 65.678ZM70.16 75.7882C72.0639 75.7882 73.478 74.2705 73.478 72.2389C73.478 70.2312 72.0639 68.7134 70.16 68.7134C68.283 68.7134 66.842 70.2312 66.842 72.2389C66.8436 74.2705 68.283 75.7882 70.16 75.7882Z" fill="white"/>
<path d="M79.158 78.5558V65.9224H82.4491V70.7943H88.164V65.9224H91.4567V78.5558H88.164V73.6839H82.4507V78.5558H79.158Z" fill="white"/>
<path d="M96.0845 65.7019C96.6623 65.709 97.2141 65.9444 97.6201 66.357C98.0262 66.7697 98.2539 67.3263 98.2539 67.9064C98.2539 68.4872 98.024 69.0443 97.6148 69.455C97.2056 69.8658 96.6506 70.0965 96.0719 70.0965C95.4932 70.0965 94.9382 69.8658 94.529 69.455C94.1198 69.0443 93.8899 68.4872 93.8899 67.9064C93.8887 67.6166 93.9446 67.3296 94.0544 67.0616C94.1642 66.7937 94.3258 66.5503 94.5298 66.3453C94.7338 66.1404 94.9762 65.978 95.2431 65.8676C95.5099 65.7572 95.7959 65.7009 96.0845 65.7019ZM96.0845 74.3928C96.6623 74.3999 97.2141 74.6353 97.6201 75.0479C98.0262 75.4606 98.2539 76.0172 98.2539 76.5972C98.2539 77.1781 98.024 77.7352 97.6148 78.1459C97.2056 78.5566 96.6506 78.7874 96.0719 78.7874C95.4932 78.7874 94.9382 78.5566 94.529 78.1459C94.1198 77.7352 93.8899 77.1781 93.8899 76.5972C93.8887 76.3075 93.9446 76.0204 94.0544 75.7525C94.1642 75.4846 94.3258 75.2411 94.5298 75.0362C94.7338 74.8313 94.9762 74.6689 95.2431 74.5585C95.5099 74.4481 95.7959 74.3917 96.0845 74.3928Z" fill="white"/>
<path d="M114.619 65.9224H120.595V78.5558H117.497V66.6614L114.076 78.5558H108.107V65.9224H111.205V77.9183L114.619 65.9224Z" fill="white"/>
<path d="M129.86 65.9224H135.837V78.5558H132.739V66.6614L129.325 78.5558H123.349V65.9224H126.446V77.9183L129.86 65.9224Z" fill="white"/>
</g>
<defs>
<clipPath id="clip0_30_738">
<rect width="158" height="91.4143" fill="white" transform="translate(0 0.399902)"/>
</clipPath>
</defs>
</svg>
