<svg width="64" height="64" viewBox="0 0 64 64" fill="none" xmlns="http://www.w3.org/2000/svg">
<g clip-path="url(#clip0_3617_15153)">
<path d="M13.2251 44.6742C13.2101 44.5626 13.1802 44.4528 13.1371 44.3488C12.8354 43.626 11.9116 43.2079 10.9391 43.3555C10.3694 43.4425 9.86162 43.7036 9.51122 44.0915C9.18143 44.4547 9.03152 44.888 9.08774 45.308V45.3118C9.10273 45.4234 9.13271 45.5313 9.17581 45.6334C9.47749 46.3581 10.4032 46.7743 11.3719 46.6267C12.515 46.4527 13.3451 45.5767 13.2233 44.6723L13.2251 44.6742Z" fill="white"/>
<path d="M15.7731 46.3036C15.7581 46.192 15.7282 46.0822 15.6851 45.9782C15.4209 45.3462 14.6807 44.947 13.8487 44.9546C13.7906 45.9914 12.9137 46.9166 11.7051 47.1947C11.7126 47.2174 11.7144 47.2401 11.7238 47.2628C12.0236 47.9856 12.9512 48.4037 13.9218 48.2561C15.0648 48.0821 15.8949 47.2061 15.7731 46.3017V46.3036Z" fill="white"/>
<path d="M17.0786 43.8856C17.0636 43.774 17.0336 43.6643 16.9905 43.5602C16.6907 42.8375 15.7632 42.4193 14.7925 42.5669C14.2229 42.6539 13.717 42.915 13.3647 43.3029C13.3253 43.3483 13.2954 43.3956 13.2598 43.4429C13.4528 43.634 13.6083 43.8553 13.7114 44.1051C13.7413 44.177 13.7526 44.2564 13.7732 44.3321C14.7813 44.3037 15.707 44.7597 16.1417 45.5108C16.7732 45.1362 17.1648 44.5213 17.0786 43.8856Z" fill="white"/>
<path d="M43.2243 20.7386C42.2611 19.8853 40.8745 19.9042 40.0781 20.1521C40.599 19.505 41.8133 18.9753 42.1712 18.9109C42.4429 19.0131 43.2243 19.8248 43.2243 20.7367V20.7386Z" fill="white"/>
<path d="M46.3034 17.2045C45.6701 13.78 37.7869 16.0485 33.8182 14.5954C33.7414 15.5944 35.0399 17.1931 36.2823 17.7853C34.1592 19.6452 32.2535 23.3913 31.8694 27.9699C31.4853 23.3913 29.5815 19.6452 27.4584 17.7853C28.7008 17.1931 29.9993 15.5944 29.9225 14.5954C25.9538 16.0504 18.0706 13.7819 17.4354 17.2045C17.3023 17.9291 17.6471 19.034 18.02 19.3519C18.0875 19.123 18.436 18.3718 19.5341 18.2016C25.0862 17.3539 29.7239 25.9966 25.5378 29.4892C25.4741 29.5422 25.5097 29.6406 25.5959 29.6406H38.143C38.2292 29.6406 38.2648 29.5422 38.201 29.4892C34.0149 25.9947 38.6508 17.3539 44.2048 18.2016C45.3047 18.3699 45.6514 19.1211 45.7188 19.35C46.0917 19.0321 46.4365 17.9291 46.3034 17.2026V17.2045Z" fill="white"/>
<path d="M47.6511 9.34498C47.5518 9.02144 50.8066 9.01388 50.8066 11.0705C50.8066 12.4497 48.8597 13.1025 48.8597 14.5347C48.8597 15.2007 49.5699 15.6907 49.7873 15.6907C49.2851 13.3938 51.3594 14.5953 51.9197 15.0248C50.8066 11.9351 53.3119 11.954 53.0665 10.5369C52.8941 9.54742 50.7167 9.84636 49.9278 9.34498C48.5299 8.45574 46.8754 4.99717 45.7848 8.45574C47.8179 10.361 46.6355 13.1668 44.0534 13.1668C44.0534 13.1668 44.0384 13.5774 44.0628 13.6114C47.1414 13.4601 48.2133 11.1745 47.6511 9.34498Z" fill="white"/>
<path d="M11.74 15.0248C12.3003 14.5953 14.3746 13.392 13.8743 15.6907C14.0916 15.6907 14.8018 15.2026 14.8018 14.5347C14.8018 13.1044 12.8549 12.4497 12.8549 11.0705C12.8549 9.01198 16.1116 9.02144 16.0104 9.34498C15.4483 11.1745 16.522 13.4582 19.5988 13.6114C19.6213 13.5793 19.6063 13.1668 19.6063 13.1668C17.0261 13.1668 15.8437 10.361 17.8749 8.45574C16.7843 4.99717 15.1297 8.45574 13.7319 9.34498C12.943 9.84636 10.7656 9.54742 10.5932 10.5369C10.3478 11.954 12.8512 11.9351 11.7381 15.0248H11.74Z" fill="white"/>
<path d="M20.4805 20.7386C21.4455 19.8853 22.8321 19.9042 23.6266 20.1521C23.1076 19.505 21.8915 18.9753 21.5354 18.9109C21.2637 19.0131 20.4805 19.8248 20.4805 20.7367V20.7386Z" fill="white"/>
<path d="M33.3319 1.58229L31.831 -0.26619L30.3301 1.58229L31.831 3.52726L33.3338 1.58229H33.3319Z" fill="white"/>
<path d="M41.9038 7.17108L40.8357 5.85803L39.7695 7.17108L40.8357 8.45574L41.9038 7.17108Z" fill="white"/>
<path d="M23.894 7.17108L22.826 5.85803L21.7598 7.17108L22.826 8.45574L23.894 7.17108Z" fill="white"/>
<path d="M20.8348 13.6097H24.8166C28.1652 13.6097 29.6717 11.5342 30.127 9.7349H33.5337C33.989 11.5342 35.4937 13.6097 38.8441 13.6097H42.8259C42.8259 13.6097 43.523 12.6561 43.6972 12.1831C44.3269 10.4822 43.523 9.68949 42.35 9.68949L40.8341 11.0763L39.3181 9.68949C38.1451 9.68949 37.3413 10.4822 37.9709 12.1831C38.0514 12.4007 38.2426 12.7205 38.4243 13.0005C37.0115 12.8037 35.207 11.8274 34.8116 9.7349C34.8116 9.7349 35.8553 8.06048 36.1176 7.38315C37.0583 4.94626 35.8572 3.94917 34.0977 3.94917L31.8266 6.64338L29.5555 3.94917C27.7979 3.94917 26.5949 4.94626 27.5374 7.38315C27.7979 8.06048 28.8435 9.73679 28.8435 9.73679C28.4462 11.8293 26.6436 12.8056 25.2308 13.0024C25.4144 12.7224 25.6055 12.4026 25.6842 12.185C26.312 10.4841 25.51 9.69138 24.3369 9.69138L22.821 11.0782L21.3051 9.69138C20.1321 9.69138 19.3301 10.4841 19.9578 12.185C20.1321 12.658 20.831 13.6116 20.831 13.6116L20.8348 13.6097Z" fill="white"/>
<path d="M62.0105 26.0764C61.2422 26.4699 56.7319 28.6022 50.9549 27.8132C51.0149 27.5351 51.0655 27.2551 51.1067 26.9732C54.9518 26.5096 58.0773 25.8512 60.0692 24.7312C62.3403 23.456 63.3315 20.4098 62.1866 18.1432C62.1566 18.0865 62.0742 18.0751 62.033 18.1243C61.4052 18.8546 57.4571 23.1911 51.236 24.5401C51.221 24.2146 51.191 23.8911 51.1479 23.5676C54.1685 21.8383 57.1198 19.8441 58.5233 18.0202C60.6463 15.2636 60.4515 11.7483 58.4315 9.95656C58.4109 9.93764 58.3828 9.93007 58.3546 9.93385C58.3265 9.93764 58.3022 9.95277 58.2872 9.97737C57.6482 11.0426 51.6651 20.8072 45.0955 25.0225C45.0149 25.0736 44.9344 25.1247 44.8538 25.1739C44.6664 25.2893 44.6458 25.5372 44.8051 25.6828C45.5621 26.3753 46.0324 27.3402 46.0324 28.4111C46.0324 30.2728 44.6102 31.8205 42.7326 32.1572C41.777 32.3446 40.3997 32.2897 39.0749 31.8489C39.015 31.8299 38.9531 31.8697 38.9531 31.9302V37.8276C38.9531 37.9222 39.0955 37.9468 39.1293 37.8541C39.9331 35.701 42.3429 35.245 43.3959 35.245C43.7745 37.5457 44.4528 39.4509 45.3316 40.4764C46.7632 42.1432 49.1036 42.1205 50.1173 40.9664C50.1342 40.9475 50.1417 40.921 50.1361 40.8964C50.1323 40.8718 50.1155 40.8491 50.093 40.8377C49.4971 40.4915 46.0868 38.3781 45.4047 34.9139C45.6745 34.8193 45.9368 34.7133 46.1898 34.5885C47.2897 36.4275 48.8919 38.066 50.1829 38.6922C52.3491 39.7423 54.3334 39.2314 55.2123 37.6951C55.2441 37.6403 55.2048 37.574 55.1411 37.5684C53.8013 37.4605 49.6882 36.2705 47.9362 33.37C48.1367 33.1846 48.3335 32.9897 48.5152 32.7835C50.3478 34.1911 52.9393 35.438 54.7944 35.6915C56.9643 35.9904 59.4246 35.2904 59.4846 32.7419C59.4846 32.6908 59.4396 32.6492 59.3871 32.653C58.6151 32.7003 53.5071 32.9235 49.8663 30.8139C49.9918 30.5718 50.1098 30.3239 50.2204 30.0723C50.2204 30.0723 55.7219 31.3853 58.3265 30.9502C60.9162 30.5188 62.434 28.5681 62.1398 26.1445C62.1323 26.0839 62.0611 26.048 62.0067 26.0764H62.0105Z" fill="white"/>
<path d="M13.4395 30.072C13.5482 30.3236 13.6681 30.5696 13.7937 30.8136C10.1547 32.9232 5.04667 32.7 4.27279 32.6527C4.21845 32.6489 4.17348 32.6924 4.17348 32.7435C4.23344 35.292 6.69189 35.9901 8.86364 35.6931C10.7187 35.4396 13.3102 34.1927 15.1428 32.7851C15.3264 32.9913 15.5213 33.1843 15.7218 33.3716C13.9698 36.272 9.85677 37.4621 8.51699 37.57C8.4514 37.5756 8.41393 37.6437 8.44578 37.6967C9.32648 39.233 11.309 39.7439 13.477 38.6938C14.7662 38.0675 16.3683 36.4291 17.4682 34.5901C17.7212 34.7149 17.9835 34.8209 18.2515 34.9155C17.5694 38.3797 14.1591 40.4931 13.5632 40.8393C13.5407 40.8507 13.5257 40.8734 13.522 40.898C13.5182 40.9226 13.5238 40.9491 13.5407 40.968C14.5544 42.1202 16.8948 42.1429 18.3283 40.478C19.209 39.4525 19.8836 37.5472 20.264 35.2466C21.3189 35.2466 23.7268 35.7044 24.5306 37.8556C24.5662 37.9465 24.7087 37.9238 24.7087 37.8273V31.9299C24.7087 31.8694 24.6468 31.8296 24.5869 31.8486C23.2639 32.2913 21.8848 32.3443 20.931 32.1569C19.0516 31.8221 17.6294 30.2725 17.6294 28.4108C17.6294 27.3399 18.1016 26.375 18.8567 25.6806C19.0179 25.535 18.9973 25.2871 18.8099 25.1717C18.7274 25.1225 18.6469 25.0714 18.5644 25.0203C12.0004 20.8088 6.02106 11.0498 5.37647 9.97896C5.34649 9.92977 5.27528 9.91842 5.23031 9.95815C3.21221 11.7518 3.01733 15.2652 5.14037 18.0199C6.54573 19.8419 9.49512 21.8361 12.5157 23.5673C12.4726 23.8908 12.4445 24.2143 12.4276 24.5398C6.21219 23.1908 2.26593 18.8619 1.63258 18.1259C1.59135 18.0767 1.50516 18.0862 1.47705 18.1429C0.33402 20.4095 1.32527 23.4538 3.59447 24.729C5.58633 25.8471 8.71187 26.5056 12.5569 26.971C12.5982 27.2529 12.6488 27.5329 12.7087 27.811C6.93736 28.6 2.43082 26.4715 1.65506 26.0742C1.59697 26.0439 1.52764 26.0817 1.52015 26.1423C1.22783 28.5678 2.74375 30.5147 5.33337 30.9461C7.93798 31.3812 13.4395 30.0682 13.4395 30.0682V30.072Z" fill="white"/>
<path d="M34.4395 38.0147C35.1534 37.7479 36.2739 37.9636 36.2346 39.0042C36.2252 39.2407 36.5531 39.2407 36.5775 38.9986C36.7911 37.4395 35.7474 36.9911 34.6568 37.1728C34.5219 36.6373 34.4095 36.1681 34.2839 35.7046C34.1827 35.33 34.1453 34.6243 34.5762 34.6243C34.8086 34.6243 34.7149 35.2808 34.6943 35.5627C34.6756 35.8105 34.7636 35.96 34.9622 35.9676C35.0859 35.9732 35.2414 35.8124 35.3351 35.7065C35.961 34.9932 36.1053 33.8883 35.3726 33.3566C34.7599 32.9101 33.2271 33.2431 32.8055 33.8788C32.7418 33.6385 32.4382 33.2431 32.2921 33.0709C32.1496 32.9025 32.114 32.7871 32.3089 32.6395C32.4007 32.5677 32.6818 32.2876 32.6818 31.9982C32.6818 31.826 32.5506 31.51 32.1328 31.51C31.803 31.51 31.4357 31.7408 31.4357 32.2555C31.4357 32.369 31.4638 32.492 31.5369 32.6244C31.3289 32.5904 30.7611 32.6036 30.4707 32.6755L34.4919 43.8194C35.6424 43.2461 36.4875 42.3379 36.4875 41.3617C36.4875 40.5311 35.2752 40.8054 34.6868 41.4544C34.4975 40.4005 34.3289 39.428 34.1453 38.4593C34.0947 38.1926 34.2296 38.0961 34.4432 38.0147H34.4395Z" fill="white"/>
<path d="M29.1307 30.3104C29.0295 30.0493 28.6641 30.1742 28.754 30.4448L29.5991 32.8154C28.8758 32.9895 27.7122 33.5212 27.7122 34.2269C27.7122 35.1653 29.3574 35.7783 30.3093 35.7045C30.2625 35.9183 30.3168 36.1094 30.4648 36.2835C30.12 36.2835 29.468 36.4462 29.2543 36.6789C28.7503 36.204 27.9595 36.0318 27.5848 36.3213C27.2081 36.6127 27.1969 37.1046 27.5904 37.6627C27.864 38.0487 27.967 38.429 27.6597 38.8755C28.8065 38.8755 28.3849 37.3695 28.8327 37.3695C28.7746 37.6608 28.8102 37.9995 28.9414 38.3741C29.0276 38.6239 29.0276 38.7998 28.8796 39.0401C28.5104 39.638 27.9333 41.0097 28.012 42.2489C27.6354 42.2471 27.4442 42.1543 27.5773 41.6359C27.626 41.443 27.5079 41.3048 27.3524 41.5432C27.18 41.8062 27.0957 42.2527 27.0957 42.4457C27.0957 43.5506 28.398 43.772 28.8964 43.5393C30.3355 44.945 33.1613 44.5704 34.1075 44.0993L29.1307 30.3123V30.3104ZM28.5798 41.8024C28.4767 41.2348 29.26 40.2207 30.2531 39.2407C30.0413 39.8783 30.1725 40.9775 30.5885 41.3559C29.8671 41.3559 29.0089 41.4921 28.5798 41.8005V41.8024Z" fill="white"/>
<path d="M11.0535 50.7345C11.5201 50.8328 12.0148 50.8858 12.5263 50.8858C14.848 50.8858 16.8192 49.8055 17.4769 48.3222C17.3214 47.6524 17.2202 46.9637 17.1959 46.2561C17.1959 46.2504 17.194 46.2466 17.1921 46.241C17.1959 46.1426 17.1565 45.8153 17.1059 45.5201C16.8979 45.749 16.6487 45.9534 16.3602 46.1104C16.3676 46.1464 16.3826 46.1785 16.3883 46.2145C16.5569 47.4594 15.4907 48.6533 14.0123 48.8784C13.853 48.903 13.6937 48.9144 13.5382 48.9144C12.4682 48.9144 11.5051 48.3657 11.1472 47.5048C11.1172 47.4329 11.1041 47.3553 11.0835 47.2797C11.0535 47.2797 11.0216 47.2872 10.9917 47.2872C10.5569 47.2872 10.1447 47.1926 9.7793 47.028C9.90859 47.9267 10.1166 48.8008 10.4595 49.603C10.6281 49.9966 10.8286 50.3731 11.0554 50.7326L11.0535 50.7345Z" fill="white"/>
<path d="M19.0133 51.8772C18.5336 53.23 16.9596 54.2573 15.0352 54.4125C16.9277 55.5155 18.8634 56.068 19.9165 56.0131C19.8827 55.6877 20.3699 54.2857 20.7897 53.8657C20.1076 53.2943 19.5155 52.6226 19.0133 51.8772Z" fill="white"/>
<path d="M52.3693 45.4859C51.7453 45.1567 50.9751 45.4008 50.6472 46.0308C50.488 46.3373 50.1544 46.4811 49.834 46.4225L50.5742 44.9921C51.0239 44.9978 51.4623 44.7594 51.6835 44.3299C51.9983 43.7207 51.7659 42.9677 51.1625 42.6479C50.5592 42.3301 49.8134 42.5647 49.4986 43.1739C49.2756 43.6034 49.3318 44.1029 49.5923 44.4737L48.8521 45.9041C48.6216 45.6713 48.5467 45.3138 48.706 45.0073C49.032 44.3772 48.7903 43.5996 48.1663 43.2685L44.0964 41.1192L43.9783 41.3481C43.6954 41.8987 43.8396 42.5741 44.3231 42.9563C44.1676 43.4653 44.34 44.0177 44.7541 44.347C44.5723 44.9391 44.8365 45.5786 45.3799 45.8681L46.0976 46.2465C46.0751 46.2522 46.0508 46.2503 46.0301 46.256C45.7153 46.3487 45.4792 46.5379 45.3331 46.8217C45.022 47.4214 45.483 48.0439 46.1632 48.7345C45.9627 48.7458 45.7734 48.778 45.5917 48.8329L45.5879 48.8234C44.3831 48.9937 41.0964 48.2577 41.4149 47.7677C45.0164 42.6517 42.2619 39.6056 38.9508 39.7759V43.2118C38.9508 44.3148 37.9971 45.2097 36.8222 45.2097H34.5361C32.8965 45.2097 31.8285 46.8747 31.8285 46.8747C31.8285 46.8747 30.7604 45.2097 29.1208 45.2097H26.8347C25.6598 45.2097 24.7079 44.3148 24.7079 43.2118V39.7759C21.3969 39.6056 18.6386 42.6517 22.242 47.7677C22.5418 48.2255 19.5306 48.9445 17.8648 48.8518C16.9972 50.3919 14.9322 51.4798 12.5262 51.4798C12.1871 51.4798 11.8535 51.4571 11.5312 51.4155C12.2564 52.3577 13.1577 53.1599 14.1115 53.8221C14.2483 53.8315 14.3888 53.8372 14.5294 53.8372C16.6936 53.8372 18.4606 52.6434 18.5656 51.1487C18.5168 51.0616 18.4663 50.9746 18.4194 50.8838C19.8004 50.0589 22.0396 49.4913 23.9341 49.4913C24.2957 49.4913 24.4644 49.1829 24.3407 48.8802C23.4113 46.6211 25.4106 44.9846 27.4793 46.3165C28.3825 46.8974 29.2988 48.042 29.9884 49.951C26.593 50.7816 22.3319 53.0672 21.47 55.5627C21.1383 56.5257 22.2345 57.8407 23.5668 58.1037C23.5912 58.1093 23.6155 58.1037 23.6361 58.0904C23.6567 58.0772 23.6699 58.0564 23.6755 58.0318C24.3707 54.3064 28.3394 51.529 30.4044 51.0579C30.5074 51.3379 30.4737 51.2471 30.5786 51.5271C28.33 52.6017 26.1489 54.8665 25.5268 57.5588C25.242 58.7923 26.6024 59.903 27.7267 60.2076C27.7829 60.2227 27.8391 60.183 27.841 60.1281C28.0546 56.7225 29.5443 53.8315 30.8784 52.5166C30.9159 52.7739 30.9421 53.0312 30.9609 53.2904C30.9609 53.2904 29.5949 57.1331 29.5949 59.937C29.5949 61.2406 31.5155 62.1525 31.7985 62.2793C32.1526 62.1525 34.0714 61.2406 34.0714 59.937C34.0714 57.1331 32.7054 53.2904 32.7054 53.2904C32.7241 53.0312 32.7523 52.772 32.7879 52.5166C34.1201 53.8315 35.6117 56.7225 35.8234 60.1281C35.8272 60.183 35.8834 60.2246 35.9377 60.2095C37.0639 59.9048 38.4243 58.7942 38.1395 57.5607C37.5155 54.8684 35.3363 52.6036 33.0877 51.529C33.1907 51.249 33.157 51.3398 33.2601 51.0598C35.3269 51.5309 39.2938 54.3083 39.9889 58.0337C39.9946 58.0583 40.0077 58.0791 40.0283 58.0923C40.0489 58.1056 40.0733 58.1093 40.0976 58.1056C41.428 57.8407 42.528 56.5276 42.1926 55.5646C41.3325 53.0691 37.0695 50.7835 33.6742 49.9529C34.3656 48.0439 35.2819 46.8993 36.1851 46.3184C38.2538 44.9864 40.2532 46.623 39.3237 48.8821C39.2001 49.1848 39.3687 49.4932 39.7304 49.4932C41.2369 49.4932 42.9683 49.8508 44.31 50.4127C44.2875 51.0919 44.6491 51.8147 45.2881 52.3633L45.2993 52.3823C44.7353 52.4958 44.2163 52.7134 43.8715 53.1939C43.433 53.8032 43.3731 54.7189 43.6841 55.9808L43.0133 57.8577C42.9796 57.9712 43.0302 58.0942 43.1351 58.151C43.24 58.2058 43.3693 58.1793 43.4424 58.0847L44.5873 56.4557C45.7884 55.9922 46.5005 55.4227 46.7459 54.7113C46.9389 54.1532 46.8209 53.5969 46.5904 53.0653C47.7147 53.3869 48.8315 53.0728 49.2718 52.2233C49.581 51.6274 49.4798 50.9065 49.0863 50.2689C50.0233 50.4354 50.784 50.4581 51.0951 49.8621C51.2412 49.5802 51.2618 49.2775 51.1588 48.9615C51.1513 48.9407 51.1363 48.9199 51.1288 48.8991L51.8483 49.2794C52.3936 49.5651 53.0626 49.4194 53.443 48.9313C53.947 49.0883 54.4942 48.9142 54.8202 48.4961C55.4067 48.6796 56.0401 48.4129 56.3268 47.8642L56.4448 47.6352L52.3749 45.4859H52.3693ZM44.2125 54.9346C44.1975 54.4918 44.3549 53.9034 44.5217 53.6707C44.6416 53.5042 44.8665 53.3812 45.0726 53.2961L44.2125 54.9346ZM45.9833 54.4426C45.8896 54.7151 45.4867 55.1786 45.1157 55.4189L45.9983 53.7369C46.0451 53.9507 46.0508 54.2534 45.9833 54.4426ZM47.3643 48.778C47.3268 48.7421 47.2893 48.7042 47.2519 48.6683C46.8602 48.2899 45.9402 47.4044 46.0489 47.1982C46.092 47.1149 46.1538 47.0676 46.255 47.0374C46.6916 46.9087 47.4898 47.2058 48.0389 47.4763L47.3643 48.778ZM50.3774 49.4856C50.2706 49.6918 49.0245 49.4364 48.4942 49.3267C48.4455 49.3172 48.3949 49.3059 48.3462 49.2964L49.0189 47.9966C49.5492 48.2974 50.2444 48.7894 50.3886 49.2245C50.4224 49.3267 50.4186 49.4043 50.3755 49.4875L50.3774 49.4856Z" fill="white"/>
</g>
<defs>
<clipPath id="clip0_3617_15153">
<rect width="64" height="64" fill="white"/>
</clipPath>
</defs>
</svg>
