<?xml version="1.0" encoding="utf-8"?><svg xmlns="http://www.w3.org/2000/svg" xmlns:xlink="http://www.w3.org/1999/xlink"><symbol viewBox="0 0 24 25" id="access" xmlns="http://www.w3.org/2000/svg"><path d="M12 3.2c-4.963 0-9 4.037-9 9s4.037 9 9 9 9-4.037 9-9-4.037-9-9-9Zm0 1.5c4.151 0 7.5 3.349 7.5 7.5s-3.349 7.5-7.5 7.5a7.488 7.488 0 0 1-7.5-7.5c0-4.151 3.349-7.5 7.5-7.5Zm0 1.5a1.5 1.5 0 1 0 0 3 1.5 1.5 0 1 0 0-3ZM7.664 9.223l-.328 1.454 3.164.703v3.07l-.727 3.61 1.454.28.75-3.75.023-.07.023.07.75 3.75 1.454-.28-.727-3.61v-3.07l3.164-.704-.328-1.453-3.211.727h-2.25l-3.21-.727Z"/></symbol><symbol viewBox="0 0 16 17" id="ai" xmlns="http://www.w3.org/2000/svg"><g clip-path="url(#ba)"><path d="M4.093 4.455H5l-.45-1.198-.456 1.198Z"/><path d="M13 .4H3a3.003 3.003 0 0 0-3 3v10a3.003 3.003 0 0 0 3 3h7.99a2.978 2.978 0 0 0 2.12-.879l2.011-2.01A2.98 2.98 0 0 0 16 11.39V3.4a3.003 3.003 0 0 0-3-3ZM6.32 5.586a.417.417 0 0 1-.78.295l-.224-.592h-1.54l-.227.592a.417.417 0 0 1-.778-.296l1.316-3.458a.495.495 0 0 1 .921-.01L6.32 5.586Zm.751-3.36a.417.417 0 0 1 .834 0v3.507a.417.417 0 0 1-.834 0V2.226Zm4.262 8.174c-.736 0-1.333.597-1.333 1.333V14.4H3a1 1 0 0 1-1-1V7.733h12V10.4h-2.667Z"/></g><defs><clipPath id="ba"><path transform="translate(0 .4)" d="M0 0h16v16H0z"/></clipPath></defs></symbol><symbol viewBox="0 0 17 17" id="arrow-left" xmlns="http://www.w3.org/2000/svg"><path d="M17 8.4H1m0 0 4.007-4.007M1 8.4l4.007 4.007"/></symbol><symbol viewBox="0 0 22 24" id="basket" xmlns="http://www.w3.org/2000/svg"><g clip-path="url(#da)"><path d="M10.363 18.443a2.046 2.046 0 0 0-2.045 2.042 2.046 2.046 0 0 0 4.09 0 2.046 2.046 0 0 0-2.045-2.042Zm6.134 0a2.046 2.046 0 0 0-2.045 2.042 2.046 2.046 0 0 0 4.089 0 2.046 2.046 0 0 0-2.044-2.042Zm3.978-8.199L7.413 6.891a.614.614 0 0 0-.75.73L8.67 16.4h-.786L5.482 5.895a.613.613 0 0 0-.474-.464l-4.27-.882A.614.614 0 0 0 .489 5.75l3.885.802L6.797 17.15a.613.613 0 0 0 .598.477h12.07a.615.615 0 0 0 .607-.53l.858-6.175a.613.613 0 0 0-.455-.678Zm-8.14 3.91a.613.613 0 0 1-1.227 0v-2.696a.613.613 0 0 1 1.227 0v2.696Zm2.625 0a.613.613 0 0 1-1.227 0v-1.88a.613.613 0 0 1 1.227 0v1.88Zm2.625 0a.613.613 0 0 1-1.227 0v-1.226a.613.613 0 0 1 1.227 0v1.226Z"/></g><path fill-rule="evenodd" clip-rule="evenodd" d="M16.268 4.568a2.996 2.996 0 0 0-1.693-.523c-.627 0-1.21.193-1.693.523-.28-.843-.492-1.752-.492-2.383C12.39.98 13.37 0 14.575 0s2.185.98 2.185 2.185c0 .631-.212 1.54-.492 2.383Zm-4.722 2.274.024.006v-.011l-.024.005Zm4.972 1.217c-1.333-.33-2.766-.681-4.129-1.013a2.185 2.185 0 1 1 4.129 1.013Zm4.436 1.103c-.866-.217-2.155-.538-3.618-.9a2.995 2.995 0 0 0 .243-1.425c.87.18 1.762.45 2.308.765.596.344.969.928 1.067 1.56ZM9.869 6.439c-.36-.086-.706-.167-1.03-.243a2.19 2.19 0 0 1-.376-2.667 2.188 2.188 0 0 1 3.147-.7c.098.738.338 1.599.61 2.353a3.01 3.01 0 0 0-.449.774c-.628.113-1.305.278-1.902.483Zm10.124.075a3.43 3.43 0 0 1-.217.114c-.696-.295-1.587-.526-2.397-.672a3.01 3.01 0 0 0-.449-.774c.262-.727.494-1.553.599-2.273.095-.067.189-.128.278-.18a2.188 2.188 0 0 1 2.986.8 2.188 2.188 0 0 1-.8 2.985Z"/><defs><clipPath id="da"><path transform="translate(0 3.064)" d="M0 0h20.936v20.936H0z"/></clipPath></defs></symbol><symbol viewBox="0 0 344.96 344.96" id="check" xmlns="http://www.w3.org/2000/svg"><g data-name="Слой 2"><path class="fcls-1" d="m321.85 86.24-40-23.11-23.1-40H212.5L172.48 0l-40 23.11H86.24l-23.11 40-40 23.1v46.21L0 172.48l23.11 40v46.21l40 23.11 23.11 40h46.21l40 23.1 40-23.11h46.21l23.11-40 40-23.11V212.5l23.11-40-23.11-40V86.24ZM156.91 243.07a16.79 16.79 0 0 1-23.34 0l-50.45-50.44a16.19 16.19 0 0 1 0-22.89l13.35-13.35a16.19 16.19 0 0 1 22.89 0l25.87 25.87 80.34-80.35a16.19 16.19 0 0 1 22.89 0l13.35 13.35a16.19 16.19 0 0 1 0 22.89Z" data-name="Capa 1"/></g></symbol><symbol viewBox="0 0 25 19" id="check-2" xmlns="http://www.w3.org/2000/svg"><path d="M1 11.123 7.202 17.4 24 .4"/></symbol><symbol viewBox="0 0 6 9" id="chevron-left" xmlns="http://www.w3.org/2000/svg"><path d="m5 .4-4 4 4 4"/></symbol><symbol viewBox="0 0 24 25" id="chevron-left-2" xmlns="http://www.w3.org/2000/svg"><path d="M14.41 16.99 9.83 12.4l4.58-4.59L13 6.4l-6 6 6 6 1.41-1.41Z"/></symbol><symbol viewBox="0 0 6 9" id="chevron-right" xmlns="http://www.w3.org/2000/svg"><path d="m1 .4 4 4-4 4"/></symbol><symbol viewBox="0 0 24 25" id="chevron-right-2" xmlns="http://www.w3.org/2000/svg"><path d="m9.59 16.99 4.58-4.59-4.58-4.59L11 6.4l6 6-6 6-1.41-1.41Z"/></symbol><symbol viewBox="0 0 20 20" id="chevronTop" xmlns="http://www.w3.org/2000/svg"><path fill-rule="evenodd" clip-rule="evenodd" d="M5.293 12.707a1 1 0 0 1 0-1.414l4-4a1 1 0 0 1 1.414 0l4 4a1 1 0 0 1-1.414 1.414L10 9.414l-3.293 3.293a1 1 0 0 1-1.414 0Z"/></symbol><symbol viewBox="0 0 24 24" id="fb" xmlns="http://www.w3.org/2000/svg"><path d="M13.397 20.997v-8.196h2.765l.411-3.209h-3.176V7.548c0-.926.258-1.56 1.587-1.56h1.684v-2.86A22.108 22.108 0 0 0 14.201 3c-2.444 0-4.122 1.492-4.122 4.231v2.355H7.332v3.21h2.753v8.201h3.312Z"/></symbol><symbol viewBox="0 0 24 24" id="instagram" xmlns="http://www.w3.org/2000/svg"><path d="M11.999 7.377a4.624 4.624 0 1 0 0 9.248 4.624 4.624 0 0 0 0-9.248Zm0 7.627a3.004 3.004 0 1 1 0-6.008 3.004 3.004 0 0 1 0 6.008Zm4.807-6.719a1.078 1.078 0 1 0 0-2.156 1.078 1.078 0 0 0 0 2.156Z"/><path d="M20.533 6.11A4.605 4.605 0 0 0 17.9 3.48a6.607 6.607 0 0 0-2.186-.42c-.963-.042-1.268-.054-3.71-.054s-2.755 0-3.71.054a6.554 6.554 0 0 0-2.184.42 4.6 4.6 0 0 0-2.633 2.63 6.585 6.585 0 0 0-.419 2.186c-.043.962-.056 1.267-.056 3.71 0 2.442 0 2.753.056 3.71.015.748.156 1.486.419 2.187a4.61 4.61 0 0 0 2.634 2.632 6.583 6.583 0 0 0 2.185.45c.963.042 1.268.055 3.71.055s2.755 0 3.71-.055a6.616 6.616 0 0 0 2.186-.42 4.613 4.613 0 0 0 2.633-2.632c.263-.7.404-1.438.419-2.186.043-.962.056-1.267.056-3.71s0-2.753-.056-3.71a6.583 6.583 0 0 0-.421-2.217Zm-1.218 9.533a5.046 5.046 0 0 1-.311 1.688 2.987 2.987 0 0 1-1.712 1.71c-.535.2-1.1.305-1.67.312-.95.044-1.218.055-3.654.055-2.438 0-2.687 0-3.655-.055a4.961 4.961 0 0 1-1.67-.311 2.984 2.984 0 0 1-1.718-1.711 5.08 5.08 0 0 1-.311-1.67c-.043-.95-.053-1.217-.053-3.653 0-2.437 0-2.686.053-3.655a5.038 5.038 0 0 1 .311-1.687c.305-.79.93-1.41 1.719-1.712a5.01 5.01 0 0 1 1.669-.311c.95-.043 1.218-.055 3.655-.055s2.687 0 3.654.055a4.96 4.96 0 0 1 1.67.31 2.99 2.99 0 0 1 1.712 1.713 5.06 5.06 0 0 1 .311 1.669c.043.95.054 1.218.054 3.655 0 2.436 0 2.698-.043 3.654h-.011v-.001Z"/></symbol><symbol viewBox="0 0 13 16" id="play" xmlns="http://www.w3.org/2000/svg"><path d="M11.098 6.313 3.075 1.206C1.742.36 0 1.316 0 2.893v10.214c0 1.578 1.742 2.534 3.074 1.687l8.024-5.107a2 2 0 0 0 0-3.374Z"/></symbol><symbol viewBox="0 0 24 25" id="telegram" xmlns="http://www.w3.org/2000/svg"><path d="M19.553 3.397a2.23 2.23 0 0 0-.7.167h-.003c-.214.085-1.23.513-2.775 1.16l-5.537 2.332c-3.973 1.673-7.878 3.32-7.878 3.32l.047-.018s-.27.088-.55.281a1.521 1.521 0 0 0-.44.425 1.248 1.248 0 0 0-.208.832c.067.542.419.867.67 1.046.256.181.499.266.499.266h.006l3.662 1.234c.164.527 1.116 3.656 1.345 4.377.134.43.266.7.43.905.08.105.173.193.284.264a.838.838 0 0 0 .185.079l-.038-.009c.012.003.02.012.03.015.028.008.049.011.087.017.58.176 1.046-.184 1.046-.184l.026-.02 2.162-1.97 3.624 2.78.082.036c.756.33 1.521.146 1.925-.179.408-.328.566-.747.566-.747l.026-.067 2.8-14.347c.08-.354.1-.686.013-1.008a1.355 1.355 0 0 0-.586-.785 1.404 1.404 0 0 0-.8-.202Zm-.076 1.538c-.003.047.006.041-.015.132v.009l-2.774 14.197c-.012.02-.033.064-.088.108-.059.047-.106.076-.349-.02l-4.433-3.399-2.677 2.44.562-3.591 7.242-6.75c.3-.278.2-.337.2-.337.02-.34-.452-.1-.452-.1l-9.131 5.658-.003-.015-4.377-1.474v-.003l-.012-.002a.202.202 0 0 0 .023-.01l.024-.011.023-.009 7.881-3.32c1.99-.837 3.993-1.68 5.534-2.331 1.541-.648 2.681-1.122 2.745-1.149.062-.023.033-.023.077-.023Z"/></symbol><symbol viewBox="0 0 24 25" id="user" xmlns="http://www.w3.org/2000/svg"><path d="M12 3.95A5.26 5.26 0 0 0 6.75 9.2a5.27 5.27 0 0 0 2.32 4.36c-2.674 1.148-4.57 3.802-4.57 6.89H6a5.985 5.985 0 0 1 2.86-5.11A3.403 3.403 0 0 0 12 17.45a3.4 3.4 0 0 0 3.14-2.11A5.984 5.984 0 0 1 18 20.45h1.5c0-3.088-1.895-5.742-4.57-6.89a5.268 5.268 0 0 0 2.32-4.36A5.26 5.26 0 0 0 12 3.95Zm0 1.5c2.08 0 3.75 1.67 3.75 3.75s-1.67 3.75-3.75 3.75-3.75-1.67-3.75-3.75S9.92 5.45 12 5.45Zm0 9a5.99 5.99 0 0 1 1.758.258 1.864 1.864 0 0 1-3.516 0A5.986 5.986 0 0 1 12 14.45Z"/></symbol><symbol viewBox="0 0 24 25" id="user-solid" xmlns="http://www.w3.org/2000/svg"><path d="M12 4.15A5.26 5.26 0 0 0 6.75 9.4c0 1.807.923 3.413 2.32 4.36-2.674 1.148-4.57 3.802-4.57 6.89H6a5.985 5.985 0 0 1 2.86-5.11A3.403 3.403 0 0 0 12 17.65a3.4 3.4 0 0 0 3.14-2.11A5.984 5.984 0 0 1 18 20.65h1.5c0-3.088-1.895-5.742-4.57-6.89a5.268 5.268 0 0 0 2.32-4.36A5.26 5.26 0 0 0 12 4.15Zm0 1.5c2.08 0 3.75 1.67 3.75 3.75s-1.67 3.75-3.75 3.75-3.75-1.67-3.75-3.75S9.92 5.65 12 5.65Zm0 9a5.99 5.99 0 0 1 1.758.258 1.864 1.864 0 0 1-3.516 0A5.99 5.99 0 0 1 12 14.65Z"/></symbol><symbol viewBox="0 0 24 25" id="users" xmlns="http://www.w3.org/2000/svg"><path d="M8.625 4.9A2.636 2.636 0 0 0 6 7.525a2.636 2.636 0 0 0 2.625 2.625 2.636 2.636 0 0 0 2.625-2.625A2.636 2.636 0 0 0 8.625 4.9Zm6.75 0a2.636 2.636 0 0 0-2.625 2.625 2.636 2.636 0 0 0 2.625 2.625A2.636 2.636 0 0 0 18 7.525 2.636 2.636 0 0 0 15.375 4.9Zm-6.75 1.5c.63 0 1.125.495 1.125 1.125S9.255 8.65 8.625 8.65 7.5 8.155 7.5 7.525 7.995 6.4 8.625 6.4Zm6.75 0c.63 0 1.125.495 1.125 1.125s-.495 1.125-1.125 1.125-1.125-.495-1.125-1.125.495-1.125 1.125-1.125ZM5.25 9.4c-1.65 0-3 1.35-3 3 0 .835.357 1.588.914 2.133A3.777 3.777 0 0 0 1.5 17.65H3a2.24 2.24 0 0 1 2.25-2.25 2.24 2.24 0 0 1 2.25 2.25H9c0-1.29-.665-2.44-1.664-3.117A2.984 2.984 0 0 0 8.25 12.4c0-1.65-1.35-3-3-3ZM9 17.65a3.768 3.768 0 0 0-.75 2.25h1.5A2.24 2.24 0 0 1 12 17.65a2.24 2.24 0 0 1 2.25 2.25h1.5a3.768 3.768 0 0 0-1.664-3.117A2.984 2.984 0 0 0 15 14.65c0-1.65-1.35-3-3-3s-3 1.35-3 3c0 .835.357 1.588.914 2.133-.351.237-.66.527-.914.867Zm6 0h1.5a2.24 2.24 0 0 1 2.25-2.25A2.24 2.24 0 0 1 21 17.65h1.5c0-1.29-.665-2.44-1.664-3.117a2.984 2.984 0 0 0 .914-2.133c0-1.65-1.35-3-3-3s-3 1.35-3 3c0 .835.357 1.588.914 2.133A3.777 3.777 0 0 0 15 17.65ZM5.25 10.9c.838 0 1.5.662 1.5 1.5s-.662 1.5-1.5 1.5-1.5-.662-1.5-1.5.662-1.5 1.5-1.5Zm13.5 0c.838 0 1.5.662 1.5 1.5s-.662 1.5-1.5 1.5-1.5-.662-1.5-1.5.662-1.5 1.5-1.5ZM12 13.15c.838 0 1.5.662 1.5 1.5s-.662 1.5-1.5 1.5-1.5-.662-1.5-1.5.662-1.5 1.5-1.5Z"/></symbol><symbol viewBox="0 0 16 16" id="viber" xmlns="http://www.w3.org/2000/svg"><path d="M8 1.335c-1.071.013-3.374.19-4.662 1.37-.958.948-1.292 2.35-1.331 4.084-.033 1.728-.072 4.973 3.058 5.856v1.346s-.02.538.337.648c.438.14.688-.275 1.105-.72l.778-.879c2.142.178 3.782-.232 3.97-.293.435-.139 2.883-.451 3.283-3.696.41-3.351-.2-5.463-1.301-6.418h-.007c-.332-.306-1.668-1.279-4.652-1.29 0 0-.222-.014-.578-.008Zm.037.942a7.02 7.02 0 0 1 .488.011c2.527.007 3.732.767 4.017 1.023.927.794 1.405 2.697 1.055 5.495-.332 2.713-2.317 2.885-2.685 3.002-.156.05-1.6.406-3.42.289 0 0-1.356 1.634-1.78 2.055-.067.074-.146.095-.196.085-.071-.018-.093-.107-.089-.229l.013-2.233c-2.655-.733-2.498-3.5-2.47-4.946.033-1.446.304-2.628 1.113-3.43 1.088-.982 3.043-1.115 3.953-1.122Zm.2 1.446a.166.166 0 1 0 0 .332 3.136 3.136 0 0 1 2.242.883c.606.588.9 1.378.912 2.411 0 .092.074.167.167.167V7.51a.167.167 0 0 0 .168-.165 3.588 3.588 0 0 0-1.009-2.646c-.66-.645-1.496-.977-2.48-.977Zm-2.198.382a.523.523 0 0 0-.342.067H5.69a2.61 2.61 0 0 0-.637.523 1.003 1.003 0 0 0-.256.525.71.71 0 0 0 .026.302l.01.006c.172.504.396.988.67 1.444a8.48 8.48 0 0 0 1.29 1.762l.015.022.024.017.015.018.017.015c.532.505 1.127.94 1.769 1.295.734.4 1.18.588 1.447.667v.004c.078.024.15.034.221.034.228-.016.444-.109.613-.262a2.53 2.53 0 0 0 .517-.638v-.004c.128-.241.085-.469-.1-.623-.37-.323-.77-.61-1.195-.857-.285-.155-.574-.061-.69.095l-.25.315c-.129.156-.361.134-.361.134l-.007.004C7.093 8.527 6.63 6.772 6.63 6.772s-.022-.239.139-.36l.312-.252c.15-.122.254-.41.094-.695a7.498 7.498 0 0 0-.856-1.194.475.475 0 0 0-.28-.167Zm2.486.495c-.221 0-.221.334.003.334A2.098 2.098 0 0 1 10 5.572 1.94 1.94 0 0 1 10.5 7a.168.168 0 0 0 .167.165l.007.009a.169.169 0 0 0 .167-.167c.015-.662-.191-1.218-.595-1.663C9.84 4.9 9.273 4.65 8.549 4.6h-.024Zm.274.898c-.228-.006-.236.335-.01.341.55.029.816.306.851.877a.166.166 0 0 0 .165.163h.007a.168.168 0 0 0 .16-.178c-.039-.744-.445-1.164-1.166-1.202H8.8Z"/></symbol><symbol viewBox="0 0 24 25" id="vk" xmlns="http://www.w3.org/2000/svg"><path d="M6.812 4.15A3.073 3.073 0 0 0 3.75 7.21v10.377a3.073 3.073 0 0 0 3.062 3.062h10.377a3.073 3.073 0 0 0 3.061-3.062V7.211a3.073 3.073 0 0 0-3.061-3.061H6.812Zm0 1.5h10.377c.87 0 1.561.691 1.561 1.561v10.377c0 .87-.691 1.562-1.561 1.562H6.812c-.87 0-1.562-.691-1.562-1.562V7.211c0-.87.691-1.561 1.562-1.561Z"/><path d="M15.204 15.388c-.375-.947-1.333-1.679-2.575-1.787v1.787h-.195c-3.413 0-5.36-1.87-5.434-4.988h1.707c.06 2.29 1.317 3.261 2.32 3.453V10.4h1.617v1.978c.988-.084 2.02-.983 2.365-1.978h1.617c-.27 1.223-1.393 2.122-2.186 2.494.793.3 2.081 1.079 2.56 2.506h-1.796v-.012Z"/></symbol></svg>