<svg width="24" height="25" viewBox="0 0 24 25" fill="none" xmlns="http://www.w3.org/2000/svg">
<path fill-rule="evenodd" clip-rule="evenodd" d="M18.3496 6.48868L4.17663 11.9547C3.20963 12.3427 3.21463 12.8827 4.00063 13.1227L7.53463 14.2267L8.88763 18.3727C9.05163 18.8267 8.97063 19.0067 9.44763 19.0067C9.81563 19.0067 9.97763 18.8387 10.1836 18.6387C10.3136 18.5117 11.0866 17.7587 11.9506 16.9197L15.6276 19.6367C16.3036 20.0097 16.7926 19.8167 16.9606 19.0087L19.3746 7.63468C19.6216 6.64468 18.9966 6.19468 18.3496 6.48868ZM8.08963 13.9727L16.0566 8.94668C16.4546 8.70468 16.8196 8.83468 16.5196 9.10068L9.69763 15.2557L9.43263 18.0887L8.08963 13.9727Z" fill="#111111"/>
</svg>
