<svg width="24" height="25" viewBox="0 0 24 25" fill="none" xmlns="http://www.w3.org/2000/svg">
<path fill-rule="evenodd" clip-rule="evenodd" d="M12.2423 16.641C12.2423 16.641 12.5303 16.609 12.6783 16.447C12.8143 16.299 12.8103 16.02 12.8103 16.02C12.8103 16.02 12.7903 14.716 13.3863 14.524C13.9743 14.334 14.7273 15.784 15.5263 16.342C16.1313 16.764 16.5903 16.672 16.5903 16.672L18.7273 16.642C18.7273 16.642 19.8443 16.571 19.3143 15.678C19.2713 15.605 19.0063 15.017 17.7263 13.808C16.3863 12.544 16.5663 12.749 18.1793 10.562C19.1623 9.22998 19.5553 8.41698 19.4323 8.06898C19.3153 7.73698 18.5923 7.82498 18.5923 7.82498L16.1863 7.83998C16.1863 7.83998 16.0083 7.81498 15.8763 7.89598C15.7463 7.97498 15.6643 8.15798 15.6643 8.15798C15.6643 8.15798 15.2823 9.18798 14.7743 10.065C13.7043 11.915 13.2753 12.013 13.1003 11.897C12.6933 11.63 12.7953 10.822 12.7953 10.249C12.7953 8.45598 13.0623 7.70898 12.2743 7.51598C12.0123 7.45098 11.8203 7.40898 11.1513 7.40198C10.2933 7.39298 9.56625 7.40498 9.15525 7.60998C8.88125 7.74598 8.67025 8.04998 8.79925 8.06698C8.95825 8.08898 9.31825 8.16598 9.50925 8.42998C9.75525 8.77098 9.74625 9.53698 9.74625 9.53698C9.74625 9.53698 9.88825 11.647 9.41625 11.908C9.09125 12.088 8.64625 11.721 7.69125 10.043C7.20225 9.18398 6.83225 8.23298 6.83225 8.23298C6.83225 8.23298 6.76225 8.05698 6.63425 7.96098C6.48025 7.84598 6.26425 7.80998 6.26425 7.80998L3.97825 7.82498C3.97825 7.82498 3.63525 7.83498 3.50925 7.98598C3.39725 8.12098 3.50025 8.39998 3.50025 8.39998C3.50025 8.39998 5.29025 12.658 7.31725 14.803C9.17525 16.77 11.2853 16.641 11.2853 16.641H12.2423Z" fill="#111111"/>
</svg>
