<svg width="24" height="25" viewBox="0 0 24 25" fill="none" xmlns="http://www.w3.org/2000/svg">
<path fill-rule="evenodd" clip-rule="evenodd" d="M20 12.1939C20 16.4979 16.483 19.9879 12.145 19.9879C10.8181 19.9897 9.51233 19.6561 8.349 19.0179L4 20.3999L5.418 16.2179C4.67925 15.0058 4.28928 13.6134 4.291 12.1939C4.29 7.8889 7.807 4.3999 12.145 4.3999C16.483 4.3999 20 7.8899 20 12.1939Z" fill="#111111"/>
<path fill-rule="evenodd" clip-rule="evenodd" d="M16.1125 13.7529C16.0635 13.6729 15.9355 13.6249 15.7425 13.5299C15.5505 13.4349 14.6035 12.9719 14.4275 12.9089C14.2505 12.8449 14.1225 12.8129 13.9935 13.0039C13.8013 13.2624 13.5977 13.5124 13.3835 13.7529C13.2715 13.8809 13.1595 13.8959 12.9675 13.8009C12.7745 13.7049 12.1545 13.5039 11.4185 12.8529C10.9983 12.4673 10.6377 12.0214 10.3485 11.5299C10.2355 11.3389 10.3355 11.2349 10.4325 11.1399C10.5185 11.0539 10.6245 10.9169 10.7215 10.8059C10.8175 10.6939 10.8495 10.6149 10.9135 10.4869C10.9775 10.3589 10.9455 10.2479 10.8975 10.1519C10.8495 10.0569 10.4645 9.1169 10.3035 8.7339C10.1435 8.3519 9.98345 8.4159 9.87045 8.4159C9.75845 8.4159 9.63045 8.3999 9.50145 8.3999C9.40413 8.40244 9.30836 8.42496 9.22011 8.46608C9.13186 8.50719 9.05301 8.56602 8.98845 8.6389C8.81145 8.8289 8.31445 9.2919 8.31445 10.2319C8.31445 11.1719 9.00445 12.0799 9.10045 12.2079C9.19645 12.3349 10.4325 14.3269 12.3895 15.0919C14.3475 15.8559 14.3475 15.6019 14.6995 15.5689C15.0525 15.5379 15.8395 15.1079 15.9995 14.6609C16.1595 14.2149 16.1595 13.8319 16.1125 13.7529Z" fill="#F4F4F4"/>
</svg>
