<svg width="4832" height="684" viewBox="0 0 4832 684" fill="none" xmlns="http://www.w3.org/2000/svg">
<path d="M2389.5 127.336L2261.85 0H2173.07L2045.42 127.336L2084.6 166.997L2193.76 63.7967V630.462H1391V683H2248.64L2246.46 63.7967L2351.86 166.997L2389.5 127.336Z" fill="black"/>
<path d="M0 448.96H86.79C101.97 448.96 115.83 451.38 128.37 456.22C140.91 461.06 151.58 468.32 160.38 478C169.18 487.46 176 499.45 180.84 513.97C185.68 528.27 188.1 544.99 188.1 564.13C188.1 583.27 185.68 600.1 180.84 614.62C176 628.92 169.18 640.91 160.38 650.59C151.58 660.05 140.91 667.2 128.37 672.04C115.83 676.88 101.97 679.3 86.79 679.3H0V448.96ZM86.79 634.75C101.75 634.75 113.52 630.57 122.1 622.21C130.68 613.85 134.97 600.43 134.97 581.95V546.31C134.97 527.83 130.68 514.41 122.1 506.05C113.52 497.69 101.75 493.51 86.79 493.51H50.16V634.75H86.79Z" fill="black"/>
<path d="M221.188 679.3V639.37H250.888V488.89H221.188V448.96H330.748V488.89H301.048V639.37H330.748V679.3H221.188Z" fill="black"/>
<path d="M518.729 642.67H517.079C515.319 654.33 509.379 664.01 499.259 671.71C489.139 679.41 475.389 683.26 458.009 683.26C444.809 683.26 432.489 680.73 421.049 675.67C409.609 670.61 399.599 663.13 391.019 653.23C382.439 643.33 375.729 631.01 370.889 616.27C366.049 601.53 363.629 584.48 363.629 565.12C363.629 545.76 366.159 528.6 371.219 513.64C376.279 498.68 383.319 486.14 392.339 476.02C401.579 465.9 412.579 458.2 425.339 452.92C438.099 447.64 452.289 445 467.909 445C488.589 445 506.409 449.51 521.369 458.53C536.329 467.33 548.099 480.64 556.679 498.46L515.759 521.89C512.239 512.87 506.739 505.28 499.259 499.12C491.779 492.74 481.329 489.55 467.909 489.55C452.289 489.55 439.859 494.06 430.619 503.08C421.379 512.1 416.759 526.29 416.759 545.65V582.61C416.759 601.75 421.379 615.94 430.619 625.18C439.859 634.2 452.289 638.71 467.909 638.71C474.069 638.71 479.899 638.05 485.399 636.73C490.899 635.19 495.739 632.99 499.919 630.13C504.099 627.05 507.289 623.42 509.489 619.24C511.909 615.06 513.119 610.11 513.119 604.39V592.84H470.219V550.93H560.969V679.3H518.729V642.67Z" fill="black"/>
<path d="M600.817 679.3V639.37H630.517V488.89H600.817V448.96H710.377V488.89H680.677V639.37H710.377V679.3H600.817Z" fill="black"/>
<path d="M846.909 493.51V679.3H796.749V493.51H734.379V448.96H909.279V493.51H846.909Z" fill="black"/>
<path d="M1063.9 679.3L1047.4 624.52H970.512L954.012 679.3H903.192L979.092 448.96H1041.13L1116.04 679.3H1063.9ZM1009.45 494.5H1007.8L982.392 581.95H1035.19L1009.45 494.5Z" fill="black"/>
<path d="M1147.91 679.3V448.96H1198.07V634.75H1285.85V679.3H1147.91Z" fill="black"/>
<path d="M0.556641 234.3V3.96001H50.7166V189.75H138.497V234.3H0.556641Z" fill="black"/>
<path d="M175.547 234.3V3.96001H332.297V48.51H225.707V95.7H317.117V139.92H225.707V189.75H332.297V234.3H175.547Z" fill="black"/>
<path d="M517.896 234.3L501.396 179.52H424.506L408.006 234.3H357.186L433.086 3.96001H495.126L570.036 234.3H517.896ZM463.446 49.5H461.796L436.386 136.95H489.186L463.446 49.5Z" fill="black"/>
<path d="M601.904 3.96001H688.694C703.874 3.96001 717.734 6.38 730.274 11.22C742.814 16.06 753.484 23.32 762.284 33C771.084 42.46 777.904 54.45 782.744 68.97C787.584 83.27 790.004 99.99 790.004 119.13C790.004 138.27 787.584 155.1 782.744 169.62C777.904 183.92 771.084 195.91 762.284 205.59C753.484 215.05 742.814 222.2 730.274 227.04C717.734 231.88 703.874 234.3 688.694 234.3H601.904V3.96001ZM688.694 189.75C703.654 189.75 715.424 185.57 724.004 177.21C732.584 168.85 736.874 155.43 736.874 136.95V101.31C736.874 82.83 732.584 69.41 724.004 61.05C715.424 52.69 703.654 48.51 688.694 48.51H652.064V189.75H688.694Z" fill="black"/>
<path d="M832.002 234.3V3.96001H988.752V48.51H882.162V95.7H973.572V139.92H882.162V189.75H988.752V234.3H832.002Z" fill="black"/>
<path d="M1082.61 234.3H1032.45V3.96001H1141.68C1152.24 3.96001 1161.81 5.72 1170.39 9.24C1178.97 12.76 1186.23 17.82 1192.17 24.42C1198.33 30.8 1203.06 38.5 1206.36 47.52C1209.66 56.54 1211.31 66.55 1211.31 77.55C1211.31 93.17 1207.79 106.81 1200.75 118.47C1193.93 130.13 1183.48 138.6 1169.4 143.88L1214.61 234.3H1158.84L1118.58 149.82H1082.61V234.3ZM1135.41 107.58C1142.89 107.58 1148.72 105.71 1152.9 101.97C1157.3 98.01 1159.5 92.29 1159.5 84.81V70.29C1159.5 62.81 1157.3 57.2 1152.9 53.46C1148.72 49.5 1142.89 47.52 1135.41 47.52H1082.61V107.58H1135.41Z" fill="black"/>
<path d="M1329.39 238.26C1309.15 238.26 1291.99 234.85 1277.91 228.03C1263.83 220.99 1251.84 211.97 1241.94 200.97L1274.94 167.64C1290.56 185.24 1309.81 194.04 1332.69 194.04C1345.01 194.04 1354.14 191.51 1360.08 186.45C1366.02 181.39 1368.99 174.68 1368.99 166.32C1368.99 159.94 1367.23 154.66 1363.71 150.48C1360.19 146.08 1353.04 143.11 1342.26 141.57L1319.49 138.6C1295.07 135.52 1277.14 128.15 1265.7 116.49C1254.48 104.83 1248.87 89.32 1248.87 69.96C1248.87 59.62 1250.85 50.16 1254.81 41.58C1258.77 33 1264.38 25.63 1271.64 19.47C1279.12 13.31 1288.14 8.58001 1298.7 5.28001C1309.48 1.76 1321.69 0 1335.33 0C1352.71 0 1368 2.75 1381.2 8.24999C1394.4 13.75 1405.73 21.78 1415.19 32.34L1381.86 66C1376.36 59.62 1369.65 54.45 1361.73 50.49C1354.03 46.31 1344.24 44.22 1332.36 44.22C1321.14 44.22 1312.78 46.2 1307.28 50.16C1301.78 54.12 1299.03 59.62 1299.03 66.66C1299.03 74.58 1301.12 80.3 1305.3 83.82C1309.7 87.34 1316.74 89.87 1326.42 91.41L1349.19 95.04C1372.95 98.78 1390.55 106.15 1401.99 117.15C1413.43 127.93 1419.15 143.33 1419.15 163.35C1419.15 174.35 1417.17 184.47 1413.21 193.71C1409.25 202.95 1403.42 210.87 1395.72 217.47C1388.24 224.07 1378.89 229.24 1367.67 232.98C1356.45 236.5 1343.69 238.26 1329.39 238.26Z" fill="black"/>
<path d="M1631.13 238.26C1615.95 238.26 1602.09 235.73 1589.55 230.67C1577.01 225.61 1566.34 218.13 1557.54 208.23C1548.74 198.11 1541.92 185.68 1537.08 170.94C1532.24 155.98 1529.82 138.71 1529.82 119.13C1529.82 99.55 1532.24 82.39 1537.08 67.65C1541.92 52.69 1548.74 40.26 1557.54 30.36C1566.34 20.24 1577.01 12.65 1589.55 7.59C1602.09 2.53 1615.95 0 1631.13 0C1646.31 0 1660.17 2.53 1672.71 7.59C1685.25 12.65 1695.92 20.24 1704.72 30.36C1713.52 40.26 1720.34 52.69 1725.18 67.65C1730.02 82.39 1732.44 99.55 1732.44 119.13C1732.44 138.71 1730.02 155.98 1725.18 170.94C1720.34 185.68 1713.52 198.11 1704.72 208.23C1695.92 218.13 1685.25 225.61 1672.71 230.67C1660.17 235.73 1646.31 238.26 1631.13 238.26ZM1631.13 193.71C1646.31 193.71 1658.08 188.76 1666.44 178.86C1675.02 168.96 1679.31 154.77 1679.31 136.29V101.97C1679.31 83.49 1675.02 69.3 1666.44 59.4C1658.08 49.5 1646.31 44.55 1631.13 44.55C1615.95 44.55 1604.07 49.5 1595.49 59.4C1587.13 69.3 1582.95 83.49 1582.95 101.97V136.29C1582.95 154.77 1587.13 168.96 1595.49 178.86C1604.07 188.76 1615.95 193.71 1631.13 193.71Z" fill="black"/>
<path d="M1774.31 234.3V3.96001H1927.1V48.51H1824.47V95.7H1911.92V139.92H1824.47V234.3H1774.31Z" fill="black"/>
<path d="M2668.71 234.3L2652.21 179.52H2575.32L2558.82 234.3H2508L2583.9 3.96001H2645.94L2720.85 234.3H2668.71ZM2614.26 49.5H2612.61L2587.2 136.95H2640L2614.26 49.5Z" fill="#03FE33"/>
<path d="M2802.88 234.3H2752.72V3.96001H2861.95C2872.51 3.96001 2882.08 5.72 2890.66 9.24C2899.24 12.76 2906.5 17.82 2912.44 24.42C2918.6 30.8 2923.33 38.5 2926.63 47.52C2929.93 56.54 2931.58 66.55 2931.58 77.55C2931.58 93.17 2928.06 106.81 2921.02 118.47C2914.2 130.13 2903.75 138.6 2889.67 143.88L2934.88 234.3H2879.11L2838.85 149.82H2802.88V234.3ZM2855.68 107.58C2863.16 107.58 2868.99 105.71 2873.17 101.97C2877.57 98.01 2879.77 92.29 2879.77 84.81V70.29C2879.77 62.81 2877.57 57.2 2873.17 53.46C2868.99 49.5 2863.16 47.52 2855.68 47.52H2802.88V107.58H2855.68Z" fill="#03FE33"/>
<path d="M3063.05 48.51V234.3H3012.89V48.51H2950.52V3.96001H3125.42V48.51H3063.05Z" fill="#03FE33"/>
<path d="M3149.54 234.3V194.37H3179.24V43.89H3149.54V3.96001H3259.1V43.89H3229.4V194.37H3259.1V234.3H3149.54Z" fill="#03FE33"/>
<path d="M3300.89 234.3V3.96001H3453.68V48.51H3351.05V95.7H3438.5V139.92H3351.05V234.3H3300.89Z" fill="#03FE33"/>
<path d="M3485.02 234.3V194.37H3514.72V43.89H3485.02V3.96001H3594.58V43.89H3564.88V194.37H3594.58V234.3H3485.02Z" fill="#03FE33"/>
<path d="M3729.43 238.26C3713.81 238.26 3699.73 235.84 3687.19 231C3674.65 225.94 3663.98 218.57 3655.18 208.89C3646.38 198.99 3639.56 186.78 3634.72 172.26C3629.88 157.52 3627.46 140.36 3627.46 120.78C3627.46 101.42 3629.88 84.26 3634.72 69.3C3639.56 54.12 3646.38 41.47 3655.18 31.35C3663.98 21.01 3674.65 13.2 3687.19 7.92C3699.73 2.64 3713.81 0 3729.43 0C3750.77 0 3768.37 4.4 3782.23 13.2C3796.09 21.78 3807.2 35.42 3815.56 54.12L3772.33 76.56C3769.25 66.88 3764.41 59.18 3757.81 53.46C3751.43 47.52 3741.97 44.55 3729.43 44.55C3714.69 44.55 3702.81 49.39 3693.79 59.07C3684.99 68.53 3680.59 82.39 3680.59 100.65V137.61C3680.59 155.87 3684.99 169.84 3693.79 179.52C3702.81 188.98 3714.69 193.71 3729.43 193.71C3741.75 193.71 3751.54 190.41 3758.8 183.81C3766.28 176.99 3771.78 168.85 3775.3 159.39L3816.22 183.15C3807.64 200.75 3796.31 214.39 3782.23 224.07C3768.37 233.53 3750.77 238.26 3729.43 238.26Z" fill="#03FE33"/>
<path d="M3842.41 234.3V194.37H3872.11V43.89H3842.41V3.96001H3951.97V43.89H3922.27V194.37H3951.97V234.3H3842.41Z" fill="#03FE33"/>
<path d="M4135.66 234.3L4119.16 179.52H4042.27L4025.77 234.3H3974.95L4050.85 3.96001H4112.89L4187.8 234.3H4135.66ZM4081.21 49.5H4079.56L4054.15 136.95H4106.95L4081.21 49.5Z" fill="#03FE33"/>
<path d="M4219.67 234.3V3.96001H4269.83V189.75H4357.61V234.3H4219.67Z" fill="#03FE33"/>
<path d="M2508 679.3V639.37H2537.7V488.89H2508V448.96H2617.56V488.89H2587.86V639.37H2617.56V679.3H2508Z" fill="#03FE33"/>
<path d="M2729.64 570.4L2707.53 524.2H2706.54V679.3H2659.35V448.96H2714.13L2777.16 557.86L2799.27 604.06H2800.26V448.96H2847.45V679.3H2792.67L2729.64 570.4Z" fill="#03FE33"/>
<path d="M2994.18 493.51V679.3H2944.02V493.51H2881.65V448.96H3056.55V493.51H2994.18Z" fill="#03FE33"/>
<path d="M3090.87 679.3V448.96H3247.62V493.51H3141.03V540.7H3232.44V584.92H3141.03V634.75H3247.62V679.3H3090.87Z" fill="#03FE33"/>
<path d="M3291.31 679.3V448.96H3341.47V634.75H3429.25V679.3H3291.31Z" fill="#03FE33"/>
<path d="M3466.3 679.3V448.96H3516.46V634.75H3604.24V679.3H3466.3Z" fill="#03FE33"/>
<path d="M3632.38 679.3V639.37H3662.08V488.89H3632.38V448.96H3741.94V488.89H3712.24V639.37H3741.94V679.3H3632.38Z" fill="#03FE33"/>
<path d="M3929.93 642.67H3928.28C3926.52 654.33 3920.58 664.01 3910.46 671.71C3900.34 679.41 3886.59 683.26 3869.21 683.26C3856.01 683.26 3843.69 680.73 3832.25 675.67C3820.81 670.61 3810.8 663.13 3802.22 653.23C3793.64 643.33 3786.93 631.01 3782.09 616.27C3777.25 601.53 3774.83 584.48 3774.83 565.12C3774.83 545.76 3777.36 528.6 3782.42 513.64C3787.48 498.68 3794.52 486.14 3803.54 476.02C3812.78 465.9 3823.78 458.2 3836.54 452.92C3849.3 447.64 3863.49 445 3879.11 445C3899.79 445 3917.61 449.51 3932.57 458.53C3947.53 467.33 3959.3 480.64 3967.88 498.46L3926.96 521.89C3923.44 512.87 3917.94 505.28 3910.46 499.12C3902.98 492.74 3892.53 489.55 3879.11 489.55C3863.49 489.55 3851.06 494.06 3841.82 503.08C3832.58 512.1 3827.96 526.29 3827.96 545.65V582.61C3827.96 601.75 3832.58 615.94 3841.82 625.18C3851.06 634.2 3863.49 638.71 3879.11 638.71C3885.27 638.71 3891.1 638.05 3896.6 636.73C3902.1 635.19 3906.94 632.99 3911.12 630.13C3915.3 627.05 3918.49 623.42 3920.69 619.24C3923.11 615.06 3924.32 610.11 3924.32 604.39V592.84H3881.42V550.93H3972.17V679.3H3929.93V642.67Z" fill="#03FE33"/>
<path d="M4020.92 679.3V448.96H4177.67V493.51H4071.08V540.7H4162.49V584.92H4071.08V634.75H4177.67V679.3H4020.92Z" fill="#03FE33"/>
<path d="M4291.66 570.4L4269.55 524.2H4268.56V679.3H4221.37V448.96H4276.15L4339.18 557.86L4361.29 604.06H4362.28V448.96H4409.47V679.3H4354.69L4291.66 570.4Z" fill="#03FE33"/>
<path d="M4553.23 683.26C4537.61 683.26 4523.53 680.84 4510.99 676C4498.45 670.94 4487.78 663.57 4478.98 653.89C4470.18 643.99 4463.36 631.78 4458.52 617.26C4453.68 602.52 4451.26 585.36 4451.26 565.78C4451.26 546.42 4453.68 529.26 4458.52 514.3C4463.36 499.12 4470.18 486.47 4478.98 476.35C4487.78 466.01 4498.45 458.2 4510.99 452.92C4523.53 447.64 4537.61 445 4553.23 445C4574.57 445 4592.17 449.4 4606.03 458.2C4619.89 466.78 4631 480.42 4639.36 499.12L4596.13 521.56C4593.05 511.88 4588.21 504.18 4581.61 498.46C4575.23 492.52 4565.77 489.55 4553.23 489.55C4538.49 489.55 4526.61 494.39 4517.59 504.07C4508.79 513.53 4504.39 527.39 4504.39 545.65V582.61C4504.39 600.87 4508.79 614.84 4517.59 624.52C4526.61 633.98 4538.49 638.71 4553.23 638.71C4565.55 638.71 4575.34 635.41 4582.6 628.81C4590.08 621.99 4595.58 613.85 4599.1 604.39L4640.02 628.15C4631.44 645.75 4620.11 659.39 4606.03 669.07C4592.17 678.53 4574.57 683.26 4553.23 683.26Z" fill="#03FE33"/>
<path d="M4675.12 679.3V448.96H4831.87V493.51H4725.28V540.7H4816.69V584.92H4725.28V634.75H4831.87V679.3H4675.12Z" fill="#03FE33"/>
</svg>
