<svg width="2575" height="1446" viewBox="0 0 2575 1446" fill="none" xmlns="http://www.w3.org/2000/svg">
<path d="M2574.42 124.773L2459.85 10.1357H2380.17L2265.6 124.773L2300.76 160.479L2398.74 67.5703V577.725H1655.47V625.024H2447.99L2446.04 67.5703L2540.63 160.479L2574.42 124.773Z" fill="white"/>
<path d="M60.0851 260.145C39.8763 260.145 24.7197 256.949 14.6153 250.557C4.87177 243.937 0 234.806 0 223.164V6.75684H48.9883V229.67H97.9766V260.145H60.0851Z" fill="white"/>
<path d="M229.918 260.145C212.475 260.145 196.9 257.942 183.194 253.537C169.489 249.131 157.808 242.871 148.151 234.756C138.495 226.409 131.019 216.439 125.724 204.846C120.74 193.022 118.248 179.922 118.248 165.546C118.248 151.171 120.74 138.187 125.724 126.594C131.019 114.769 138.495 104.8 148.151 96.6845C157.808 88.3376 169.489 81.9615 183.194 77.5562C196.9 73.1509 212.475 70.9482 229.918 70.9482C247.674 70.9482 263.248 73.2668 276.642 77.904C290.348 82.5411 301.718 89.0332 310.751 97.3801C319.784 105.495 326.481 115.001 330.842 125.899C335.515 136.796 337.851 148.505 337.851 161.025V175.284H171.046V181.197C171.046 195.108 176.497 206.585 187.4 215.628C198.613 224.438 214.499 228.844 235.058 228.844C250.01 228.844 262.625 226.409 272.904 221.54C283.184 216.671 291.906 210.063 299.07 201.716L328.973 223.627C319.94 234.756 306.857 243.683 289.725 250.406C272.593 256.898 252.657 260.145 229.918 260.145ZM229.918 100.51C221.197 100.51 213.098 101.669 205.622 103.988C198.458 106.307 192.228 109.553 186.932 113.726C181.948 117.9 178.055 122.884 175.251 128.681C172.448 134.477 171.046 140.853 171.046 147.809V150.244H284.118V146.766C284.118 132.854 279.29 121.725 269.634 113.378C259.978 104.8 246.739 100.51 229.918 100.51Z" fill="white"/>
<path d="M544.119 1246.67C526.675 1246.67 511.1 1244.47 497.395 1240.06C483.689 1235.65 472.008 1229.39 462.352 1221.28C452.695 1212.93 445.219 1202.96 439.924 1191.37C434.94 1179.54 432.448 1166.45 432.448 1152.07C432.448 1137.69 434.94 1124.71 439.924 1113.12C445.219 1101.29 452.695 1091.32 462.352 1083.21C472.008 1074.86 483.689 1068.48 497.395 1064.08C511.1 1059.67 526.675 1057.47 544.119 1057.47C561.874 1057.47 577.448 1059.79 590.843 1064.43C604.548 1069.06 615.918 1075.56 624.951 1083.9C633.984 1092.02 640.682 1101.52 645.042 1112.42C649.715 1123.32 652.051 1135.03 652.051 1147.55V1161.81H485.246V1167.72C485.246 1181.63 490.697 1193.11 501.6 1202.15C512.814 1210.96 528.7 1215.37 549.258 1215.37C564.21 1215.37 576.825 1212.93 587.105 1208.06C597.384 1203.19 606.106 1196.59 613.27 1188.24L643.173 1210.15C634.14 1221.28 621.057 1230.21 603.925 1236.93C586.793 1243.42 566.858 1246.67 544.119 1246.67ZM544.119 1087.03C535.397 1087.03 527.298 1088.19 519.822 1090.51C512.658 1092.83 506.428 1096.08 501.133 1100.25C496.149 1104.42 492.255 1109.41 489.452 1115.2C486.648 1121 485.246 1127.38 485.246 1134.33V1136.77H598.318V1133.29C598.318 1119.38 593.49 1108.25 583.834 1099.9C574.178 1091.32 560.939 1087.03 544.119 1087.03Z" fill="white"/>
<path d="M553.195 255.971C540.08 255.971 530.015 253.189 523 247.624C515.984 241.828 511.714 234.524 510.189 225.714H499.584C495.009 237.075 494.939 245.653 482.739 251.45C470.539 257.246 455.746 260.144 438.361 260.144C413.656 260.144 394.593 255.275 381.173 245.537C368.058 235.799 361.5 222.699 361.5 206.237C361.5 188.153 369.375 173.198 386.455 164.155C403.84 155.113 409.362 151.357 479.748 151.357L494.593 156.087H506.072V136.68C506.072 125.551 502.107 116.972 494.177 110.944C486.247 104.915 473.894 101.901 457.119 101.901C443.089 101.901 431.651 104.22 422.806 108.857C413.961 113.494 406.488 119.407 400.388 126.594L370.65 106.075C378.58 95.873 389.713 87.5261 404.048 81.0341C418.383 74.3102 437.141 70.9482 460.321 70.9482C491.127 70.9482 514.764 76.3969 531.235 87.2942C547.705 98.1916 555.94 113.842 555.94 134.246V225.018H581.103V255.971H553.195ZM452.544 231.278C468.099 231.278 476.209 227.684 486.274 222.583C496.339 217.251 506.072 211.222 506.072 202.412V176.328H463.981C429.516 176.328 412.283 184.443 412.283 200.673V206.933C412.283 215.048 415.791 221.192 422.806 225.366C430.126 229.307 440.039 231.278 452.544 231.278Z" fill="white"/>
<path d="M870.774 1242.49C857.659 1242.49 847.594 1239.71 840.579 1234.15C833.564 1228.35 829.293 1221.05 827.768 1212.24H817.163C812.588 1223.6 812.518 1232.18 800.318 1237.97C788.118 1243.77 773.325 1246.67 755.94 1246.67C731.235 1246.67 712.172 1241.8 698.752 1232.06C685.637 1222.32 679.079 1209.22 679.079 1192.76C679.079 1174.68 686.954 1159.72 704.034 1150.68C721.419 1141.64 726.941 1137.88 797.327 1137.88L812.172 1142.61H823.651V1123.2C823.651 1112.07 819.686 1103.5 811.756 1097.47C803.826 1091.44 791.473 1088.42 774.698 1088.42C760.668 1088.42 749.23 1090.74 740.385 1095.38C731.54 1100.02 724.067 1105.93 717.967 1113.12L688.229 1092.6C696.159 1082.4 707.292 1074.05 721.627 1067.56C735.962 1060.83 754.72 1057.47 777.9 1057.47C808.706 1057.47 832.344 1062.92 848.814 1073.82C865.284 1084.72 873.519 1100.37 873.519 1120.77V1211.54H898.682V1242.49H870.774ZM770.123 1217.8C785.678 1217.8 793.788 1214.21 803.853 1209.11C813.919 1203.77 823.651 1197.75 823.651 1188.94V1162.85H781.56C747.095 1162.85 729.862 1170.97 729.862 1187.2V1193.46C729.862 1201.57 733.37 1207.72 740.385 1211.89C747.705 1215.83 757.618 1217.8 770.123 1217.8Z" fill="white"/>
<path d="M1016.05 620.775C1002.94 620.775 992.87 617.943 985.855 612.279C978.84 606.379 974.57 598.945 973.045 589.977H962.439C957.864 601.541 957.795 610.273 945.594 616.173C933.394 622.073 918.602 625.023 901.216 625.023C876.511 625.023 857.448 620.067 844.028 610.155C830.913 600.243 824.355 586.909 824.355 570.153C824.355 551.745 832.23 536.524 849.31 527.32C866.696 518.116 872.218 514.293 942.603 514.293L957.448 519.107H968.927V499.354C968.927 488.026 964.962 479.294 957.032 473.158C949.102 467.022 936.749 463.954 919.974 463.954C905.944 463.954 894.506 466.314 885.661 471.034C876.816 475.754 869.344 481.772 863.243 489.088L833.506 468.202C841.436 457.818 852.568 449.322 866.904 442.714C881.239 435.87 899.996 432.448 923.177 432.448C953.982 432.448 977.62 437.994 994.09 449.086C1010.56 460.178 1018.8 476.108 1018.8 496.876V589.269H1043.96V620.775H1016.05ZM915.399 595.641C930.954 595.641 939.065 591.983 949.13 586.791C959.195 581.363 968.927 575.227 968.927 566.259V539.71H926.837C892.371 539.71 875.139 547.97 875.139 564.489V570.861C875.139 579.121 878.646 585.375 885.661 589.623C892.981 593.635 902.894 595.641 915.399 595.641Z" fill="white"/>
<path d="M771.078 226.243H762.006C756.759 236.852 754.303 245.154 742.265 251.15C730.536 257.147 716.645 260.145 700.594 260.145C670.036 260.145 646.423 251.958 629.754 235.583C613.086 218.978 604.752 195.801 604.752 166.05C604.752 136.299 613.086 113.237 629.754 96.8625C646.423 80.2575 670.036 71.955 700.594 71.955C716.645 71.955 730.536 74.9531 742.265 80.9493C754.303 86.7149 756.759 95.0174 762.006 105.857H771.078V0H820.976V256.016H771.078V226.243ZM715.874 227.627C731.307 227.627 744.271 224.859 754.766 219.324C765.261 213.559 770.509 206.063 770.509 196.838V135.261C770.509 126.036 765.261 118.657 754.766 113.122C744.271 107.356 731.307 104.473 715.874 104.473C698.279 104.473 684.235 108.74 673.74 117.273C663.245 125.575 657.998 136.645 657.998 150.483V181.617C657.998 195.455 663.245 206.64 673.74 215.173C684.235 223.476 698.279 227.627 715.874 227.627Z" fill="white"/>
<path d="M956.296 260.145C938.853 260.145 923.278 257.942 909.572 253.537C895.867 249.131 884.186 242.871 874.529 234.756C864.873 226.409 857.397 216.439 852.102 204.846C847.118 193.022 844.626 179.922 844.626 165.546C844.626 151.171 847.118 138.187 852.102 126.594C857.397 114.769 864.873 104.8 874.529 96.6845C884.186 88.3376 895.867 81.9615 909.572 77.5562C923.278 73.1509 938.853 70.9482 956.296 70.9482C974.051 70.9482 989.626 73.2668 1003.02 77.904C1016.73 82.5411 1028.1 89.0332 1037.13 97.3801C1046.16 105.495 1052.86 115.001 1057.22 125.899C1061.89 136.796 1064.23 148.505 1064.23 161.025V175.284H897.424V181.197C897.424 195.108 902.875 206.585 913.778 215.628C924.991 224.438 940.877 228.844 961.436 228.844C976.388 228.844 989.003 226.409 999.282 221.54C1009.56 216.671 1018.28 210.063 1025.45 201.716L1055.35 223.627C1046.32 234.756 1033.24 243.683 1016.1 250.406C998.971 256.898 979.035 260.145 956.296 260.145ZM956.296 100.51C947.575 100.51 939.476 101.669 932 103.988C924.836 106.307 918.606 109.553 913.31 113.726C908.326 117.9 904.433 122.884 901.629 128.681C898.826 134.477 897.424 140.853 897.424 147.809V150.244H1010.5V146.766C1010.5 132.854 1005.67 121.725 996.012 113.378C986.355 104.8 973.117 100.51 956.296 100.51Z" fill="white"/>
<path d="M1087.88 260.145V81.084H1138.85V115.519H1147.37C1151.56 106.336 1154.65 98.3014 1167.97 91.4144C1181.29 84.5275 1199.75 81.084 1223.35 81.084H1239.91V117.24H1215.36C1190.62 117.24 1171.59 119.651 1158.26 124.472C1145.32 129.293 1138.85 136.409 1138.85 145.821V260.145H1087.88Z" fill="white"/>
<path d="M1372.97 260.145C1347.39 260.145 1325.96 257.13 1308.67 251.102C1291.39 245.074 1276.35 236.727 1263.56 226.061L1299.86 203.803C1309.88 211.918 1320.94 218.294 1333.04 222.931C1345.49 227.337 1359.83 229.539 1376.08 229.539C1392.67 229.539 1404.94 227.452 1412.9 223.279C1421.19 218.874 1425.34 212.845 1425.34 205.194C1425.34 199.398 1422.4 194.529 1416.52 190.587C1410.99 186.414 1401.14 183.747 1386.97 182.588L1362.08 180.501C1334.43 178.183 1312.65 172.85 1296.75 164.503C1281.19 155.924 1273.41 143.288 1273.41 126.594C1273.41 117.784 1275.83 110.016 1280.67 103.292C1285.51 96.3367 1292.25 90.5403 1300.89 85.9031C1309.88 81.0341 1320.43 77.3243 1332.52 74.7739C1344.97 72.2235 1358.62 70.9482 1373.49 70.9482C1397.69 70.9482 1417.39 73.4987 1432.6 78.5995C1448.15 83.7004 1461.98 90.7721 1474.08 99.8146L1439.34 122.073C1432.43 116.508 1423.27 111.755 1411.86 107.814C1400.8 103.64 1388.01 101.554 1373.49 101.554C1357.93 101.554 1346.35 103.64 1338.75 107.814C1331.49 111.987 1327.86 117.436 1327.86 124.16C1327.86 131.115 1331.14 136.332 1337.71 139.81C1344.28 143.288 1354.82 145.838 1369.34 147.461L1394.23 149.548C1423.96 152.562 1445.56 158.475 1459.04 167.285C1472.87 175.864 1479.78 187.457 1479.78 202.064C1479.78 210.875 1477.19 218.874 1472.01 226.061C1467.17 233.017 1460.08 239.045 1450.75 244.146C1441.41 249.247 1430.18 253.189 1417.04 255.971C1403.91 258.753 1389.22 260.145 1372.97 260.145Z" fill="white"/>
<path d="M298.605 1246.67C273.024 1246.67 251.592 1243.65 234.308 1237.63C217.024 1231.6 201.987 1223.25 189.196 1212.58L225.493 1190.33C235.518 1198.44 246.58 1204.82 258.678 1209.45C271.123 1213.86 285.469 1216.06 301.716 1216.06C318.309 1216.06 330.58 1213.98 338.531 1209.8C346.827 1205.4 350.976 1199.37 350.976 1191.72C350.976 1185.92 348.037 1181.05 342.161 1177.11C336.63 1172.94 326.778 1170.27 312.605 1169.11L287.716 1167.02C260.061 1164.71 238.283 1159.37 222.382 1151.03C206.826 1142.45 199.048 1129.81 199.048 1113.12C199.048 1104.31 201.468 1096.54 206.308 1089.82C211.147 1082.86 217.888 1077.06 226.53 1072.43C235.518 1067.56 246.061 1063.85 258.16 1061.3C270.604 1058.75 284.259 1057.47 299.123 1057.47C323.321 1057.47 343.025 1060.02 358.235 1065.12C373.791 1070.22 387.618 1077.3 399.717 1086.34L364.976 1108.6C358.062 1103.03 348.902 1098.28 337.494 1094.34C326.432 1090.16 313.642 1088.08 299.123 1088.08C283.568 1088.08 271.987 1090.16 264.382 1094.34C257.123 1098.51 253.493 1103.96 253.493 1110.68C253.493 1117.64 256.777 1122.86 263.345 1126.33C269.913 1129.81 280.456 1132.36 294.975 1133.98L319.864 1136.07C349.593 1139.09 371.198 1145 384.68 1153.81C398.507 1162.39 405.421 1173.98 405.421 1188.59C405.421 1197.4 402.828 1205.4 397.643 1212.58C392.803 1219.54 385.717 1225.57 376.383 1230.67C367.05 1235.77 355.815 1239.71 342.679 1242.49C329.543 1245.28 314.852 1246.67 298.605 1246.67Z" fill="white"/>
<path d="M1035.12 1246.67C1009.54 1246.67 988.106 1243.65 970.822 1237.63C953.537 1231.6 938.5 1223.25 925.71 1212.58L962.007 1190.33C972.031 1198.44 983.093 1204.82 995.192 1209.45C1007.64 1213.86 1021.98 1216.06 1038.23 1216.06C1054.82 1216.06 1067.09 1213.98 1075.04 1209.8C1083.34 1205.4 1087.49 1199.37 1087.49 1191.72C1087.49 1185.92 1084.55 1181.05 1078.67 1177.11C1073.14 1172.94 1063.29 1170.27 1049.12 1169.11L1024.23 1167.02C996.575 1164.71 974.797 1159.37 958.895 1151.03C943.34 1142.45 935.562 1129.81 935.562 1113.12C935.562 1104.31 937.982 1096.54 942.821 1089.82C947.661 1082.86 954.402 1077.06 963.044 1072.43C972.031 1067.56 982.575 1063.85 994.674 1061.3C1007.12 1058.75 1020.77 1057.47 1035.64 1057.47C1059.83 1057.47 1079.54 1060.02 1094.75 1065.12C1110.3 1070.22 1124.13 1077.3 1136.23 1086.34L1101.49 1108.6C1094.58 1103.03 1085.42 1098.28 1074.01 1094.34C1062.95 1090.16 1050.16 1088.08 1035.64 1088.08C1020.08 1088.08 1008.5 1090.16 1000.9 1094.34C993.637 1098.51 990.007 1103.96 990.007 1110.68C990.007 1117.64 993.291 1122.86 999.859 1126.33C1006.43 1129.81 1016.97 1132.36 1031.49 1133.98L1056.38 1136.07C1086.11 1139.09 1107.71 1145 1121.19 1153.81C1135.02 1162.39 1141.93 1173.98 1141.93 1188.59C1141.93 1197.4 1139.34 1205.4 1134.16 1212.58C1129.32 1219.54 1122.23 1225.57 1112.9 1230.67C1103.56 1235.77 1092.33 1239.71 1079.19 1242.49C1066.06 1245.28 1051.37 1246.67 1035.12 1246.67Z" fill="white"/>
<path d="M1719.66 260.145C1703.37 260.145 1688.45 257.942 1674.88 253.537C1661.61 249.131 1650.3 242.871 1640.95 234.756C1631.6 226.409 1624.36 216.439 1619.24 204.846C1614.11 193.022 1611.55 179.922 1611.55 165.546C1611.55 151.171 1614.11 138.187 1619.24 126.594C1624.36 114.769 1631.6 104.8 1640.95 96.6845C1650.3 88.3376 1661.61 81.9615 1674.88 77.5562C1688.45 73.1509 1703.37 70.9482 1719.66 70.9482C1735.94 70.9482 1750.72 73.1509 1763.99 77.5562C1777.56 81.9615 1789.02 88.3376 1798.37 96.6845C1807.72 104.8 1814.95 114.769 1820.08 126.594C1825.21 138.187 1827.77 151.171 1827.77 165.546C1827.77 179.922 1825.21 193.022 1820.08 204.846C1814.95 216.439 1807.72 226.409 1798.37 234.756C1789.02 242.871 1777.56 249.131 1763.99 253.537C1750.72 257.942 1735.94 260.145 1719.66 260.145ZM1719.66 228.844C1736.55 228.844 1750.12 224.902 1760.37 217.019C1770.62 208.904 1775.75 196.847 1775.75 180.849V150.244C1775.75 134.246 1770.62 122.305 1760.37 114.422C1750.12 106.307 1736.55 102.249 1719.66 102.249C1702.77 102.249 1689.2 106.307 1678.95 114.422C1668.69 122.305 1663.57 134.246 1663.57 150.244V180.849C1663.57 196.847 1668.69 208.904 1678.95 217.019C1689.2 224.902 1702.77 228.844 1719.66 228.844Z" fill="white"/>
<path d="M1277.08 1246.67C1260.79 1246.67 1245.86 1244.47 1232.29 1240.06C1219.02 1235.65 1207.71 1229.39 1198.37 1221.28C1189.02 1212.93 1181.78 1202.96 1176.65 1191.37C1171.53 1179.54 1168.96 1166.45 1168.96 1152.07C1168.96 1137.69 1171.53 1124.71 1176.65 1113.12C1181.78 1101.29 1189.02 1091.32 1198.37 1083.21C1207.71 1074.86 1219.02 1068.48 1232.29 1064.08C1245.86 1059.67 1260.79 1057.47 1277.08 1057.47C1293.36 1057.47 1308.14 1059.67 1321.41 1064.08C1334.98 1068.48 1346.44 1074.86 1355.78 1083.21C1365.13 1091.32 1372.37 1101.29 1377.5 1113.12C1382.62 1124.71 1385.19 1137.69 1385.19 1152.07C1385.19 1166.45 1382.62 1179.54 1377.5 1191.37C1372.37 1202.96 1365.13 1212.93 1355.78 1221.28C1346.44 1229.39 1334.98 1235.65 1321.41 1240.06C1308.14 1244.47 1293.36 1246.67 1277.08 1246.67ZM1277.08 1215.37C1293.96 1215.37 1307.53 1211.43 1317.79 1203.54C1328.04 1195.43 1333.17 1183.37 1333.17 1167.37V1136.77C1333.17 1120.77 1328.04 1108.83 1317.79 1100.95C1307.53 1092.83 1293.96 1088.77 1277.08 1088.77C1260.19 1088.77 1246.62 1092.83 1236.36 1100.95C1226.11 1108.83 1220.98 1120.77 1220.98 1136.77V1167.37C1220.98 1183.37 1226.11 1195.43 1236.36 1203.54C1246.62 1211.43 1260.19 1215.37 1277.08 1215.37Z" fill="white"/>
<path d="M1896.35 112.563H1851.42V82.0883H1896.35V52.6406C1896.35 38.2591 1902.61 27.0735 1915.12 19.0838C1927.64 10.8658 1946.41 6.75684 1971.43 6.75684H2020.35V37.2319H1947.15V82.0883H2020.35V112.563H1947.15V260.145H1896.35V112.563Z" fill="white"/>
<path d="M168.925 591.122H159.711C154.382 601.731 151.888 610.033 139.662 616.029C127.749 622.026 113.642 625.024 97.34 625.024C66.3041 625.024 42.3217 616.837 25.393 600.462C8.46435 583.857 0 560.679 0 530.929C0 501.178 8.46435 478.116 25.393 461.741C42.3217 445.136 66.3041 436.834 97.34 436.834C113.642 436.834 127.749 439.832 139.662 445.828C151.888 451.594 154.382 459.896 159.711 470.736H168.925V364.879H219.603V620.872L168.925 620.873V591.122ZM112.858 592.506C128.533 592.506 141.699 589.738 152.358 584.203C163.017 578.438 168.346 570.942 168.346 561.717V500.14C168.346 490.915 163.017 483.535 152.358 478C141.699 472.235 128.533 469.352 112.858 469.352C94.9888 469.352 80.7248 473.619 70.066 482.152C59.4072 490.454 54.0778 501.524 54.0778 515.362V546.496C54.0778 560.333 59.4072 571.519 70.066 580.052C80.7248 588.354 94.9888 592.506 112.858 592.506Z" fill="white"/>
<path d="M537.182 656.85C537.182 675.407 528.105 689.382 509.951 698.775C491.797 708.168 462.224 712.864 421.232 712.864C402.492 712.864 386.534 711.833 373.358 709.771C360.475 707.939 349.788 705.189 341.296 701.524C333.098 697.858 327.095 693.391 323.289 688.122C319.482 682.852 317.579 676.781 317.579 669.908C317.579 660.057 320.946 652.382 327.681 646.884C334.708 641.386 345.209 642.018 357.507 639.956V631.544C340.231 627.191 330.755 618.247 330.755 604.272C330.755 595.108 334.708 588.12 342.614 583.309C350.52 578.269 359.69 580.326 370.816 578.265V569.852C357.347 564.812 347.299 559.254 339.979 550.319C332.951 541.155 329.438 530.502 329.438 518.36C329.438 500.032 337.197 485.255 352.716 474.03C368.527 462.804 391.073 457.191 420.353 457.191C436.457 457.191 450.219 459.024 461.639 462.689V457.878C461.639 449.86 463.981 443.674 468.666 439.321C473.643 434.739 481.256 432.448 491.505 432.448H526.641V462.689H480.085V469.906C490.333 475.175 498.239 482.048 503.802 490.525C509.366 498.772 512.147 508.051 512.147 518.36C512.147 536.459 504.241 551.121 488.43 562.347C472.619 573.343 450.073 578.842 420.792 578.842C409.666 578.842 399.711 577.925 390.926 576.093C385.07 577.696 379.946 579.987 375.554 582.966C371.162 585.715 368.966 589.38 368.966 593.962C368.966 598.773 371.748 602.21 377.311 604.272C382.874 606.334 390.78 607.365 401.028 607.365H457.246C485.356 607.365 505.705 611.832 518.296 620.767C530.887 629.472 537.182 641.5 537.182 656.85ZM492.383 660.973C492.383 654.788 489.308 649.862 483.16 646.197C477.304 642.531 466.47 640.698 450.658 640.698H373.358C362.817 645.509 357.547 652.382 357.547 661.317C357.547 668.648 361.207 674.49 368.527 678.843C376.14 683.425 388.877 685.716 406.738 685.716H436.604C473.79 685.716 492.383 677.468 492.383 660.973ZM420.792 551.694C434.847 551.694 445.681 549.288 453.294 544.477C461.199 539.437 465.152 531.762 465.152 521.453V514.58C465.152 504.27 461.199 496.71 453.294 491.899C445.681 486.859 434.847 484.339 420.792 484.339C406.738 484.339 395.758 486.859 387.852 491.899C380.239 496.71 376.433 504.27 376.433 514.58V521.453C376.433 531.762 380.239 539.437 387.852 544.477C395.758 549.288 406.738 551.694 420.792 551.694Z" fill="white"/>
<path d="M742.514 625.023C721.045 625.023 704.849 621.767 693.927 615.255C683.004 608.519 677.543 599.087 677.543 586.962V479.85H631.78V449.872H656.639C666.808 449.872 673.776 448.525 677.543 445.83C681.686 443.135 683.757 438.756 683.757 432.694V402.042H733.135V449.872H800.706V479.85H733.135V595.045H796.186V625.023H742.514Z" fill="white"/>
<path d="M1127.69 625.023C1107.48 625.023 1092.33 621.785 1082.22 615.308C1072.48 608.599 1067.61 599.347 1067.61 587.549V368.257H1116.6V594.142H1165.58V625.023H1127.69Z" fill="white"/>
<path d="M1412.21 1236.53V1061.51H1468.01V1090.46L1475.51 1090.46C1481.31 1081.03 1485.07 1073.18 1496.68 1066.9C1508.62 1060.61 1524.83 1057.47 1545.31 1057.47C1572.61 1057.47 1593.77 1063.42 1608.78 1075.31C1624.14 1086.98 1631.82 1103.7 1631.82 1125.46V1236.53H1576.02V1130.17C1576.02 1102.8 1559.3 1089.11 1525.86 1089.11C1518.69 1089.11 1511.52 1089.78 1504.36 1091.13C1497.53 1092.25 1491.39 1094.05 1485.93 1096.51C1480.47 1098.98 1476.03 1102.12 1472.62 1105.94C1469.55 1109.75 1468.01 1114.24 1468.01 1119.4V1236.53H1412.21Z" fill="white"/>
<path d="M243.296 443.202H293.93L293.93 625.024H243.296V443.202Z" fill="white"/>
<path d="M293.93 383.461C293.93 393.723 282.585 402.042 268.591 402.042C254.597 402.042 243.252 393.723 243.252 383.461C243.252 373.198 254.597 364.879 268.591 364.879C282.585 364.879 293.93 373.198 293.93 383.461Z" fill="white"/>
<path d="M560.873 443.202H608.131L608.131 625.024H560.873V443.202Z" fill="white"/>
<path d="M608.131 383.461C608.131 393.723 597.543 402.042 584.482 402.042C571.42 402.042 560.832 393.723 560.832 383.461C560.832 373.198 571.42 364.879 584.482 364.879C597.543 364.879 608.131 373.198 608.131 383.461Z" fill="white"/>
<path d="M1683.51 1237.88C1675.18 1237.88 1668.98 1235.74 1664.93 1231.47C1660.87 1226.96 1658.85 1221.44 1658.85 1214.91V1209.84C1658.85 1203.31 1660.87 1197.91 1664.93 1193.63C1668.98 1189.12 1675.18 1186.87 1683.51 1186.87C1691.84 1186.87 1698.04 1189.12 1702.09 1193.63C1706.14 1197.91 1708.17 1203.31 1708.17 1209.84V1214.91C1708.17 1221.44 1706.14 1226.96 1702.09 1231.47C1698.04 1235.74 1691.84 1237.88 1683.51 1237.88ZM1683.51 1105.11C1675.18 1105.11 1668.98 1102.97 1664.93 1098.69C1660.87 1094.19 1658.85 1088.67 1658.85 1082.14V1077.07C1658.85 1070.54 1660.87 1065.13 1664.93 1060.85C1668.98 1056.35 1675.18 1054.09 1683.51 1054.09C1691.84 1054.09 1698.04 1056.35 1702.09 1060.85C1706.14 1065.13 1708.17 1070.54 1708.17 1077.07V1082.14C1708.17 1088.67 1706.14 1094.19 1702.09 1098.69C1698.04 1102.97 1691.84 1105.11 1683.51 1105.11Z" fill="white"/>
<path d="M2012.66 1246.67L1985.11 1164.34H1870.96L1844.28 1246.67H1793.99L1898.07 942.603H1960.18L2064.27 1246.67H2012.66ZM1939.26 987.472H1920.68L1882.77 1122.08H1972.86L1939.26 987.472Z" fill="white"/>
<path d="M2111.57 1246.67V1206.15H2152.74V979.747H2111.57V939.225H2243.33V979.747H2201.72V1206.15H2243.33V1246.67H2111.57Z" fill="white"/>
<path d="M2261.58 1446H312.844C229.614 1445.25 150.048 1411.82 91.4591 1352.97C32.8704 1294.13 0 1214.64 0 1131.8C0 1048.96 32.8704 969.465 91.4591 910.622C150.048 851.78 229.614 818.347 312.844 817.598H2261.58C2344.81 818.347 2424.37 851.78 2482.96 910.622C2541.55 969.465 2574.42 1048.96 2574.42 1131.8C2574.42 1214.64 2541.55 1294.13 2482.96 1352.97C2424.37 1411.82 2344.81 1445.25 2261.58 1446V1446ZM312.844 847.334C237.047 847.334 164.354 877.303 110.757 930.648C57.1596 983.993 27.0491 1056.34 27.0491 1131.79C27.0491 1207.23 57.1596 1279.58 110.757 1332.92C164.354 1386.27 237.047 1416.24 312.844 1416.24H2261.58C2337.37 1416.24 2410.07 1386.27 2463.66 1332.92C2517.26 1279.58 2547.37 1207.23 2547.37 1131.79C2547.37 1056.34 2517.26 983.993 2463.66 930.648C2410.07 877.303 2337.37 847.334 2261.58 847.334H312.844Z" fill="#03FE33"/>
</svg>
