<svg width="24" height="25" viewBox="0 0 24 25" fill="none" xmlns="http://www.w3.org/2000/svg">
<path d="M12 3.19995C7.03711 3.19995 3 7.23706 3 12.2C3 17.1628 7.03711 21.2 12 21.2C16.9629 21.2 21 17.1628 21 12.2C21 7.23706 16.9629 3.19995 12 3.19995ZM12 4.69995C16.1514 4.69995 19.5 8.04858 19.5 12.2C19.5 16.3513 16.1514 19.7 12 19.7C7.84863 19.7 4.5 16.3513 4.5 12.2C4.5 8.04858 7.84863 4.69995 12 4.69995ZM12 6.19995C11.1709 6.19995 10.5 6.87085 10.5 7.69995C10.5 8.52905 11.1709 9.19995 12 9.19995C12.8291 9.19995 13.5 8.52905 13.5 7.69995C13.5 6.87085 12.8291 6.19995 12 6.19995ZM7.66406 9.22339L7.33594 10.6765L10.5 11.3796V14.45L9.77344 18.0593L11.2266 18.3406L11.9766 14.5906L12 14.5203L12.0234 14.5906L12.7734 18.3406L14.2266 18.0593L13.5 14.45V11.3796L16.6641 10.6765L16.3359 9.22339L13.125 9.94995H10.875L7.66406 9.22339Z" fill="white"/>
</svg>
