<svg width="16" height="17" viewBox="0 0 16 17" fill="none" xmlns="http://www.w3.org/2000/svg">
<g clip-path="url(#clip0_105_709)">
<path d="M4.09277 4.45527H5.00146L4.54877 3.25659L4.09277 4.45527Z" fill="#03FE33"/>
<path d="M13 0.399902H3C1.34391 0.401746 0.00184375 1.74381 0 3.3999V13.3999C0.00184375 15.056 1.34391 16.3981 3 16.3999H10.9893C11.7855 16.4023 12.5494 16.0859 13.1107 15.5212L15.1213 13.5112C15.6857 12.9498 16.0021 12.186 16 11.3899V3.3999C15.9982 1.74381 14.6561 0.401746 13 0.399902ZM6.31934 5.5859C6.40072 5.80131 6.29206 6.04187 6.07669 6.12325C5.86128 6.20462 5.62072 6.09596 5.53934 5.88059L5.316 5.28859H3.77534L3.54934 5.88125C3.46181 6.09406 3.21831 6.19562 3.0055 6.10806C2.80078 6.02384 2.69763 5.79421 2.77069 5.58525L4.08734 2.12725C4.16166 1.93603 4.34553 1.80984 4.55069 1.80925C4.75175 1.80928 4.93281 1.93103 5.00869 2.11725L6.31934 5.5859ZM7.07134 2.2259C7.07134 1.99578 7.25791 1.80925 7.488 1.80925C7.71812 1.80925 7.90466 1.99581 7.90466 2.2259V5.73325C7.90466 5.96337 7.71809 6.1499 7.488 6.1499C7.25787 6.1499 7.07134 5.96334 7.07134 5.73325V2.2259ZM11.3333 10.3999C10.597 10.3999 10 10.9969 10 11.7332V14.3999H3C2.44772 14.3999 2 13.9522 2 13.3999V7.73325H14V10.3999H11.3333Z" fill="#03FE33"/>
</g>
<defs>
<clipPath id="clip0_105_709">
<rect width="16" height="16" fill="white" transform="translate(0 0.399902)"/>
</clipPath>
</defs>
</svg>
