<svg width="24" height="25" viewBox="0 0 24 25" fill="none" xmlns="http://www.w3.org/2000/svg">
<path d="M19.5528 3.39689C19.3009 3.40861 19.0635 3.48186 18.8526 3.56389H18.8497C18.6358 3.64885 17.6192 4.07658 16.0753 4.72404C14.5313 5.37443 12.5274 6.21818 10.5382 7.05607C6.5655 8.72893 2.66023 10.3754 2.66023 10.3754L2.7071 10.3578C2.7071 10.3578 2.43757 10.4457 2.15632 10.6391C2.01277 10.7328 1.85457 10.8617 1.71687 11.0639C1.57917 11.266 1.46785 11.5766 1.50886 11.8959C1.57625 12.4379 1.92781 12.7631 2.17976 12.9418C2.43464 13.1235 2.67781 13.2084 2.67781 13.2084H2.68367L6.34578 14.4418C6.50984 14.9692 7.46199 18.0981 7.6905 18.8188C7.82527 19.2494 7.9571 19.519 8.12117 19.724C8.20027 19.8295 8.29402 19.9174 8.40535 19.9877C8.44929 20.0141 8.49617 20.0346 8.54304 20.0522C8.55769 20.061 8.57234 20.0639 8.58992 20.0668L8.55183 20.058C8.56355 20.061 8.57234 20.0697 8.58113 20.0727C8.61042 20.0815 8.63093 20.0844 8.66902 20.0903C9.2491 20.266 9.71492 19.9057 9.71492 19.9057L9.74128 19.8852L11.9034 17.9164L15.5274 20.6967L15.6094 20.7319C16.3653 21.0629 17.13 20.8783 17.5343 20.5531C17.9415 20.225 18.0997 19.8061 18.0997 19.8061L18.126 19.7387L20.9268 5.39201C21.0059 5.03752 21.0264 4.70647 20.9385 4.3842C20.8507 4.06193 20.6251 3.76018 20.3526 3.59904C20.0772 3.43498 19.8048 3.38518 19.5528 3.39689ZM19.4766 4.93498C19.4737 4.98186 19.4825 4.976 19.462 5.06682V5.07561L16.6876 19.2729C16.6759 19.2934 16.6553 19.3373 16.5997 19.3813C16.5411 19.4281 16.4942 19.4574 16.251 19.3608L11.8184 15.9623L9.1407 18.4028L9.7032 14.811C9.7032 14.811 16.6466 8.33928 16.9454 8.06096C17.2442 7.78264 17.1446 7.72404 17.1446 7.72404C17.1651 7.3842 16.6934 7.62443 16.6934 7.62443L7.5616 13.2817L7.55867 13.267L3.18171 11.7934V11.7904C3.17878 11.7904 3.17292 11.7875 3.17 11.7875C3.17292 11.7875 3.19343 11.7787 3.19343 11.7787L3.21687 11.767L3.24031 11.7582C3.24031 11.7582 7.14851 10.1117 11.1212 8.43889C13.1104 7.601 15.1143 6.75725 16.6553 6.10686C18.1964 5.45939 19.336 4.98479 19.4005 4.95842C19.462 4.93498 19.4327 4.93498 19.4766 4.93498Z" fill="white"/>
</svg>
