<svg width="24" height="25" viewBox="0 0 24 25" fill="none" xmlns="http://www.w3.org/2000/svg">
<path d="M12 3.94995C9.1084 3.94995 6.75 6.30835 6.75 9.19995C6.75 11.0076 7.67285 12.613 9.07031 13.5593C6.39551 14.7078 4.5 17.3621 4.5 20.45H6C6 18.282 7.14551 16.3953 8.85938 15.3406C9.36328 16.5769 10.5908 17.45 12 17.45C13.4092 17.45 14.6367 16.5769 15.1406 15.3406C16.8545 16.3953 18 18.282 18 20.45H19.5C19.5 17.3621 17.6045 14.7078 14.9297 13.5593C16.3271 12.613 17.25 11.0076 17.25 9.19995C17.25 6.30835 14.8916 3.94995 12 3.94995ZM12 5.44995C14.0801 5.44995 15.75 7.11987 15.75 9.19995C15.75 11.28 14.0801 12.95 12 12.95C9.91992 12.95 8.25 11.28 8.25 9.19995C8.25 7.11987 9.91992 5.44995 12 5.44995ZM12 14.45C12.6152 14.45 13.2012 14.5378 13.7578 14.7078C13.4971 15.4314 12.8174 15.95 12 15.95C11.1826 15.95 10.5029 15.4314 10.2422 14.7078C10.7988 14.5378 11.3848 14.45 12 14.45Z" fill="white"/>
</svg>
