<svg width="24" height="25" viewBox="0 0 24 25" fill="none" xmlns="http://www.w3.org/2000/svg">
<path d="M8.625 4.8999C7.18359 4.8999 6 6.0835 6 7.5249C6 8.96631 7.18359 10.1499 8.625 10.1499C10.0664 10.1499 11.25 8.96631 11.25 7.5249C11.25 6.0835 10.0664 4.8999 8.625 4.8999ZM15.375 4.8999C13.9336 4.8999 12.75 6.0835 12.75 7.5249C12.75 8.96631 13.9336 10.1499 15.375 10.1499C16.8164 10.1499 18 8.96631 18 7.5249C18 6.0835 16.8164 4.8999 15.375 4.8999ZM8.625 6.3999C9.25488 6.3999 9.75 6.89502 9.75 7.5249C9.75 8.15479 9.25488 8.6499 8.625 8.6499C7.99512 8.6499 7.5 8.15479 7.5 7.5249C7.5 6.89502 7.99512 6.3999 8.625 6.3999ZM15.375 6.3999C16.0049 6.3999 16.5 6.89502 16.5 7.5249C16.5 8.15479 16.0049 8.6499 15.375 8.6499C14.7451 8.6499 14.25 8.15479 14.25 7.5249C14.25 6.89502 14.7451 6.3999 15.375 6.3999ZM5.25 9.3999C3.60059 9.3999 2.25 10.7505 2.25 12.3999C2.25 13.2349 2.60742 13.9878 3.16406 14.5327C2.16504 15.2095 1.5 16.3608 1.5 17.6499H3C3 16.3989 3.99902 15.3999 5.25 15.3999C6.50098 15.3999 7.5 16.3989 7.5 17.6499H9C9 16.3608 8.33496 15.2095 7.33594 14.5327C7.89258 13.9878 8.25 13.2349 8.25 12.3999C8.25 10.7505 6.89941 9.3999 5.25 9.3999ZM9 17.6499C8.53125 18.2769 8.25 19.0649 8.25 19.8999H9.75C9.75 18.6489 10.749 17.6499 12 17.6499C13.251 17.6499 14.25 18.6489 14.25 19.8999H15.75C15.75 19.0649 15.4688 18.2769 15 17.6499C14.7451 17.3101 14.4375 17.02 14.0859 16.7827C14.6426 16.2378 15 15.4849 15 14.6499C15 13.0005 13.6494 11.6499 12 11.6499C10.3506 11.6499 9 13.0005 9 14.6499C9 15.4849 9.35742 16.2378 9.91406 16.7827C9.5625 17.02 9.25488 17.3101 9 17.6499ZM15 17.6499H16.5C16.5 16.3989 17.499 15.3999 18.75 15.3999C20.001 15.3999 21 16.3989 21 17.6499H22.5C22.5 16.3608 21.835 15.2095 20.8359 14.5327C21.3926 13.9878 21.75 13.2349 21.75 12.3999C21.75 10.7505 20.3994 9.3999 18.75 9.3999C17.1006 9.3999 15.75 10.7505 15.75 12.3999C15.75 13.2349 16.1074 13.9878 16.6641 14.5327C15.665 15.2095 15 16.3608 15 17.6499ZM5.25 10.8999C6.08789 10.8999 6.75 11.562 6.75 12.3999C6.75 13.2378 6.08789 13.8999 5.25 13.8999C4.41211 13.8999 3.75 13.2378 3.75 12.3999C3.75 11.562 4.41211 10.8999 5.25 10.8999ZM18.75 10.8999C19.5879 10.8999 20.25 11.562 20.25 12.3999C20.25 13.2378 19.5879 13.8999 18.75 13.8999C17.9121 13.8999 17.25 13.2378 17.25 12.3999C17.25 11.562 17.9121 10.8999 18.75 10.8999ZM12 13.1499C12.8379 13.1499 13.5 13.812 13.5 14.6499C13.5 15.4878 12.8379 16.1499 12 16.1499C11.1621 16.1499 10.5 15.4878 10.5 14.6499C10.5 13.812 11.1621 13.1499 12 13.1499Z" fill="#111111"/>
</svg>
