<svg width="24" height="25" viewBox="0 0 24 25" fill="none" xmlns="http://www.w3.org/2000/svg">
<path d="M12 4.1499C9.1084 4.1499 6.75 6.5083 6.75 9.3999C6.75 11.2075 7.67285 12.813 9.07031 13.7593C6.39551 14.9077 4.5 17.562 4.5 20.6499H6C6 18.4819 7.14551 16.5952 8.85938 15.5405C9.36328 16.7769 10.5908 17.6499 12 17.6499C13.4092 17.6499 14.6367 16.7769 15.1406 15.5405C16.8545 16.5952 18 18.4819 18 20.6499H19.5C19.5 17.562 17.6045 14.9077 14.9297 13.7593C16.3271 12.813 17.25 11.2075 17.25 9.3999C17.25 6.5083 14.8916 4.1499 12 4.1499ZM12 5.6499C14.0801 5.6499 15.75 7.31982 15.75 9.3999C15.75 11.48 14.0801 13.1499 12 13.1499C9.91992 13.1499 8.25 11.48 8.25 9.3999C8.25 7.31982 9.91992 5.6499 12 5.6499ZM12 14.6499C12.6152 14.6499 13.2012 14.7378 13.7578 14.9077C13.4971 15.6313 12.8174 16.1499 12 16.1499C11.1826 16.1499 10.5029 15.6313 10.2422 14.9077C10.7988 14.7378 11.3848 14.6499 12 14.6499Z" fill="#111111"/>
</svg>
