<svg width="24" height="25" viewBox="0 0 24 25" fill="none" xmlns="http://www.w3.org/2000/svg">
<path d="M6.81152 4.1499C5.12988 4.1499 3.75 5.52979 3.75 7.21143V17.5884C3.75 19.27 5.12988 20.6499 6.81152 20.6499H17.1885C18.8701 20.6499 20.25 19.27 20.25 17.5884V7.21143C20.25 5.52979 18.8701 4.1499 17.1885 4.1499H6.81152ZM6.81152 5.6499H17.1885C18.0586 5.6499 18.75 6.34131 18.75 7.21143V17.5884C18.75 18.4585 18.0586 19.1499 17.1885 19.1499H6.81152C5.94141 19.1499 5.25 18.4585 5.25 17.5884V7.21143C5.25 6.34131 5.94141 5.6499 6.81152 5.6499Z" fill="white"/>
<path d="M15.2036 15.3879C14.8293 14.4407 13.8713 13.7093 12.6287 13.6013V15.3879H12.4341C9.02096 15.3879 7.07485 13.5174 7 10.3999H8.70659C8.76647 12.6901 10.024 13.6613 11.0269 13.8531V10.3999H12.6437V12.3783C13.6317 12.2944 14.6647 11.3951 15.009 10.3999H16.6257C16.3563 11.6229 15.2335 12.5222 14.4401 12.8939C15.2335 13.1937 16.521 13.973 17 15.3999H15.2036V15.3879Z" fill="white"/>
</svg>
