<svg width="287" height="274" viewBox="0 0 287 274" fill="none" xmlns="http://www.w3.org/2000/svg">
<path opacity="0.3" d="M119.415 71.1368L147.172 87.1625L162.931 59.8667L135.174 43.841L119.415 71.1368ZM71.6539 154.097L55.7337 181.672L110.584 213.34L126.504 185.765L154.517 201.938L170.437 174.364L87.5486 126.508L71.6284 154.082L71.6539 154.097ZM63.6887 39.0985L79.6674 11.4226L107.45 27.463L123.283 0.0403991L206.81 48.2648L159.108 130.887L242.277 178.905L258.08 151.533L286.169 167.751L270.191 195.427L242.382 179.371L226.594 206.718L210.615 234.394L182.602 218.221L150.747 273.395L11.8846 193.223L27.8048 165.648L0.021954 149.608L31.9356 94.3319L47.9143 66.6559L75.5952 82.6375L91.4861 55.1136L63.7033 39.0732L63.6887 39.0985Z" fill="black"/>
</svg>
