<svg width="298" height="46" viewBox="0 0 298 46" fill="none" xmlns="http://www.w3.org/2000/svg">
<path d="M122.12 39.6617H79V36.4644H118.933V8.79797H122.12V39.6617Z" fill="white"/>
<path d="M126.754 14.642L121.398 9.2657H119.655L114.3 14.642L112.047 12.3805L118.336 6.06689H122.718L129.007 12.3805L126.754 14.642Z" fill="white"/>
<path d="M4.30902 17.9999V6.13393H6.89302V15.7049H11.415V17.9999H4.30902Z" fill="white"/>
<path d="M13.3237 17.9999V6.13393H21.3987V8.42893H15.9077V10.8599H20.6167V13.1379H15.9077V15.7049H21.3987V17.9999H13.3237Z" fill="white"/>
<path d="M30.9598 17.9999L30.1098 15.1779H26.1488L25.2988 17.9999H22.6808L26.5908 6.13393H29.7868L33.6458 17.9999H30.9598ZM28.1548 8.47993H28.0698L26.7608 12.9849H29.4808L28.1548 8.47993Z" fill="white"/>
<path d="M35.2875 6.13393H39.7585C40.5405 6.13393 41.2545 6.2586 41.9005 6.50793C42.5465 6.75726 43.0962 7.13126 43.5495 7.62993C44.0029 8.11726 44.3542 8.73493 44.6035 9.48293C44.8529 10.2196 44.9775 11.0809 44.9775 12.0669C44.9775 13.0529 44.8529 13.9199 44.6035 14.6679C44.3542 15.4046 44.0029 16.0223 43.5495 16.5209C43.0962 17.0083 42.5465 17.3766 41.9005 17.6259C41.2545 17.8753 40.5405 17.9999 39.7585 17.9999H35.2875V6.13393ZM39.7585 15.7049C40.5292 15.7049 41.1355 15.4896 41.5775 15.0589C42.0195 14.6283 42.2405 13.9369 42.2405 12.9849V11.1489C42.2405 10.1969 42.0195 9.5056 41.5775 9.07493C41.1355 8.64427 40.5292 8.42893 39.7585 8.42893H37.8715V15.7049H39.7585Z" fill="white"/>
<path d="M47.1411 17.9999V6.13393H55.2161V8.42893H49.7251V10.8599H54.4341V13.1379H49.7251V15.7049H55.2161V17.9999H47.1411Z" fill="white"/>
<path d="M60.0512 17.9999H57.4672V6.13393H63.0942C63.6382 6.13393 64.1312 6.2246 64.5732 6.40593C65.0152 6.58727 65.3892 6.84793 65.6952 7.18793C66.0126 7.5166 66.2562 7.91326 66.4262 8.37793C66.5962 8.8426 66.6812 9.35826 66.6812 9.92493C66.6812 10.7296 66.4999 11.4323 66.1372 12.0329C65.7859 12.6336 65.2476 13.0699 64.5222 13.3419L66.8512 17.9999H63.9782L61.9042 13.6479H60.0512V17.9999ZM62.7712 11.4719C63.1566 11.4719 63.4569 11.3756 63.6722 11.1829C63.8989 10.9789 64.0122 10.6843 64.0122 10.2989V9.55093C64.0122 9.1656 63.8989 8.8766 63.6722 8.68393C63.4569 8.47993 63.1566 8.37793 62.7712 8.37793H60.0512V11.4719H62.7712Z" fill="white"/>
<path d="M72.7643 18.2039C71.7216 18.2039 70.8376 18.0283 70.1123 17.6769C69.387 17.3143 68.7693 16.8496 68.2593 16.2829L69.9593 14.5659C70.764 15.4726 71.7556 15.9259 72.9343 15.9259C73.569 15.9259 74.0393 15.7956 74.3453 15.5349C74.6513 15.2743 74.8043 14.9286 74.8043 14.4979C74.8043 14.1693 74.7136 13.8973 74.5323 13.6819C74.351 13.4553 73.9826 13.3023 73.4273 13.2229L72.2543 13.0699C70.9963 12.9113 70.0726 12.5316 69.4833 11.9309C68.9053 11.3303 68.6163 10.5313 68.6163 9.53393C68.6163 9.00127 68.7183 8.51393 68.9223 8.07193C69.1263 7.62993 69.4153 7.25027 69.7893 6.93293C70.1746 6.6156 70.6393 6.37193 71.1833 6.20193C71.7386 6.0206 72.3676 5.92993 73.0703 5.92993C73.9656 5.92993 74.7533 6.0716 75.4333 6.35493C76.1133 6.63827 76.697 7.05193 77.1843 7.59593L75.4673 9.32993C75.184 9.00126 74.8383 8.73493 74.4303 8.53093C74.0336 8.3156 73.5293 8.20793 72.9173 8.20793C72.3393 8.20793 71.9086 8.30993 71.6253 8.51393C71.342 8.71793 71.2003 9.00127 71.2003 9.36393C71.2003 9.77193 71.308 10.0666 71.5233 10.2479C71.75 10.4293 72.1126 10.5596 72.6113 10.6389L73.7843 10.8259C75.0083 11.0186 75.915 11.3983 76.5043 11.9649C77.0936 12.5203 77.3883 13.3136 77.3883 14.3449C77.3883 14.9116 77.2863 15.4329 77.0823 15.9089C76.8783 16.3849 76.578 16.7929 76.1813 17.1329C75.796 17.4729 75.3143 17.7393 74.7363 17.9319C74.1583 18.1133 73.501 18.2039 72.7643 18.2039Z" fill="white"/>
<path d="M88.3083 18.2039C87.5263 18.2039 86.8123 18.0736 86.1663 17.8129C85.5203 17.5523 84.9706 17.1669 84.5173 16.6569C84.0639 16.1356 83.7126 15.4953 83.4633 14.7359C83.2139 13.9653 83.0893 13.0756 83.0893 12.0669C83.0893 11.0583 83.2139 10.1743 83.4633 9.41493C83.7126 8.64427 84.0639 8.00393 84.5173 7.49393C84.9706 6.9726 85.5203 6.5816 86.1663 6.32093C86.8123 6.06026 87.5263 5.92993 88.3083 5.92993C89.0903 5.92993 89.8043 6.06026 90.4503 6.32093C91.0963 6.5816 91.646 6.9726 92.0993 7.49393C92.5526 8.00393 92.9039 8.64427 93.1533 9.41493C93.4026 10.1743 93.5273 11.0583 93.5273 12.0669C93.5273 13.0756 93.4026 13.9653 93.1533 14.7359C92.9039 15.4953 92.5526 16.1356 92.0993 16.6569C91.646 17.1669 91.0963 17.5523 90.4503 17.8129C89.8043 18.0736 89.0903 18.2039 88.3083 18.2039ZM88.3083 15.9089C89.0903 15.9089 89.6966 15.6539 90.1273 15.1439C90.5693 14.6339 90.7903 13.9029 90.7903 12.9509V11.1829C90.7903 10.2309 90.5693 9.49993 90.1273 8.98993C89.6966 8.47993 89.0903 8.22493 88.3083 8.22493C87.5263 8.22493 86.9143 8.47993 86.4723 8.98993C86.0416 9.49993 85.8263 10.2309 85.8263 11.1829V12.9509C85.8263 13.9029 86.0416 14.6339 86.4723 15.1439C86.9143 15.6539 87.5263 15.9089 88.3083 15.9089Z" fill="white"/>
<path d="M95.684 17.9999V6.13393H103.555V8.42893H98.268V10.8599H102.773V13.1379H98.268V17.9999H95.684Z" fill="white"/>
<path d="M4.30902 28.1339H8.78002C9.56202 28.1339 10.276 28.2586 10.922 28.5079C11.568 28.7573 12.1177 29.1313 12.571 29.6299C13.0244 30.1173 13.3757 30.7349 13.625 31.4829C13.8744 32.2196 13.999 33.0809 13.999 34.0669C13.999 35.0529 13.8744 35.9199 13.625 36.6679C13.3757 37.4046 13.0244 38.0223 12.571 38.5209C12.1177 39.0083 11.568 39.3766 10.922 39.6259C10.276 39.8753 9.56202 39.9999 8.78002 39.9999H4.30902V28.1339ZM8.78002 37.7049C9.55069 37.7049 10.157 37.4896 10.599 37.0589C11.041 36.6283 11.262 35.9369 11.262 34.9849V33.1489C11.262 32.1969 11.041 31.5056 10.599 31.0749C10.157 30.6443 9.55069 30.4289 8.78002 30.4289H6.89302V37.7049H8.78002Z" fill="white"/>
<path d="M15.7035 39.9999V37.9429H17.2335V30.1909H15.7035V28.1339H21.3475V30.1909H19.8175V37.9429H21.3475V39.9999H15.7035Z" fill="white"/>
<path d="M31.0314 38.1129H30.9464C30.8558 38.7136 30.5498 39.2123 30.0284 39.6089C29.5071 40.0056 28.7988 40.2039 27.9034 40.2039C27.2234 40.2039 26.5888 40.0736 25.9994 39.8129C25.4101 39.5523 24.8944 39.1669 24.4524 38.6569C24.0104 38.1469 23.6648 37.5123 23.4154 36.7529C23.1661 35.9936 23.0414 35.1153 23.0414 34.1179C23.0414 33.1206 23.1718 32.2366 23.4324 31.4659C23.6931 30.6953 24.0558 30.0493 24.5204 29.5279C24.9964 29.0066 25.5631 28.6099 26.2204 28.3379C26.8778 28.0659 27.6088 27.9299 28.4134 27.9299C29.4788 27.9299 30.3968 28.1623 31.1674 28.6269C31.9381 29.0803 32.5444 29.7659 32.9864 30.6839L30.8784 31.8909C30.6971 31.4263 30.4138 31.0353 30.0284 30.7179C29.6431 30.3893 29.1048 30.2249 28.4134 30.2249C27.6088 30.2249 26.9684 30.4573 26.4924 30.9219C26.0164 31.3866 25.7784 32.1176 25.7784 33.1149V35.0189C25.7784 36.0049 26.0164 36.7359 26.4924 37.2119C26.9684 37.6766 27.6088 37.9089 28.4134 37.9089C28.7308 37.9089 29.0311 37.8749 29.3144 37.8069C29.5978 37.7276 29.8471 37.6143 30.0624 37.4669C30.2778 37.3083 30.4421 37.1213 30.5554 36.9059C30.6801 36.6906 30.7424 36.4356 30.7424 36.1409V35.5459H28.5324V33.3869H33.2074V39.9999H31.0314V38.1129Z" fill="white"/>
<path d="M35.2602 39.9999V37.9429H36.7902V30.1909H35.2602V28.1339H40.9042V30.1909H39.3742V37.9429H40.9042V39.9999H35.2602Z" fill="white"/>
<path d="M47.9377 30.4289V39.9999H45.3537V30.4289H42.1407V28.1339H51.1507V30.4289H47.9377Z" fill="white"/>
<path d="M59.1161 39.9999L58.2661 37.1779H54.3051L53.4551 39.9999H50.8371L54.7471 28.1339H57.9431L61.8021 39.9999H59.1161ZM56.3111 30.4799H56.2261L54.9171 34.9849H57.6371L56.3111 30.4799Z" fill="white"/>
<path d="M63.4438 39.9999V28.1339H66.0278V37.7049H70.5498V39.9999H63.4438Z" fill="white"/>
<path d="M147.619 17.9999L146.769 15.1779H142.808L141.958 17.9999H139.34L143.25 6.13393H146.446L150.305 17.9999H147.619ZM144.814 8.47993H144.729L143.42 12.9849H146.14L144.814 8.47993Z" fill="#03FE33"/>
<path d="M154.531 17.9999H151.947V6.13393H157.574C158.118 6.13393 158.611 6.2246 159.053 6.40593C159.495 6.58727 159.869 6.84793 160.175 7.18793C160.492 7.5166 160.736 7.91326 160.906 8.37793C161.076 8.8426 161.161 9.35826 161.161 9.92493C161.161 10.7296 160.979 11.4323 160.617 12.0329C160.265 12.6336 159.727 13.0699 159.002 13.3419L161.331 17.9999H158.458L156.384 13.6479H154.531V17.9999ZM157.251 11.4719C157.636 11.4719 157.936 11.3756 158.152 11.1829C158.378 10.9789 158.492 10.6843 158.492 10.2989V9.55093C158.492 9.1656 158.378 8.8766 158.152 8.68393C157.936 8.47993 157.636 8.37793 157.251 8.37793H154.531V11.4719H157.251Z" fill="#03FE33"/>
<path d="M167.934 8.42893V17.9999H165.35V8.42893H162.137V6.13393H171.147V8.42893H167.934Z" fill="#03FE33"/>
<path d="M172.389 17.9999V15.9429H173.919V8.19093H172.389V6.13393H178.033V8.19093H176.503V15.9429H178.033V17.9999H172.389Z" fill="#03FE33"/>
<path d="M180.186 17.9999V6.13393H188.057V8.42893H182.77V10.8599H187.275V13.1379H182.77V17.9999H180.186Z" fill="#03FE33"/>
<path d="M189.671 17.9999V15.9429H191.201V8.19093H189.671V6.13393H195.315V8.19093H193.785V15.9429H195.315V17.9999H189.671Z" fill="#03FE33"/>
<path d="M202.262 18.2039C201.457 18.2039 200.732 18.0793 200.086 17.8299C199.44 17.5693 198.89 17.1896 198.437 16.6909C197.984 16.1809 197.632 15.5519 197.383 14.8039C197.134 14.0446 197.009 13.1606 197.009 12.1519C197.009 11.1546 197.134 10.2706 197.383 9.49993C197.632 8.71793 197.984 8.06627 198.437 7.54493C198.89 7.01227 199.44 6.60993 200.086 6.33793C200.732 6.06593 201.457 5.92993 202.262 5.92993C203.361 5.92993 204.268 6.1566 204.982 6.60993C205.696 7.05193 206.268 7.7546 206.699 8.71793L204.472 9.87393C204.313 9.37527 204.064 8.9786 203.724 8.68393C203.395 8.37793 202.908 8.22493 202.262 8.22493C201.503 8.22493 200.891 8.47426 200.426 8.97293C199.973 9.46026 199.746 10.1743 199.746 11.1149V13.0189C199.746 13.9596 199.973 14.6793 200.426 15.1779C200.891 15.6653 201.503 15.9089 202.262 15.9089C202.897 15.9089 203.401 15.7389 203.775 15.3989C204.16 15.0476 204.444 14.6283 204.625 14.1409L206.733 15.3649C206.291 16.2716 205.707 16.9743 204.982 17.4729C204.268 17.9603 203.361 18.2039 202.262 18.2039Z" fill="#03FE33"/>
<path d="M208.082 17.9999V15.9429H209.612V8.19093H208.082V6.13393H213.726V8.19093H212.196V15.9429H213.726V17.9999H208.082Z" fill="#03FE33"/>
<path d="M223.189 17.9999L222.339 15.1779H218.378L217.528 17.9999H214.91L218.82 6.13393H222.016L225.875 17.9999H223.189ZM220.384 8.47993H220.299L218.99 12.9849H221.71L220.384 8.47993Z" fill="#03FE33"/>
<path d="M227.517 17.9999V6.13393H230.101V15.7049H234.623V17.9999H227.517Z" fill="#03FE33"/>
<path d="M139.85 39.9999V37.9429H141.38V30.1909H139.85V28.1339H145.494V30.1909H143.964V37.9429H145.494V39.9999H139.85Z" fill="#03FE33"/>
<path d="M151.268 34.3899L150.129 32.0099H150.078V39.9999H147.647V28.1339H150.469L153.716 33.7439L154.855 36.1239H154.906V28.1339H157.337V39.9999H154.515L151.268 34.3899Z" fill="#03FE33"/>
<path d="M164.896 30.4289V39.9999H162.312V30.4289H159.099V28.1339H168.109V30.4289H164.896Z" fill="#03FE33"/>
<path d="M169.876 39.9999V28.1339H177.951V30.4289H172.46V32.8599H177.169V35.1379H172.46V37.7049H177.951V39.9999H169.876Z" fill="#03FE33"/>
<path d="M180.203 39.9999V28.1339H182.787V37.7049H187.309V39.9999H180.203Z" fill="#03FE33"/>
<path d="M189.217 39.9999V28.1339H191.801V37.7049H196.323V39.9999H189.217Z" fill="#03FE33"/>
<path d="M197.773 39.9999V37.9429H199.303V30.1909H197.773V28.1339H203.417V30.1909H201.887V37.9429H203.417V39.9999H197.773Z" fill="#03FE33"/>
<path d="M213.101 38.1129H213.016C212.925 38.7136 212.619 39.2123 212.098 39.6089C211.576 40.0056 210.868 40.2039 209.973 40.2039C209.293 40.2039 208.658 40.0736 208.069 39.8129C207.479 39.5523 206.964 39.1669 206.522 38.6569C206.08 38.1469 205.734 37.5123 205.485 36.7529C205.235 35.9936 205.111 35.1153 205.111 34.1179C205.111 33.1206 205.241 32.2366 205.502 31.4659C205.762 30.6953 206.125 30.0493 206.59 29.5279C207.066 29.0066 207.632 28.6099 208.29 28.3379C208.947 28.0659 209.678 27.9299 210.483 27.9299C211.548 27.9299 212.466 28.1623 213.237 28.6269C214.007 29.0803 214.614 29.7659 215.056 30.6839L212.948 31.8909C212.766 31.4263 212.483 31.0353 212.098 30.7179C211.712 30.3893 211.174 30.2249 210.483 30.2249C209.678 30.2249 209.038 30.4573 208.562 30.9219C208.086 31.3866 207.848 32.1176 207.848 33.1149V35.0189C207.848 36.0049 208.086 36.7359 208.562 37.2119C209.038 37.6766 209.678 37.9089 210.483 37.9089C210.8 37.9089 211.1 37.8749 211.384 37.8069C211.667 37.7276 211.916 37.6143 212.132 37.4669C212.347 37.3083 212.511 37.1213 212.625 36.9059C212.749 36.6906 212.812 36.4356 212.812 36.1409V35.5459H210.602V33.3869H215.277V39.9999H213.101V38.1129Z" fill="#03FE33"/>
<path d="M217.788 39.9999V28.1339H225.863V30.4289H220.372V32.8599H225.081V35.1379H220.372V37.7049H225.863V39.9999H217.788Z" fill="#03FE33"/>
<path d="M231.736 34.3899L230.597 32.0099H230.546V39.9999H228.115V28.1339H230.937L234.184 33.7439L235.323 36.1239H235.374V28.1339H237.805V39.9999H234.983L231.736 34.3899Z" fill="#03FE33"/>
<path d="M245.21 40.2039C244.406 40.2039 243.68 40.0793 243.034 39.8299C242.388 39.5693 241.839 39.1896 241.385 38.6909C240.932 38.1809 240.581 37.5519 240.331 36.8039C240.082 36.0446 239.957 35.1606 239.957 34.1519C239.957 33.1546 240.082 32.2706 240.331 31.4999C240.581 30.7179 240.932 30.0663 241.385 29.5449C241.839 29.0123 242.388 28.6099 243.034 28.3379C243.68 28.0659 244.406 27.9299 245.21 27.9299C246.31 27.9299 247.216 28.1566 247.93 28.6099C248.644 29.0519 249.217 29.7546 249.647 30.7179L247.42 31.8739C247.262 31.3753 247.012 30.9786 246.672 30.6839C246.344 30.3779 245.856 30.2249 245.21 30.2249C244.451 30.2249 243.839 30.4743 243.374 30.9729C242.921 31.4603 242.694 32.1743 242.694 33.1149V35.0189C242.694 35.9596 242.921 36.6793 243.374 37.1779C243.839 37.6653 244.451 37.9089 245.21 37.9089C245.845 37.9089 246.349 37.7389 246.723 37.3989C247.109 37.0476 247.392 36.6283 247.573 36.1409L249.681 37.3649C249.239 38.2716 248.656 38.9743 247.93 39.4729C247.216 39.9603 246.31 40.2039 245.21 40.2039Z" fill="#03FE33"/>
<path d="M251.49 39.9999V28.1339H259.565V30.4289H254.074V32.8599H258.783V35.1379H254.074V37.7049H259.565V39.9999H251.49Z" fill="#03FE33"/>
</svg>
