<svg width="199" height="199" viewBox="0 0 199 199" fill="none" xmlns="http://www.w3.org/2000/svg">
<path d="M62.1017 1.71543L66.9052 0.343018L68.2776 5.14647L63.4741 6.51888L62.1017 1.71543Z" fill="white"/>
<path d="M70.1303 0L68.6207 5.35241L73.9731 6.86207L75.4827 1.50966L70.1303 0Z" fill="white"/>
<path d="M89.55 1.71543L94.3534 0.343018L95.7258 5.14647L90.9224 6.51888L89.55 1.71543Z" fill="white"/>
<path d="M96.6179 0.274536L96.3434 6.31316L102.382 6.58764L102.657 0.549019L96.6179 0.274536Z" fill="white"/>
<path d="M104.441 0L102.931 5.35241L108.283 6.86207L109.793 1.50966L104.441 0Z" fill="white"/>
<path d="M116.998 1.71543L121.802 0.343018L123.174 5.14647L118.371 6.51888L116.998 1.71543Z" fill="white"/>
<path d="M125.027 0L123.517 5.35241L128.87 6.86207L130.379 1.50966L125.027 0Z" fill="white"/>
<path d="M54.8965 7.20516L61.4155 6.86206L61.7586 13.381L55.2396 13.7241L54.8965 7.20516Z" fill="white"/>
<path d="M69.1697 7.1366L68.8952 13.1752L74.9338 13.4497L75.2083 7.41108L69.1697 7.1366Z" fill="white"/>
<path d="M82.3448 7.20516L88.8638 6.86206L89.2069 13.381L82.6879 13.7241L82.3448 7.20516Z" fill="white"/>
<path d="M102.931 7.54827L109.107 6.86206L109.793 13.0379L103.617 13.7241L102.931 7.54827Z" fill="white"/>
<path d="M123.517 7.54827L129.693 6.86206L130.379 13.0379L124.203 13.7241L123.517 7.54827Z" fill="white"/>
<path d="M55.4455 13.9987L55.171 20.0373L61.2096 20.3118L61.4841 14.2731L55.4455 13.9987Z" fill="white"/>
<path d="M69.5127 13.7241L68.6207 19.6941L74.5907 20.5862L75.4827 14.6162L69.5127 13.7241Z" fill="white"/>
<path d="M76.0317 13.9987L75.7572 20.0373L81.7959 20.3118L82.0703 14.2731L76.0317 13.9987Z" fill="white"/>
<path d="M82.3448 14.8907L88.0403 13.7241L89.2069 19.4196L83.5114 20.5862L82.3448 14.8907Z" fill="white"/>
<path d="M96.069 14.0672L102.588 13.7241L102.931 20.2431L96.4121 20.5862L96.069 14.0672Z" fill="white"/>
<path d="M109.793 14.7534L115.626 13.7241L116.655 19.5569L110.822 20.5862L109.793 14.7534Z" fill="white"/>
<path d="M137.241 14.7534L143.074 13.7241L144.103 19.5569L138.271 20.5862L137.241 14.7534Z" fill="white"/>
<path d="M54.8965 21.2724L61.0724 20.5862L61.7586 26.762L55.5828 27.4483L54.8965 21.2724Z" fill="white"/>
<path d="M96.6179 20.8607L96.3434 26.8993L102.382 27.1738L102.657 21.1352L96.6179 20.8607Z" fill="white"/>
<path d="M104.441 20.5862L102.931 25.9386L108.283 27.4483L109.793 22.0958L104.441 20.5862Z" fill="white"/>
<path d="M116.655 20.9293L123.174 20.5862L123.517 27.1051L116.998 27.4483L116.655 20.9293Z" fill="white"/>
<path d="M68.6207 27.7915L75.1396 27.4484L75.4827 33.9673L68.9638 34.3104L68.6207 27.7915Z" fill="white"/>
<path d="M89.2069 28.2718L95.2455 27.4484L96.069 33.487L90.0304 34.3104L89.2069 28.2718Z" fill="white"/>
<path d="M96.6179 27.7227L96.3434 33.7613L102.382 34.0358L102.657 27.9971L96.6179 27.7227Z" fill="white"/>
<path d="M102.931 28.6149L108.627 27.4484L109.793 33.1439L104.098 34.3104L102.931 28.6149Z" fill="white"/>
<path d="M117.547 27.4484L116.655 33.4184L122.625 34.3104L123.517 28.3404L117.547 27.4484Z" fill="white"/>
<path d="M124.066 27.7227L123.792 33.7613L129.83 34.0358L130.105 27.9971L124.066 27.7227Z" fill="white"/>
<path d="M130.928 27.7227L130.654 33.7613L136.692 34.0358L136.967 27.9971L130.928 27.7227Z" fill="white"/>
<path d="M138.751 27.4484L137.241 32.8008L142.594 34.3104L144.103 28.958L138.751 27.4484Z" fill="white"/>
<path d="M69.1697 34.5848L68.8952 40.6235L74.9338 40.8979L75.2083 34.8593L69.1697 34.5848Z" fill="white"/>
<path d="M82.3448 35.1338L88.3834 34.3103L89.2069 40.3489L83.1683 41.1724L82.3448 35.1338Z" fill="white"/>
<path d="M89.7559 34.5848L89.4814 40.6235L95.52 40.8979L95.7945 34.8593L89.7559 34.5848Z" fill="white"/>
<path d="M96.6179 34.5848L96.3434 40.6235L102.382 40.8979L102.657 34.8593L96.6179 34.5848Z" fill="white"/>
<path d="M109.793 34.6534L116.312 34.3103L116.655 40.8293L110.136 41.1724L109.793 34.6534Z" fill="white"/>
<path d="M137.79 34.5848L137.516 40.6235L143.554 40.8979L143.829 34.8593L137.79 34.5848Z" fill="white"/>
<path d="M54.8965 41.5155L61.4155 41.1724L61.7586 47.6913L55.2396 48.0344L54.8965 41.5155Z" fill="white"/>
<path d="M68.6207 41.8586L74.7965 41.1724L75.4827 47.3482L69.3069 48.0344L68.6207 41.8586Z" fill="white"/>
<path d="M82.3448 41.8586L88.5207 41.1724L89.2069 47.3482L83.031 48.0344L82.3448 41.8586Z" fill="white"/>
<path d="M96.069 41.8586L102.245 41.1724L102.931 47.3482L96.7552 48.0344L96.069 41.8586Z" fill="white"/>
<path d="M109.793 41.8586L115.969 41.1724L116.655 47.3482L110.479 48.0344L109.793 41.8586Z" fill="white"/>
<path d="M123.517 41.5155L130.036 41.1724L130.379 47.6913L123.86 48.0344L123.517 41.5155Z" fill="white"/>
<path d="M137.241 41.8586L143.417 41.1724L144.103 47.3482L137.928 48.0344L137.241 41.8586Z" fill="white"/>
<path d="M55.4455 48.309L55.171 54.3476L61.2096 54.6221L61.4841 48.5834L55.4455 48.309Z" fill="white"/>
<path d="M63.2683 48.0344L61.7586 53.3868L67.1111 54.8965L68.6207 49.5441L63.2683 48.0344Z" fill="white"/>
<path d="M75.4827 48.3775L82.0017 48.0344L82.3448 54.5534L75.8258 54.8965L75.4827 48.3775Z" fill="white"/>
<path d="M89.2069 49.0637L95.0397 48.0344L96.069 53.8672L90.2362 54.8965L89.2069 49.0637Z" fill="white"/>
<path d="M124.066 48.309L123.792 54.3476L129.83 54.6221L130.105 48.5834L124.066 48.309Z" fill="white"/>
<path d="M0 55.2396L6.51897 54.8965L6.86207 61.4154L0.343103 61.7586L0 55.2396Z" fill="white"/>
<path d="M41.1724 55.9258L47.0052 54.8965L48.0345 60.7292L42.2017 61.7586L41.1724 55.9258Z" fill="white"/>
<path d="M55.4455 55.171L55.171 61.2096L61.2096 61.4841L61.4841 55.4455L55.4455 55.171Z" fill="white"/>
<path d="M61.7586 56.063L67.4542 54.8965L68.6207 60.592L62.9252 61.7586L61.7586 56.063Z" fill="white"/>
<path d="M76.0317 55.171L75.7572 61.2096L81.7959 61.4841L82.0703 55.4455L76.0317 55.171Z" fill="white"/>
<path d="M83.8545 54.8965L82.3448 60.2489L87.6972 61.7586L89.2069 56.4061L83.8545 54.8965Z" fill="white"/>
<path d="M96.069 55.7199L102.108 54.8965L102.931 60.9351L96.8924 61.7586L96.069 55.7199Z" fill="white"/>
<path d="M103.96 55.2397L103.274 60.7294L108.764 61.4156L109.45 55.926L103.96 55.2397Z" fill="white"/>
<path d="M116.655 55.7199L122.694 54.8965L123.517 60.9351L117.479 61.7586L116.655 55.7199Z" fill="white"/>
<path d="M124.066 55.171L123.792 61.2096L129.83 61.4841L130.105 55.4455L124.066 55.171Z" fill="white"/>
<path d="M131.889 54.8965L130.379 60.2489L135.732 61.7586L137.241 56.4061L131.889 54.8965Z" fill="white"/>
<path d="M144.447 56.6122L149.25 55.2397L150.622 60.0432L145.819 61.4156L144.447 56.6122Z" fill="white"/>
<path d="M151.995 55.2397L151.309 60.7294L156.798 61.4156L157.484 55.926L151.995 55.2397Z" fill="white"/>
<path d="M171.895 56.6122L176.698 55.2397L178.071 60.0432L173.267 61.4156L171.895 56.6122Z" fill="white"/>
<path d="M178.963 55.171L178.688 61.2096L184.727 61.4841L185.001 55.4455L178.963 55.171Z" fill="white"/>
<path d="M186.786 54.8965L185.276 60.2489L190.628 61.7586L192.138 56.4061L186.786 54.8965Z" fill="white"/>
<path d="M0.548988 62.0331L0.274506 68.0717L6.31313 68.3462L6.58761 62.3076L0.548988 62.0331Z" fill="white"/>
<path d="M7.41102 62.0331L7.13654 68.0717L13.1752 68.3462L13.4496 62.3076L7.41102 62.0331Z" fill="white"/>
<path d="M14.2731 62.0331L13.9986 68.0717L20.0372 68.3462L20.3117 62.3076L14.2731 62.0331Z" fill="white"/>
<path d="M21.1352 62.0331L20.8607 68.0717L26.8993 68.3462L27.1738 62.3076L21.1352 62.0331Z" fill="white"/>
<path d="M28.4776 62.1018L27.7914 67.5915L33.281 68.2777L33.9672 62.788L28.4776 62.1018Z" fill="white"/>
<path d="M48.3776 63.4742L53.181 62.1018L54.5535 66.9053L49.75 68.2777L48.3776 63.4742Z" fill="white"/>
<path d="M55.4455 62.0331L55.171 68.0717L61.2096 68.3462L61.4841 62.3076L55.4455 62.0331Z" fill="white"/>
<path d="M68.6207 62.582L74.6593 61.7585L75.4827 67.7972L69.4441 68.6206L68.6207 62.582Z" fill="white"/>
<path d="M76.0317 62.0331L75.7572 68.0717L81.7959 68.3462L82.0703 62.3076L76.0317 62.0331Z" fill="white"/>
<path d="M82.3448 62.9251L88.0403 61.7585L89.2069 67.4541L83.5114 68.6206L82.3448 62.9251Z" fill="white"/>
<path d="M96.069 62.4448L102.245 61.7585L102.931 67.9344L96.7552 68.6206L96.069 62.4448Z" fill="white"/>
<path d="M117.204 62.0331L116.93 68.0717L122.968 68.3462L123.243 62.3076L117.204 62.0331Z" fill="white"/>
<path d="M124.066 62.0331L123.792 68.0717L129.83 68.3462L130.105 62.3076L124.066 62.0331Z" fill="white"/>
<path d="M130.379 62.9251L136.075 61.7585L137.241 67.4541L131.546 68.6206L130.379 62.9251Z" fill="white"/>
<path d="M158.171 63.4742L162.974 62.1018L164.347 66.9053L159.543 68.2777L158.171 63.4742Z" fill="white"/>
<path d="M166.199 61.7585L164.69 67.111L170.042 68.6206L171.552 63.2682L166.199 61.7585Z" fill="white"/>
<path d="M179.306 61.7585L178.414 67.7285L184.384 68.6206L185.276 62.6506L179.306 61.7585Z" fill="white"/>
<path d="M185.276 62.9251L190.971 61.7585L192.138 67.4541L186.442 68.6206L185.276 62.9251Z" fill="white"/>
<path d="M0.892069 68.6207L0 74.5907L5.97 75.4828L6.86207 69.5128L0.892069 68.6207Z" fill="white"/>
<path d="M7.41102 68.8951L7.13654 74.9338L13.1752 75.2082L13.4496 69.1696L7.41102 68.8951Z" fill="white"/>
<path d="M41.1724 69.65L47.0052 68.6207L48.0345 74.4535L42.2017 75.4828L41.1724 69.65Z" fill="white"/>
<path d="M55.4455 68.8951L55.171 74.9338L61.2096 75.2082L61.4841 69.1696L55.4455 68.8951Z" fill="white"/>
<path d="M62.3076 68.8951L62.0331 74.9338L68.0717 75.2082L68.3462 69.1696L62.3076 68.8951Z" fill="white"/>
<path d="M69.1697 68.8951L68.8952 74.9338L74.9338 75.2082L75.2083 69.1696L69.1697 68.8951Z" fill="white"/>
<path d="M76.0317 68.8951L75.7572 74.9338L81.7959 75.2082L82.0703 69.1696L76.0317 68.8951Z" fill="white"/>
<path d="M116.655 69.3069L122.831 68.6207L123.517 74.7966L117.341 75.4828L116.655 69.3069Z" fill="white"/>
<path d="M137.241 68.9638L143.76 68.6207L144.103 75.1397L137.584 75.4828L137.241 68.9638Z" fill="white"/>
<path d="M165.239 68.8951L164.964 74.9338L171.003 75.2082L171.277 69.1696L165.239 68.8951Z" fill="white"/>
<path d="M7.75413 75.4828L6.86206 81.4528L12.8321 82.3449L13.7241 76.3749L7.75413 75.4828Z" fill="white"/>
<path d="M14.2731 75.7573L13.9986 81.7959L20.0372 82.0704L20.3117 76.0318L14.2731 75.7573Z" fill="white"/>
<path d="M21.1352 75.7573L20.8607 81.7959L26.8993 82.0704L27.1738 76.0318L21.1352 75.7573Z" fill="white"/>
<path d="M27.9972 75.7573L27.7227 81.7959L33.7614 82.0704L34.0359 76.0318L27.9972 75.7573Z" fill="white"/>
<path d="M35.3396 75.8258L34.6534 81.3155L40.1431 82.0017L40.8293 76.512L35.3396 75.8258Z" fill="white"/>
<path d="M54.8965 76.169L61.0724 75.4828L61.7586 81.6586L55.5828 82.3449L54.8965 76.169Z" fill="white"/>
<path d="M69.1697 75.7573L68.8952 81.7959L74.9338 82.0704L75.2083 76.0318L69.1697 75.7573Z" fill="white"/>
<path d="M76.0317 75.7573L75.7572 81.7959L81.7959 82.0704L82.0703 76.0318L76.0317 75.7573Z" fill="white"/>
<path d="M96.069 76.3062L102.108 75.4828L102.931 81.5214L96.8924 82.3449L96.069 76.3062Z" fill="white"/>
<path d="M103.48 75.7573L103.206 81.7959L109.244 82.0704L109.519 76.0318L103.48 75.7573Z" fill="white"/>
<path d="M110.822 75.8258L110.136 81.3155L115.626 82.0017L116.312 76.512L110.822 75.8258Z" fill="white"/>
<path d="M123.86 77.1982L128.664 75.8258L130.036 80.6293L125.233 82.0017L123.86 77.1982Z" fill="white"/>
<path d="M130.928 75.7573L130.654 81.7959L136.692 82.0704L136.967 76.0318L130.928 75.7573Z" fill="white"/>
<path d="M137.79 75.7573L137.516 81.7959L143.554 82.0704L143.829 76.0318L137.79 75.7573Z" fill="white"/>
<path d="M145.133 75.8258L144.447 81.3155L149.936 82.0017L150.622 76.512L145.133 75.8258Z" fill="white"/>
<path d="M157.828 76.3062L163.866 75.4828L164.69 81.5214L158.651 82.3449L157.828 76.3062Z" fill="white"/>
<path d="M165.239 75.7573L164.964 81.7959L171.003 82.0704L171.277 76.0318L165.239 75.7573Z" fill="white"/>
<path d="M172.581 75.8258L171.895 81.3155L177.384 82.0017L178.071 76.512L172.581 75.8258Z" fill="white"/>
<path d="M27.9972 82.6194L27.7227 88.658L33.7614 88.9325L34.0359 82.8939L27.9972 82.6194Z" fill="white"/>
<path d="M41.1724 83.3742L47.0052 82.3448L48.0345 88.1776L42.2017 89.2069L41.1724 83.3742Z" fill="white"/>
<path d="M69.5127 82.3448L68.6207 88.3148L74.5907 89.2069L75.4827 83.2369L69.5127 82.3448Z" fill="white"/>
<path d="M75.4827 83.5114L81.1782 82.3448L82.3448 88.0404L76.6493 89.2069L75.4827 83.5114Z" fill="white"/>
<path d="M89.2069 83.1683L95.2455 82.3448L96.069 88.3835L90.0304 89.2069L89.2069 83.1683Z" fill="white"/>
<path d="M96.6179 82.6194L96.3434 88.658L102.382 88.9325L102.657 82.8939L96.6179 82.6194Z" fill="white"/>
<path d="M130.928 82.6194L130.654 88.658L136.692 88.9325L136.967 82.8939L130.928 82.6194Z" fill="white"/>
<path d="M137.79 82.6194L137.516 88.658L143.554 88.9325L143.829 82.8939L137.79 82.6194Z" fill="white"/>
<path d="M150.966 83.1683L157.004 82.3448L157.828 88.3835L151.789 89.2069L150.966 83.1683Z" fill="white"/>
<path d="M158.377 82.6194L158.102 88.658L164.141 88.9325L164.415 82.8939L158.377 82.6194Z" fill="white"/>
<path d="M192.138 82.688L198.657 82.3448L199 88.8638L192.481 89.2069L192.138 82.688Z" fill="white"/>
<path d="M6.86206 89.55L13.381 89.2069L13.7241 95.7259L7.20516 96.069L6.86206 89.55Z" fill="white"/>
<path d="M27.9972 89.4814L27.7227 95.5201L33.7614 95.7945L34.0359 89.7559L27.9972 89.4814Z" fill="white"/>
<path d="M82.3448 90.0304L88.3834 89.2069L89.2069 95.2455L83.1683 96.069L82.3448 90.0304Z" fill="white"/>
<path d="M89.7559 89.4814L89.4814 95.5201L95.52 95.7945L95.7945 89.7559L89.7559 89.4814Z" fill="white"/>
<path d="M96.6179 89.4814L96.3434 95.5201L102.382 95.7945L102.657 89.7559L96.6179 89.4814Z" fill="white"/>
<path d="M131.271 89.2069L130.379 95.1769L136.349 96.069L137.241 90.099L131.271 89.2069Z" fill="white"/>
<path d="M137.79 89.4814L137.516 95.5201L143.554 95.7945L143.829 89.7559L137.79 89.4814Z" fill="white"/>
<path d="M144.652 89.4814L144.378 95.5201L150.417 95.7945L150.691 89.7559L144.652 89.4814Z" fill="white"/>
<path d="M151.515 89.4814L151.24 95.5201L157.279 95.7945L157.553 89.7559L151.515 89.4814Z" fill="white"/>
<path d="M158.377 89.4814L158.102 95.5201L164.141 95.7945L164.415 89.7559L158.377 89.4814Z" fill="white"/>
<path d="M166.199 89.2069L164.69 94.5593L170.042 96.069L171.552 90.7166L166.199 89.2069Z" fill="white"/>
<path d="M185.619 90.9223L190.422 89.5499L191.795 94.3534L186.991 95.7258L185.619 90.9223Z" fill="white"/>
<path d="M192.138 90.3735L197.833 89.2069L199 94.9024L193.304 96.069L192.138 90.3735Z" fill="white"/>
<path d="M7.41102 96.3435L7.13654 102.382L13.1752 102.657L13.4496 96.618L7.41102 96.3435Z" fill="white"/>
<path d="M14.2731 96.3435L13.9986 102.382L20.0372 102.657L20.3117 96.618L14.2731 96.3435Z" fill="white"/>
<path d="M21.1352 96.3435L20.8607 102.382L26.8993 102.657L27.1738 96.618L21.1352 96.3435Z" fill="white"/>
<path d="M27.4483 97.2355L33.1438 96.069L34.3103 101.764L28.6148 102.931L27.4483 97.2355Z" fill="white"/>
<path d="M41.1724 97.0983L47.0052 96.069L48.0345 101.902L42.2017 102.931L41.1724 97.0983Z" fill="white"/>
<path d="M54.8965 97.0983L60.7293 96.069L61.7586 101.902L55.9259 102.931L54.8965 97.0983Z" fill="white"/>
<path d="M68.6207 97.0983L74.4534 96.069L75.4827 101.902L69.65 102.931L68.6207 97.0983Z" fill="white"/>
<path d="M83.2369 96.069L82.3448 102.039L88.3148 102.931L89.2069 96.961L83.2369 96.069Z" fill="white"/>
<path d="M89.7559 96.3435L89.4814 102.382L95.52 102.657L95.7945 96.618L89.7559 96.3435Z" fill="white"/>
<path d="M96.6179 96.3435L96.3434 102.382L102.382 102.657L102.657 96.618L96.6179 96.3435Z" fill="white"/>
<path d="M103.48 96.3435L103.206 102.382L109.244 102.657L109.519 96.618L103.48 96.3435Z" fill="white"/>
<path d="M110.342 96.3435L110.068 102.382L116.106 102.657L116.381 96.618L110.342 96.3435Z" fill="white"/>
<path d="M117.204 96.3435L116.93 102.382L122.968 102.657L123.243 96.618L117.204 96.3435Z" fill="white"/>
<path d="M125.027 96.069L123.517 101.421L128.87 102.931L130.379 97.5786L125.027 96.069Z" fill="white"/>
<path d="M137.79 96.3435L137.516 102.382L143.554 102.657L143.829 96.618L137.79 96.3435Z" fill="white"/>
<path d="M144.103 97.2355L149.799 96.069L150.965 101.764L145.27 102.931L144.103 97.2355Z" fill="white"/>
<path d="M158.72 96.069L157.828 102.039L163.798 102.931L164.69 96.961L158.72 96.069Z" fill="white"/>
<path d="M165.239 96.3435L164.964 102.382L171.003 102.657L171.277 96.618L165.239 96.3435Z" fill="white"/>
<path d="M172.101 96.3435L171.826 102.382L177.865 102.657L178.139 96.618L172.101 96.3435Z" fill="white"/>
<path d="M179.923 96.069L178.414 101.421L183.766 102.931L185.276 97.5786L179.923 96.069Z" fill="white"/>
<path d="M0 103.754L6.03862 102.931L6.86207 108.97L0.823448 109.793L0 103.754Z" fill="white"/>
<path d="M7.41102 103.205L7.13654 109.244L13.1752 109.519L13.4496 103.48L7.41102 103.205Z" fill="white"/>
<path d="M14.2731 103.205L13.9986 109.244L20.0372 109.519L20.3117 103.48L14.2731 103.205Z" fill="white"/>
<path d="M75.4827 103.274L82.0017 102.931L82.3448 109.45L75.8258 109.793L75.4827 103.274Z" fill="white"/>
<path d="M90.099 102.931L89.2069 108.901L95.1769 109.793L96.069 103.823L90.099 102.931Z" fill="white"/>
<path d="M96.6179 103.205L96.3434 109.244L102.382 109.519L102.657 103.48L96.6179 103.205Z" fill="white"/>
<path d="M109.793 103.617L115.969 102.931L116.655 109.107L110.479 109.793L109.793 103.617Z" fill="white"/>
<path d="M123.517 103.617L129.693 102.931L130.379 109.107L124.203 109.793L123.517 103.617Z" fill="white"/>
<path d="M137.241 103.617L143.417 102.931L144.103 109.107L137.928 109.793L137.241 103.617Z" fill="white"/>
<path d="M164.69 103.617L170.865 102.931L171.552 109.107L165.376 109.793L164.69 103.617Z" fill="white"/>
<path d="M178.963 103.205L178.688 109.244L184.727 109.519L185.001 103.48L178.963 103.205Z" fill="white"/>
<path d="M192.138 103.96L197.971 102.931L199 108.764L193.167 109.793L192.138 103.96Z" fill="white"/>
<path d="M0.548988 110.068L0.274506 116.106L6.31313 116.381L6.58761 110.342L0.548988 110.068Z" fill="white"/>
<path d="M14.2731 110.068L13.9986 116.106L20.0372 116.381L20.3117 110.342L14.2731 110.068Z" fill="white"/>
<path d="M34.3104 110.617L40.349 109.793L41.1724 115.832L35.1338 116.655L34.3104 110.617Z" fill="white"/>
<path d="M41.7214 110.068L41.4469 116.106L47.4855 116.381L47.76 110.342L41.7214 110.068Z" fill="white"/>
<path d="M49.0638 110.136L48.3776 115.626L53.8672 116.312L54.5535 110.822L49.0638 110.136Z" fill="white"/>
<path d="M62.1017 111.509L66.9052 110.136L68.2776 114.94L63.4741 116.312L62.1017 111.509Z" fill="white"/>
<path d="M69.1697 110.068L68.8952 116.106L74.9338 116.381L75.2083 110.342L69.1697 110.068Z" fill="white"/>
<path d="M76.0317 110.068L75.7572 116.106L81.7959 116.381L82.0703 110.342L76.0317 110.068Z" fill="white"/>
<path d="M96.961 109.793L96.069 115.763L102.039 116.655L102.931 110.685L96.961 109.793Z" fill="white"/>
<path d="M103.96 110.136L103.274 115.626L108.764 116.312L109.45 110.822L103.96 110.136Z" fill="white"/>
<path d="M116.655 110.822L122.488 109.793L123.517 115.626L117.684 116.655L116.655 110.822Z" fill="white"/>
<path d="M130.379 110.136L136.898 109.793L137.241 116.312L130.722 116.655L130.379 110.136Z" fill="white"/>
<path d="M171.895 111.509L176.698 110.136L178.071 114.94L173.267 116.312L171.895 111.509Z" fill="white"/>
<path d="M178.963 110.068L178.688 116.106L184.727 116.381L185.001 110.342L178.963 110.068Z" fill="white"/>
<path d="M0.548988 116.93L0.274506 122.968L6.31313 123.243L6.58761 117.204L0.548988 116.93Z" fill="white"/>
<path d="M14.2731 116.93L13.9986 122.968L20.0372 123.243L20.3117 117.204L14.2731 116.93Z" fill="white"/>
<path d="M21.6155 116.998L20.9293 122.488L26.419 123.174L27.1052 117.684L21.6155 116.998Z" fill="white"/>
<path d="M34.8593 116.93L34.5848 122.968L40.6234 123.243L40.8979 117.204L34.8593 116.93Z" fill="white"/>
<path d="M54.8965 116.998L61.4155 116.655L61.7586 123.174L55.2396 123.517L54.8965 116.998Z" fill="white"/>
<path d="M69.5127 116.655L68.6207 122.625L74.5907 123.517L75.4827 117.547L69.5127 116.655Z" fill="white"/>
<path d="M76.0317 116.93L75.7572 122.968L81.7959 123.243L82.0703 117.204L76.0317 116.93Z" fill="white"/>
<path d="M83.3741 116.998L82.6879 122.488L88.1776 123.174L88.8638 117.684L83.3741 116.998Z" fill="white"/>
<path d="M109.793 116.998L116.312 116.655L116.655 123.174L110.136 123.517L109.793 116.998Z" fill="white"/>
<path d="M130.928 116.93L130.654 122.968L136.692 123.243L136.967 117.204L130.928 116.93Z" fill="white"/>
<path d="M137.79 116.93L137.516 122.968L143.554 123.243L143.829 117.204L137.79 116.93Z" fill="white"/>
<path d="M144.652 116.93L144.378 122.968L150.417 123.243L150.691 117.204L144.652 116.93Z" fill="white"/>
<path d="M151.515 116.93L151.24 122.968L157.279 123.243L157.553 117.204L151.515 116.93Z" fill="white"/>
<path d="M158.377 116.93L158.102 122.968L164.141 123.243L164.415 117.204L158.377 116.93Z" fill="white"/>
<path d="M166.199 116.655L164.69 122.008L170.042 123.517L171.552 118.165L166.199 116.655Z" fill="white"/>
<path d="M179.306 116.655L178.414 122.625L184.384 123.517L185.276 117.547L179.306 116.655Z" fill="white"/>
<path d="M185.825 116.93L185.55 122.968L191.589 123.243L191.863 117.204L185.825 116.93Z" fill="white"/>
<path d="M193.648 116.655L192.138 122.008L197.49 123.517L199 118.165L193.648 116.655Z" fill="white"/>
<path d="M0.548988 123.792L0.274506 129.83L6.31313 130.105L6.58761 124.066L0.548988 123.792Z" fill="white"/>
<path d="M7.41102 123.792L7.13654 129.83L13.1752 130.105L13.4496 124.066L7.41102 123.792Z" fill="white"/>
<path d="M13.7242 124.684L19.4197 123.517L20.5862 129.213L14.8907 130.379L13.7242 124.684Z" fill="white"/>
<path d="M27.7914 125.233L32.5948 123.86L33.9672 128.664L29.1638 130.036L27.7914 125.233Z" fill="white"/>
<path d="M34.8593 123.792L34.5848 129.83L40.6234 130.105L40.8979 124.066L34.8593 123.792Z" fill="white"/>
<path d="M41.7214 123.792L41.4469 129.83L47.4855 130.105L47.76 124.066L41.7214 123.792Z" fill="white"/>
<path d="M48.5834 123.792L48.309 129.83L54.3476 130.105L54.6221 124.066L48.5834 123.792Z" fill="white"/>
<path d="M55.4455 123.792L55.171 129.83L61.2096 130.105L61.4841 124.066L55.4455 123.792Z" fill="white"/>
<path d="M76.0317 123.792L75.7572 129.83L81.7959 130.105L82.0703 124.066L76.0317 123.792Z" fill="white"/>
<path d="M89.55 125.233L94.3534 123.86L95.7258 128.664L90.9224 130.036L89.55 125.233Z" fill="white"/>
<path d="M97.5786 123.517L96.069 128.87L101.421 130.379L102.931 125.027L97.5786 123.517Z" fill="white"/>
<path d="M110.342 123.792L110.068 129.83L116.106 130.105L116.381 124.066L110.342 123.792Z" fill="white"/>
<path d="M117.684 123.86L116.998 129.35L122.488 130.036L123.174 124.547L117.684 123.86Z" fill="white"/>
<path d="M131.271 123.517L130.379 129.487L136.349 130.379L137.241 124.409L131.271 123.517Z" fill="white"/>
<path d="M137.79 123.792L137.516 129.83L143.554 130.105L143.829 124.066L137.79 123.792Z" fill="white"/>
<path d="M144.652 123.792L144.378 129.83L150.417 130.105L150.691 124.066L144.652 123.792Z" fill="white"/>
<path d="M151.515 123.792L151.24 129.83L157.279 130.105L157.553 124.066L151.515 123.792Z" fill="white"/>
<path d="M165.239 123.792L164.964 129.83L171.003 130.105L171.277 124.066L165.239 123.792Z" fill="white"/>
<path d="M172.581 123.86L171.895 129.35L177.384 130.036L178.071 124.547L172.581 123.86Z" fill="white"/>
<path d="M192.138 124.203L198.314 123.517L199 129.693L192.824 130.379L192.138 124.203Z" fill="white"/>
<path d="M0.548988 130.654L0.274506 136.692L6.31313 136.967L6.58761 130.928L0.548988 130.654Z" fill="white"/>
<path d="M34.3104 131.065L40.4862 130.379L41.1724 136.555L34.9966 137.241L34.3104 131.065Z" fill="white"/>
<path d="M55.7886 130.379L54.8965 136.349L60.8665 137.241L61.7586 131.271L55.7886 130.379Z" fill="white"/>
<path d="M62.7879 130.722L62.1017 136.212L67.5914 136.898L68.2776 131.409L62.7879 130.722Z" fill="white"/>
<path d="M76.0317 130.654L75.7572 136.692L81.7959 136.967L82.0703 130.928L76.0317 130.654Z" fill="white"/>
<path d="M83.3741 130.722L82.6879 136.212L88.1776 136.898L88.8638 131.409L83.3741 130.722Z" fill="white"/>
<path d="M96.961 130.379L96.069 136.349L102.039 137.241L102.931 131.271L96.961 130.379Z" fill="white"/>
<path d="M103.48 130.654L103.206 136.692L109.244 136.967L109.519 130.928L103.48 130.654Z" fill="white"/>
<path d="M110.342 130.654L110.068 136.692L116.106 136.967L116.381 130.928L110.342 130.654Z" fill="white"/>
<path d="M137.79 130.654L137.516 136.692L143.554 136.967L143.829 130.928L137.79 130.654Z" fill="white"/>
<path d="M144.652 130.654L144.378 136.692L150.417 136.967L150.691 130.928L144.652 130.654Z" fill="white"/>
<path d="M151.515 130.654L151.24 136.692L157.279 136.967L157.553 130.928L151.515 130.654Z" fill="white"/>
<path d="M158.377 130.654L158.102 136.692L164.141 136.967L164.415 130.928L158.377 130.654Z" fill="white"/>
<path d="M165.239 130.654L164.964 136.692L171.003 136.967L171.277 130.928L165.239 130.654Z" fill="white"/>
<path d="M0 137.928L6.17586 137.241L6.86207 143.417L0.686207 144.103L0 137.928Z" fill="white"/>
<path d="M27.4483 138.271L33.281 137.241L34.3103 143.074L28.4776 144.103L27.4483 138.271Z" fill="white"/>
<path d="M41.5155 138.957L46.319 137.584L47.6914 142.388L42.8879 143.76L41.5155 138.957Z" fill="white"/>
<path d="M49.0638 137.584L48.3776 143.074L53.8672 143.76L54.5535 138.271L49.0638 137.584Z" fill="white"/>
<path d="M68.9638 138.957L73.7673 137.584L75.1397 142.388L70.3362 143.76L68.9638 138.957Z" fill="white"/>
<path d="M75.4827 138.408L81.1782 137.241L82.3448 142.937L76.6493 144.103L75.4827 138.408Z" fill="white"/>
<path d="M110.342 137.516L110.068 143.554L116.106 143.829L116.381 137.79L110.342 137.516Z" fill="white"/>
<path d="M123.517 137.584L130.036 137.241L130.379 143.76L123.86 144.103L123.517 137.584Z" fill="white"/>
<path d="M137.79 137.516L137.516 143.554L143.554 143.829L143.829 137.79L137.79 137.516Z" fill="white"/>
<path d="M144.652 137.516L144.378 143.554L150.417 143.829L150.691 137.79L144.652 137.516Z" fill="white"/>
<path d="M151.515 137.516L151.24 143.554L157.279 143.829L157.553 137.79L151.515 137.516Z" fill="white"/>
<path d="M158.377 137.516L158.102 143.554L164.141 143.829L164.415 137.79L158.377 137.516Z" fill="white"/>
<path d="M165.239 137.516L164.964 143.554L171.003 143.829L171.277 137.79L165.239 137.516Z" fill="white"/>
<path d="M178.757 138.957L183.56 137.584L184.933 142.388L180.129 143.76L178.757 138.957Z" fill="white"/>
<path d="M185.825 137.516L185.55 143.554L191.589 143.829L191.863 137.79L185.825 137.516Z" fill="white"/>
<path d="M193.167 137.584L192.481 143.074L197.971 143.76L198.657 138.271L193.167 137.584Z" fill="white"/>
<path d="M55.2397 145.819L60.0431 144.447L61.4155 149.25L56.6121 150.622L55.2397 145.819Z" fill="white"/>
<path d="M63.2683 144.103L61.7586 149.456L67.1111 150.965L68.6207 145.613L63.2683 144.103Z" fill="white"/>
<path d="M89.2069 144.446L95.7259 144.103L96.069 150.622L89.55 150.965L89.2069 144.446Z" fill="white"/>
<path d="M110.342 144.378L110.068 150.417L116.106 150.691L116.381 144.652L110.342 144.378Z" fill="white"/>
<path d="M117.204 144.378L116.93 150.417L122.968 150.691L123.243 144.652L117.204 144.378Z" fill="white"/>
<path d="M123.517 145.27L129.213 144.103L130.379 149.799L124.684 150.965L123.517 145.27Z" fill="white"/>
<path d="M137.79 144.378L137.516 150.417L143.554 150.691L143.829 144.652L137.79 144.378Z" fill="white"/>
<path d="M165.239 144.378L164.964 150.417L171.003 150.691L171.277 144.652L165.239 144.378Z" fill="white"/>
<path d="M173.061 144.103L171.552 149.456L176.904 150.965L178.414 145.613L173.061 144.103Z" fill="white"/>
<path d="M61.7586 151.652L67.9345 150.965L68.6207 157.141L62.4448 157.828L61.7586 151.652Z" fill="white"/>
<path d="M82.6879 152.681L87.4914 151.309L88.8638 156.112L84.0603 157.484L82.6879 152.681Z" fill="white"/>
<path d="M89.7559 151.24L89.4814 157.279L95.52 157.553L95.7945 151.514L89.7559 151.24Z" fill="white"/>
<path d="M96.6179 151.24L96.3434 157.279L102.382 157.553L102.657 151.514L96.6179 151.24Z" fill="white"/>
<path d="M103.48 151.24L103.206 157.279L109.244 157.553L109.519 151.514L103.48 151.24Z" fill="white"/>
<path d="M110.342 151.24L110.068 157.279L116.106 157.553L116.381 151.514L110.342 151.24Z" fill="white"/>
<path d="M117.204 151.24L116.93 157.279L122.968 157.553L123.243 151.514L117.204 151.24Z" fill="white"/>
<path d="M130.379 151.789L136.418 150.965L137.241 157.004L131.203 157.828L130.379 151.789Z" fill="white"/>
<path d="M137.79 151.24L137.516 157.279L143.554 157.553L143.829 151.514L137.79 151.24Z" fill="white"/>
<path d="M150.966 151.995L156.798 150.965L157.828 156.798L151.995 157.828L150.966 151.995Z" fill="white"/>
<path d="M165.239 151.24L164.964 157.279L171.003 157.553L171.277 151.514L165.239 151.24Z" fill="white"/>
<path d="M172.101 151.24L171.826 157.279L177.865 157.553L178.139 151.514L172.101 151.24Z" fill="white"/>
<path d="M179.443 151.309L178.757 156.798L184.247 157.484L184.933 151.995L179.443 151.309Z" fill="white"/>
<path d="M68.6207 158.171L75.1396 157.828L75.4827 164.346L68.9638 164.69L68.6207 158.171Z" fill="white"/>
<path d="M89.7559 158.102L89.4814 164.141L95.52 164.415L95.7945 158.377L89.7559 158.102Z" fill="white"/>
<path d="M117.204 158.102L116.93 164.141L122.968 164.415L123.243 158.377L117.204 158.102Z" fill="white"/>
<path d="M124.066 158.102L123.792 164.141L129.83 164.415L130.105 158.377L124.066 158.102Z" fill="white"/>
<path d="M130.928 158.102L130.654 164.141L136.692 164.415L136.967 158.377L130.928 158.102Z" fill="white"/>
<path d="M137.79 158.102L137.516 164.141L143.554 164.415L143.829 158.377L137.79 158.102Z" fill="white"/>
<path d="M165.239 158.102L164.964 164.141L171.003 164.415L171.277 158.377L165.239 158.102Z" fill="white"/>
<path d="M185.276 158.651L191.314 157.828L192.138 163.866L186.099 164.69L185.276 158.651Z" fill="white"/>
<path d="M193.167 158.171L192.481 163.66L197.971 164.347L198.657 158.857L193.167 158.171Z" fill="white"/>
<path d="M61.7586 165.513L67.7973 164.69L68.6207 170.728L62.5821 171.552L61.7586 165.513Z" fill="white"/>
<path d="M69.1697 164.964L68.8952 171.003L74.9338 171.277L75.2083 165.239L69.1697 164.964Z" fill="white"/>
<path d="M82.6879 166.405L87.4914 165.033L88.8638 169.836L84.0603 171.209L82.6879 166.405Z" fill="white"/>
<path d="M89.2069 165.856L94.9024 164.69L96.069 170.385L90.3735 171.552L89.2069 165.856Z" fill="white"/>
<path d="M103.274 166.405L108.078 165.033L109.45 169.836L104.647 171.209L103.274 166.405Z" fill="white"/>
<path d="M110.342 164.964L110.068 171.003L116.106 171.277L116.381 165.239L110.342 164.964Z" fill="white"/>
<path d="M116.655 165.856L122.351 164.69L123.517 170.385L117.822 171.552L116.655 165.856Z" fill="white"/>
<path d="M131.271 164.69L130.379 170.66L136.349 171.552L137.241 165.582L131.271 164.69Z" fill="white"/>
<path d="M137.79 164.964L137.516 171.003L143.554 171.277L143.829 165.239L137.79 164.964Z" fill="white"/>
<path d="M144.652 164.964L144.378 171.003L150.417 171.277L150.691 165.239L144.652 164.964Z" fill="white"/>
<path d="M151.515 164.964L151.24 171.003L157.279 171.277L157.553 165.239L151.515 164.964Z" fill="white"/>
<path d="M158.377 164.964L158.102 171.003L164.141 171.277L164.415 165.239L158.377 164.964Z" fill="white"/>
<path d="M165.239 164.964L164.964 171.003L171.003 171.277L171.277 165.239L165.239 164.964Z" fill="white"/>
<path d="M173.061 164.69L171.552 170.042L176.904 171.552L178.414 166.199L173.061 164.69Z" fill="white"/>
<path d="M185.825 164.964L185.55 171.003L191.589 171.277L191.863 165.239L185.825 164.964Z" fill="white"/>
<path d="M62.6507 171.552L61.7586 177.522L67.7286 178.414L68.6207 172.444L62.6507 171.552Z" fill="white"/>
<path d="M69.1697 171.826L68.8952 177.865L74.9338 178.139L75.2083 172.101L69.1697 171.826Z" fill="white"/>
<path d="M76.9924 171.552L75.4827 176.904L80.8351 178.414L82.3448 173.061L76.9924 171.552Z" fill="white"/>
<path d="M109.793 172.238L115.969 171.552L116.655 177.728L110.479 178.414L109.793 172.238Z" fill="white"/>
<path d="M123.517 171.895L130.036 171.552L130.379 178.071L123.86 178.414L123.517 171.895Z" fill="white"/>
<path d="M138.133 171.552L137.241 177.522L143.211 178.414L144.103 172.444L138.133 171.552Z" fill="white"/>
<path d="M144.652 171.826L144.378 177.865L150.417 178.139L150.691 172.101L144.652 171.826Z" fill="white"/>
<path d="M172.101 171.826L171.826 177.865L177.865 178.139L178.139 172.101L172.101 171.826Z" fill="white"/>
<path d="M178.963 171.826L178.688 177.865L184.727 178.139L185.001 172.101L178.963 171.826Z" fill="white"/>
<path d="M185.825 171.826L185.55 177.865L191.589 178.139L191.863 172.101L185.825 171.826Z" fill="white"/>
<path d="M76.3748 178.414L75.4827 184.384L81.4527 185.276L82.3448 179.306L76.3748 178.414Z" fill="white"/>
<path d="M82.8938 178.688L82.6193 184.727L88.6579 185.001L88.9324 178.963L82.8938 178.688Z" fill="white"/>
<path d="M90.2362 178.757L89.55 184.246L95.0396 184.933L95.7258 179.443L90.2362 178.757Z" fill="white"/>
<path d="M124.409 178.414L123.517 184.384L129.487 185.276L130.379 179.306L124.409 178.414Z" fill="white"/>
<path d="M131.409 178.757L130.722 184.246L136.212 184.933L136.898 179.443L131.409 178.757Z" fill="white"/>
<path d="M144.652 178.688L144.378 184.727L150.417 185.001L150.691 178.963L144.652 178.688Z" fill="white"/>
<path d="M151.515 178.688L151.24 184.727L157.279 185.001L157.553 178.963L151.515 178.688Z" fill="white"/>
<path d="M158.377 178.688L158.102 184.727L164.141 185.001L164.415 178.963L158.377 178.688Z" fill="white"/>
<path d="M165.239 178.688L164.964 184.727L171.003 185.001L171.277 178.963L165.239 178.688Z" fill="white"/>
<path d="M172.101 178.688L171.826 184.727L177.865 185.001L178.139 178.963L172.101 178.688Z" fill="white"/>
<path d="M178.963 178.688L178.688 184.727L184.727 185.001L185.001 178.963L178.963 178.688Z" fill="white"/>
<path d="M185.276 179.58L190.971 178.414L192.138 184.109L186.442 185.276L185.276 179.58Z" fill="white"/>
<path d="M61.7586 185.619L68.2776 185.276L68.6207 191.795L62.1017 192.138L61.7586 185.619Z" fill="white"/>
<path d="M82.3448 185.962L88.5207 185.276L89.2069 191.452L83.031 192.138L82.3448 185.962Z" fill="white"/>
<path d="M96.069 186.099L102.108 185.276L102.931 191.314L96.8924 192.138L96.069 186.099Z" fill="white"/>
<path d="M103.96 185.619L103.274 191.109L108.764 191.795L109.45 186.305L103.96 185.619Z" fill="white"/>
<path d="M144.103 185.962L150.279 185.276L150.965 191.452L144.79 192.138L144.103 185.962Z" fill="white"/>
<path d="M165.582 185.276L164.69 191.246L170.66 192.138L171.552 186.168L165.582 185.276Z" fill="white"/>
<path d="M172.101 185.55L171.826 191.589L177.865 191.863L178.139 185.825L172.101 185.55Z" fill="white"/>
<path d="M178.963 185.55L178.688 191.589L184.727 191.863L185.001 185.825L178.963 185.55Z" fill="white"/>
<path d="M192.138 186.305L197.971 185.276L199 191.109L193.167 192.138L192.138 186.305Z" fill="white"/>
<path d="M55.2397 193.853L60.0431 192.481L61.4155 197.285L56.6121 198.657L55.2397 193.853Z" fill="white"/>
<path d="M62.3076 192.412L62.0331 198.451L68.0717 198.725L68.3462 192.687L62.3076 192.412Z" fill="white"/>
<path d="M69.1697 192.412L68.8952 198.451L74.9338 198.725L75.2083 192.687L69.1697 192.412Z" fill="white"/>
<path d="M76.5121 192.481L75.8259 197.971L81.3155 198.657L82.0017 193.167L76.5121 192.481Z" fill="white"/>
<path d="M89.55 193.853L94.3534 192.481L95.7258 197.285L90.9224 198.657L89.55 193.853Z" fill="white"/>
<path d="M96.069 193.304L101.764 192.138L102.931 197.833L97.2355 199L96.069 193.304Z" fill="white"/>
<path d="M109.793 193.167L115.626 192.138L116.655 197.971L110.822 199L109.793 193.167Z" fill="white"/>
<path d="M123.86 193.853L128.664 192.481L130.036 197.285L125.233 198.657L123.86 193.853Z" fill="white"/>
<path d="M131.409 192.481L130.722 197.971L136.212 198.657L136.898 193.167L131.409 192.481Z" fill="white"/>
<path d="M151.309 193.853L156.112 192.481L157.484 197.285L152.681 198.657L151.309 193.853Z" fill="white"/>
<path d="M158.857 192.481L158.171 197.971L163.66 198.657L164.347 193.167L158.857 192.481Z" fill="white"/>
<path d="M178.414 192.824L184.59 192.138L185.276 198.314L179.1 199L178.414 192.824Z" fill="white"/>
<path d="M0.892069 0L0 5.97L5.97 6.86207L6.86207 0.892069L0.892069 0Z" fill="#03FE33"/>
<path d="M6.86206 1.16655L12.5576 0L13.7241 5.69552L8.02861 6.86207L6.86206 1.16655Z" fill="#03FE33"/>
<path d="M13.7242 0.686207L19.9 0L20.5862 6.17586L13.7242 6.86207V0.686207Z" fill="#03FE33"/>
<path d="M20.5862 1.02931L26.419 0L27.4483 5.83276L21.6155 6.86207L20.5862 1.02931Z" fill="#03FE33"/>
<path d="M27.4483 0.823448L33.4869 0L34.3103 6.03862L28.2717 6.86207L27.4483 0.823448Z" fill="#03FE33"/>
<path d="M35.82 0L34.3104 5.35241L39.6628 6.86207L41.1724 1.50966L35.82 0Z" fill="#03FE33"/>
<path d="M42.2017 0.343018L41.5155 5.83267L47.0052 6.51888L47.6914 1.02922L42.2017 0.343018Z" fill="#03FE33"/>
<path d="M0 7.89137L5.83276 6.86206L6.86207 12.6948L1.02931 13.7241L0 7.89137Z" fill="#03FE33"/>
<path d="M41.1724 7.68551L47.211 6.86206L48.0345 12.9007L41.9959 13.7241L41.1724 7.68551Z" fill="#03FE33"/>
<path d="M1.50966 13.7241L0 19.0765L5.35241 20.5862L6.86207 15.2338L1.50966 13.7241Z" fill="#03FE33"/>
<path d="M42.2017 14.0673L41.5155 19.5569L47.0052 20.2431L47.6914 14.7535L42.2017 14.0673Z" fill="#03FE33"/>
<path d="M0 21.2724L6.17586 20.5862L6.86207 26.762L0 27.4483V21.2724Z" fill="#03FE33"/>
<path d="M41.1724 21.6155L47.0052 20.5862L48.0345 26.4189L42.2017 27.4483L41.1724 21.6155Z" fill="#03FE33"/>
<path d="M0 28.2718L6.03862 27.4484L6.86207 33.487L0.823448 34.3104L0 28.2718Z" fill="#03FE33"/>
<path d="M42.6821 27.4484L41.1724 32.8008L46.5248 34.3104L48.0345 28.958L42.6821 27.4484Z" fill="#03FE33"/>
<path d="M0 35.3396L5.83276 34.3103L6.86207 40.1431L1.02931 41.1724L0 35.3396Z" fill="#03FE33"/>
<path d="M41.1724 35.1338L47.211 34.3103L48.0345 40.3489L41.9959 41.1724L41.1724 35.1338Z" fill="#03FE33"/>
<path d="M0.892069 41.1724L0 47.1424L5.97 48.0344L6.86207 42.0644L0.892069 41.1724Z" fill="#03FE33"/>
<path d="M6.86206 42.3389L12.5576 41.1724L13.7241 46.8679L8.02861 48.0344L6.86206 42.3389Z" fill="#03FE33"/>
<path d="M13.7242 41.8586L19.9 41.1724L20.5862 47.3482L13.7242 48.0344V41.8586Z" fill="#03FE33"/>
<path d="M20.5862 42.2017L26.419 41.1724L27.4483 47.0051L21.6155 48.0344L20.5862 42.2017Z" fill="#03FE33"/>
<path d="M27.4483 41.9958L33.4869 41.1724L34.3103 47.211L28.2717 48.0344L27.4483 41.9958Z" fill="#03FE33"/>
<path d="M35.82 41.1724L34.3104 46.5248L39.6628 48.0344L41.1724 42.682L35.82 41.1724Z" fill="#03FE33"/>
<path d="M42.2017 41.5155L41.5155 47.0052L47.0052 47.6914L47.6914 42.2017L42.2017 41.5155Z" fill="#03FE33"/>
<path d="M198.108 0L199 5.97L193.03 6.86207L192.138 0.892069L198.108 0Z" fill="#03FE33"/>
<path d="M192.138 1.16655L186.442 0L185.276 5.69552L190.971 6.86207L192.138 1.16655Z" fill="#03FE33"/>
<path d="M185.276 0.686207L179.1 0L178.414 6.17586L185.276 6.86207V0.686207Z" fill="#03FE33"/>
<path d="M178.414 1.02931L172.581 0L171.552 5.83276L177.385 6.86207L178.414 1.02931Z" fill="#03FE33"/>
<path d="M171.552 0.823448L165.513 0L164.69 6.03862L170.728 6.86207L171.552 0.823448Z" fill="#03FE33"/>
<path d="M163.18 0L164.69 5.35241L159.337 6.86207L157.828 1.50966L163.18 0Z" fill="#03FE33"/>
<path d="M156.798 0.343018L157.484 5.83267L151.995 6.51888L151.309 1.02922L156.798 0.343018Z" fill="#03FE33"/>
<path d="M199 7.89137L193.167 6.86206L192.138 12.6948L197.971 13.7241L199 7.89137Z" fill="#03FE33"/>
<path d="M157.828 7.68551L151.789 6.86206L150.966 12.9007L157.004 13.7241L157.828 7.68551Z" fill="#03FE33"/>
<path d="M197.49 13.7241L199 19.0765L193.648 20.5862L192.138 15.2338L197.49 13.7241Z" fill="#03FE33"/>
<path d="M156.798 14.0673L157.484 19.5569L151.995 20.2431L151.309 14.7535L156.798 14.0673Z" fill="#03FE33"/>
<path d="M199 21.2724L192.824 20.5862L192.138 26.762L199 27.4483V21.2724Z" fill="#03FE33"/>
<path d="M157.828 21.6155L151.995 20.5862L150.966 26.4189L156.798 27.4483L157.828 21.6155Z" fill="#03FE33"/>
<path d="M199 28.2718L192.961 27.4484L192.138 33.487L198.177 34.3104L199 28.2718Z" fill="#03FE33"/>
<path d="M156.318 27.4484L157.828 32.8008L152.475 34.3104L150.966 28.958L156.318 27.4484Z" fill="#03FE33"/>
<path d="M199 35.3396L193.167 34.3103L192.138 40.1431L197.971 41.1724L199 35.3396Z" fill="#03FE33"/>
<path d="M157.828 35.1338L151.789 34.3103L150.966 40.3489L157.004 41.1724L157.828 35.1338Z" fill="#03FE33"/>
<path d="M198.108 41.1724L199 47.1424L193.03 48.0344L192.138 42.0644L198.108 41.1724Z" fill="#03FE33"/>
<path d="M192.138 42.3389L186.442 41.1724L185.276 46.8679L190.971 48.0344L192.138 42.3389Z" fill="#03FE33"/>
<path d="M185.276 41.8586L179.1 41.1724L178.414 47.3482L185.276 48.0344V41.8586Z" fill="#03FE33"/>
<path d="M178.414 42.2017L172.581 41.1724L171.552 47.0051L177.385 48.0344L178.414 42.2017Z" fill="#03FE33"/>
<path d="M171.552 41.9958L165.513 41.1724L164.69 47.211L170.728 48.0344L171.552 41.9958Z" fill="#03FE33"/>
<path d="M163.18 41.1724L164.69 46.5248L159.337 48.0344L157.828 42.682L163.18 41.1724Z" fill="#03FE33"/>
<path d="M156.798 41.5155L157.484 47.0052L151.995 47.6914L151.309 42.2017L156.798 41.5155Z" fill="#03FE33"/>
<path d="M0.892069 199L0 193.03L5.97 192.138L6.86207 198.108L0.892069 199Z" fill="#03FE33"/>
<path d="M6.86206 197.833L12.5576 199L13.7241 193.304L8.02861 192.138L6.86206 197.833Z" fill="#03FE33"/>
<path d="M13.7242 198.314L19.9 199L20.5862 192.824L13.7242 192.138V198.314Z" fill="#03FE33"/>
<path d="M20.5862 197.971L26.419 199L27.4483 193.167L21.6155 192.138L20.5862 197.971Z" fill="#03FE33"/>
<path d="M27.4483 198.177L33.4869 199L34.3103 192.961L28.2717 192.138L27.4483 198.177Z" fill="#03FE33"/>
<path d="M35.82 199L34.3104 193.648L39.6628 192.138L41.1724 197.49L35.82 199Z" fill="#03FE33"/>
<path d="M42.2017 198.657L41.5155 193.167L47.0052 192.481L47.6914 197.971L42.2017 198.657Z" fill="#03FE33"/>
<path d="M0 191.109L5.83276 192.138L6.86207 186.305L1.02931 185.276L0 191.109Z" fill="#03FE33"/>
<path d="M41.1724 191.314L47.211 192.138L48.0345 186.099L41.9959 185.276L41.1724 191.314Z" fill="#03FE33"/>
<path d="M1.50966 185.276L0 179.923L5.35241 178.414L6.86207 183.766L1.50966 185.276Z" fill="#03FE33"/>
<path d="M42.2017 184.933L41.5155 179.443L47.0052 178.757L47.6914 184.247L42.2017 184.933Z" fill="#03FE33"/>
<path d="M0 177.728L6.17586 178.414L6.86207 172.238L0 171.552V177.728Z" fill="#03FE33"/>
<path d="M41.1724 177.385L47.0052 178.414L48.0345 172.581L42.2017 171.552L41.1724 177.385Z" fill="#03FE33"/>
<path d="M0 170.728L6.03862 171.552L6.86207 165.513L0.823448 164.69L0 170.728Z" fill="#03FE33"/>
<path d="M42.6821 171.552L41.1724 166.199L46.5248 164.69L48.0345 170.042L42.6821 171.552Z" fill="#03FE33"/>
<path d="M0 163.66L5.83276 164.69L6.86207 158.857L1.02931 157.828L0 163.66Z" fill="#03FE33"/>
<path d="M41.1724 163.866L47.211 164.69L48.0345 158.651L41.9959 157.828L41.1724 163.866Z" fill="#03FE33"/>
<path d="M0.892069 157.828L0 151.858L5.97 150.965L6.86207 156.935L0.892069 157.828Z" fill="#03FE33"/>
<path d="M6.86206 156.661L12.5576 157.828L13.7241 152.132L8.02861 150.965L6.86206 156.661Z" fill="#03FE33"/>
<path d="M13.7242 157.141L19.9 157.828L20.5862 151.652L13.7242 150.965V157.141Z" fill="#03FE33"/>
<path d="M20.5862 156.798L26.419 157.828L27.4483 151.995L21.6155 150.965L20.5862 156.798Z" fill="#03FE33"/>
<path d="M27.4483 157.004L33.4869 157.828L34.3103 151.789L28.2717 150.965L27.4483 157.004Z" fill="#03FE33"/>
<path d="M35.82 157.828L34.3104 152.475L39.6628 150.965L41.1724 156.318L35.82 157.828Z" fill="#03FE33"/>
<path d="M42.2017 157.484L41.5155 151.995L47.0052 151.309L47.6914 156.798L42.2017 157.484Z" fill="#03FE33"/>
<path d="M14.6162 13.7241L13.7242 19.6941L19.6942 20.5862L20.5862 14.6162L14.6162 13.7241Z" fill="#03FE33"/>
<path d="M20.5862 14.8907L26.2817 13.7241L27.4483 19.4196L21.7527 20.5862L20.5862 14.8907Z" fill="#03FE33"/>
<path d="M27.4483 14.4103L33.6241 13.7241L34.3103 19.9L27.4483 20.5862V14.4103Z" fill="#03FE33"/>
<path d="M14.0672 22.3017L18.8707 20.9293L27.1052 25.7328L15.4396 27.1052L14.0672 22.3017Z" fill="#03FE33"/>
<path d="M18.1844 18.0472L17.9786 29.6441L29.3696 30.0559L29.9186 18.3903L18.1844 18.0472Z" fill="#03FE33"/>
<path d="M28.4776 20.9293L27.7914 26.419L33.281 27.1052L33.9672 21.6155L28.4776 20.9293Z" fill="#03FE33"/>
<path d="M13.7241 28.4776L19.5569 27.4482L20.5862 33.281L14.7534 34.3103L13.7241 28.4776Z" fill="#03FE33"/>
<path d="M20.5862 28.2717L26.6248 27.4482L27.4483 33.4869L21.4096 34.3103L20.5862 28.2717Z" fill="#03FE33"/>
<path d="M28.9579 27.4482L27.4483 32.8007L32.8007 34.3103L34.3103 28.9579L28.9579 27.4482Z" fill="#03FE33"/>
<path d="M184.384 13.7241L185.276 19.6941L179.306 20.5862L178.414 14.6162L184.384 13.7241Z" fill="#03FE33"/>
<path d="M178.414 14.8907L172.718 13.7241L171.552 19.4196L177.247 20.5862L178.414 14.8907Z" fill="#03FE33"/>
<path d="M171.552 14.4103L165.376 13.7241L164.69 19.9L171.552 20.5862V14.4103Z" fill="#03FE33"/>
<path d="M184.933 22.3017L180.129 20.9293L171.895 25.7328L183.56 27.1052L184.933 22.3017Z" fill="#03FE33"/>
<path d="M180.816 18.0472L181.021 29.6441L169.63 30.0559L169.081 18.3903L180.816 18.0472Z" fill="#03FE33"/>
<path d="M170.522 20.9293L171.209 26.419L165.719 27.1052L165.033 21.6155L170.522 20.9293Z" fill="#03FE33"/>
<path d="M185.276 28.4776L179.443 27.4482L178.414 33.281L184.247 34.3103L185.276 28.4776Z" fill="#03FE33"/>
<path d="M178.414 28.2717L172.375 27.4482L171.552 33.4869L177.59 34.3103L178.414 28.2717Z" fill="#03FE33"/>
<path d="M170.042 27.4482L171.552 32.8007L166.199 34.3103L164.69 28.9579L170.042 27.4482Z" fill="#03FE33"/>
<path d="M14.6162 185.276L13.7241 179.306L19.6941 178.414L20.5862 184.384L14.6162 185.276Z" fill="#03FE33"/>
<path d="M20.5862 184.109L26.2817 185.276L27.4482 179.58L21.7527 178.414L20.5862 184.109Z" fill="#03FE33"/>
<path d="M27.4482 184.59L33.6241 185.276L34.3103 179.1L27.4482 178.414V184.59Z" fill="#03FE33"/>
<path d="M14.0672 176.698L18.8706 178.071L27.1051 173.267L15.4396 171.895L14.0672 176.698Z" fill="#03FE33"/>
<path d="M18.1844 180.953L17.9785 169.356L29.3696 168.944L29.9185 180.61L18.1844 180.953Z" fill="#03FE33"/>
<path d="M28.4775 178.071L27.7913 172.581L33.281 171.895L33.9672 177.384L28.4775 178.071Z" fill="#03FE33"/>
<path d="M13.7241 170.522L19.5568 171.552L20.5862 165.719L14.7534 164.69L13.7241 170.522Z" fill="#03FE33"/>
<path d="M20.5862 170.728L26.6248 171.552L27.4482 165.513L21.4096 164.69L20.5862 170.728Z" fill="#03FE33"/>
<path d="M28.9579 171.552L27.4482 166.199L32.8007 164.69L34.3103 170.042L28.9579 171.552Z" fill="#03FE33"/>
</svg>
